<svg id="Capa_1" data-name="Capa 1" xmlns="http://www.w3.org/2000/svg" viewBox="0 0 1191.55 842.89"><defs><style>.cls-1{fill:#1d1d1b;stroke:#1d1d1b;stroke-miterlimit:10;}.cls-2{fill:#fff;}</style></defs><rect class="cls-1" x="0.5" y="0.5" width="1190.55" height="841.89"/><polyline class="cls-2" points="505.58 126.08 505.58 167.29 543.2 148.35 543.2 273.54 584.6 256.7 584.6 85.93 505.58 126.08"/><polygon class="cls-2" points="600.62 85.98 739.81 165.03 739.81 240.3 697.1 216.43 697.28 185.29 644.36 155.23 644.36 204.58 739.81 260.46 739.81 339.02 595.22 401.83 523.4 362.05 568.4 341.35 596.12 356.65 697.16 314.45 697.16 281.29 600.62 225.61 600.62 85.98"/><polygon class="cls-2" points="446.88 228.97 490.7 206.7 490.57 291.94 493.34 295.45 446.88 316.9 446.88 228.97"/><polygon class="cls-2" points="448.16 333.07 622.58 256.93 665.24 281.59 492.26 357.73 448.16 333.07"/><path class="cls-2" d="M301,590.63A44.72,44.72,0,0,1,283.43,577l16.2-19.44q10.26,13.88,23.4,13.86,17.82,0,17.82-20.88V490.64H296.57v-23.4h73.26V549q0,23.22-11.52,34.83T324.47,595.4A57.08,57.08,0,0,1,301,590.63Z" transform="translate(0.5 0.5)"/><path class="cls-2" d="M496.19,569.84v23.4H398.63v-126h95.22v23.4H427.61V518h58.5v22.68h-58.5v29.16Z" transform="translate(0.5 0.5)"/><path class="cls-2" d="M634.07,593.24l-.18-75.6-37.08,62.28H583.67l-36.9-60.66v74H519.41v-126h24.12l47.16,78.3,46.44-78.3h23.94l.36,126Z" transform="translate(0.5 0.5)"/><path class="cls-2" d="M685.73,531.32h50.94v22.5H685.73Z" transform="translate(0.5 0.5)"/><path class="cls-2" d="M770.77,591.35q-13.95-4.05-22.41-10.53l9.9-22a66.92,66.92,0,0,0,19.26,9.54,72,72,0,0,0,22.32,3.6q12.42,0,18.36-3.69t5.94-9.81a9.39,9.39,0,0,0-3.51-7.47,26.79,26.79,0,0,0-9-4.77q-5.49-1.78-14.85-4a201.31,201.31,0,0,1-23.58-6.84,38.22,38.22,0,0,1-15.75-11q-6.57-7.56-6.57-20.16a35.09,35.09,0,0,1,5.94-19.89q5.94-8.91,17.91-14.13T804,465.08A97.34,97.34,0,0,1,827.56,468a69.94,69.94,0,0,1,20.16,8.28l-9,22.14q-17.46-9.88-34.92-9.9-12.24,0-18.09,4c-3.9,2.65-5.85,6.12-5.85,10.44s2.25,7.54,6.75,9.63,11.37,4.18,20.61,6.21a209.41,209.41,0,0,1,23.58,6.84,39.25,39.25,0,0,1,15.75,10.8q6.57,7.39,6.57,20a34.41,34.41,0,0,1-6,19.71q-6,8.91-18.09,14.13t-29.34,5.22A103.09,103.09,0,0,1,770.77,591.35Z" transform="translate(0.5 0.5)"/><path class="cls-2" d="M873.1,467.24h29.16v126H873.1Z" transform="translate(0.5 0.5)"/><path class="cls-2" d="M284.54,680a15.81,15.81,0,0,1-5.49-2.79l1.92-3.36a16.17,16.17,0,0,0,5,2.55,19.78,19.78,0,0,0,6.24,1q4.32,0,6.39-1.35a4.3,4.3,0,0,0,2.07-3.81,3.43,3.43,0,0,0-1.14-2.73,7.57,7.57,0,0,0-2.88-1.5,41.08,41.08,0,0,0-4.62-1,53,53,0,0,1-6.18-1.47,9.08,9.08,0,0,1-4-2.55,7.09,7.09,0,0,1-1.65-5,7.8,7.8,0,0,1,3.3-6.48q3.3-2.52,9.18-2.52a23.83,23.83,0,0,1,6.12.81,16.84,16.84,0,0,1,5,2.13L302,655.39a15.93,15.93,0,0,0-9.3-2.7,10.78,10.78,0,0,0-6.15,1.44,4.41,4.41,0,0,0-2.07,3.78,3.73,3.73,0,0,0,1.17,2.88,7.2,7.2,0,0,0,2.91,1.59,47,47,0,0,0,4.8,1,55.22,55.22,0,0,1,6.06,1.44,8.9,8.9,0,0,1,3.9,2.46,6.77,6.77,0,0,1,1.62,4.8,7.63,7.63,0,0,1-3.45,6.57q-3.45,2.43-9.57,2.43A24.23,24.23,0,0,1,284.54,680Z" transform="translate(0.5 0.5)"/><path class="cls-2" d="M317.45,679.06a15.1,15.1,0,0,1-5.76-5.73,17.37,17.37,0,0,1,0-16.56,14.88,14.88,0,0,1,5.76-5.7,17.58,17.58,0,0,1,16.44,0,14.67,14.67,0,0,1,5.73,5.7,17.6,17.6,0,0,1,0,16.56,14.88,14.88,0,0,1-5.73,5.73,17.36,17.36,0,0,1-16.44,0Zm14.25-3.24a10.67,10.67,0,0,0,4.17-4.35,14.49,14.49,0,0,0,0-12.84,10.67,10.67,0,0,0-4.17-4.35,12.65,12.65,0,0,0-12.06,0,10.87,10.87,0,0,0-4.2,4.35,14.23,14.23,0,0,0,0,12.84,10.87,10.87,0,0,0,4.2,4.35,12.65,12.65,0,0,0,12.06,0Z" transform="translate(0.5 0.5)"/><path class="cls-2" d="M350.39,636.31h4.26v44.52h-4.26Z" transform="translate(0.5 0.5)"/><path class="cls-2" d="M395,649.27v31.56h-4.08v-5.76a11.68,11.68,0,0,1-4.62,4.47,13.9,13.9,0,0,1-6.72,1.59q-6.18,0-9.75-3.45t-3.57-10.11v-18.3h4.26v17.88q0,5,2.46,7.56t7,2.58a10.33,10.33,0,0,0,7.86-3q2.88-3,2.88-8.43V649.27Z" transform="translate(0.5 0.5)"/><path class="cls-2" d="M411.62,679.09a14.77,14.77,0,0,1-5.79-5.73,16.5,16.5,0,0,1-2.1-8.31,16.34,16.34,0,0,1,2.1-8.28,14.82,14.82,0,0,1,5.79-5.7,17,17,0,0,1,8.37-2,16.21,16.21,0,0,1,7.29,1.59,12.11,12.11,0,0,1,5.07,4.65l-3.18,2.16a10,10,0,0,0-4-3.51,11.75,11.75,0,0,0-5.22-1.17,12.36,12.36,0,0,0-6.15,1.53,10.75,10.75,0,0,0-4.26,4.35,14.3,14.3,0,0,0,0,12.87,10.8,10.8,0,0,0,4.26,4.32,12.36,12.36,0,0,0,6.15,1.53,12,12,0,0,0,5.22-1.14,9.72,9.72,0,0,0,4-3.48l3.18,2.16a12.07,12.07,0,0,1-5.1,4.65,16.26,16.26,0,0,1-7.26,1.59A17,17,0,0,1,411.62,679.09Z" transform="translate(0.5 0.5)"/><path class="cls-2" d="M440.63,641.47a3,3,0,0,1-.9-2.16,2.88,2.88,0,0,1,.9-2.1,3,3,0,0,1,2.22-.9,3.07,3.07,0,0,1,2.22.87,2.78,2.78,0,0,1,.9,2.07,3.14,3.14,0,0,1-5.34,2.22Zm.06,7.8H445v31.56h-4.26Z" transform="translate(0.5 0.5)"/><path class="cls-2" d="M461.51,679.06a15.1,15.1,0,0,1-5.76-5.73,17.37,17.37,0,0,1,0-16.56,14.88,14.88,0,0,1,5.76-5.7,17.58,17.58,0,0,1,16.44,0,14.67,14.67,0,0,1,5.73,5.7,17.6,17.6,0,0,1,0,16.56,14.88,14.88,0,0,1-5.73,5.73,17.36,17.36,0,0,1-16.44,0Zm14.25-3.24a10.67,10.67,0,0,0,4.17-4.35,14.49,14.49,0,0,0,0-12.84,10.67,10.67,0,0,0-4.17-4.35,12.65,12.65,0,0,0-12.06,0,10.87,10.87,0,0,0-4.2,4.35,14.23,14.23,0,0,0,0,12.84,10.87,10.87,0,0,0,4.2,4.35,12.65,12.65,0,0,0,12.06,0Z" transform="translate(0.5 0.5)"/><path class="cls-2" d="M520,652.48q3.51,3.45,3.51,10v18.3h-4.26V663q0-4.92-2.46-7.5t-7-2.58a10.78,10.78,0,0,0-8.07,3q-3,3-3,8.37v16.56h-4.26V649.27h4.08v5.82a11.85,11.85,0,0,1,4.83-4.47,15.46,15.46,0,0,1,7.17-1.59Q516.47,649,520,652.48Z" transform="translate(0.5 0.5)"/><path class="cls-2" d="M562.67,666.37h-26.4a11.28,11.28,0,0,0,3.78,8,12.55,12.55,0,0,0,8.64,3,13.61,13.61,0,0,0,5.4-1.05,11.8,11.8,0,0,0,4.26-3.09l2.4,2.76a13.51,13.51,0,0,1-5.25,3.84,17.76,17.76,0,0,1-6.93,1.32,17.52,17.52,0,0,1-8.61-2.07,14.92,14.92,0,0,1-5.85-5.73,16.34,16.34,0,0,1-2.1-8.28,16.91,16.91,0,0,1,2-8.28,14.55,14.55,0,0,1,5.52-5.7,15.41,15.41,0,0,1,7.89-2,15.25,15.25,0,0,1,7.86,2,14.46,14.46,0,0,1,5.46,5.67,17.07,17.07,0,0,1,2,8.31ZM539.78,655.6a11.43,11.43,0,0,0-3.51,7.59h22.38a11.43,11.43,0,0,0-3.51-7.59,11.59,11.59,0,0,0-15.36,0Z" transform="translate(0.5 0.5)"/><path class="cls-2" d="M572.54,680a15.81,15.81,0,0,1-5.49-2.79l1.92-3.36a16.17,16.17,0,0,0,5,2.55,19.78,19.78,0,0,0,6.24,1q4.32,0,6.39-1.35a4.3,4.3,0,0,0,2.07-3.81,3.43,3.43,0,0,0-1.14-2.73,7.57,7.57,0,0,0-2.88-1.5,41.08,41.08,0,0,0-4.62-1,53,53,0,0,1-6.18-1.47,9.08,9.08,0,0,1-4-2.55,7.09,7.09,0,0,1-1.65-5,7.8,7.8,0,0,1,3.3-6.48q3.3-2.52,9.18-2.52a23.83,23.83,0,0,1,6.12.81,16.84,16.84,0,0,1,5,2.13L590,655.39a15.93,15.93,0,0,0-9.3-2.7,10.78,10.78,0,0,0-6.15,1.44,4.41,4.41,0,0,0-2.07,3.78,3.73,3.73,0,0,0,1.17,2.88,7.2,7.2,0,0,0,2.91,1.59,47,47,0,0,0,4.8,1,55.22,55.22,0,0,1,6.06,1.44,8.9,8.9,0,0,1,3.9,2.46,6.77,6.77,0,0,1,1.62,4.8,7.63,7.63,0,0,1-3.45,6.57q-3.45,2.43-9.57,2.43A24.23,24.23,0,0,1,572.54,680Z" transform="translate(0.5 0.5)"/><path class="cls-2" d="M616.43,641.47a3,3,0,0,1-.9-2.16,2.88,2.88,0,0,1,.9-2.1,3,3,0,0,1,2.22-.9,3.07,3.07,0,0,1,2.22.87,2.78,2.78,0,0,1,.9,2.07,3.14,3.14,0,0,1-5.34,2.22Zm.06,7.8h4.26v31.56h-4.26Z" transform="translate(0.5 0.5)"/><path class="cls-2" d="M658.16,652.48q3.51,3.45,3.51,10v18.3h-4.26V663q0-4.92-2.46-7.5t-7-2.58a10.78,10.78,0,0,0-8.07,3q-3,3-3,8.37v16.56h-4.26V649.27h4.08v5.82a11.85,11.85,0,0,1,4.83-4.47,15.46,15.46,0,0,1,7.17-1.59Q654.65,649,658.16,652.48Z" transform="translate(0.5 0.5)"/><path class="cls-2" d="M689.87,678.91a8.07,8.07,0,0,1-3,1.65,12,12,0,0,1-3.69.57q-4.44,0-6.84-2.4A9.17,9.17,0,0,1,674,672V652.87h-5.64v-3.6H674v-6.9h4.26v6.9h9.6v3.6h-9.6v18.84a6,6,0,0,0,1.41,4.29,5.35,5.35,0,0,0,4.05,1.47,7.84,7.84,0,0,0,2.55-.42,6.34,6.34,0,0,0,2.13-1.2Z" transform="translate(0.5 0.5)"/><path class="cls-2" d="M724,666.37h-26.4a11.28,11.28,0,0,0,3.78,8,12.55,12.55,0,0,0,8.64,3,13.61,13.61,0,0,0,5.4-1.05,11.8,11.8,0,0,0,4.26-3.09L722,676a13.51,13.51,0,0,1-5.25,3.84,17.76,17.76,0,0,1-6.93,1.32,17.49,17.49,0,0,1-8.61-2.07,14.92,14.92,0,0,1-5.85-5.73,16.24,16.24,0,0,1-2.1-8.28,16.91,16.91,0,0,1,2-8.28,14.55,14.55,0,0,1,5.52-5.7,15.41,15.41,0,0,1,7.89-2,15.25,15.25,0,0,1,7.86,2,14.46,14.46,0,0,1,5.46,5.67,17.07,17.07,0,0,1,2,8.31ZM701.06,655.6a11.43,11.43,0,0,0-3.51,7.59h22.38a11.43,11.43,0,0,0-3.51-7.59,11.59,11.59,0,0,0-15.36,0Z" transform="translate(0.5 0.5)"/><path class="cls-2" d="M761.93,649.27V677c0,5.36-1.32,9.33-3.93,11.91s-6.57,3.87-11.86,3.87a26.41,26.41,0,0,1-8.3-1.29,17.06,17.06,0,0,1-6.4-3.57l2.16-3.24a16.21,16.21,0,0,0,5.55,3.18A20.76,20.76,0,0,0,746,689q6,0,8.83-2.79t2.82-8.67v-4a12.9,12.9,0,0,1-5.19,4.56,16.12,16.12,0,0,1-7.12,1.56,16.71,16.71,0,0,1-8.06-2,14.33,14.33,0,0,1-5.7-5.46,15.36,15.36,0,0,1-2.08-8,15.2,15.2,0,0,1,2.08-7.92,14.24,14.24,0,0,1,5.67-5.4,16.9,16.9,0,0,1,8.09-1.92,16.05,16.05,0,0,1,7.27,1.62,13.22,13.22,0,0,1,5.22,4.68v-6.06Zm-10,25.11a10.75,10.75,0,0,0,4.29-4.11,11.84,11.84,0,0,0,1.52-6,11.68,11.68,0,0,0-1.52-6,10.86,10.86,0,0,0-4.26-4.08,13.85,13.85,0,0,0-12.36,0,10.34,10.34,0,0,0-4.26,4.08,12.53,12.53,0,0,0,0,12,10.54,10.54,0,0,0,4.26,4.11,12.72,12.72,0,0,0,6.14,1.47A13,13,0,0,0,752,674.38Z" transform="translate(0.5 0.5)"/><path class="cls-2" d="M782.41,650.65a15.19,15.19,0,0,1,7.35-1.62v4.14l-1-.06a10.08,10.08,0,0,0-7.8,3.06q-2.82,3.06-2.82,8.58v16.08h-4.26V649.27h4.08v6.18A10.32,10.32,0,0,1,782.41,650.65Z" transform="translate(0.5 0.5)"/><path class="cls-2" d="M817.9,652.12q3.3,3.09,3.3,9.15v19.56h-4.08v-4.92a9.77,9.77,0,0,1-4.23,3.84,14.8,14.8,0,0,1-6.63,1.38,13,13,0,0,1-8.4-2.52,8.67,8.67,0,0,1-.21-13.14q2.91-2.46,9.27-2.46h10v-1.92a8.09,8.09,0,0,0-2.28-6.21q-2.28-2.13-6.66-2.13a16.93,16.93,0,0,0-5.76,1,14.52,14.52,0,0,0-4.74,2.73l-1.92-3.18a17,17,0,0,1,5.76-3.15,22.42,22.42,0,0,1,7.08-1.11Q814.6,649,817.9,652.12Zm-4.8,24a9.85,9.85,0,0,0,3.84-4.77v-5.16H807q-8.1,0-8.1,5.64a5.16,5.16,0,0,0,2.1,4.35,9.56,9.56,0,0,0,5.88,1.59A11.23,11.23,0,0,0,813.1,676.12Z" transform="translate(0.5 0.5)"/><path class="cls-2" d="M832.78,636.31H837v44.52h-4.26Z" transform="translate(0.5 0.5)"/><path class="cls-2" d="M876.4,666.37H850a11.28,11.28,0,0,0,3.78,8,12.55,12.55,0,0,0,8.64,3,13.61,13.61,0,0,0,5.4-1.05,11.8,11.8,0,0,0,4.26-3.09l2.4,2.76a13.51,13.51,0,0,1-5.25,3.84,17.76,17.76,0,0,1-6.93,1.32,17.52,17.52,0,0,1-8.61-2.07,14.92,14.92,0,0,1-5.85-5.73,16.34,16.34,0,0,1-2.1-8.28,16.91,16.91,0,0,1,2-8.28,14.55,14.55,0,0,1,5.52-5.7,15.41,15.41,0,0,1,7.89-2,15.25,15.25,0,0,1,7.86,2,14.46,14.46,0,0,1,5.46,5.67,17.07,17.07,0,0,1,2,8.31ZM853.51,655.6a11.43,11.43,0,0,0-3.51,7.59h22.38a11.43,11.43,0,0,0-3.51-7.59,11.59,11.59,0,0,0-15.36,0Z" transform="translate(0.5 0.5)"/><path class="cls-2" d="M886.27,680a15.81,15.81,0,0,1-5.49-2.79l1.92-3.36a16.17,16.17,0,0,0,5,2.55,19.78,19.78,0,0,0,6.24,1q4.32,0,6.39-1.35a4.3,4.3,0,0,0,2.07-3.81,3.43,3.43,0,0,0-1.14-2.73,7.57,7.57,0,0,0-2.88-1.5,41.08,41.08,0,0,0-4.62-1,53,53,0,0,1-6.18-1.47,9.08,9.08,0,0,1-4-2.55,7.09,7.09,0,0,1-1.65-5,7.8,7.8,0,0,1,3.3-6.48q3.3-2.52,9.18-2.52a23.83,23.83,0,0,1,6.12.81,16.84,16.84,0,0,1,5,2.13l-1.86,3.42a15.93,15.93,0,0,0-9.3-2.7,10.78,10.78,0,0,0-6.15,1.44,4.41,4.41,0,0,0-2.07,3.78,3.73,3.73,0,0,0,1.17,2.88,7.2,7.2,0,0,0,2.91,1.59,47,47,0,0,0,4.8,1,55.22,55.22,0,0,1,6.06,1.44,8.9,8.9,0,0,1,3.9,2.46,6.77,6.77,0,0,1,1.62,4.8,7.63,7.63,0,0,1-3.45,6.57q-3.45,2.43-9.57,2.43A24.23,24.23,0,0,1,886.27,680Z" transform="translate(0.5 0.5)"/></svg>