<?xml version="1.0" encoding="UTF-8"?> <svg xmlns="http://www.w3.org/2000/svg" xmlns:xlink="http://www.w3.org/1999/xlink" version="1.1" id="Capa_1" x="0px" y="0px" viewBox="0 0 647 129" style="enable-background:new 0 0 647 129;" xml:space="preserve"> <style type="text/css"> .st0{fill:#FFFFFF;} .st1{fill-rule:evenodd;clip-rule:evenodd;fill:#FFFFFF;} </style> <g> <g> <g> <path class="st0" d="M99.9,71.7l10-0.7c0.2,1.8,0.7,3.2,1.3,4.2c1.1,1.6,2.6,2.3,4.6,2.3c1.5,0,2.7-0.4,3.5-1.2 c0.8-0.8,1.2-1.7,1.2-2.8c0-1-0.4-1.9-1.2-2.7c-0.8-0.8-2.6-1.5-5.4-2.2c-4.6-1.2-7.9-2.7-9.9-4.7c-2-1.9-3-4.4-3-7.5 c0-2,0.5-3.9,1.5-5.6c1-1.8,2.5-3.2,4.6-4.2c2-1,4.8-1.5,8.4-1.5c4.3,0,7.7,0.9,9.9,2.8c2.3,1.8,3.6,4.8,4.1,8.8l-9.9,0.7 c-0.3-1.7-0.8-3-1.7-3.8c-0.8-0.8-2-1.2-3.5-1.2c-1.2,0-2.1,0.3-2.8,0.9c-0.6,0.6-0.9,1.3-0.9,2.1c0,0.6,0.3,1.2,0.8,1.7 c0.5,0.5,1.7,1,3.5,1.4c4.6,1.1,7.9,2.3,9.9,3.4c2,1.2,3.4,2.6,4.3,4.3c0.9,1.7,1.4,3.6,1.4,5.7c0,2.5-0.6,4.8-1.8,6.8 c-1.2,2.1-2.9,3.7-5.1,4.8c-2.2,1.1-4.9,1.6-8.2,1.6c-5.8,0-9.8-1.3-12-3.8C101.4,78.8,100.2,75.6,99.9,71.7z"></path> <path class="st0" d="M136,45.8h28.2v8.2h-17.6v6.1h16.4v7.9h-16.4v7.6h18.1v8.7H136V45.8z"></path> <path class="st0" d="M187.5,70.5v-8h16.2v16.5c-3.1,2.4-5.9,4-8.3,4.9c-2.4,0.9-5.2,1.3-8.5,1.3c-4,0-7.3-0.8-9.9-2.3 c-2.5-1.6-4.5-3.9-5.9-7c-1.4-3.1-2.1-6.6-2.1-10.6c0-4.2,0.8-7.9,2.3-11c1.5-3.1,3.8-5.5,6.7-7.1c2.3-1.2,5.4-1.9,9.3-1.9 c3.8,0,6.6,0.4,8.4,1.2c1.9,0.8,3.4,2,4.6,3.6c1.2,1.6,2.2,3.7,2.8,6.2l-10.1,2.1c-0.4-1.5-1.1-2.6-2.1-3.3 c-1-0.8-2.3-1.2-3.8-1.2c-2.3,0-4.1,0.9-5.5,2.7c-1.4,1.8-2.1,4.7-2.1,8.6c0,4.2,0.7,7.2,2.1,9c1.4,1.8,3.3,2.7,5.8,2.7 c1.2,0,2.3-0.2,3.4-0.6c1.1-0.4,2.3-1,3.7-2v-3.6H187.5z"></path> <path class="st0" d="M230.9,78.1h-11.9l-1.7,6.4h-10.7l12.8-38.6h11.5l12.8,38.6h-11L230.9,78.1z M228.7,69.7l-3.8-13.9 l-3.7,13.9H228.7z"></path> <path class="st0" d="M247.1,84.5V45.8h17.5c3.2,0,5.7,0.3,7.5,0.9c1.7,0.6,3.1,1.8,4.2,3.5c1.1,1.7,1.6,3.8,1.6,6.3 c0,2.1-0.4,4-1.2,5.5c-0.8,1.6-1.9,2.8-3.3,3.8c-0.9,0.6-2.1,1.1-3.7,1.5c1.3,0.5,2.2,0.9,2.7,1.4c0.4,0.3,0.9,1,1.7,2 c0.7,1,1.2,1.8,1.5,2.4l5.1,11.2h-11.9L263,72.7c-0.7-1.5-1.3-2.5-1.9-3c-0.8-0.6-1.6-0.9-2.6-0.9h-0.9v15.7H247.1z M257.6,61.5 h4.4c0.5,0,1.4-0.2,2.8-0.5c0.7-0.2,1.3-0.6,1.7-1.2c0.4-0.6,0.7-1.4,0.7-2.2c0-1.2-0.3-2.2-1-2.9c-0.7-0.7-2-1-3.9-1h-4.6V61.5z "></path> </g> </g> <path class="st0" d="M79.3,74.3l-17.9-6.8c-3.6-1.3-2.3-3.3-2.3-3.3c1-1.9,4.7-0.3,4.7-0.3l13.9,5c5.7,2.3,6.3-0.2,6.3-0.2 c2.3-4.8-3-11.5-3-11.5L50.3,15.9c-2-2.4-3.9,0-3.9,0S22.8,45.8,16.1,54.8S10,69,10,69c0.3,6.8,5.2,8.2,5.2,8.2l12.8,4.7l6.8,2.4 c2.2,0.9,1.4,2.8,1.4,2.8c-0.8,1.8-2.8,1.1-2.8,1.1l-17.1-5.8c-6.1-1.7-5.5,3.2-5.5,3.2c1.9,11.7,10.5,18.2,10.5,18.2 c14.8,13.9,34.7,9.9,34.7,9.9c25.9-5.8,28.4-30,28.4-30C85.2,76.1,79.3,74.3,79.3,74.3z M66.3,89.2C57.1,100.3,44,98.5,44,98.5 c-1-0.2-1.5-0.4-1.7-0.9c-0.5-1,0.8-2.1,0.8-2.1c5.3-4.3,4.9-9.8,4.9-9.8c-0.3-8.2-7.6-11.1-7.6-11.1l-15.2-5.3 c-7.5-3.5-3.3-10.9-3.3-10.9l25.4-39.1c1.5-2.2,2.7,0,2.7,0l21.5,34.1c0.8,1.9,0.7,2.7,0,3.4c-0.9,1-2.1,0.7-2.5,0.5 c-4-2.3-7.7-2.2-7.7-2.2c-10.6,0.6-10.8,8.6-10.9,9.8c-0.7,10.5,7.7,11.3,9.9,11.6c3.5,0.5,5.6,2.3,5.6,2.3 C70.3,83,66.3,89.2,66.3,89.2z"></path> <g> <path class="st1" d="M621.9,45.4c2,0,3.6-1.6,3.6-3.6c0-2-1.6-3.6-3.6-3.6s-3.6,1.6-3.6,3.6C618.2,43.7,619.9,45.4,621.9,45.4 L621.9,45.4z"></path> <path class="st1" d="M629.7,45.4c2,0,3.6-1.6,3.6-3.6c0-2-1.6-3.6-3.6-3.6c-2,0-3.6,1.6-3.6,3.6C626.1,43.7,627.7,45.4,629.7,45.4 L629.7,45.4z"></path> <path class="st1" d="M537.8,53.3c2,0,3.6-1.6,3.6-3.6c0-2-1.6-3.6-3.6-3.6c-2,0-3.6,1.6-3.6,3.6C534.2,51.7,535.9,53.3,537.8,53.3 L537.8,53.3z"></path> <path class="st1" d="M561.7,53.3c2,0,3.6-1.6,3.6-3.6c0-2-1.6-3.6-3.6-3.6c-2,0-3.6,1.6-3.6,3.6C558.1,51.7,559.8,53.3,561.7,53.3 L561.7,53.3z"></path> <path class="st1" d="M617.4,53.3c2,0,3.6-1.6,3.6-3.6c0-2-1.6-3.6-3.6-3.6s-3.6,1.6-3.6,3.6C613.8,51.7,615.5,53.3,617.4,53.3 L617.4,53.3z"></path> <path class="st1" d="M625.5,53.3c2,0,3.6-1.6,3.6-3.6c0-2-1.6-3.6-3.6-3.6c-2,0-3.6,1.6-3.6,3.6C621.9,51.7,623.5,53.3,625.5,53.3 L625.5,53.3z"></path> <path class="st1" d="M633.4,53.3c2,0,3.6-1.6,3.6-3.6c0-2-1.6-3.6-3.6-3.6c-2,0-3.6,1.6-3.6,3.6C629.7,51.7,631.4,53.3,633.4,53.3 L633.4,53.3z"></path> <path class="st1" d="M573.6,61.4c2,0,3.6-1.6,3.6-3.6c0-2-1.6-3.6-3.6-3.6c-2,0-3.6,1.6-3.6,3.6C570,59.8,571.6,61.4,573.6,61.4 L573.6,61.4z"></path> <path class="st1" d="M597.4,61.3c2,0,3.6-1.6,3.6-3.6c0-2-1.6-3.6-3.6-3.6c-2,0-3.6,1.6-3.6,3.6C593.8,59.7,595.4,61.3,597.4,61.3 L597.4,61.3z"></path> <path class="st1" d="M605.3,61.4c2,0,3.6-1.6,3.6-3.6c0-2-1.6-3.6-3.6-3.6c-2,0-3.6,1.6-3.6,3.6C601.6,59.8,603.3,61.4,605.3,61.4 L605.3,61.4z"></path> <path class="st1" d="M621.3,61.4c2,0,3.6-1.6,3.6-3.6c0-2-1.6-3.6-3.6-3.6c-2,0-3.6,1.6-3.6,3.6C617.7,59.8,619.3,61.4,621.3,61.4 L621.3,61.4z"></path> <path class="st1" d="M629.2,61.4c2,0,3.6-1.6,3.6-3.6c0-2-1.6-3.6-3.6-3.6c-2,0-3.6,1.6-3.6,3.6C625.5,59.8,627.2,61.4,629.2,61.4 L629.2,61.4z"></path> <path class="st1" d="M577.8,69.8c2,0,3.6-1.6,3.6-3.6c0-2-1.6-3.6-3.6-3.6c-2,0-3.6,1.6-3.6,3.6C574.2,68.2,575.8,69.8,577.8,69.8 L577.8,69.8z"></path> <path class="st1" d="M593.5,69.7c2,0,3.6-1.6,3.6-3.6c0-2-1.6-3.6-3.6-3.6s-3.6,1.6-3.6,3.6C589.9,68.1,591.6,69.7,593.5,69.7 L593.5,69.7z"></path> <path class="st1" d="M601.6,69.7c2,0,3.6-1.6,3.6-3.6c0-2-1.6-3.6-3.6-3.6c-2,0-3.6,1.6-3.6,3.6C598,68.1,599.6,69.7,601.6,69.7 L601.6,69.7z"></path> <path class="st1" d="M609.5,69.8c2,0,3.6-1.6,3.6-3.6c0-2-1.6-3.6-3.6-3.6c-2,0-3.6,1.6-3.6,3.6C605.8,68.2,607.5,69.8,609.5,69.8 L609.5,69.8z"></path> <path class="st1" d="M573.6,78c2,0,3.6-1.6,3.6-3.6s-1.6-3.6-3.6-3.6c-2,0-3.6,1.6-3.6,3.6S571.6,78,573.6,78L573.6,78z"></path> <path class="st1" d="M597.4,77.9c2,0,3.6-1.6,3.6-3.6c0-2-1.6-3.6-3.6-3.6c-2,0-3.6,1.6-3.6,3.6C593.8,76.3,595.4,77.9,597.4,77.9 L597.4,77.9z"></path> <path class="st1" d="M605.3,78c2,0,3.6-1.6,3.6-3.6s-1.6-3.6-3.6-3.6c-2,0-3.6,1.6-3.6,3.6S603.3,78,605.3,78L605.3,78z"></path> <path class="st1" d="M621.3,78c2,0,3.6-1.6,3.6-3.6s-1.6-3.6-3.6-3.6c-2,0-3.6,1.6-3.6,3.6S619.3,78,621.3,78L621.3,78z"></path> <path class="st1" d="M629.2,78c2,0,3.6-1.6,3.6-3.6s-1.6-3.6-3.6-3.6c-2,0-3.6,1.6-3.6,3.6S627.2,78,629.2,78L629.2,78z"></path> <path class="st1" d="M537.8,86.4c2,0,3.6-1.6,3.6-3.6c0-2-1.6-3.6-3.6-3.6c-2,0-3.6,1.6-3.6,3.6C534.2,84.8,535.9,86.4,537.8,86.4 L537.8,86.4z"></path> <path class="st1" d="M561.7,86.4c2,0,3.6-1.6,3.6-3.6c0-2-1.6-3.6-3.6-3.6c-2,0-3.6,1.6-3.6,3.6C558.1,84.8,559.8,86.4,561.7,86.4 L561.7,86.4z"></path> <path class="st1" d="M617.4,86.4c2,0,3.6-1.6,3.6-3.6c0-2-1.6-3.6-3.6-3.6s-3.6,1.6-3.6,3.6C613.8,84.8,615.5,86.4,617.4,86.4 L617.4,86.4z"></path> <path class="st1" d="M625.5,86.4c2,0,3.6-1.6,3.6-3.6c0-2-1.6-3.6-3.6-3.6c-2,0-3.6,1.6-3.6,3.6C621.9,84.8,623.5,86.4,625.5,86.4 L625.5,86.4z"></path> <path class="st1" d="M633.4,86.4c2,0,3.6-1.6,3.6-3.6c0-2-1.6-3.6-3.6-3.6c-2,0-3.6,1.6-3.6,3.6C629.7,84.8,631.4,86.4,633.4,86.4 L633.4,86.4z"></path> <path class="st1" d="M581.2,94.8c2,0,3.6-1.6,3.6-3.6c0-2-1.6-3.6-3.6-3.6c-2,0-3.6,1.6-3.6,3.6C577.6,93.2,579.3,94.8,581.2,94.8 L581.2,94.8z"></path> <path class="st1" d="M597.3,94.8c2,0,3.6-1.6,3.6-3.6c0-2-1.6-3.6-3.6-3.6s-3.6,1.6-3.6,3.6C593.7,93.2,595.3,94.8,597.3,94.8 L597.3,94.8z"></path> <path class="st1" d="M621.2,94.9c2,0,3.6-1.6,3.6-3.6c0-2-1.6-3.6-3.6-3.6c-2,0-3.6,1.6-3.6,3.6C617.6,93.3,619.2,94.9,621.2,94.9 L621.2,94.9z"></path> <path class="st1" d="M629,94.9c2,0,3.6-1.6,3.6-3.6c0-2-1.6-3.6-3.6-3.6c-2,0-3.6,1.6-3.6,3.6C625.4,93.3,627.1,94.9,629,94.9 L629,94.9z"></path> <path class="st1" d="M609.6,53.3c2,0,3.6-1.6,3.6-3.6c0-2-1.6-3.6-3.6-3.6c-2,0-3.6,1.6-3.6,3.6C606,51.7,607.6,53.3,609.6,53.3 L609.6,53.3z"></path> <path class="st1" d="M593.3,53.3c2,0,3.6-1.6,3.6-3.6c0-2-1.6-3.6-3.6-3.6c-2,0-3.6,1.6-3.6,3.6C589.7,51.7,591.3,53.3,593.3,53.3 L593.3,53.3z"></path> <path class="st1" d="M609.3,86.4c2,0,3.6-1.6,3.6-3.6s-1.6-3.6-3.6-3.6c-2,0-3.6,1.6-3.6,3.6S607.3,86.4,609.3,86.4L609.3,86.4z"></path> <path class="st1" d="M593.5,86.4c2,0,3.6-1.6,3.6-3.6s-1.6-3.6-3.6-3.6c-2,0-3.6,1.6-3.6,3.6S591.5,86.4,593.5,86.4L593.5,86.4z"></path> <path class="st1" d="M617.3,69.7c2,0,3.6-1.6,3.6-3.6c0-2-1.6-3.6-3.6-3.6c-2,0-3.6,1.6-3.6,3.6C613.7,68.1,615.3,69.7,617.3,69.7 L617.3,69.7z"></path> <path class="st1" d="M625.4,69.7c2,0,3.6-1.6,3.6-3.6c0-2-1.6-3.6-3.6-3.6c-2,0-3.6,1.6-3.6,3.6C621.8,68.1,623.4,69.7,625.4,69.7 L625.4,69.7z"></path> <path class="st1" d="M549.6,61.5c2,0,3.6-1.6,3.6-3.6c0-2-1.6-3.6-3.6-3.6s-3.6,1.6-3.6,3.6C546,59.8,547.7,61.5,549.6,61.5 L549.6,61.5z"></path> <path class="st1" d="M549.6,78.2c2,0,3.6-1.6,3.6-3.6c0-2-1.6-3.6-3.6-3.6s-3.6,1.6-3.6,3.6C546,76.6,547.7,78.2,549.6,78.2 L549.6,78.2z"></path> <path class="st1" d="M581.9,45.3c2,0,3.6-1.6,3.6-3.6c0-2-1.6-3.6-3.6-3.6s-3.6,1.6-3.6,3.6C578.3,43.7,579.9,45.3,581.9,45.3 L581.9,45.3z"></path> <path class="st1" d="M526.3,72.9c4.3,0,7.8-3.5,7.8-7.8c0-4.3-3.5-7.8-7.8-7.8c-4.3,0-7.8,3.5-7.8,7.8 C518.5,69.4,522,72.9,526.3,72.9L526.3,72.9z"></path> <path class="st1" d="M526.3,45.3c2,0,3.6-1.6,3.6-3.6c0-2-1.6-3.6-3.6-3.6c-2,0-3.6,1.6-3.6,3.6C522.7,43.7,524.4,45.3,526.3,45.3 L526.3,45.3z"></path> <path class="st1" d="M527.4,94.8c2,0,3.6-1.6,3.6-3.6c0-2-1.6-3.6-3.6-3.6c-2,0-3.6,1.6-3.6,3.6C523.8,93.2,525.4,94.8,527.4,94.8 L527.4,94.8z"></path> </g> <g> <path class="st1" d="M398.9,46.3l-13,28.6c-1.2,0.1-2.6,1.2-2.3,3.1l0.7,3.2c0.3,1.1,1.6,1.9,2.8,1.7l1.8-0.3 c0.7,0.2,2,0.1,2.3-0.3c4.9-0.5,7.5-0.5,12.6,0.2c0.9,0.2,2.3-0.1,2.8-1.7l0.5-3.8c0.1-0.7-0.2-2.4-2.1-2.6 c-3.3-0.4-6.5-0.7-9.7-0.5l11-24.2c0.6-1.3-0.1-2.6-1.1-3.1l-3.2-1.3C400.7,44.8,399.4,45.3,398.9,46.3L398.9,46.3z"></path> <path class="st1" d="M423.3,46.6l-9.5,17.2c-0.5,1-0.4,1.8,0.1,2.5l2.1,2.6c0.7,0.7,1.8,1.3,2.9,0.7l4.6-2 c-2,3.8-3.8,7.5-5.4,11.3c-0.6,1.4,0.4,2.6,1,3l3.4,1.6c1.5,0.4,2.4-0.3,3-1.5c2.1-4.7,3.2-7.4,5.8-12c3.7-6.3,7.2-11.5,12-17.4 c0.8-1,1-2.3,0.1-3.2l-2.6-2.5c-0.8-0.9-2.7-0.8-3.3,0.1l-14.1,15.5l7.1-12c0.6-1-0.1-2.4-0.9-2.8l-3-1.6 C425.5,45.3,424,45.5,423.3,46.6L423.3,46.6z"></path> <path class="st1" d="M373.9,46.3c-3.9,0-8.1,1.7-12.3,5.7c-2.7,2.6-5.5,6.3-7.7,11.3c-6,13.7,1.6,21.2,8.4,21.8 c4.2,0.4,10.2-2.1,14.9-7c3-3.1,5.3-7.3,7-11.6C388.8,55.4,381.1,46,373.9,46.3L373.9,46.3z M373.8,54.4 c-3.4,0.7-7.6,2.6-11.7,10.6c-3.3,7.9-2.3,12.6,1.7,12.1c4-0.6,8-3.6,11.9-10.5C379.4,59.7,377.7,54.4,373.8,54.4L373.8,54.4z"></path> <path class="st1" d="M327,55.6c-1.4-0.1-2.2-0.4-2.8-1.8l-0.9-3.8c-0.1-1.6,0.6-2.4,2-2.9l11.9-2.6c2.9-0.6,8,0.3,11,4 c2.3,3.2,3.1,6.3,1.4,10.6c-3.5,6.6-6.4,7.7-18.7,9.9L325.3,83c-0.5,1.2-1.9,1.9-3.2,1.4l-3.6-1.6c-1.5-0.7-1.6-2.4-0.7-4.1 L327,55.6L327,55.6z M335.7,53.5c2.8-1.3,7.5-1.5,5.9,2.6c-1.6,4.2-4.7,5.8-9.7,6.1L335.7,53.5L335.7,53.5z"></path> <path class="st1" d="M465.4,45.9c-1.7,2.9-10.6,14.5-12.4,15.8l-10.5,0.7c-1.4,0.2-2.1,1.2-2.2,2.2l0.1,3.8 c-0.1,1.1,1.3,2.2,2.5,2.2l1.5-0.1c-3.1,3-4.2,3.8-7.6,6.6c-0.8,0.6-1,2.2-0.5,3l2.6,3c0.4,0.8,2.5,1,3.3,0.2 c5.5-4.3,11.2-10.2,14.7-13.6l7-0.4c0.1,3.6,0.4,7.4,0.8,11.2c0,1.1,1.2,2.3,2.3,2.3l4.1-0.4c1.4-0.3,2-1.5,1.9-2.7 c-0.4-3.6-0.7-7.3-0.9-10.8c1.4,0,2.7-0.9,2.7-2.5l-0.2-3.7c-0.2-1.3-1.3-2-2.6-2c0.2-3.9,0.4-7.8,0.9-11.7c0-1.2-0.2-1.9-1.3-2.6 l-3.4-1.2C467.3,44.7,465.9,45.1,465.4,45.9L465.4,45.9z M459.8,61.8l5.4-0.3l1.7-8.9L459.8,61.8L459.8,61.8z"></path> <path class="st1" d="M487.5,55.6l-11.4,23.3c-0.4,0.8-0.1,2.4,1.1,3.1l3.1,1.7c1.2,0.6,2.8-0.3,3.2-1.1c1.7-3.2,6.3-12.8,7.8-15.8 c5.4,8.8,11.4,14.7,19,20.5c1.4,1,2.9,0.6,3.6-0.3l2.1-3.2c0.7-1.4,0.1-2.6-1.3-3.7c-5.9-4.7-10.9-9.8-14.8-15.5 c7.3-1.3,11.9-4.1,13.5-9.6c0.8-4-0.6-6.6-3-8.3c-3.6-2.3-8.1-2.6-13-1.6l-10.7,2.2c-1.2,0.1-2.5,1.9-2.1,2.9l0.6,3.1 C485.7,54.6,486.5,55.3,487.5,55.6L487.5,55.6z M493,60.5c5.2-0.2,10-2.1,11.4-4.2c1.3-2.2,1.5-2.9,0.9-3.3 c-1.2-0.6-4.1-1.1-8,0.3L493,60.5L493,60.5z"></path> </g> <g> <g> <path class="st0" d="M183.7,109.1l2.2-0.2c0.1,0.8,0.4,1.5,0.8,1.8c0.4,0.4,1,0.6,1.6,0.6c0.7,0,1.3-0.2,1.6-0.5 c0.4-0.3,0.6-0.8,0.6-1.2c0-0.3-0.1-0.6-0.2-0.8c-0.2-0.2-0.4-0.4-0.8-0.5c-0.3-0.1-0.9-0.3-1.8-0.6c-1.2-0.3-2.1-0.8-2.6-1.3 c-0.7-0.7-1-1.6-1-2.6c0-0.6,0.2-1.3,0.5-1.8c0.3-0.6,0.8-1,1.4-1.3c0.6-0.3,1.3-0.4,2.2-0.4c1.4,0,2.5,0.3,3.2,1 c0.7,0.7,1.1,1.6,1.1,2.8l-2.3,0.1c-0.1-0.7-0.3-1.1-0.6-1.4c-0.3-0.3-0.8-0.4-1.4-0.4c-0.7,0-1.2,0.2-1.5,0.5 c-0.2,0.2-0.4,0.5-0.4,0.8c0,0.3,0.1,0.6,0.3,0.8c0.3,0.3,1,0.6,2.1,0.8c1.1,0.3,1.9,0.6,2.4,0.9c0.5,0.3,0.9,0.7,1.2,1.3 c0.3,0.5,0.4,1.2,0.4,2c0,0.7-0.2,1.4-0.5,2c-0.4,0.6-0.9,1.1-1.5,1.4c-0.7,0.3-1.5,0.5-2.4,0.5c-1.4,0-2.5-0.4-3.3-1.1 C184.3,111.6,183.9,110.6,183.7,109.1z"></path> <path class="st0" d="M197.8,113.3v-12.7h8.3v2.1h-6v2.8h5.6v2.1h-5.6v3.5h6.3v2.1H197.8z"></path> <path class="st0" d="M211.4,113.3v-12.7h4.8c1.2,0,2.1,0.1,2.6,0.3c0.5,0.2,1,0.6,1.3,1.2c0.3,0.6,0.5,1.3,0.5,2 c0,1-0.2,1.7-0.7,2.4c-0.5,0.6-1.2,1-2.2,1.2c0.5,0.3,0.9,0.7,1.2,1.1c0.3,0.4,0.7,1.1,1.3,2.1l1.4,2.5h-2.7l-1.6-2.8 c-0.6-1-1-1.6-1.2-1.9c-0.2-0.3-0.4-0.4-0.7-0.5c-0.2-0.1-0.6-0.1-1.1-0.1h-0.5v5.3H211.4z M213.7,105.9h1.7c1.1,0,1.8-0.1,2-0.2 c0.3-0.1,0.5-0.3,0.6-0.5c0.2-0.3,0.2-0.6,0.2-1c0-0.4-0.1-0.8-0.3-1c-0.2-0.3-0.5-0.4-0.9-0.5c-0.2,0-0.7,0-1.6,0h-1.8V105.9z"></path> <path class="st0" d="M228.4,113.3l-4-12.7h2.5l2.8,9.4l2.7-9.4h2.4l-4,12.7H228.4z"></path> <path class="st0" d="M239,113.3v-12.7h2.3v12.7H239z"></path> <path class="st0" d="M253.7,108.6l2.2,0.8c-0.3,1.4-0.9,2.4-1.7,3.1c-0.8,0.7-1.8,1-3,1c-1.5,0-2.7-0.6-3.7-1.7 c-1-1.2-1.4-2.7-1.4-4.7c0-2.1,0.5-3.8,1.4-4.9c1-1.2,2.2-1.8,3.8-1.8c1.4,0,2.5,0.5,3.3,1.4c0.5,0.5,0.9,1.3,1.1,2.3l-2.2,0.6 c-0.1-0.7-0.4-1.2-0.8-1.6c-0.4-0.4-0.9-0.6-1.5-0.6c-0.8,0-1.5,0.3-2,1c-0.5,0.7-0.8,1.8-0.8,3.3c0,1.6,0.3,2.8,0.8,3.4 c0.5,0.7,1.2,1,2,1c0.6,0,1.1-0.2,1.6-0.6C253.2,110.2,253.6,109.5,253.7,108.6z"></path> <path class="st0" d="M260.9,113.3v-12.7h2.3v12.7H260.9z"></path> <path class="st0" d="M268,107c0-1.3,0.2-2.4,0.5-3.3c0.3-0.6,0.6-1.2,1-1.7c0.4-0.5,0.9-0.9,1.4-1.1c0.7-0.3,1.5-0.5,2.4-0.5 c1.6,0,3,0.6,4,1.7c1,1.2,1.5,2.8,1.5,4.8c0,2.1-0.5,3.7-1.5,4.8c-1,1.2-2.3,1.7-3.9,1.7c-1.7,0-3-0.6-4-1.7 C268.5,110.6,268,109,268,107z M270.4,106.9c0,1.4,0.3,2.5,0.9,3.3c0.6,0.7,1.3,1.1,2.2,1.1c0.9,0,1.6-0.4,2.2-1.1 c0.6-0.7,0.9-1.8,0.9-3.3c0-1.5-0.3-2.5-0.8-3.3s-1.3-1.1-2.2-1.1c-0.9,0-1.7,0.4-2.3,1.1C270.6,104.4,270.4,105.5,270.4,106.9z"></path> <path class="st0" d="M283.2,109.1l2.2-0.2c0.1,0.8,0.4,1.5,0.8,1.8c0.4,0.4,1,0.6,1.6,0.6c0.7,0,1.3-0.2,1.6-0.5 c0.4-0.3,0.6-0.8,0.6-1.2c0-0.3-0.1-0.6-0.2-0.8c-0.2-0.2-0.4-0.4-0.8-0.5c-0.3-0.1-0.9-0.3-1.8-0.6c-1.2-0.3-2.1-0.8-2.6-1.3 c-0.7-0.7-1-1.6-1-2.6c0-0.6,0.2-1.3,0.5-1.8c0.3-0.6,0.8-1,1.4-1.3c0.6-0.3,1.3-0.4,2.2-0.4c1.4,0,2.5,0.3,3.2,1 c0.7,0.7,1.1,1.6,1.1,2.8l-2.3,0.1c-0.1-0.7-0.3-1.1-0.6-1.4c-0.3-0.3-0.8-0.4-1.4-0.4c-0.7,0-1.2,0.2-1.5,0.5 c-0.2,0.2-0.4,0.5-0.4,0.8c0,0.3,0.1,0.6,0.3,0.8c0.3,0.3,1,0.6,2.1,0.8c1.1,0.3,1.9,0.6,2.4,0.9c0.5,0.3,0.9,0.7,1.2,1.3 c0.3,0.5,0.4,1.2,0.4,2c0,0.7-0.2,1.4-0.5,2c-0.4,0.6-0.9,1.1-1.5,1.4c-0.7,0.3-1.5,0.5-2.4,0.5c-1.4,0-2.5-0.4-3.3-1.1 C283.8,111.6,283.4,110.6,283.2,109.1z"></path> </g> </g> <g> <g> <path class="st0" d="M309.8,113.3v-12.7h3.6c1.4,0,2.3,0.1,2.7,0.2c0.6,0.2,1.2,0.6,1.6,1.2c0.4,0.6,0.6,1.5,0.6,2.5 c0,0.8-0.1,1.4-0.4,2c-0.2,0.5-0.6,0.9-1,1.3c-0.4,0.3-0.8,0.5-1.2,0.6c-0.5,0.1-1.3,0.2-2.3,0.2h-1.5v4.8H309.8z M312.1,102.7 v3.6h1.2c0.9,0,1.5-0.1,1.8-0.2c0.3-0.1,0.5-0.3,0.7-0.6c0.2-0.3,0.3-0.6,0.3-1c0-0.5-0.1-0.8-0.4-1.1c-0.2-0.3-0.5-0.5-0.9-0.6 c-0.3-0.1-0.8-0.1-1.6-0.1H312.1z"></path> <path class="st0" d="M323.4,113.3v-12.7h8.3v2.1h-6v2.8h5.6v2.1h-5.6v3.5h6.3v2.1H323.4z"></path> <path class="st0" d="M339.4,113.3v-10.6h-3.3v-2.1h8.9v2.1h-3.3v10.6H339.4z"></path> <path class="st0" d="M349.6,113.3v-12.7h4.8c1.2,0,2.1,0.1,2.6,0.3c0.5,0.2,1,0.6,1.3,1.2c0.3,0.6,0.5,1.3,0.5,2 c0,1-0.2,1.7-0.7,2.4c-0.5,0.6-1.2,1-2.2,1.2c0.5,0.3,0.9,0.7,1.2,1.1c0.3,0.4,0.7,1.1,1.3,2.1l1.4,2.5H357l-1.6-2.8 c-0.6-1-1-1.6-1.2-1.9c-0.2-0.3-0.4-0.4-0.7-0.5c-0.2-0.1-0.6-0.1-1.1-0.1h-0.5v5.3H349.6z M351.9,105.9h1.7c1.1,0,1.8-0.1,2-0.2 c0.3-0.1,0.5-0.3,0.6-0.5c0.2-0.3,0.2-0.6,0.2-1c0-0.4-0.1-0.8-0.3-1c-0.2-0.3-0.5-0.4-0.9-0.5c-0.2,0-0.7,0-1.6,0h-1.8V105.9z"></path> <path class="st0" d="M363.6,107c0-1.3,0.2-2.4,0.5-3.3c0.3-0.6,0.6-1.2,1-1.7c0.4-0.5,0.9-0.9,1.4-1.1c0.7-0.3,1.5-0.5,2.4-0.5 c1.6,0,3,0.6,4,1.7c1,1.2,1.5,2.8,1.5,4.8c0,2.1-0.5,3.7-1.5,4.8c-1,1.2-2.3,1.7-3.9,1.7c-1.7,0-3-0.6-4-1.7 C364.1,110.6,363.6,109,363.6,107z M365.9,106.9c0,1.4,0.3,2.5,0.9,3.3c0.6,0.7,1.3,1.1,2.2,1.1c0.9,0,1.6-0.4,2.2-1.1 c0.6-0.7,0.9-1.8,0.9-3.3c0-1.5-0.3-2.5-0.8-3.3s-1.3-1.1-2.2-1.1c-0.9,0-1.7,0.4-2.3,1.1C366.2,104.4,365.9,105.5,365.9,106.9z"></path> <path class="st0" d="M379.4,113.3v-12.6h2.3v10.5h5.6v2.1H379.4z"></path> <path class="st0" d="M392,113.3v-12.7h8.3v2.1h-6v2.8h5.6v2.1h-5.6v3.5h6.3v2.1H392z"></path> <path class="st0" d="M405.6,113.3v-12.7h4.8c1.2,0,2.1,0.1,2.6,0.3c0.5,0.2,1,0.6,1.3,1.2c0.3,0.6,0.5,1.3,0.5,2 c0,1-0.2,1.7-0.7,2.4c-0.5,0.6-1.2,1-2.2,1.2c0.5,0.3,0.9,0.7,1.2,1.1c0.3,0.4,0.7,1.1,1.3,2.1l1.4,2.5h-2.7l-1.6-2.8 c-0.6-1-1-1.6-1.2-1.9c-0.2-0.3-0.4-0.4-0.7-0.5c-0.2-0.1-0.6-0.1-1.1-0.1h-0.5v5.3H405.6z M407.8,105.9h1.7c1.1,0,1.8-0.1,2-0.2 c0.3-0.1,0.5-0.3,0.6-0.5c0.2-0.3,0.2-0.6,0.2-1c0-0.4-0.1-0.8-0.3-1c-0.2-0.3-0.5-0.4-0.9-0.5c-0.2,0-0.7,0-1.6,0h-1.8V105.9z"></path> <path class="st0" d="M419.5,107c0-1.3,0.2-2.4,0.5-3.3c0.3-0.6,0.6-1.2,1-1.7c0.4-0.5,0.9-0.9,1.4-1.1c0.7-0.3,1.5-0.5,2.4-0.5 c1.6,0,3,0.6,4,1.7c1,1.2,1.5,2.8,1.5,4.8c0,2.1-0.5,3.7-1.5,4.8c-1,1.2-2.3,1.7-3.9,1.7c-1.7,0-3-0.6-4-1.7 C420,110.6,419.5,109,419.5,107z M421.9,106.9c0,1.4,0.3,2.5,0.9,3.3c0.6,0.7,1.3,1.1,2.2,1.1c0.9,0,1.6-0.4,2.2-1.1 c0.6-0.7,0.9-1.8,0.9-3.3c0-1.5-0.3-2.5-0.8-3.3s-1.3-1.1-2.2-1.1c-0.9,0-1.7,0.4-2.3,1.1C422.1,104.4,421.9,105.5,421.9,106.9z"></path> <path class="st0" d="M434.7,109.1l2.2-0.2c0.1,0.8,0.4,1.5,0.8,1.8c0.4,0.4,1,0.6,1.6,0.6c0.7,0,1.3-0.2,1.6-0.5 c0.4-0.3,0.6-0.8,0.6-1.2c0-0.3-0.1-0.6-0.2-0.8c-0.2-0.2-0.4-0.4-0.8-0.5c-0.3-0.1-0.9-0.3-1.8-0.6c-1.2-0.3-2.1-0.8-2.6-1.3 c-0.7-0.7-1-1.6-1-2.6c0-0.6,0.2-1.3,0.5-1.8c0.3-0.6,0.8-1,1.4-1.3c0.6-0.3,1.3-0.4,2.2-0.4c1.4,0,2.5,0.3,3.2,1 c0.7,0.7,1.1,1.6,1.1,2.8l-2.3,0.1c-0.1-0.7-0.3-1.1-0.6-1.4c-0.3-0.3-0.8-0.4-1.4-0.4c-0.7,0-1.2,0.2-1.5,0.5 c-0.2,0.2-0.4,0.5-0.4,0.8c0,0.3,0.1,0.6,0.3,0.8c0.3,0.3,1,0.6,2.1,0.8c1.1,0.3,1.9,0.6,2.4,0.9c0.5,0.3,0.9,0.7,1.2,1.3 c0.3,0.5,0.4,1.2,0.4,2c0,0.7-0.2,1.4-0.5,2c-0.4,0.6-0.9,1.1-1.5,1.4c-0.7,0.3-1.5,0.5-2.4,0.5c-1.4,0-2.5-0.4-3.3-1.1 C435.3,111.6,434.9,110.6,434.7,109.1z"></path> </g> </g> <rect x="297.3" y="41.1" class="st1" width="3.2" height="46.8"></rect> </g> </svg> 