<svg xmlns="http://www.w3.org/2000/svg" viewBox="0 0 158 96"><defs><style>.a{fill:#fff;}</style></defs><title>logo</title><path class="a" d="M3.17,40a4.75,4.75,0,0,1,.61-2.17,4.48,4.48,0,0,1,1.76-1.72,7.94,7.94,0,0,1,2.74-.84,15.84,15.84,0,0,1,2.18-.11h9.16c.12,0,.25,0,.37,0,.32,0,.34,0,.35-.35a2.53,2.53,0,0,0-2-2.63,4,4,0,0,0-1-.1H5.47c-.62,0-.58.08-.58-.57V29.06c0-.35,0-.36.38-.38H19.5a8.52,8.52,0,0,1,4.21,1.14,6,6,0,0,1,3.1,4.8,12.69,12.69,0,0,1,.06,1.63c-.08,2.51-.06,5-.1,7.53,0,1,.05.83-.81.83H10.05A10.09,10.09,0,0,1,6.28,44a5.91,5.91,0,0,1-1.86-1.13A3.78,3.78,0,0,1,3.17,40Zm12.57,1.42H20c.36,0,.37,0,.38-.36V38.7c0-.36,0-.37-.36-.39a1.76,1.76,0,0,0-.23,0c-2.67,0-5.33,0-8,0a3.94,3.94,0,0,0-.6,0A1.53,1.53,0,0,0,10,39.63a1.55,1.55,0,0,0,.78,1.57,1.67,1.67,0,0,0,.85.18Z"/><path class="a" d="M123.71,94c-.07-2.14-.14-4.28-.23-6.41q-.17-4.18-.37-8.37c-.11-2.13-.23-4.27-.37-6.4-.2-3-.41-6-.66-8.95-.21-2.61-.46-5.22-.73-7.82-.4-3.78-.86-7.55-1.41-11.3-1-6.58-2.15-13.12-3.66-19.59-.51-2.19-.89-4.4-1.43-6.59a38.07,38.07,0,0,0-2.16-6.66,12.6,12.6,0,0,0-1.38-2.42A5.77,5.77,0,0,0,110,8.16a3.13,3.13,0,0,0-3.05-.4,5.65,5.65,0,0,0-1.34.74,12.22,12.22,0,0,0-2,1.86c-.79.88-1.55,1.78-2.32,2.67a1.74,1.74,0,0,1-.46.43,3.84,3.84,0,0,1,.28-1c.64-1.61,1.16-3.27,1.65-4.93a11.14,11.14,0,0,1,1-2.44,5.84,5.84,0,0,1,4-2.93,6.21,6.21,0,0,1,4.76.93,11.3,11.3,0,0,1,2.75,2.55,20.55,20.55,0,0,1,1.23,1.81c.08.12.12.28.27.36.16-.11.16-.3.22-.45a11.91,11.91,0,0,1,.83-2,6,6,0,0,1,6.26-3.25,6.6,6.6,0,0,1,3,1.2,13.07,13.07,0,0,1,3.53,3.91,3.12,3.12,0,0,0,.4.62c.19-.11.18-.3.23-.46a14.18,14.18,0,0,1,.85-2.06,6,6,0,0,1,6.24-3.21,6.45,6.45,0,0,1,2.87,1.12,11.26,11.26,0,0,1,2.89,2.87,26.86,26.86,0,0,1,3.43,6.78A145.43,145.43,0,0,1,152.19,30q.85,4.26,1.44,8.57c.42,3.15.72,6.31,1,9.48.26,3.7.27,7.4.24,11.11l0,.06c-.17-.2-.19-.5-.42-.63-.13.06-.1.16-.1.25-.07,1.53-.12,3.06-.19,4.6-.13,2.89-.26,5.79-.44,8.68-.11,1.88-.2,3.75-.32,5.62-.13,2.15-.28,4.3-.43,6.45-.1,1.61-.2,3.22-.31,4.83-.09,1.43-.19,2.87-.29,4.31,0,.21-.06.42-.09.62-.12-3-.22-6.07-.35-9.1q-.1-2.84-.27-5.67-.26-4.71-.56-9.42c-.13-2-.29-4-.46-6q-.31-3.7-.7-7.41-.44-4.16-1-8.31-.85-6.37-2-12.71c-.67-3.71-1.5-7.38-2.31-11-.5-2.3-.93-4.62-1.53-6.9a35.48,35.48,0,0,0-1.86-5.49,13.23,13.23,0,0,0-1.32-2.35,6.09,6.09,0,0,0-1.31-1.37,3.16,3.16,0,0,0-3.25-.4,6.3,6.3,0,0,0-1.65,1,13.84,13.84,0,0,0-1.2,1.1.37.37,0,0,0-.09.45,58.86,58.86,0,0,1,2.35,6.85A132.89,132.89,0,0,1,138.51,33c.47,2.6.86,5.23,1.16,7.86q.53,4.41.76,8.84c.17,3.1.2,6.2.17,9.3,0,.08,0,.15,0,.29-.2-.25-.23-.54-.46-.69-.15,0-.1.18-.1.28-.07,1.56-.12,3.13-.19,4.69q-.21,4.23-.44,8.45c-.09,1.83-.2,3.66-.31,5.48-.13,2.2-.28,4.4-.43,6.59-.1,1.58-.2,3.16-.31,4.73-.11,1.72-.24,3.43-.39,5.15,0-.92-.08-1.84-.11-2.75-.11-2.78-.2-5.55-.32-8.32q-.17-3.55-.37-7.11c-.18-3-.36-6-.61-9-.17-2.06-.31-4.11-.51-6.16q-.34-3.82-.79-7.63t-1-7.61q-.64-4.48-1.43-9c-.74-4.24-1.69-8.44-2.61-12.65-.52-2.37-1-4.76-1.63-7.11a30.93,30.93,0,0,0-1.85-5.2,11.12,11.12,0,0,0-1.46-2.37,5.08,5.08,0,0,0-1.15-1.07,3.11,3.11,0,0,0-2.88-.37,5.8,5.8,0,0,0-1.54.86A13.15,13.15,0,0,0,118.22,10a.35.35,0,0,0-.09.45,84.43,84.43,0,0,1,3.29,10.06,132.57,132.57,0,0,1,3.14,14.19c.44,2.63.79,5.27,1.07,7.93.32,3.1.54,6.2.66,9.32.09,2.35.09,4.71.07,7.06a.39.39,0,0,1,0,.29c-.15-.21-.19-.5-.41-.65-.14,0-.11.15-.11.23-.06,1.38-.12,2.76-.17,4.14-.12,3-.27,6-.45,9-.11,1.8-.2,3.59-.31,5.39-.14,2.24-.29,4.48-.43,6.72-.11,1.58-.21,3.16-.31,4.74s-.25,3.46-.37,5.19Z"/><path class="a" d="M60.29,49.14H58.76c-1.28,0-2.57,0-3.86,0a.94.94,0,0,1-.79-.37q-4.45-5.06-8.92-10.12a1.1,1.1,0,0,0-.91-.41c-1.85,0-3.69,0-5.54,0h-.28c-.34,0-.35,0-.36.38,0,.13,0,.25,0,.37v4.93c0,.13,0,.25,0,.38s-.08.3-.3.3H33.28c-.23,0-.3-.11-.29-.31A2.61,2.61,0,0,0,33,44V35.09a2.62,2.62,0,0,0,0-.28c0-.22.09-.31.31-.3s.25,0,.37,0H49.81c.75,0,1-.23,1-1a2.51,2.51,0,0,0-.07-.55c-.12-.53-.3-.67-.84-.67H33.62c-.65,0-.63.08-.63-.62V28.89c0-.62,0-.54.52-.54H50.72c1.57,0,3.53,0,4.68,1.22,1.43,1.53,1.26,4.46.79,6.33A2.64,2.64,0,0,1,53.7,38c-.55.07-1.1.12-1.66.18-.31,0-.67,0-.8.36s.16.55.35.76q4.13,4.64,8.26,9.28A2.56,2.56,0,0,1,60.29,49.14Z"/><path class="a" d="M100.12,28.32h7.49a4.46,4.46,0,0,1,2.78.89,4.35,4.35,0,0,1,1.78,3.52c0,2.79,0,5.58,0,8.37a4.49,4.49,0,0,1-4.49,4.44H92.56A4.45,4.45,0,0,1,88.07,41c0-2.74,0-5.49,0-8.23a4.45,4.45,0,0,1,3.55-4.41,5.61,5.61,0,0,1,1.16-.08C95.23,28.31,97.67,28.32,100.12,28.32Zm0,4.51h-5a3.81,3.81,0,0,0-1,.1,2.56,2.56,0,0,0-1.86,2.5c0,1,0,2,0,3a2.89,2.89,0,0,0,.12.78A2.53,2.53,0,0,0,94.84,41h5.9c1.56,0,3.13,0,4.69,0A2.51,2.51,0,0,0,108,38.47c0-1,0-2.11,0-3.16a2.52,2.52,0,0,0-1.86-2.39,4,4,0,0,0-1-.09Z"/><path class="a" d="M75.37,28.32h9.35c.58,0,.58,0,.58.59v3.34c0,.58,0,.58-.6.58h-15a7,7,0,0,0-.79,0,2.49,2.49,0,0,0-2.29,2.19,12.19,12.19,0,0,0,0,1.48q0,.93,0,1.86A2.56,2.56,0,0,0,69.24,41H84.68c.64,0,.62-.11.62.63V45c0,.11,0,.22,0,.33s-.07.23-.23.22H66.32A4.43,4.43,0,0,1,62,42a5.1,5.1,0,0,1-.12-1.11c0-2.68,0-5.36,0-8a4.48,4.48,0,0,1,3.59-4.49,5.56,5.56,0,0,1,1.15-.07Z"/><path class="a" d="M3.17,61.9V56.08H4.3V61.9Z"/><path class="a" d="M13.69,58.17V61.9H12.56V56.08h.87l3,3.82V56.09h1.13V61.9h-.91Z"/><path class="a" d="M29.89,61.24a2.22,2.22,0,0,1-1.62.7,2.68,2.68,0,0,1-2-.86,3.05,3.05,0,0,1-.59-.95A3.2,3.2,0,0,1,25.51,59a2.87,2.87,0,0,1,.81-2.05,2.71,2.71,0,0,1,.9-.63A2.62,2.62,0,0,1,28.34,56a2.69,2.69,0,0,1,1.4.35,2.25,2.25,0,0,1,.89.92l-.85.62a1.58,1.58,0,0,0-.62-.66A1.7,1.7,0,0,0,28.3,57a1.42,1.42,0,0,0-.68.16,1.51,1.51,0,0,0-.52.42,1.91,1.91,0,0,0-.34.63,2.25,2.25,0,0,0-.12.74,2.19,2.19,0,0,0,.14.77,1.83,1.83,0,0,0,.36.62,1.68,1.68,0,0,0,.54.41,1.57,1.57,0,0,0,.68.15,2,2,0,0,0,1.53-.79v-.41H28.72v-.83h2.1v3h-.93Z"/><path class="a" d="M42.87,60.91v1h-4V56.08h4v1H40v1.41h2.45v.91H40v1.52Z"/><path class="a" d="M51.93,58.17V61.9H50.8V56.08h.87l3,3.82V56.09h1.13V61.9h-.91Z"/><path class="a" d="M64.09,61.9V56.08h1.13V61.9Z"/><path class="a" d="M77.51,60.91v1h-4V56.08h4v1H74.61v1.41h2.44v.91H74.61v1.52Z"/><path class="a" d="M85.44,61.9V56.08H88a1.64,1.64,0,0,1,.74.17,1.86,1.86,0,0,1,.59.44,2.38,2.38,0,0,1,.39.63A2,2,0,0,1,89.58,59a1.59,1.59,0,0,1-.76.67l1.32,2.19H88.87L87.69,60H86.57V61.9ZM86.57,59H88a.73.73,0,0,0,.29-.07.66.66,0,0,0,.23-.21.9.9,0,0,0,.16-.29,1.15,1.15,0,0,0,.06-.37,1.12,1.12,0,0,0-.07-.38.92.92,0,0,0-.18-.3.82.82,0,0,0-.25-.2.77.77,0,0,0-.29-.07H86.57Z"/><path class="a" d="M97.93,61.9V56.08h1.13V61.9Z"/><path class="a" d="M109,56.08h1l2.21,5.82H111l-.54-1.45h-2l-.53,1.45h-1.17Zm1.3,3.57-.8-2.28-.83,2.28Z"/></svg>