<?xml version="1.0" encoding="UTF-8" standalone="no"?>
<!-- Created with Inkscape (http://www.inkscape.org/) -->

<svg
   width="210mm"
   height="297mm"
   viewBox="0 0 210 297"
   version="1.1"
   id="svg1"
   xml:space="preserve"
   inkscape:version="1.4.3 (0d15f75, 2025-12-25)"
   sodipodi:docname="isotiporomboide_sin fondo copia.svg"
   xmlns:inkscape="http://www.inkscape.org/namespaces/inkscape"
   xmlns:sodipodi="http://sodipodi.sourceforge.net/DTD/sodipodi-0.dtd"
   xmlns="http://www.w3.org/2000/svg"
   xmlns:svg="http://www.w3.org/2000/svg"><sodipodi:namedview
     id="namedview1"
     pagecolor="#ffffff"
     bordercolor="#000000"
     borderopacity="0.25"
     inkscape:showpageshadow="2"
     inkscape:pageopacity="0.0"
     inkscape:pagecheckerboard="0"
     inkscape:deskcolor="#d1d1d1"
     inkscape:document-units="mm"
     inkscape:zoom="0.64308243"
     inkscape:cx="439.2905"
     inkscape:cy="578.46395"
     inkscape:window-width="1710"
     inkscape:window-height="1045"
     inkscape:window-x="0"
     inkscape:window-y="67"
     inkscape:window-maximized="0"
     inkscape:current-layer="layer1" /><defs
     id="defs1"><clipPath
       clipPathUnits="userSpaceOnUse"
       id="clipPath90094"><path
         id="path90095"
         style="fill:#ff0000;fill-opacity:1;fill-rule:nonzero;stroke:none;stroke-width:0.264583"
         d="M 40.51794,34.577734 V 172.82873 H 177.74057 V 34.577734 Z m 46.824532,52.906848 5.29e-4,5.3e-4 c 0.02532,4.5e-5 0.05188,7.93e-4 0.07907,0.0031 0.09275,7.94e-4 0.185422,0.0019 0.278018,0.0078 0.300493,0.02133 0.585222,0.09635 0.820624,0.306441 0.123719,0.107545 0.238064,0.225279 0.332796,0.359669 0.113953,0.185441 0.224607,0.37093 0.326078,0.564306 0.131048,0.286515 0.239625,0.582486 0.331763,0.883666 0.623623,0.39841 1.276784,0.747607 1.909961,1.130165 0.599604,0.362813 1.185577,0.743167 1.742012,1.169437 0.292806,0.229489 0.581297,0.465077 0.84801,0.724504 0.344678,0.11067 0.688475,0.222104 1.024226,0.35915 0.453993,0.158594 0.920753,0.280109 1.374595,0.439767 0.38853,0.12283 0.784617,0.222115 1.16427,0.37207 0.559893,0.221147 0.917864,0.532694 1.102776,0.856795 0.210724,-0.133384 0.424272,-0.200009 0.623734,-0.207737 0.511169,-0.01982 0.930246,0.345733 0.975646,0.955495 0.14392,0.323008 0.0919,0.729485 -0.20516,1.098642 0.0363,0.0098 0.0741,0.0208 0.11369,0.03307 0.10777,0.03344 0.19309,0.117446 0.28939,0.176218 0.31067,0.257749 0.38143,0.576022 0.5333,0.912087 0.0453,0.124839 0.11442,0.225883 0.20102,0.31936 0.16993,0.167257 0.32193,0.350695 0.47542,0.532784 0.18775,0.227563 0.34081,0.480666 0.49765,0.729673 0.17699,0.271386 0.36922,0.531924 0.5519,0.799436 0.15959,0.26489 0.34826,0.50936 0.5271,0.76119 0.24841,0.30738 0.48557,0.62259 0.70797,0.9493 0.30979,0.43338 0.587,0.88683 0.84336,1.35341 0.19641,0.33919 0.37602,0.68728 0.54828,1.03921 0.11247,0.2352 0.22638,0.46915 0.35192,0.69763 0.1223,0.2431 0.27793,0.46644 0.4253,0.69453 0.16486,0.2571 0.3144,0.52307 0.46043,0.79117 0.10901,0.16583 0.20782,0.3376 0.33693,0.48834 0.18072,0.21208 0.33667,0.44272 0.49972,0.66818 0.11461,0.17045 0.22833,0.34128 0.35398,0.50384 0.14745,0.19669 0.25971,0.41577 0.38344,0.62735 0.18529,0.30422 0.38641,0.59841 0.57567,0.90021 0.21085,0.34961 0.42239,0.69869 0.62942,1.05058 0.16869,0.24542 0.25909,0.53348 0.41496,0.78445 0.16792,0.2144 0.33159,0.43201 0.4961,0.64905 0.28674,0.37487 0.56426,0.75684 0.84336,1.1374 0.26061,0.36207 0.51087,0.73122 0.75137,1.10691 0.15296,0.2178 0.28392,0.44945 0.42478,0.67489 0.0861,0.11923 0.14538,0.2576 0.21808,0.38138 0.0981,0.17138 0.18982,0.34638 0.28112,0.52141 0.0888,0.15141 0.19005,0.29401 0.27905,0.44545 0.10195,0.15561 0.19519,0.3169 0.28629,0.47904 -0.001,-0.004 -0.005,-0.0122 -0.007,-0.0165 v -5.3e-4 -5.3e-4 l -5.3e-4,-5.3e-4 v -5.2e-4 -5.3e-4 -5.3e-4 h 5.3e-4 v -5.3e-4 h 0.001 5.3e-4 v 5.3e-4 h 5.3e-4 c 0.0708,0.0438 0.15564,0.21034 0.18604,0.23564 0.14871,0.15186 0.25003,0.33873 0.37413,0.50901 0.21642,0.28852 0.44693,0.5654 0.66043,0.85627 0.16402,0.21259 0.32183,0.42933 0.47387,0.65062 0.059,0.0858 0.11098,0.17051 0.1571,0.25373 0.0595,0.002 0.11922,0.004 0.1788,0.005 v 5.3e-4 c 1.67106,0.0285 2.12814,1.25365 1.37097,1.91307 -0.0407,0.20974 -0.11704,0.43712 -0.23616,0.67851 -0.0403,0.0816 -0.084,0.16158 -0.11007,0.24908 -0.06,0.15426 -0.12469,0.30732 -0.22169,0.44286 0.002,-0.004 0.003,-0.009 0.003,-0.0109 v -5.2e-4 h -5.3e-4 c -0.008,0.0121 -0.0756,0.17858 -0.0842,0.19791 -0.031,0.15562 -0.0686,0.37755 -0.108,0.5576 -0.032,0.15745 -0.0547,0.32028 -0.0527,0.48058 0.004,0.2329 0.008,0.46572 0.0238,0.69814 0.0189,0.26819 0.0521,0.53516 0.0842,0.80203 0.0248,0.30216 0.0276,0.60516 0.0584,0.90692 0.0347,0.33674 0.0933,0.67083 0.11628,1.00873 0.0317,0.37789 0.0877,0.75331 0.10697,1.13223 0.0225,0.35891 0.066,0.71757 0.063,1.07745 -0.004,0.27011 -0.0111,0.54002 -0.0264,0.80977 -0.0181,0.29654 -0.0464,0.59261 -0.0749,0.88832 -0.0281,0.38363 0.008,0.77016 -0.004,1.15445 0.002,0.27187 0.004,0.54354 0.008,0.81545 0.44078,0.39988 0.4581,0.98779 0.0517,1.39991 1.4e-4,0.005 -1.5e-4,0.009 0,0.0139 -0.004,0.0461 -0.0233,0.46207 -0.0889,0.54416 -0.29083,0.36396 -0.52679,0.80181 -1.01751,0.8139 -0.38094,0.009 -0.40216,-0.0107 -0.64027,-0.10232 -0.0578,-0.0319 -0.11573,-0.0615 -0.17156,-0.0935 -0.0332,-8e-4 -0.066,-0.002 -0.0992,-0.004 -0.15133,-0.008 -0.30279,-0.0219 -0.45114,-0.0543 -0.13562,-0.0407 -0.4651,-0.12099 -0.5364,-0.24288 -0.0939,-0.1604 -0.17709,-0.30485 -0.24546,-0.43821 -0.44515,-0.0395 -0.88781,-0.10358 -1.32705,-0.18604 -0.75665,-0.14012 -1.46549,-0.4414 -2.14251,-0.79788 -0.74204,-0.39767 -1.38941,-0.92857 -1.973,-1.53014 -0.0845,-0.0893 -0.16662,-0.18045 -0.2465,-0.27337 -0.46272,-0.0825 -0.92642,-0.16052 -1.38596,-0.25993 -0.56698,-0.12172 -1.13894,-0.24966 -1.65365,-0.52814 -0.60623,-0.31449 -1.19771,-0.65733 -1.78955,-0.99787 -0.74623,-0.45118 -1.47106,-0.93643 -2.20865,-1.40146 -0.738977,-0.48111 -1.463279,-0.98464 -2.18488,-1.49138 -0.600517,-0.41378 -1.216896,-0.80351 -1.826244,-1.20407 -0.604891,-0.39978 -1.198348,-0.81611 -1.802474,-1.21698 -0.709105,-0.4605 -1.431544,-0.90097 -2.152841,-1.34203 -0.748196,-0.45094 -1.506048,-0.88722 -2.228805,-1.37873 -0.308316,-0.20555 -0.622742,-0.40351 -0.923975,-0.6196 -0.253542,0.115 -0.545126,0.1919 -0.89245,0.22272 -0.135083,0.012 -0.267272,-0.0453 -0.401011,-0.0677 -0.216318,-0.11765 -0.445997,-0.21367 -0.649054,-0.35295 -0.0412,-0.0283 -0.07784,-0.0628 -0.111107,-0.10077 -0.03944,0.066 -0.07894,0.13195 -0.118337,0.19792 -1.2456,2.12624 -2.441477,4.28082 -3.592547,6.45955 -0.391742,0.76283 -0.207119,0.39985 -0.553456,1.08883 -1.033139,2.0553 -3.109822,1.01126 -2.076357,-1.04387 0.359508,-0.71492 0.168436,-0.3376 0.575675,-1.13016 1.170112,-2.21446 2.384968,-4.40509 3.651457,-6.56601 0.243578,-0.40782 0.487896,-0.81532 0.73329,-1.22215 -0.441148,-0.12663 -0.650449,-0.58482 -0.900721,-1.1467 -0.05094,-0.11426 -0.01109,-0.25021 -0.0057,-0.37517 0.01971,-0.43691 0.0532,-0.5233 0.137459,-0.95549 0.126116,-0.55928 0.266631,-1.11758 0.431501,-1.66812 -0.193249,-0.0952 -0.38063,-0.20142 -0.560692,-0.31523 -0.125476,-0.0793 -0.05839,-0.2929 -0.06149,-0.44131 -0.0073,-0.34678 0.05929,-0.51904 0.143145,-0.84284 0.114099,-0.35804 0.242927,-0.71095 0.387056,-1.05782 -0.101497,-0.007 -0.203195,-0.0177 -0.303858,-0.0176 -0.342985,-0.23454 -0.738166,-0.40695 -1.028877,-0.70383 -0.136033,-0.1389 -0.165061,-0.35711 -0.197406,-0.54881 -0.109665,-0.65005 0.08122,-1.26545 0.345199,-1.84691 -0.04869,-0.40937 0.01894,-0.57865 0.113173,-1.07281 0.06844,-0.24025 0.123076,-0.48495 0.205155,-0.72088 0.06127,-0.17612 0.135544,-0.34727 0.211355,-0.5178 -0.0105,-0.14393 -0.02183,-0.28777 -0.03462,-0.4315 -0.295029,0.0252 -0.48219,-0.0815 -0.886251,-0.3576 -0.21304,-0.2414 -0.363141,-0.51214 -0.453721,-0.82114 -0.06932,-0.25182 -0.136837,-0.50485 -0.153479,-0.76688 -0.03185,-0.33707 -0.02676,-0.67349 -0.0062,-1.0113 0.01918,-0.35161 0.04811,-0.70262 0.09147,-1.05214 0.04974,-0.41407 0.0563,-0.83167 0.100253,-1.24643 0.05417,-0.51985 0.122145,-1.03761 0.1757,-1.557529 0.06146,-0.450856 0.113281,-0.903034 0.178284,-1.353405 -0.03382,-0.381841 -0.06607,-0.763714 -0.0987,-1.145667 -0.04583,-0.237321 -0.07122,-0.4787 -0.09095,-0.719852 -0.01545,-0.20728 -0.02365,-0.414978 -0.02997,-0.622702 h -5.29e-4 -5.29e-4 -5.29e-4 v -5.29e-4 h -5.29e-4 v -5.29e-4 h -5.29e-4 v -5.29e-4 -5.3e-4 -0.0016 c -2.41e-4,-0.0033 0.0016,-0.0092 0.0021,-0.01344 1.62e-4,0.0053 1.78e-4,0.01119 5.29e-4,0.01654 0.02199,-0.0013 0.04405,-0.0021 0.06563,-0.0036 0.0606,-0.07866 0.196911,-0.08393 0.472321,-0.0801 0.05303,-0.432112 0.103114,-0.864653 0.153996,-1.297077 0.120708,-0.821209 0.236397,-1.643457 0.404627,-2.456699 0.109707,-0.59005 0.212841,-1.181142 0.291454,-1.776118 -2.1e-5,-0.02029 1.4e-5,-0.04069 0,-0.06098 -9e-5,-0.132019 2.4e-5,-0.263821 0,-0.39584 -0.01127,-0.226656 0.03015,-0.449311 0.09819,-0.66456 0.05237,-0.157937 -0.01368,0.03836 0.07235,-0.241845 0.196445,-0.364008 0.262818,-0.52302 0.411342,-0.521414 0.02992,2.62e-4 0.06294,0.0072 0.101288,0.02016 0.05712,-0.107669 0.120415,-0.213781 0.167947,-0.324009 0.640958,-0.283659 0.61068,-0.389323 1.035079,-0.379822 0.02447,-3.7e-5 0.04942,-5.29e-4 0.0739,-5.29e-4 0.140179,-0.06742 0.274373,-0.118139 0.451652,-0.117825 z m -0.490408,0.137459 c -0.07319,0.0083 -0.137729,0.02439 -0.158649,0.07028 0.01714,-0.0076 0.03419,-0.01535 0.05116,-0.02326 -0.01156,0.0076 -0.04297,0.02619 -0.04599,0.02894 v 5.29e-4 h 5.29e-4 l 5.29e-4,-5.29e-4 h 5.29e-4 5.29e-4 v -5.29e-4 h 5.29e-4 l 5.3e-4,-5.29e-4 c 0.05261,-0.02559 0.102034,-0.051 0.150378,-0.07493 z m 0.405659,3.275254 c 0.0011,0.166571 0.0021,0.333121 0.0047,0.49971 0.0024,0.133467 0.0064,0.267367 0.01035,0.400492 0.02432,0.06543 0.06333,0.170553 0.07803,0.192754 0.04832,0.133094 0.08325,0.27136 0.159681,0.392224 0.189998,0.323757 0.460246,0.600414 0.683163,0.900721 0.339235,0.402127 0.693269,0.792567 1.082103,1.147733 0.261075,0.243774 0.516324,0.500629 0.798917,0.717786 0.305327,0.200914 0.644136,0.34876 0.988055,0.469738 0.695254,0.243915 1.40516,0.4503 2.075326,0.761193 0.795192,0.35859 1.577162,0.755804 2.258258,1.308447 0.0011,0.0011 0.0024,0.0021 0.0036,0.0031 0.04213,-0.15008 0.08609,-0.299712 0.137975,-0.447001 0.08437,-0.226996 0.230039,-0.416829 0.388091,-0.595312 0.0021,-0.04287 0.0038,-0.0857 0.0047,-0.128675 0.0039,-0.184277 -0.0036,-0.370652 -0.02791,-0.553971 -0.03901,-5.29e-4 -0.07063,-2.65e-4 -0.08423,0.0011 -0.173593,-0.0013 -0.347403,-0.0024 -0.520899,-0.0088 -0.207197,-0.0089 -0.41462,-0.0227 -0.61805,-0.06563 -0.235226,-0.05121 -0.466339,-0.118277 -0.689364,-0.209807 -0.28402,-0.106423 -0.56914,-0.212754 -0.810803,-0.402042 -0.201041,-0.155951 -0.399155,-0.331547 -0.51263,-0.543637 0.01019,0.01453 0.03999,0.0584 0.03049,0.04341 -0.02877,-0.04533 -0.06282,-0.08765 -0.08837,-0.134874 -0.01228,-0.02267 -0.02373,-0.04325 -0.03411,-0.06253 -0.101267,-0.04253 -0.201896,-0.08701 -0.301789,-0.132292 -0.168336,-0.07937 -0.335587,-0.158512 -0.499195,-0.247531 -0.215659,-0.112265 -0.413922,-0.253722 -0.604615,-0.403593 -0.128024,-0.101425 -0.258064,-0.201671 -0.393258,-0.293521 -0.151432,-0.103216 -0.312886,-0.19083 -0.473871,-0.278019 -0.219515,-0.09905 -0.40779,-0.252864 -0.61495,-0.37207 -0.117309,-0.07673 -0.238527,-0.140827 -0.360701,-0.208256 -0.123534,-0.0687 -0.228468,-0.153083 -0.340548,-0.210323 -0.185248,-0.0608 -0.323231,-0.225843 -0.497645,-0.301791 -0.2506,-0.141661 -0.453612,-0.349779 -0.643371,-0.56224 -0.123603,-0.141851 -0.214381,-0.301506 -0.287322,-0.469738 -0.10057,-0.06803 -0.200443,-0.136832 -0.299722,-0.206706 z m -0.741558,4.000272 c -0.07253,0.630846 -0.14682,1.261462 -0.231508,1.89084 -0.02474,0.224528 -0.05246,0.448738 -0.08062,0.672827 0.03593,0.0979 0.07147,0.195723 0.104902,0.294555 0.164518,0.460664 0.336741,0.9207 0.440283,1.399916 0.106952,0.622837 0.16166,1.250135 0.104386,1.882055 -0.03647,0.72981 -0.08099,1.46011 -0.184483,2.18385 0.0038,0.0296 0.0076,0.0593 0.01138,0.0889 0.0087,-0.0101 0.01754,-0.0204 0.02635,-0.0305 0.0523,-0.0595 0.106275,-0.11789 0.161229,-0.1757 0.469154,-0.91752 1.022102,-1.81808 1.71721,-2.58279 0.243689,-0.26809 0.487582,-0.539437 0.76791,-0.768942 0.216826,-0.177517 0.475769,-0.295788 0.713653,-0.443902 0.472787,-0.04474 0.951005,-0.217789 1.418516,-0.134358 0.287533,0.05131 0.528317,0.284594 0.709517,0.513665 0.352528,0.445597 0.446479,0.812867 0.456303,1.271237 0.05528,-0.14546 0.110551,-0.29091 0.170532,-0.4346 0.09718,-0.23818 0.202253,-0.47007 0.340548,-0.687809 0.09404,-0.126061 0.245488,-0.39692 0.404111,-0.611333 -0.433308,-0.287817 -0.9052,-0.513982 -1.380278,-0.726054 C 91.574882,98.220347 90.928891,98.032609 90.295783,97.812129 89.780991,97.638658 89.29293,97.398633 88.832306,97.112428 88.414894,96.831975 88.05645,96.471731 87.68974,96.129543 87.270555,95.746292 86.885671,95.328279 86.516167,94.897577 Z m 13.901475,3.506761 c -0.007,0.0024 -0.0343,0.02394 -0.061,0.05323 -5.3e-4,0.0031 -5.3e-4,0.0062 -0.001,0.0093 0.0417,-0.03572 0.0593,-0.05441 0.0631,-0.06046 l 5.3e-4,-5.29e-4 v -5.29e-4 -5.29e-4 -5.29e-4 h -5.3e-4 -5.3e-4 z m -0.698145,1.354442 c -0.06803,0.105878 -0.141978,0.207261 -0.211873,0.31212 -0.13603,0.20891 -0.26293,0.42315 -0.406178,0.62736 -0.139128,0.22541 -0.265647,0.45805 -0.399976,0.68626 0.06032,0.0921 0.119579,0.18497 0.177769,0.27854 h -5.3e-4 c 1.042509,1.67622 -0.242133,2.80924 -1.411282,1.87275 -0.09625,0.1507 -0.193196,0.30073 -0.288356,0.45217 -0.165108,0.24171 -0.338709,0.4772 -0.526066,0.70228 -0.177067,0.22469 -0.364685,0.43966 -0.517279,0.68265 -0.01569,0.021 -0.03173,0.0421 -0.04754,0.063 0.0061,0.004 0.01251,0.007 0.0186,0.0108 l 5.29e-4,10e-4 5.29e-4,5.3e-4 v 5.2e-4 c 0.0052,0.0318 -0.150283,0.39637 -0.153479,0.40412 -0.114806,0.29746 -0.240446,0.58983 -0.366903,0.88211 0.194646,0.23696 0.447661,0.5934 0.820621,1.09813 0.06744,0.0913 -0.358603,0.62298 -0.45992,0.75551 -0.772129,0.93023 -1.512914,1.88243 -2.238621,2.84736 -0.0047,0.12678 -0.01069,0.25362 -0.02739,0.37932 -0.02958,0.22257 -0.08418,0.44115 -0.134877,0.6599 -0.186219,0.80347 -0.44573,1.58691 -0.734838,2.35902 -0.08059,0.37479 -0.182999,0.74545 -0.288356,1.11311 -0.07359,0.24719 -0.148738,0.49411 -0.226856,0.74054 0.330546,0.0164 0.660678,0.0397 0.990118,0.0734 0.52941,0.05 1.059167,0.0935 1.591117,0.10645 0.578509,0.0178 1.157195,2.7e-4 1.735812,-0.006 0.468723,-0.009 0.937382,-0.0287 1.406115,-0.0367 0.48912,0.008 0.975924,0.0642 1.465546,0.0527 0.667659,-0.003 1.335419,-0.006 2.002979,-0.0191 0.57593,-0.0123 1.15248,-0.0259 1.72651,-0.0775 0.45833,-0.0416 0.91556,-0.0972 1.37614,-0.11007 0.48936,-0.0112 0.97881,0.008 1.46709,0.0419 0.48993,0.0396 0.97727,0.10147 1.46038,0.19327 0.5676,0.0907 1.14032,0.14164 1.70997,0.21704 0.51359,0.062 1.0297,0.11449 1.54771,0.10749 h 0.19275 c -0.0785,-0.11929 -0.16021,-0.23691 -0.22272,-0.36587 -0.0781,-0.14975 -0.1564,-0.29935 -0.2403,-0.44597 -0.0972,-0.17248 -0.0774,-0.16614 -0.17053,-0.30179 -0.13589,-0.21816 -0.26193,-0.44189 -0.41031,-0.65216 -0.21372,-0.33429 -0.43639,-0.66302 -0.66766,-0.98547 -0.27184,-0.37066 -0.54233,-0.74232 -0.82165,-1.10742 -0.21592,-0.28483 -0.43863,-0.56517 -0.63873,-0.86145 -0.15335,-0.26079 -0.2663,-0.53927 -0.42323,-0.79788 -0.19592,-0.3331 -0.39677,-0.66353 -0.59582,-0.99477 -0.20185,-0.32222 -0.41754,-0.63511 -0.61237,-0.9617 -0.074,-0.12673 -0.14599,-0.25492 -0.21859,-0.38241 -0.13933,-0.18142 -0.27127,-0.36775 -0.39584,-0.55965 -0.13182,-0.18238 -0.2567,-0.37046 -0.40205,-0.54261 -0.22276,-0.2706 -0.41405,-0.56286 -0.59221,-0.86454 -0.11811,-0.21707 -0.23853,-0.43291 -0.37155,-0.64131 -0.17766,-0.27497 -0.36187,-0.54616 -0.51108,-0.83819 -0.14242,-0.26025 -0.27418,-0.52583 -0.40153,-0.79375 -0.15632,-0.3196 -0.31969,-0.63543 -0.49867,-0.94309 -0.22023,-0.40246 -0.4603,-0.79238 -0.72813,-1.16531 -0.21276,-0.31402 -0.44731,-0.61053 -0.68057,-0.9095 -0.18698,-0.26346 -0.38371,-0.51979 -0.55139,-0.79634 -0.19853,-0.2911 -0.40909,-0.57424 -0.59893,-0.87126 -0.0998,-0.15848 -0.19561,-0.31968 -0.307989,-0.469742 -0.06223,-0.07382 -0.124884,-0.147389 -0.188103,-0.220142 z m -9.429917,0.93948 v 5.3e-4 h -5.29e-4 l -5.29e-4,5.3e-4 -5.29e-4,5.3e-4 -5.29e-4,5.3e-4 c -0.01529,0.0262 -0.0099,0.2457 0.0088,0.32762 0.008,0.0353 0.01945,0.0667 0.03359,0.0951 2.65e-4,-0.13574 0.01244,-0.27649 -0.02842,-0.40566 -0.0032,-0.01 -0.0063,-0.0158 -0.0088,-0.0181 h -5.29e-4 l -5.3e-4,-5.3e-4 h -5.29e-4 v -5.3e-4 h -5.29e-4 -5.29e-4 z m 12.695872,19.86958 c -0.62767,0.0927 -1.25502,0.19046 -1.88051,0.29663 -0.60033,0.11096 -1.205795,0.18883 -1.813842,0.24133 -0.393862,0.0239 -0.78472,0.0782 -1.176674,0.12195 -0.375383,0.0441 -0.754218,0.0509 -1.131713,0.0579 -0.670068,0.008 -1.340096,0.01 -2.010214,0.0109 -0.633772,0.001 -1.266899,5.3e-4 -1.900658,0.002 0.183478,0.10949 0.366945,0.21898 0.549836,0.32919 0.74359,0.45377 1.486384,0.90906 2.217436,1.38286 0.610288,0.40331 1.208579,0.82473 1.81901,1.22782 0.622226,0.40745 1.249336,0.80722 1.862418,1.22836 0.705651,0.49436 1.412101,0.98797 2.134751,1.45728 0.71654,0.44954 1.41777,0.92375 2.14251,1.36012 0.23904,0.13562 0.47726,0.27353 0.71623,0.40978 -0.43299,-0.33842 -0.87996,-0.6591 -1.33273,-0.97048 -0.58873,-0.39342 -1.15603,-0.81805 -1.71566,-1.25159 -0.3677,-0.27141 -0.69915,-0.58799 -1.05523,-0.87334 -0.19573,-0.13951 -0.38057,-0.28951 -0.544153,-0.46613 -0.01852,-0.0217 -0.03678,-0.0434 -0.0553,-0.0651 -1.027721,-1.20205 0.431143,-2.51963 1.283633,-2.49545 0.38752,0.011 0.6496,0.29921 0.4961,1.00148 v 0.001 c -0.0179,-0.01 -0.0281,-0.015 -0.0315,-0.0155 h -5.3e-4 -5.3e-4 v 5.3e-4 h -5.3e-4 v 5.3e-4 h 5.3e-4 v 5.3e-4 c 0.0155,0.0224 0.31378,0.23026 0.31626,0.23357 0.34028,0.27804 0.6641,0.57599 1.01493,0.84129 0.52458,0.40717 1.05729,0.80534 1.60972,1.17409 0.64561,0.4449 1.28011,0.90626 1.88464,1.40612 0.49092,0.40084 0.98933,0.80075 1.38958,1.29655 0.268,0.34525 0.50895,0.71032 0.73122,1.08676 0.0712,0.11488 0.14452,0.22819 0.22065,0.33952 0.57853,0.11439 1.15261,0.24799 1.72342,0.39739 0.53425,0.14154 1.06798,0.28543 1.59886,0.43925 0.40533,0.10996 0.7996,0.25247 1.18339,0.4222 0.21172,0.10197 0.41628,0.212 0.63303,0.30231 0.0385,0.0141 0.0769,0.0287 0.11473,0.0444 -5.3e-4,-0.21165 10e-4,-0.42313 0.0114,-0.63459 0.0244,-0.29876 0.0576,-0.59678 0.0749,-0.89607 0.0129,-0.23563 0.0186,-0.47151 0.0228,-0.70746 -0.005,-0.29858 -0.0399,-0.59662 -0.0589,-0.89503 -0.021,-0.36155 -0.0717,-0.72069 -0.10284,-1.08159 -0.0247,-0.32289 -0.0787,-0.64217 -0.11265,-0.96427 -0.0434,-0.31165 -0.0275,-0.6285 -0.0615,-0.94051 -0.0367,-0.27981 -0.0665,-0.56038 -0.0873,-0.84182 -0.0196,-0.27654 -0.0254,-0.55382 -0.0295,-0.83095 -0.009,-0.31178 0.0366,-0.6227 0.0894,-0.92914 0.0503,-0.23553 0.0874,-0.47317 0.14056,-0.70797 0.0609,-0.2292 0.15255,-0.44828 0.25735,-0.66042 -0.19619,-0.0201 -0.39211,-0.0431 -0.58756,-0.0682 -0.19366,-0.0263 -0.38654,-0.0569 -0.57877,-0.091 -0.0343,0.002 -0.069,0.002 -0.10439,0.003 -0.69231,0.008 -1.38428,-0.0223 -2.07584,-0.0501 -1.76176,-0.0564 -3.51586,-0.22509 -5.2679,-0.4098 -0.84007,-0.096 -1.68098,-0.18461 -2.52232,-0.26923 z m -14.574826,0.38499 c -0.01154,0.002 -0.02939,0.005 -0.03462,0.007 0.0122,-10e-4 0.02439,-0.002 0.03617,-0.004 -5.29e-4,-0.001 -0.0011,-0.002 -0.0016,-0.003 z" /></clipPath><clipPath
       clipPathUnits="userSpaceOnUse"
       id="clipPath90114"><path
         id="path90115"
         style="fill:#ff0000;fill-opacity:1;fill-rule:nonzero;stroke:none;stroke-width:0.264583"
         d="M 40.51794,34.577734 V 172.82873 H 177.74057 V 34.577734 Z m 45.164168,53.018987 -0.0011,0.0011 -0.0011,5.29e-4 -5.29e-4,5.29e-4 -0.0011,5.3e-4 c 0.26161,-0.0038 0.572275,0.07888 0.912606,0.280087 0.366252,0.216533 0.708226,0.470184 1.049031,0.723988 0.428387,0.326451 0.85729,0.652679 1.286743,0.977717 0.04357,0.01945 0.08698,0.03837 0.130741,0.05736 0.326027,0.142256 0.64924,0.291611 0.969452,0.446487 0.33419,0.159824 0.670682,0.314585 1.016473,0.448032 0.312156,0.130564 0.622322,0.265687 0.929659,0.407213 0.339069,0.156869 0.678656,0.313079 1.007692,0.490408 0.223811,0.124452 0.437383,0.26652 0.666626,0.380857 0.220665,0.110715 0.441438,0.221824 0.661458,0.33383 0.214455,0.109384 0.429181,0.218622 0.639755,0.335378 0.189746,0.105574 0.377325,0.215146 0.562755,0.328146 0.182449,0.107032 0.370221,0.204851 0.551905,0.313159 0.181663,0.09692 0.363543,0.194246 0.539501,0.301273 0.127479,0.07982 0.269238,0.13803 0.380855,0.242363 0.06563,0.05305 0.145907,0.08927 0.212907,0.142111 0.113665,0.08501 0.221076,0.178281 0.339514,0.256831 0.181573,0.121719 0.36585,0.238688 0.546221,0.362251 0.300808,0.206434 0.597567,0.418987 0.898136,0.625804 0.305338,0.228248 0.606627,0.467838 0.861963,0.752408 0.173998,0.219634 0.321478,0.451544 0.386028,0.710034 0.28666,0.01114 0.5317,0.127979 0.77153,0.315743 0.1695,0.11516 0.31536,0.258977 0.45887,0.404108 0.12597,0.131006 0.23438,0.27612 0.33746,0.4253 0.0885,-0.01257 0.18173,-0.02445 0.28009,-0.03566 0.42968,-0.04899 0.86714,-0.09481 1.29656,-0.04341 0.34601,0.04142 0.66378,0.211992 0.9958,0.31781 0.33405,0.178705 0.69992,0.307948 1.00252,0.535884 0.25605,0.192871 0.45236,0.45616 0.6501,0.708483 0.21816,0.2784 0.43331,0.564271 0.59376,0.879536 0.14276,0.28046 0.22189,0.58976 0.30799,0.89245 0.29251,1.02792 0.22888,0.9101 0.26148,1.93011 -0.0231,0.32887 -0.0152,0.66127 -0.0692,0.98651 -0.0453,0.27291 -0.13446,0.53765 -0.22686,0.7984 -0.0272,0.0767 -0.0547,0.15352 -0.0832,0.22996 0.0346,0.0474 0.0693,0.0947 0.10387,0.14211 0.40783,0.55953 0.82547,1.11228 1.18959,1.7017 0.21533,0.34327 0.33761,0.72639 0.44442,1.11363 0.0674,0.31373 0.12564,0.62945 0.17725,0.94619 0.0327,0.21392 0.0941,0.42089 0.15709,0.62736 0.0864,0.21684 0.1778,0.43124 0.27957,0.6413 0.0572,0.13007 0.11831,0.25792 0.18242,0.38447 0.40327,0.55001 0.80771,1.09948 1.21388,1.64745 0.30485,0.4196 0.60854,0.84036 0.91002,1.26245 -0.006,-0.0144 -0.0117,-0.0289 -0.0176,-0.0434 -0.11531,-0.27699 -0.27583,-0.58901 -0.32763,-0.88883 -0.0131,-0.0775 -0.0703,-0.19425 -0.003,-0.23564 0.21912,-0.13567 0.36283,-0.22999 0.46457,-0.28629 -0.23947,-0.40112 -0.47943,-0.8017 -0.7271,-1.19786 -0.0436,-0.0711 -0.0873,-0.14225 -0.13074,-0.21343 -0.0394,-0.0446 -0.0793,-0.0888 -0.11885,-0.13332 -0.16262,-0.18471 -0.33056,-0.36474 -0.49505,-0.54777 -0.0187,-0.0115 -0.0338,-0.0231 -0.0331,-0.0367 -0.0285,-0.0319 -0.0571,-0.0639 -0.0852,-0.0961 0.2138,-0.1779 0.40508,-0.38754 0.6351,-0.5426 0.0175,-0.0194 0.0351,-0.0388 0.0522,-0.0584 0.005,0.005 0.009,0.0114 0.0139,0.0165 l 5.3e-4,-5.3e-4 5.3e-4,-5.3e-4 v -5.3e-4 h 5.3e-4 5.3e-4 l 5.3e-4,-5.3e-4 5.2e-4,-5.2e-4 h 5.3e-4 V 109.06 h 5.3e-4 5.3e-4 5.3e-4 5.3e-4 5.3e-4 v -5.3e-4 h 5.3e-4 c 0.0414,-0.0249 0.0692,0.0677 0.10438,0.10077 0.077,0.0723 0.1553,0.14349 0.23358,0.21446 0.0585,-0.0202 0.10139,0.0232 0.18345,0.12196 h 5.3e-4 c 0.0105,2.6e-4 0.0185,0.0141 0.0259,0.032 0.0215,0.0261 0.0462,0.0553 0.0734,0.0873 0.0111,0.0147 0.0221,0.0298 0.0331,0.0444 0.0479,0.0421 0.0951,0.0843 0.14159,0.12764 0.56953,-0.45508 0.7627,0.0949 0.95188,0.53847 0.0858,0.20558 0.16957,0.41173 0.25218,0.61857 0.18222,0.0251 0.24586,0.18095 0.36226,0.44028 0.23639,0.53874 0.46718,1.07971 0.69866,1.62057 0.0988,0.23857 0.20051,0.47726 0.29714,0.71779 0.19923,0.22434 0.3951,0.45188 0.59066,0.67954 0.19016,0.22015 0.38306,0.43882 0.57154,0.66094 0.0554,0.002 0.0893,0.0665 0.18811,0.21446 0.0177,0.0248 0.0348,0.05 0.0522,0.0749 0.0458,0.0566 0.0911,0.11317 0.13591,0.17053 0.27992,-0.42887 0.53029,-0.89858 0.76946,-1.32808 0.13644,-0.24289 0.26822,-0.48814 0.39739,-0.73484 0.26705,-0.59385 0.55105,-1.18037 0.87592,-1.74511 0.0449,-0.0788 0.0892,-0.15787 0.13487,-0.23616 0.0233,-0.04 0.0286,-0.13375 0.0724,-0.11834 h 5.3e-4 5.3e-4 l 5.2e-4,5.3e-4 h 5.3e-4 c 0.083,-0.15295 0.0945,-0.11662 0.31419,0.10387 0.58692,0.18152 0.6028,0.11665 0.447,0.4098 0.005,0.011 -0.007,0.0249 -0.0207,0.0387 -0.0697,0.13125 -0.10097,0.18903 -0.185,0.34624 -0.22503,0.4334 -0.44335,0.87046 -0.66663,1.30483 0.25139,0.12537 0.37568,0.20489 0.41548,0.28834 0.0716,-0.11453 0.14322,-0.22851 0.21549,-0.34261 0.3753,-0.58717 0.74825,-1.17584 1.1281,-1.7601 -0.0305,-0.0692 -0.0117,-0.17313 0.0506,-0.33641 0.12599,-0.24766 0.26488,-0.48764 0.39378,-0.7338 0.0383,-0.0657 0.16084,-0.28908 0.21445,-0.29508 0.0936,-0.01 0.17793,-0.0153 0.25322,-0.0155 0.0793,-0.10981 0.15779,-0.22039 0.23564,-0.33124 0.0164,-0.0348 0.0303,-0.0798 0.0574,-0.0827 0.0369,-0.053 0.0739,-0.1055 0.11059,-0.15865 0.12109,-0.20386 0.24624,-0.40635 0.37362,-0.60668 0.19321,-0.30494 0.3864,-0.61135 0.60203,-0.90124 0.0389,-0.0524 0.0608,-0.17116 0.11472,-0.17415 v 5.3e-4 c 0.006,-2.6e-4 0.0113,-7.9e-4 0.0176,0.003 0.28507,0.10661 0.50709,0.3366 0.76068,0.50488 -0.19041,0.33923 -0.42962,0.64866 -0.63562,0.97823 -0.15283,0.23121 -0.30744,0.46103 -0.46457,0.68937 -0.0243,0.041 -0.0485,0.0823 -0.0724,0.1235 -0.0122,0.0319 -0.0277,0.0678 -0.046,0.10851 -0.11086,0.20017 -0.22215,0.40021 -0.3328,0.60048 -0.0107,0.0206 -0.0202,0.0385 -0.0289,0.0553 0.0188,0.008 0.0371,0.0165 0.0543,0.0284 0.16165,0.11166 0.10993,0.37702 0.16485,0.56533 -0.19681,0.44054 -0.46383,0.84568 -0.69143,1.27022 -0.4815,0.83548 -0.97352,1.66465 -1.50016,2.4727 -0.0601,0.0924 -0.11963,0.18624 -0.17932,0.27958 0.003,0.003 0.007,0.005 0.0114,0.008 0.003,0.002 0.004,0.005 0.005,0.008 0.003,0.0189 -0.0379,0.0469 -0.0512,0.0687 -0.13144,0.21626 -0.2644,0.43188 -0.41341,0.63667 -0.1289,0.18002 -0.25991,0.35879 -0.39584,0.53381 -0.21293,0.35972 -0.43604,0.71344 -0.67232,1.05885 -0.0914,0.1283 -0.22752,0.32232 -0.32452,0.44855 -0.0289,0.0375 -0.0473,0.12713 -0.0909,0.10903 -0.0949,-0.0392 -0.18057,-0.073 -0.25684,-0.10232 -0.0453,0.084 -0.0952,0.16546 -0.15296,0.24238 -0.14132,0.0562 -0.27193,0.15945 -0.42374,0.16846 -0.3516,0.0208 -0.50158,-0.45088 -0.59118,-0.70746 -0.0822,-0.194 -0.17746,-0.38237 -0.28267,-0.56481 l -5.3e-4,-5.3e-4 v -5.3e-4 h -5.3e-4 v -5.3e-4 -5.3e-4 c -0.12791,-0.0298 -0.26908,-0.10804 -0.41031,-0.2496 -0.1568,-0.15717 -0.30761,-0.32038 -0.45372,-0.48731 -0.0463,0.0715 -0.0966,0.14062 -0.15296,0.20309 0.0591,0.0689 0.12094,0.13513 0.18294,0.20154 0.29623,0.31572 0.34107,0.54887 0.23771,0.82992 0.0521,0.0945 0.10339,0.18979 0.14934,0.28732 0.0192,0.0409 0.0433,0.0847 0.0393,0.12971 -0.012,0.13249 -0.0457,0.26174 -0.0749,0.39171 0.16531,-0.17826 0.37128,-0.26534 0.57619,-0.26148 0.45205,0.009 0.9002,0.46039 0.9002,1.35547 v 0.43305 c 0.20955,0.23947 0.35347,0.62149 0.35347,1.14566 v 0.66921 0.68058 0.57465 0.1328 c 0.0234,0.0504 0.0458,0.10303 0.0672,0.15813 0.0542,0.13976 0.12178,0.27324 0.13487,0.42633 0.0556,0.12984 0.0976,0.26486 0.11214,0.4067 0.0281,0.18074 0.074,0.35903 0.076,0.54312 -5e-5,0.15038 -1.9e-4,0.30075 -5.3e-4,0.45113 -0.001,0.15854 2.1e-4,0.31741 -0.003,0.47594 -0.002,0.18082 -0.006,0.36162 -0.0181,0.54209 -0.0177,0.24138 -0.0456,0.48184 -0.0961,0.71882 -0.0586,0.25603 -0.13092,0.50877 -0.19172,0.76429 -0.0557,0.19661 -0.11125,0.3933 -0.14676,0.5948 -0.007,0.0426 -0.0309,0.25305 -0.0496,0.2744 l -5.3e-4,5.3e-4 v 5.3e-4 l -5.3e-4,5.3e-4 h -10e-4 -5.3e-4 v -5.3e-4 l 5.3e-4,-5.3e-4 c 7.9e-4,-0.005 0.006,-0.0174 0.006,-0.0227 v -5.3e-4 -5.3e-4 -5.3e-4 h -5.3e-4 v -5.2e-4 h -5.3e-4 v -5.3e-4 h -5.3e-4 -5.3e-4 l -5.3e-4,5.3e-4 c -0.10873,0.0379 -0.2091,0.0751 -0.3023,0.11162 0.0366,0.19311 0.0726,0.38647 0.10852,0.57981 0.0675,0.35797 0.13307,0.71778 0.14107,1.08314 0.002,0.1523 0.004,0.30453 0.007,0.45682 0.0367,0.15078 0.0588,0.31986 0.0625,0.50695 0.002,0.10263 -0.006,0.20447 -0.0196,0.3054 0.0115,0.13446 0.0258,0.26858 0.0434,0.40256 0.0441,0.35175 0.0693,0.70552 0.12144,1.05627 0.0358,0.21755 0.0713,0.43529 0.0977,0.65422 0.009,0.0427 0.0175,0.0857 0.0248,0.12868 0.008,0.0547 0.0132,0.10973 0.0165,0.16484 0.008,0.0581 0.0125,0.11089 0.008,0.12143 v 5.3e-4 l -5.3e-4,5.3e-4 -5.3e-4,5.3e-4 h -5.3e-4 v 5.3e-4 h -5.3e-4 c -0.12067,0.0227 -0.23408,0.0472 -0.34055,0.0724 0.0205,0.61431 -0.66669,1.13309 -1.75028,0.72037 -0.10026,-0.0382 -0.19835,-0.0807 -0.29507,-0.12713 -0.10424,-0.0798 -0.2871,-0.0374 -0.39118,-0.12092 -0.12101,-0.047 -0.2067,-0.0881 -0.28112,-0.13591 -0.32108,0.0819 -0.52239,-0.0235 -0.39119,-0.59221 0.007,-0.0285 0.0129,-0.0569 0.0202,-0.0853 -0.0321,-0.0275 -0.0595,-0.0518 -0.0749,-0.0656 h -10e-4 l -5.3e-4,-5.3e-4 c -0.0414,-0.0203 -0.0529,-0.028 -0.0946,-0.0543 -0.0761,-0.0473 -0.15196,-0.095 -0.23306,-0.13333 -0.10889,-0.0595 -0.2147,-0.12438 -0.32814,-0.17518 -0.006,-0.003 -0.009,-0.006 -0.0103,-0.007 l -10e-4,-10e-4 c -0.0553,-0.0134 -0.11052,-0.0275 -0.16434,-0.046 -0.16406,-0.0529 -0.32499,-0.11443 -0.49092,-0.16123 -0.22302,-0.0706 -0.44229,-0.15224 -0.66818,-0.21394 -0.26345,-0.0762 -0.52522,-0.15597 -0.78238,-0.25167 -0.29012,-0.0957 -0.58176,-0.18413 -0.87694,-0.26303 -0.37025,-0.10779 -0.74122,-0.22259 -1.0847,-0.40101 -0.55683,-0.29265 -1.08154,-0.64098 -1.62935,-0.94981 -0.87991,-0.50984 -1.76851,-1.00338 -2.65927,-1.49397 -0.83643,-0.46383 -1.67879,-0.9176 -2.51613,-1.37976 -0.72053,-0.39883 -1.43212,-0.81207 -2.139916,-1.233 -0.70933,-0.4206 -1.398966,-0.87097 -2.089277,-1.32188 -0.784728,-0.5048 -1.572001,-1.00551 -2.384867,-1.46451 -0.888191,-0.5148 -1.78231,-1.01937 -2.657721,-1.55598 -0.731094,-0.44418 -1.45287,-0.90363 -2.174026,-1.36374 -0.430723,-0.27984 -0.852437,-0.57211 -1.271757,-0.86868 -0.01582,-0.0109 -0.0312,-0.0227 -0.04703,-0.0336 -0.126741,-0.0438 -0.242041,-0.114 -0.352949,-0.19069 -0.490968,-0.44149 -0.192098,-0.13057 0.690396,-1.4273 -0.133064,-0.0103 -0.26579,-0.0295 -0.397907,-0.0527 -0.234722,-0.0435 -0.449485,-0.14422 -0.653708,-0.26406 -0.05281,-0.0553 -0.100706,-0.10492 -0.143661,-0.15038 -0.0748,0.0103 -0.14959,0.0224 -0.223758,0.0372 -0.0424,0.007 -0.179777,0.0299 -0.232027,0.0279 -0.389308,-0.0155 -0.69641,-0.20849 -0.518832,-0.69763 0.01818,-0.0275 0.03701,-0.0539 0.05633,-0.0801 -0.0034,-7.9e-4 -0.0075,-5.3e-4 -0.01085,-0.002 -0.14737,-0.0427 -0.258574,-0.089 -0.340031,-0.14056 -0.100375,0.13508 -0.211252,0.26149 -0.342099,0.37052 -1.465059,-0.78463 -1.51629,-0.25022 -1.467612,-0.96428 0.01283,-0.16408 0.0308,-0.32767 0.05891,-0.4899 0.02183,-0.12939 0.03851,-0.22453 0.03824,-0.37052 0.01876,-0.26527 0.04634,-0.5297 0.08217,-0.79323 0.05,-0.3884 0.09553,-0.77723 0.130225,-1.16737 0.02564,-0.27352 0.04129,-0.54747 0.02429,-0.82217 -2.65e-4,-0.0146 -1.35e-4,-0.0261 0,-0.0357 -0.0032,-0.0127 -0.0067,-0.0295 -0.01138,-0.0506 -0.06086,-0.21902 -0.08269,-0.44174 -0.08216,-0.66869 -0.01468,-0.3514 -0.03393,-0.70221 -0.05684,-1.05317 -0.03463,-0.54338 -0.06345,-1.08706 -0.07751,-1.63143 -0.01908,-0.46476 -0.04029,-0.92944 -0.02687,-1.39474 0.0034,-0.32575 0.0088,-0.6513 0.02532,-0.97669 0.01812,-0.33051 0.04806,-0.66008 0.07906,-0.9896 0.03178,-0.43509 0.03678,-0.87189 0.06201,-1.30741 0.01556,-0.56509 -0.0052,-1.13087 -0.0098,-1.69602 -0.01405,-0.72016 -0.03294,-1.44046 -0.07596,-2.15956 -0.03875,-0.62949 -0.08792,-1.25836 -0.135908,-1.887223 -0.03649,-0.516766 -0.04964,-1.03378 -0.04134,-1.551845 -2.65e-4,-0.409424 -5.3e-4,-0.81893 -0.0026,-1.228346 -0.0021,-0.410734 -0.0052,-0.821323 -0.01447,-1.231969 -0.01101,-0.447096 -0.02698,-0.894498 -0.0615,-1.340485 -0.03502,-0.452882 -0.07298,-0.905121 -0.106968,-1.358056 -0.04902,-0.52492 -0.100476,-1.049724 -0.138494,-1.575615 -0.03359,-0.477031 -0.04987,-0.954712 -0.03928,-1.432989 5.29e-4,-0.05233 7.94e-4,-0.104256 0.0016,-0.156578 5.29e-4,-0.03173 -0.0245,-0.08889 -0.0067,-0.10542 l 5.3e-4,-5.29e-4 c 0.0024,-0.0016 0.0059,-0.0027 0.0093,-0.0031 h 5.29e-4 5.29e-4 5.29e-4 v -5.29e-4 h 5.3e-4 5.29e-4 5.29e-4 c -0.02019,-0.305112 0.01976,-0.213553 0.576191,-0.08734 0.204004,-0.03786 0.373742,-0.07771 0.515215,-0.114203 0.0069,-0.05551 0.01368,-0.110953 0.02119,-0.166399 -0.06005,-0.03874 -0.120361,-0.07619 -0.181901,-0.112654 h -0.0011 c -1.214475,-0.719598 -0.907428,-1.83135 0.02635,-1.845365 z m 1.817976,3.337263 c -0.02676,0.188413 -0.0533,0.376854 -0.07234,0.566373 -0.02259,0.324067 -0.05262,0.646827 -0.09043,0.969452 -0.01749,0.165756 -0.04087,0.331155 -0.05633,0.497125 -0.0051,0.0529 -0.0085,0.106035 -0.0098,0.159166 -0.0073,0.163568 -0.04607,0.322101 -0.05736,0.48524 -0.01638,0.22823 -0.02283,0.457041 -0.02842,0.685747 -0.0039,0.166942 -0.0056,0.334283 -0.0067,0.501261 0.0059,0.230214 -0.07914,0.69596 -0.298172,0.872816 0.0016,0.06073 0.0029,0.121687 0.0047,0.182417 0.0096,0.422428 0.01267,0.8451 0.01498,1.267624 0.0019,0.412239 0.0024,0.824373 0.0026,1.236617 -0.0073,0.475052 0.0027,0.948828 0.03721,1.422652 0.04859,0.634726 0.09748,1.269926 0.13694,1.905306 0.04472,0.74474 0.06394,1.49072 0.07855,2.23656 0.0071,0.59256 0.02402,1.18515 0.0098,1.77767 -0.02421,0.46296 -0.03399,0.92655 -0.06563,1.38906 -0.02843,0.31972 -0.06056,0.63904 -0.07752,0.95963 -0.01487,0.29894 -0.01913,0.59836 -0.02222,0.89762 -0.01339,0.43407 0.008,0.86766 0.02585,1.30121 0.01347,0.53063 0.04169,1.05993 0.07545,1.58957 0.02376,0.36418 0.04307,0.72884 0.0584,1.09347 l -5.29e-4,5.3e-4 v 5.3e-4 c -0.007,0.0189 0.0059,0.1587 0.01344,0.23668 0.05152,0.13191 0.07078,0.34271 0.0801,0.50539 0.0013,0.0213 0.0026,0.0427 0.0036,0.0641 0.109308,-0.23487 0.216041,-0.47121 0.323496,-0.70693 0.246105,-0.55628 0.498197,-1.10964 0.745172,-1.66553 0.197372,-0.44331 0.409054,-0.87952 0.588079,-1.33067 0.159681,-0.39451 0.297894,-0.79694 0.426331,-1.20251 0.111318,-0.33352 0.183028,-0.67757 0.257347,-1.02061 0.07423,-0.34021 0.156792,-0.67815 0.220141,-1.02061 0.05634,-0.32621 0.141529,-0.64609 0.23513,-0.96325 0.06809,-0.21303 0.143378,-0.42338 0.218073,-0.63407 -0.15579,0.19304 -0.298861,0.39585 -0.444934,0.59635 -0.532144,0.73038 -1.27009,0.19293 -0.737939,-0.53744 0.186179,-0.25553 0.368564,-0.51431 0.574125,-0.75499 0.337261,-0.39984 0.665974,-0.80677 1.008723,-1.202 0.527767,-0.63157 1.063956,-1.25606 1.592152,-1.88722 0.04727,-0.0752 0.09482,-0.14988 0.141594,-0.22531 0.101569,-0.1829 0.222827,-0.35325 0.337963,-0.52762 0.154654,-0.21886 0.315259,-0.4338 0.481624,-0.64388 0.173693,-0.249513 0.342164,-0.501465 0.523999,-0.745178 0.204057,-0.293312 0.401445,-0.59099 0.614434,-0.877983 0.04952,-0.0655 0.100402,-0.129934 0.151929,-0.193786 -0.643776,-0.151191 -0.560549,-0.885735 0.250113,-0.885735 h 0.0894 0.469739 c 0.09676,-0.09622 0.193985,-0.191895 0.294555,-0.284221 0.05222,-0.04422 0.105098,-0.08763 0.158647,-0.130225 -0.06247,-0.02551 -0.124965,-0.05079 -0.187584,-0.07596 -0.1826,-0.07789 -0.369165,-0.155766 -0.536403,-0.263036 -0.05197,-0.04007 -0.109829,-0.07546 -0.16278,-0.11472 -0.01114,-0.0065 -0.02246,-0.01307 -0.03359,-0.01963 C 94.654817,96.28286 94.467384,96.126341 94.288899,95.960082 93.927761,95.643304 93.552605,95.34196 93.183538,95.034559 92.619949,94.586077 92.042274,94.15624 91.462715,93.728695 90.712817,93.17688 89.954066,92.637376 89.209621,92.07815 88.802255,91.773646 88.39577,91.467579 87.990058,91.160892 87.826472,91.085872 87.66361,91.009342 87.500164,90.934033 Z m 15.445056,7.510653 c -0.15615,-0.0016 -0.31266,0.01498 -0.46871,0.03721 0.016,0.02122 0.0322,0.04313 0.0491,0.06563 0.4711,0.642967 0.90097,1.314175 1.30639,2.000393 0.22837,0.38329 0.45511,0.76772 0.67799,1.15445 0.18046,0.25157 0.36161,0.50275 0.5426,0.75396 0.36036,0.50244 0.72531,1.00153 1.09089,1.50017 0.0472,-0.16367 0.0829,-0.30261 0.0935,-0.37104 0.0401,-0.26203 0.0243,-0.52992 0.0367,-0.79479 -0.0337,-0.92229 0.0305,-0.76996 -0.23772,-1.66191 -0.082,-0.27268 -0.15102,-0.55367 -0.28267,-0.80615 -0.12522,-0.24014 -0.30659,-0.447372 -0.47955,-0.655771 -0.17827,-0.2148 -0.34601,-0.448072 -0.57206,-0.611849 -0.22047,-0.159729 -0.49516,-0.226984 -0.74259,-0.340548 -0.28609,-0.08724 -0.56015,-0.232979 -0.85783,-0.261998 -0.0519,-0.0051 -0.10401,-0.0071 -0.15606,-0.0078 z m -2.4443,0.559655 c -0.16262,0.08019 -0.33857,0.171691 -0.515211,0.267168 -0.105696,0.191196 -0.218022,0.379143 -0.350367,0.553456 -0.215463,0.281024 -0.427479,0.564534 -0.646472,0.842844 -0.268338,0.36164 -0.533389,0.72579 -0.782897,1.10071 -0.147502,0.29854 -0.292417,0.59813 -0.432533,0.9002 -0.282686,0.58 -0.570738,1.15719 -0.867648,1.73013 -0.106624,0.22853 -0.21323,0.45696 -0.320394,0.68523 -0.687753,1.44656 -1.391068,2.88594 -2.108396,4.31808 -0.03409,0.0668 -0.06832,0.13367 -0.10232,0.2005 0.122063,0.12748 0.267079,0.27457 0.440799,0.44235 0.05535,0.0535 -0.04136,0.14836 -0.0677,0.22066 -0.08633,0.23706 -0.163946,0.38244 -0.280085,0.61443 -0.068,0.13583 -0.137956,0.27125 -0.206706,0.4067 -0.123917,0.23393 -0.249695,0.46657 -0.377756,0.69815 0.08717,0.19551 0.179314,0.3901 0.306959,0.56069 0.140859,0.18824 0.34244,0.32205 0.513665,0.48317 0.196993,0.13954 0.373234,0.31367 0.590661,0.41858 0.217451,0.10493 0.45997,0.14925 0.695566,0.20205 0.255233,0.0572 0.513151,0.12064 0.774628,0.12764 0.351296,0.009 1.338337,-0.16156 1.660364,-0.26458 0.2842,-0.0909 0.547693,-0.23626 0.821656,-0.3545 0.264345,-0.14227 0.540951,-0.2641 0.793237,-0.42685 0.25039,-0.16154 0.4803,-0.35334 0.71003,-0.54312 0.64484,-0.53272 1.17988,-1.12533 1.64848,-1.81849 0.13384,-0.19798 0.2456,-0.40997 0.36845,-0.61495 0.0456,-0.0874 0.0847,-0.16026 0.11834,-0.22324 -0.0418,0.0519 -0.0846,0.10318 -0.12815,0.15348 -0.17413,0.20091 -0.38512,0.36608 -0.57775,0.54932 -0.23679,0.16952 -0.45534,0.36875 -0.71055,0.50901 -0.21322,0.11719 -0.44966,0.18843 -0.68316,0.25683 -0.25929,0.076 -0.52236,0.14737 -0.79117,0.17467 -0.224901,0.0228 -0.452945,-0.004 -0.677995,-0.0253 -0.760113,-0.0719 -0.660119,-0.0803 -1.329634,-0.32195 -0.205081,-0.0993 -0.420013,-0.1797 -0.61495,-0.29765 -0.156197,-0.0945 -0.297685,-0.21335 -0.43253,-0.33642 -0.152194,-0.13891 -0.302993,-0.28245 -0.426331,-0.44751 -0.158118,-0.2116 -0.342731,-0.6966 -0.389642,-0.94 -0.02706,-0.14038 -0.0089,-0.28603 -0.01344,-0.42891 0.02138,-0.16729 0.02458,-0.33782 0.06408,-0.50178 0.03206,-0.13311 0.09211,-0.2583 0.148828,-0.38292 0.261718,-0.57499 0.661469,-1.05832 1.199925,-1.39527 0.155657,-0.0882 0.30488,-0.18918 0.467156,-0.26458 0.152504,-0.0708 0.313262,-0.12228 0.473872,-0.17208 0.758243,-0.23494 1.556491,-0.28579 2.344561,-0.20929 0.009,10e-4 0.0183,0.002 0.0274,0.003 -0.0608,-0.0726 -0.11823,-0.14774 -0.17519,-0.22324 -0.11278,-0.14953 -0.22449,-0.30159 -0.31676,-0.46457 -0.0714,-0.12609 -0.12181,-0.26322 -0.17261,-0.39895 -0.171691,-0.45903 -0.14057,-0.39589 -0.200504,-0.8356 -0.0041,-0.14402 -0.01958,-0.28815 -0.01188,-0.43202 0.0057,-0.10611 0.02935,-0.21093 0.05219,-0.31471 0.0889,-0.40401 0.25667,-0.77919 0.53433,-1.08986 0.0817,-0.0748 0.15645,-0.15767 0.24495,-0.22427 0.31149,-0.23435 0.7084,-0.30252 1.08366,-0.24236 -0.0177,-0.0605 -0.035,-0.12076 -0.0522,-0.18139 -0.20372,-0.30153 -0.40305,-0.60624 -0.59221,-0.91725 -0.23871,-0.374295 -0.47976,-0.746762 -0.72347,-1.117768 -0.002,-0.0026 -0.003,-0.0052 -0.005,-0.0078 z m -5.941754,2.262908 c -0.09994,0.12979 -0.19716,0.26124 -0.293521,0.39378 -0.105675,0.15994 -0.217721,0.31591 -0.31006,0.48421 -0.102981,0.16595 -0.211037,0.32893 -0.306959,0.49919 -0.137414,0.23084 -0.262369,0.46809 -0.390155,0.70435 -0.147595,0.28301 -0.308901,0.55864 -0.454236,0.84284 -0.144352,0.28615 -0.300043,0.56615 -0.45992,0.84388 -0.104984,0.20119 -0.201555,0.40602 -0.298175,0.61133 -0.02524,0.0719 -0.05104,0.14366 -0.07648,0.21549 0.0047,-0.009 0.0096,-0.0169 0.01447,-0.0253 0.09733,-0.15813 0.183684,-0.32265 0.276984,-0.48317 0.124072,-0.21679 0.232805,-0.44178 0.354502,-0.65991 0.147175,-0.2606 0.308616,-0.5121 0.467154,-0.76585 0.133168,-0.22194 0.261546,-0.44658 0.395325,-0.66817 0.154823,-0.25995 0.289065,-0.53064 0.440285,-0.79272 0.163867,-0.3107 0.317574,-0.62698 0.493509,-0.93121 0.04996,-0.0891 0.09945,-0.17851 0.147277,-0.26872 z m 7.062104,0.83768 c -0.0231,0.002 -0.0458,0.0123 -0.0687,0.0165 -0.15367,0.0309 -0.26545,0.0865 -0.35915,0.21807 -0.19829,0.2537 -0.32322,0.58206 -0.33332,0.9064 -0.002,0.08 0.0145,0.15905 0.0228,0.23875 0.0511,0.34716 0.0165,0.2551 0.15245,0.58756 0.0456,0.11151 0.0848,0.22681 0.14572,0.33073 0.0634,0.10818 0.1464,0.20347 0.2248,0.30127 0.0897,0.11192 0.1757,0.22813 0.27905,0.32763 0.10854,0.10447 0.23563,0.18732 0.35347,0.28112 0.44494,0.30808 0.34303,0.27393 0.84646,0.47749 0.15619,0.0632 0.31092,0.1339 0.4749,0.1726 0.0529,0.0125 0.10625,0.0214 0.1602,0.0279 0.003,-0.0135 0.005,-0.0274 0.008,-0.0408 -0.21005,-0.51606 -0.41372,-1.03447 -0.60823,-1.55649 -0.23786,0.0658 -0.44153,0.21573 -0.65319,0.34365 -0.77341,0.46743 -1.24617,-0.32861 -0.46612,-0.78497 0.26693,-0.15622 0.52825,-0.31414 0.81235,-0.40824 -0.12757,-0.36469 -0.24976,-0.73117 -0.36639,-1.09968 -0.13209,-0.1448 -0.28594,-0.26301 -0.47749,-0.31057 -0.0458,-0.01 -0.0907,-0.0259 -0.13746,-0.0289 -0.003,-2e-4 -0.007,-2.1e-4 -0.0103,0 z m -1.42007,4.22661 c -0.506554,-0.007 -1.012826,0.0516 -1.496035,0.20981 -0.135374,0.0443 -0.272473,0.0874 -0.401008,0.14883 -0.113104,0.054 -0.21391,0.13055 -0.32091,0.19585 -0.384246,0.24383 -0.667234,0.59391 -0.842325,1.01183 -0.0419,0.1 -0.09128,0.19841 -0.114207,0.30437 -0.01836,0.085 -0.0052,0.17407 -0.0078,0.26097 0.0056,0.10186 -0.0071,0.2062 0.01654,0.3054 0.02077,0.0873 0.07304,0.16422 0.114205,0.24392 0.05259,0.10184 0.09475,0.21165 0.166915,0.30075 0.07326,0.0904 0.171937,0.15686 0.262517,0.22996 0.410442,0.33102 0.288919,0.23681 0.792199,0.45682 0.579099,0.20483 0.445773,0.20085 1.065567,0.24495 0.195956,0.0142 0.393888,0.0407 0.589122,0.0181 0.18705,-0.0216 0.36603,-0.0899 0.54467,-0.14935 0.19417,-0.0647 0.39456,-0.12079 0.57205,-0.22272 0.1807,-0.10377 0.32691,-0.2584 0.49041,-0.38758 0.16392,-0.15891 0.34454,-0.30263 0.49196,-0.47697 0.15381,-0.18189 0.27998,-0.386 0.40773,-0.58704 0.32161,-0.50615 0.42177,-0.71611 0.63717,-1.25884 -0.0498,-0.0553 -0.0992,-0.11121 -0.15916,-0.15451 -0.10015,-0.0723 -0.21582,-0.12055 -0.32712,-0.17415 -0.4497,-0.2166 -0.9306,-0.35459 -1.42368,-0.43409 -0.18298,-0.0295 -0.36866,-0.0391 -0.55294,-0.0589 -0.16796,-0.0156 -0.33706,-0.0251 -0.50591,-0.0274 z m 4.75268,0.6935 c -0.0271,0.0533 -0.0585,0.10549 -0.0827,0.15968 -0.20686,0.005 -0.41516,0.037 -0.62115,0.0269 0.0182,0.0408 0.0344,0.0828 0.0475,0.12558 0.0487,0.15794 0.0438,0.32833 0.0434,0.49351 -5.3e-4,0.19801 -0.01,0.39769 -0.0465,0.59221 -0.0358,0.18845 -0.10643,0.3685 -0.17053,0.54932 -0.23306,0.65788 -0.24641,0.62759 -0.57568,1.2547 -0.14045,0.231 -0.26899,0.46953 -0.42116,0.69298 -0.51085,0.75009 -1.12275,1.42564 -1.82728,1.9973 -0.26791,0.21738 -0.53844,0.43369 -0.82941,0.61908 -0.27715,0.17659 -0.580191,0.30903 -0.870227,0.46354 -0.330073,0.13568 -0.649221,0.30166 -0.990121,0.40721 -0.491707,0.15226 -1.497497,0.29147 -1.999361,0.27027 -0.488132,-0.0206 -1.428501,-0.27293 -1.850017,-0.48834 -0.258292,-0.132 -0.468106,-0.34251 -0.702284,-0.51367 -0.226049,-0.23586 -0.486928,-0.44246 -0.677994,-0.70745 -0.01069,-0.0148 -0.02122,-0.0299 -0.03152,-0.045 -0.310417,0.52925 -0.63251,1.05179 -0.966864,1.56683 -0.07061,0.10683 -0.141782,0.21342 -0.212908,0.31988 -0.04364,0.0977 -0.08728,0.19543 -0.131257,0.293 -0.266504,0.55535 -0.538744,1.10888 -0.852662,1.63918 0.316693,0.0268 0.633397,0.0502 0.950328,0.0744 0.661257,0.0333 1.322959,0.0699 1.985409,0.0599 0.87385,-0.004 1.746282,-0.0436 2.616378,-0.12764 0.939612,-0.0956 1.878528,-0.1983 2.813783,-0.33073 0.907787,-0.0984 1.817087,-0.17428 2.728517,-0.23048 0.74605,-0.0459 1.49352,-0.0781 2.23758,-0.15141 0.70819,-0.0766 1.41653,-0.15077 2.12752,-0.19637 0.6086,-0.0333 1.21875,-0.0542 1.82832,-0.0372 0.63715,0.0363 1.27428,0.0844 1.9022,0.20413 0.33634,0.0678 0.67211,0.13889 1.00459,0.22324 -0.0209,-0.0277 -0.0418,-0.0552 -0.063,-0.0827 -0.20656,-0.24323 -0.41793,-0.482 -0.6289,-0.72141 -0.18785,-0.19783 -0.37926,-0.39224 -0.56741,-0.58963 -0.20739,-0.254 -0.3885,-0.5265 -0.58394,-0.78961 -0.17658,-0.24083 -0.33847,-0.4918 -0.52452,-0.72554 -0.12855,-0.16522 -0.25097,-0.33447 -0.36587,-0.50901 -0.10476,0.0468 -0.2105,0.0927 -0.31006,0.14676 -0.44608,-0.53422 -0.70166,-1.20046 -1.03094,-1.80609 -0.176,-0.36295 -0.35249,-0.72651 -0.52348,-1.09296 -0.59948,-1.01721 -1.21069,-2.02782 -1.8278,-3.03444 z m 16.11323,4.2106 c -0.003,0.006 -0.007,0.0109 -0.0103,0.016 l -5.3e-4,5.3e-4 v 5.3e-4 5.3e-4 5.2e-4 5.3e-4 l -5.3e-4,5.3e-4 -5.3e-4,5.3e-4 v 5.3e-4 5.3e-4 h 5.3e-4 v -5.3e-4 c 0.003,-0.003 0.0111,-0.0143 0.0114,-0.0202 z m -8.3814,2.36471 c 0.003,0.003 0.0156,0.0159 0.0263,0.0263 -2.6e-4,-10e-4 -5.3e-4,-0.002 -10e-4,-0.003 -0.0136,-0.0133 -0.0222,-0.0205 -0.0253,-0.0233 z m 3.14399,3.64267 c -0.0117,0.007 -0.0238,0.0145 -0.0357,0.0217 0.0147,0.10023 -7.9e-4,0.1904 -0.0398,0.26355 0.0893,-0.051 0.1655,-0.10102 0.20309,-0.17002 -0.0482,-0.0316 -0.0912,-0.0704 -0.12764,-0.11524 z m -0.61236,0.32763 v 5.3e-4 h 5.3e-4 v -5.3e-4 z m 0.002,0.004 c 0.003,0.004 0.008,0.01 0.0145,0.0176 -0.007,-0.0104 -0.012,-0.015 -0.0145,-0.0176 z m -0.59479,0.80821 v 5.3e-4 c -0.001,0.003 -0.003,0.005 -0.004,0.008 7.9e-4,-3e-5 0.003,-2.7e-4 0.004,-5.3e-4 h 5.3e-4 l 5.3e-4,-5.3e-4 h 5.3e-4 l 5.3e-4,-5.3e-4 5.3e-4,-5.3e-4 v -5.3e-4 h 5.3e-4 v -5.3e-4 -5.3e-4 -5.3e-4 -5.2e-4 -5.3e-4 -5.3e-4 h -5.3e-4 v -5.3e-4 h -5.3e-4 l -5.3e-4,-5.3e-4 v -5.3e-4 -5.3e-4 h -5.3e-4 v -5.3e-4 z m -2.01488,0.18552 c 8e-4,0.009 0.002,0.0176 0.003,0.0263 h 5.3e-4 5.3e-4 v 5.3e-4 l 5.3e-4,5.3e-4 v 5.3e-4 5.3e-4 h 5.3e-4 c 0.0125,0.0314 0.0214,0.0652 0.031,0.0982 0.0582,0.1139 7.9e-4,0.003 0.0589,0.12609 -0.002,-0.005 -0.007,-0.0203 -0.0103,-0.0269 0.0605,0.1036 0.10619,0.21477 0.15038,0.32608 0.0417,0.0959 0.0604,0.19298 0.0863,0.2961 5.3e-4,0.004 0.001,0.009 0.002,0.014 0.26759,0.007 0.53526,0.0168 0.80253,0.0326 0.26991,0.02 0.53928,0.0448 0.80874,0.0698 0.0386,-0.13812 0.0911,-0.25803 0.154,-0.35967 -0.0555,0.0372 -0.11146,0.0729 -0.1757,0.0863 -0.23371,0.0486 -0.44342,-0.11437 -0.60927,-0.2465 -0.0119,-0.0116 -0.0241,-0.0232 -0.0362,-0.0346 -0.0908,0.006 -0.18186,0.0111 -0.27285,0.008 -0.20347,-0.005 -0.5883,-0.23343 -0.78704,-0.32763 -0.0686,-0.0311 -0.13778,-0.0609 -0.20722,-0.0899 z m -21.99503,0.57206 c 0.0054,0.001 0.01556,0.004 0.01963,0.007 h 5.29e-4 v 5.3e-4 h 5.29e-4 v 5.3e-4 5.3e-4 h -5.29e-4 -5.29e-4 c -0.0213,0.01 -0.04573,0.009 -0.06873,0.0129 -0.217511,0.0306 -0.429789,0.0869 -0.644406,0.13229 0.02096,0.003 0.04326,0.006 0.0677,0.007 0.11708,0.0236 0.270816,-0.001 0.402044,0.008 0.282234,0 0.564746,7.9e-4 0.846977,-0.003 0.354549,-0.003 0.709088,-0.006 1.0635,-0.0165 0.09752,-0.004 0.195012,-0.007 0.292489,-0.0119 -0.07764,-0.003 -0.155421,-0.005 -0.233061,-0.008 -0.450932,-0.0239 -0.900837,-0.0665 -1.350822,-0.10335 -0.130992,0.002 -0.264168,-0.034 -0.395324,-0.0259 z m 20.95738,0.15555 c -0.0419,0.0406 -0.0872,0.078 -0.13642,0.11162 0.098,10e-4 0.19599,0.002 0.29403,0.003 -0.0537,-0.0404 -0.10658,-0.0791 -0.15761,-0.11421 z m 2.66806,1.26245 v 5.3e-4 c -0.004,0.007 -0.0193,0.0514 -0.0191,0.0718 0.009,-0.0302 0.0176,-0.0609 0.0191,-0.0677 5.3e-4,-0.002 5.3e-4,-0.003 5.3e-4,-0.004 v -5.3e-4 z m -13.83069,0.13384 c -0.16628,-0.0111 -0.33131,-0.007 -0.497128,0.006 -0.308864,0.0205 -0.615452,0.0614 -0.923456,0.0915 -0.402003,0.0345 -0.805498,0.0473 -1.208712,0.0574 -0.358662,0.007 -0.717693,0.0104 -1.076421,0.0124 -0.250153,10e-4 -0.500186,10e-4 -0.750342,0.002 -0.167061,2e-4 -0.334201,5.3e-4 -0.501261,5.3e-4 -0.128294,0.002 -0.256911,-0.008 -0.382924,0.0114 -0.205388,0.0251 -0.40785,0.0667 -0.61288,0.0951 -0.322916,0.0371 -0.647589,0.0457 -0.971,0.077 -0.293955,0.029 -0.588656,0.0465 -0.883669,0.0594 0.28947,0.1813 0.579798,0.3612 0.871784,0.53847 0.864775,0.53 1.748261,1.02792 2.62568,1.53634 0.837208,0.47329 1.648216,0.98887 2.456696,1.50895 0.672031,0.43787 1.341964,0.8782 2.032443,1.28675 0.69242,0.41199 1.38844,0.81648 2.09341,1.20664 0.83783,0.46227 1.68027,0.91577 2.51715,1.37976 0.90084,0.4961 1.79939,0.99599 2.68925,1.51154 0.52782,0.28758 1.02192,0.63582 1.557,0.91002 0.23781,0.11993 0.49489,0.19347 0.74983,0.26717 0.31633,0.0846 0.62955,0.17972 0.94052,0.28215 0.2356,0.0888 0.47508,0.16191 0.71675,0.23151 0.23925,0.0622 0.46917,0.15329 0.70538,0.22479 0.1716,0.048 0.33843,0.11233 0.50797,0.16692 0.1319,0.0326 0.25876,0.0793 0.38293,0.13539 0.14777,0.0614 0.28083,0.15195 0.42323,0.22324 0.0765,0.0378 0.15111,0.0795 0.22427,0.12351 v -5.3e-4 h -5.2e-4 v -5.3e-4 h 5.2e-4 5.3e-4 c 0.006,0.002 0.0429,0.0219 0.13126,0.0744 0.0468,-0.0835 0.0957,-0.16594 0.14986,-0.24495 0.0346,-0.0535 0.0652,-0.10795 0.092,-0.16433 -0.003,-0.0318 -0.006,-0.0638 -0.009,-0.0956 -0.0293,-0.31476 -0.0392,-0.63148 -0.0889,-0.94413 -0.0515,-0.34241 -0.10938,-0.68442 -0.17828,-1.02371 -0.0716,-0.35433 -0.13625,-0.71035 -0.17725,-1.0697 -0.0457,-0.34598 -0.1021,-0.69179 -0.0863,-1.04231 0.004,-0.32311 0.009,-0.64666 0.0248,-0.96945 0.007,-0.13613 0.0155,-0.27182 0.0259,-0.40773 -0.0257,-0.2426 -0.0495,-0.4856 -0.0708,-0.72864 -0.0331,-0.38304 -0.0368,-0.76738 -0.0765,-1.1498 -0.0341,-0.30346 -0.0552,-0.60817 -0.0698,-0.91312 -0.0113,-0.27937 -0.0151,-0.55915 -0.0181,-0.83871 -0.006,-0.25389 -0.006,-0.50646 0.0212,-0.75913 0.0171,-0.20224 0.0673,-0.39897 0.11369,-0.59583 0.0456,-0.14853 0.083,-0.29909 0.12505,-0.44855 -0.13478,-0.0121 -0.26961,-0.0237 -0.40462,-0.0336 -0.52377,-0.0295 -1.04858,-0.0364 -1.57303,-0.0434 -0.55085,-0.006 -1.10174,-0.008 -1.65262,-0.01 -0.504,0.0113 -1.00596,-0.0145 -1.50688,-0.0682 -0.41797,-0.0482 -0.83,-0.13446 -1.23817,-0.23462 -0.29054,-0.0696 -0.58753,-0.0959 -0.8847,-0.11679 -0.38409,-0.0213 -0.76885,-0.0265 -1.15342,-0.0315 -0.43221,-0.004 -0.86433,-0.005 -1.29656,-0.006 -0.42961,-0.011 -0.85853,0.0171 -1.28725,0.0398 -0.38644,0.0198 -0.7728,0.0313 -1.15963,0.0393 -0.33897,0.007 -0.67253,-0.0512 -1.00562,-0.1049 -0.14357,-0.0234 -0.28809,-0.0412 -0.43304,-0.0532 z m 16.3959,3.52434 c 0.008,0.0163 0.0151,0.0326 0.0227,0.0491 -0.008,-0.023 -0.0161,-0.0432 -0.0227,-0.0491 z" /></clipPath><clipPath
       clipPathUnits="userSpaceOnUse"
       id="clipPath90144"><path
         id="path90145"
         style="fill:#ff0000;fill-opacity:1;fill-rule:nonzero;stroke:none;stroke-width:0.264582"
         d="M 40.779423,34.809721 V 172.60184 H 177.39628 V 34.809721 Z m 48.521146,40.363126 c 3.981959,0.108929 7.963001,4.155731 8.170146,12.138083 0.02117,0.815706 -0.08679,1.610502 -0.25506,2.395137 1.198632,0.252661 2.457351,0.725255 3.928095,1.140192 0.41785,0.117884 1.24751,1.003187 1.64382,1.293921 1.47687,1.341457 2.91112,2.737589 4.15587,4.301808 2.22169,2.739125 4.31066,5.602162 5.84949,8.791122 0.30103,0.6435 0.62022,1.27871 0.90289,1.93049 0.3115,0.71824 0.59724,1.45116 0.85092,2.19551 0.77963,0.51716 1.95815,2.89583 2.21326,3.54788 0.22767,0.59365 0.43542,1.19389 0.62401,1.79971 0.0277,-0.0455 0.0546,-0.0853 0.0667,-0.0914 h 4.4e-4 l 4.5e-4,-8.9e-4 h 8.8e-4 4.5e-4 l 4.4e-4,-4.4e-4 h 4.4e-4 8.9e-4 4.4e-4 c 0.0749,0.0219 0.13574,0.0379 0.18447,0.0507 0.11084,-0.27308 0.22076,-0.54624 0.33474,-0.81801 0.004,-0.0332 0.006,-0.0701 0.0299,-0.071 0.0518,-0.12077 0.0744,-0.14367 0.24424,0.008 0.0478,-0.097 0.0888,-0.18002 0.14593,-0.29143 0.0248,-0.0481 0.0233,-0.13097 0.0714,-0.14853 0.002,-0.005 0.004,-0.009 0.007,-0.0113 l 4.4e-4,-4.4e-4 4.5e-4,-4.5e-4 8.8e-4,-8.8e-4 4.5e-4,-4.5e-4 h 4.4e-4 4.4e-4 0.001 4.5e-4 8.8e-4 4.5e-4 8.8e-4 l 4.5e-4,4.5e-4 4.4e-4,8.8e-4 4.5e-4,4.5e-4 0.003,0.003 4.5e-4,4.4e-4 8.8e-4,4.4e-4 v 4.5e-4 l 8.9e-4,8.8e-4 v 4.5e-4 c 9e-5,6.6e-4 2.2e-4,0.002 4.4e-4,0.003 v 4.5e-4 h 4.5e-4 c 0.0196,-0.004 0.0401,-0.006 0.0602,-0.008 0.15733,-0.30999 0.31601,-0.61974 0.47071,-0.93103 0.001,-0.002 0.002,-0.004 0.003,-0.007 l 4.4e-4,-4.5e-4 v -4.4e-4 -4.5e-4 h 4.4e-4 v -4.4e-4 l 4.5e-4,-4.4e-4 v -4.5e-4 -4.4e-4 l 8.8e-4,-4.4e-4 c 0.0116,-0.0273 0.01,-0.0791 0.0372,-0.0775 0.004,-0.009 0.009,-0.0178 0.0126,-0.0268 0.005,-0.01 0.007,-0.0308 0.013,-0.0377 l 0.002,-0.002 h 4.4e-4 l 4.4e-4,-4.4e-4 h 4.5e-4 8.8e-4 4.5e-4 4.4e-4 4.4e-4 0.001 8.9e-4 v 4.4e-4 h 4.5e-4 v 4.4e-4 c 0.0407,0.0237 0.0819,0.0479 0.12211,0.0732 0.23139,-0.36998 0.45835,-0.74302 0.68853,-1.11377 0.0908,-0.14157 0.17589,-0.28662 0.26719,-0.42785 0.0154,-0.0239 0.0323,-0.0479 0.0489,-0.071 0.009,-0.0115 0.0166,-0.0381 0.0264,-0.0442 l -0.001,-8.8e-4 h 8.9e-4 l 4.4e-4,4.4e-4 h 4.5e-4 4.4e-4 l 4.4e-4,4.4e-4 h 8.9e-4 l 4.4e-4,4.5e-4 h 4.5e-4 4.4e-4 l 4.5e-4,4.4e-4 0.001,4.4e-4 c 0.10341,0.069 0.19017,0.15905 0.2819,0.24337 0.0167,0.007 0.0333,0.014 0.0498,0.0212 h 4.5e-4 v 4.5e-4 h 8.8e-4 l 8.9e-4,8.8e-4 v 4.5e-4 4.4e-4 4.4e-4 4.5e-4 l -8.9e-4,8.8e-4 c -0.002,0.003 -0.008,0.007 -0.0121,0.01 0.003,0.003 0.007,0.006 0.01,0.009 -0.29998,0.62338 -0.60471,1.24425 -0.90636,1.86683 -0.1637,0.33608 -0.32501,0.67312 -0.4837,1.01158 0.0382,0.0351 0.0727,0.0748 0.1022,0.11519 0.0293,0.0402 -0.0411,0.0904 -0.0619,0.13554 -0.0823,0.17831 -0.0894,0.19027 -0.18101,0.37804 -0.0496,0.10266 -0.0989,0.20591 -0.1481,0.30876 0.003,0.005 0.006,0.0106 0.008,0.0156 0.007,0.0147 0.007,0.0302 0.002,0.0459 0.0365,0.0173 0.0766,0.0395 0.12083,0.0667 0.0382,0.0235 0.0765,0.0466 0.11475,0.0701 0.24008,0.19212 0.44946,0.41999 0.64394,0.65779 0.0435,0.0589 0.0855,0.11919 0.12644,0.17971 0.0318,-0.16104 0.0609,-0.323 0.0879,-0.485 0.01,-0.11959 0.0209,-0.23927 0.0346,-0.35856 8.9e-4,-0.005 0.0461,-0.28207 0.0541,-0.28407 0.006,-0.001 0.0134,-0.002 0.0195,-0.004 0.01,-0.008 0.0233,-0.0107 0.0429,-0.008 0.45146,-0.0833 0.36809,0.0493 0.33474,0.30313 -0.0205,0.13612 -0.0416,0.27253 -0.0641,0.40835 -0.0111,0.1458 -0.0197,0.29172 -0.0255,0.43781 0.0776,-0.19059 0.15741,-0.38013 0.23904,-0.56902 v -0.13987 -0.67381 l -8.8e-4,-0.002 c 0,-0.38516 0.35642,-0.41734 0.41615,-0.0966 0.0731,-0.15253 0.14785,-0.30502 0.22432,-0.45599 0.3502,-0.68682 0.28642,-0.58385 0.64046,-1.19908 0.21576,-0.37493 0.26733,-0.4721 0.48977,-0.79159 0.0626,-0.09 0.11913,-0.18551 0.19313,-0.26633 0.044,-0.048 0.1049,-0.077 0.1572,-0.11562 v 4.5e-4 c 0.1024,0.0798 0.22622,0.1374 0.30702,0.23903 0.0242,0.0305 -0.0162,0.0764 -0.0264,0.11389 -0.0202,0.0725 -0.0437,0.14363 -0.0693,0.21436 l 0.003,0.006 c 0.0102,0.0179 -0.0137,0.0392 -0.0216,0.058 -0.008,0.0184 -0.0164,0.0365 -0.0251,0.0546 -0.072,0.18322 -0.15416,0.36315 -0.22302,0.54693 -0.32133,0.78523 -0.64415,1.56953 -0.97563,2.35053 -0.16925,0.39667 -0.16255,0.38518 -0.32435,0.75262 -0.0763,0.17327 -0.14395,0.32905 -0.22475,0.49713 -0.0277,0.0575 -0.0537,0.11585 -0.0857,0.17105 -0.0174,0.03 -0.0405,0.0563 -0.0615,0.084 0.0454,0.0318 0.0876,0.068 0.12731,0.1048 0.0246,0.0228 -0.009,0.0668 -0.0143,0.10003 -0.0439,0.17661 -0.10495,0.34507 -0.16585,0.51661 -0.003,0.008 -0.005,0.0146 -0.008,0.0221 0.004,0.0339 0.006,0.0677 0.0104,0.10133 0.002,0.0756 0.009,0.15139 0.007,0.22691 0.0869,-0.16501 0.16615,-0.33445 0.24293,-0.50449 0.0749,-0.23426 0.15413,-0.46715 0.2477,-0.69459 0.0178,-0.0434 0.0135,-0.11572 0.0589,-0.12732 0.008,-0.002 0.0146,-0.004 0.0225,-0.005 0.001,-0.006 0.002,-0.0105 0.002,-0.0117 v -8.9e-4 h 4.4e-4 v 8.9e-4 c 4e-5,4.4e-4 -4e-5,-5e-5 0,0.002 1.5e-4,0.003 1.8e-4,0.006 0,0.009 0.13465,-0.0263 0.27645,0.006 0.41442,0.006 -0.006,0.1348 -0.0243,0.16771 -0.074,0.29706 -0.0706,0.18363 -0.14081,0.36759 -0.21782,0.54866 -0.0192,0.0431 -0.0382,0.0868 -0.0576,0.12991 -0.0191,0.0601 -0.0387,0.11959 -0.0572,0.17972 0.0435,-0.0601 0.0905,-0.1227 0.13122,-0.16976 0.0259,-0.0298 0.0459,-0.0728 0.084,-0.0831 0.32015,-0.0862 0.39805,-0.0683 0.41745,0.21565 -0.005,0.0284 -0.0103,0.057 -0.016,0.0849 0.0752,-0.0249 0.15128,-0.0472 0.22821,-0.0654 0.003,-0.002 0.006,-0.003 0.008,-0.004 h 4.4e-4 v -4.5e-4 h 4.4e-4 8.9e-4 4.4e-4 4.5e-4 l 4.4e-4,4.5e-4 h 4.4e-4 l 8.9e-4,8.8e-4 8.9e-4,4.5e-4 c 0.0231,-0.005 0.0462,-0.0102 0.0693,-0.0147 0.0252,0.11574 0.0609,0.22976 0.0801,0.34644 0.0638,0.0679 0.0392,0.0735 -0.0446,0.0944 -0.004,0.001 -0.007,0.003 -0.0108,0.004 2.2e-4,0.003 1.1e-4,0.007 4.4e-4,0.0108 10e-4,0.0356 -0.062,0.0348 -0.0935,0.0515 -0.14277,0.0756 -0.28762,0.14776 -0.43261,0.21912 -0.0132,0.0378 -0.0263,0.0753 -0.0394,0.11302 -0.15583,0.41226 -0.32601,0.82508 -0.60756,1.1692 0.0264,-8.9e-4 0.0527,-4.4e-4 0.0792,-0.002 0.15485,-0.003 0.25672,-0.0144 0.32478,-0.0156 h 8.9e-4 4.4e-4 4.5e-4 v 4.4e-4 c 0.14534,-0.003 0.13389,0.0419 0.13901,0.31915 0.11676,0.10512 0.1822,0.18139 0.19963,0.25766 0.59443,0.25116 0.52498,1.06389 -0.46422,1.28266 -0.027,0.006 -0.054,0.0122 -0.081,0.0182 -0.15284,0.0319 -0.30589,0.0521 -0.46032,0.0598 -0.12434,0.15466 -0.24764,0.31072 -0.36808,0.46855 0.11934,0.13566 0.1284,0.35443 0.14204,0.63483 0.006,0.33169 0.002,0.66332 -0.01,0.99469 13.88101,1.45323 13.12445,16.23896 -2.26956,16.23896 h -2.6515 -2.80393 -2.07728 -1.25322 c -11.256502,0 -14.686485,-7.906 -10.289867,-12.72398 -1.95616,-0.5448 -3.866103,-1.23497 -5.700093,-2.11799 -2.657498,-1.29584 -5.257275,-2.7419 -7.622784,-4.52526 -2.64753,-2.08427 -5.146488,-4.38777 -6.774894,-7.38851 -0.330208,-0.71501 -0.698669,-1.41344 -0.990793,-2.14484 -0.991168,-2.48163 -1.131405,-5.34789 -0.950086,-7.98307 0.2626,-2.79027 0.721029,-5.560119 1.462804,-8.266279 0.573561,-2.197121 1.193319,-4.381014 1.808805,-6.566603 0.09125,-0.322087 0.180022,-0.644715 0.27368,-0.96611 0.0533,-0.182931 0.0878,-0.304289 0.109126,-0.380642 0.210282,-7.768414 4.19295,-11.59702 8.174908,-11.488089 z m 29.686551,43.874643 c 0.009,0.0297 0.017,0.0644 0.0264,0.10479 0.004,-0.0312 0.008,-0.0623 0.0112,-0.0935 -0.0125,-0.004 -0.0253,-0.008 -0.0377,-0.0112 z m -3.70681,0.51315 c -0.005,0.0162 -0.01,0.0323 -0.0152,0.0485 0.078,0.0449 0.15583,0.0901 0.23384,0.13511 -0.006,-0.008 -0.012,-0.0172 -0.0182,-0.0255 -0.0642,-0.0514 -0.1313,-0.10433 -0.20049,-0.15806 z m 4.8024,3.71201 c -0.0188,0.0478 -0.0373,0.0957 -0.0554,0.14377 0.017,0.001 0.0342,0.002 0.0511,0.003 0.002,-0.049 0.003,-0.0982 0.004,-0.14723 z" /></clipPath><clipPath
       clipPathUnits="userSpaceOnUse"
       id="clipPath90147"><path
         id="path90147"
         style="fill:#ff0000;fill-opacity:1;fill-rule:nonzero;stroke:none;stroke-width:0.221716"
         d="M 40.517867,34.578046 V 172.82876 H 177.74054 V 34.578046 Z M 112.647,62.458392 c 3.12728,0.184095 5.48748,2.322864 5.96381,5.622144 0.21193,-0.02471 0.42426,-0.04435 0.63743,-0.05153 3.36103,-0.113304 6.44592,0.725858 9.38569,2.339276 0.54014,0.357399 1.11579,0.666209 1.62043,1.072205 1.19693,0.962961 3.04415,2.594382 3.68689,4.103476 0.3492,0.819885 0.67088,1.616413 0.91848,2.412028 0.19417,0.146687 0.38657,0.297077 0.57681,0.451659 1.18043,1.040571 1.63235,1.375885 2.74157,2.703895 0.35135,0.420659 0.72907,0.842319 0.94445,1.346317 0.0759,0.177636 0.15781,0.36588 0.24294,0.562952 0.094,-0.0566 0.19007,-0.114705 0.28884,-0.174083 0.74375,-0.447123 1.69669,-0.495539 2.56359,-0.455122 2.47548,0.1154 3.73289,0.613408 5.5312,1.844312 1.13605,0.940661 2.29719,2.156516 2.98754,3.52667 0.0373,0.06252 0.0722,0.126992 0.10436,0.193134 0.77105,1.588218 1.11185,3.364972 1.41257,5.104663 0.0963,0.557024 -0.0869,1.134698 -0.2399,1.678891 -0.24376,0.867202 -0.53343,1.596016 -0.89769,2.26133 -0.21115,0.71914 -0.44184,1.425875 -0.71192,2.116261 0.0123,0.07313 0.0243,0.146414 0.0359,0.220418 0.13744,2.247882 0.23885,2.156692 -0.20179,4.743072 -0.0834,0.48939 -0.25067,0.96196 -0.41528,1.43033 -0.63056,1.79411 -1.44656,3.41557 -2.59477,4.91759 0.30035,0.47284 0.4126,1.06105 0.49972,1.6161 0.3451,2.19868 0.17185,3.80392 -0.5296,5.55979 2.75244,2.63232 3.28351,3.69204 0.0351,6.72509 -0.31303,0.29227 -0.69511,0.50035 -1.04275,0.75046 -0.79885,0.48023 -1.6191,0.92244 -2.44624,1.35151 -0.71528,0.49636 -1.41348,1.01744 -2.11237,1.53643 -1.22611,0.87383 -2.4579,1.7388 -3.65788,2.64846 -0.41203,0.31413 -0.82118,0.63239 -1.22809,0.95312 -0.82396,0.44542 -1.62322,0.93983 -2.47179,1.33636 -1.50689,0.70419 -4.46123,0.61391 -6.20891,0.6409 -0.83027,0.009 -1.66055,0.0164 -2.49084,0.0217 -0.28859,0.1971 -0.62506,0.41213 -1.04882,0.66948 -1.80191,1.09428 -4.11583,1.88744 -6.2323,1.94694 -0.95901,0.027 -1.9175,-0.0707 -2.87624,-0.10609 -1.77855,-0.39101 -2.17332,-0.4 -4.03766,-1.23936 -0.68648,-0.30907 -1.41523,-0.73823 -2.11756,-1.24672 -0.20786,10e-6 -0.41571,0 -0.62358,0 -1.38151,0.0462 -2.75184,-0.0926 -4.1091,-0.33994 -0.95878,-0.22449 -1.90517,-0.50535 -2.8416,-0.81021 -0.65253,-0.23176 -1.2543,-0.38019 -1.947377,-0.61232 -1.019089,-0.27025 -1.956231,-0.73679 -2.865852,-1.26101 -0.76643,-0.74299 -1.597319,-1.42485 -2.299003,-2.22928 -1.328247,-1.52272 -1.360891,-4.37068 -1.5204,-5.94952 -0.0333,-0.32957 0.05944,-0.65848 0.142903,-0.983 -0.130001,-0.10934 -0.269904,-0.22907 -0.42438,-0.36376 -1.68577,-1.46988 -3.123997,-3.18904 -4.421326,-5.00463 -0.840676,-1.2466 -1.221435,-1.76908 -2.003671,-3.12437 -1.325992,-2.2974 -2.375811,-4.74513 -3.259052,-7.24258 -0.504182,-1.64497 -0.75637,-2.35977 -1.138892,-4.10824 -0.619173,-2.830162 -0.840723,-5.726183 -0.483272,-8.60708 0.45011,-1.720167 0.662511,-2.789115 1.313407,-3.714609 -2.280093,-1.871588 -2.314794,-1.747669 0.455125,-4.215201 1.320935,-1.170609 2.655324,-2.326297 4.023364,-3.441794 2.111448,-1.720766 4.267657,-3.387509 6.334061,-5.163121 2.101738,-1.778128 4.223502,-3.53846 6.192889,-5.464952 0.783856,-0.763829 1.650356,-1.571445 2.293376,-2.391241 3.54572,-4.520527 7.44016,-6.291246 10.56745,-6.107148 z m 11.19535,16.336826 c -0.0538,0.0194 -0.26481,0.08451 -0.50752,0.171051 0.22356,-0.01051 0.45073,0.0072 0.67251,-0.01732 0.001,-0.01326 0.002,-0.0266 0.003,-0.03984 -0.0948,-0.0027 -0.20417,-0.0092 -0.25896,-0.03205 -0.0376,-0.01568 0.0602,-0.0546 0.0905,-0.08185 z m -1.53945,0.754355 c -1.33285,1.284686 -1.93943,2.216702 -2.05174,3.839322 0.67712,-0.173096 1.35704,-0.336348 2.03615,-0.501025 0.53231,-0.698709 0.93544,-1.304974 1.22377,-1.829591 -0.35773,-0.460992 -0.72234,-0.916678 -1.06788,-1.377929 -0.032,-0.0427 -0.0802,-0.08655 -0.1403,-0.130777 z m 21.70867,5.933932 c -0.15109,-0.0063 -0.30208,-0.0044 -0.45209,0.0069 -0.53979,0.04062 -1.07542,0.126454 -1.60571,0.242935 1.13197,-0.02197 2.26609,-0.0086 3.40022,0.0052 -0.43469,-0.142612 -0.88913,-0.236103 -1.34242,-0.25506 z m -2.98667,36.070415 c -0.0477,0.007 -0.0977,0.0162 -0.15026,0.0264 0.0237,0.0318 0.0472,0.0639 0.071,0.0957 0.0311,-10e-4 0.0613,-0.003 0.0901,-0.005 -0.003,-0.0391 -0.007,-0.0783 -0.0108,-0.11736 z" /></clipPath></defs><g
     id="g90151"
     transform="matrix(1.1038504,0,0,1.1038504,-9.1860225,11.180801)"><g
       id="g90116"
       transform="matrix(1.1933438,0,0,1.1933438,-20.226359,14.683424)"><g
         inkscape:label="Capa 1"
         inkscape:groupmode="layer"
         id="layer1"><g
           id="g90115"
           transform="translate(-6.636298,-17.693494)"
           clip-path="url(#clipPath90147)"><path
             style="fill:#000000;fill-opacity:0"
             d="m 108.56312,172.78586 c -0.22047,-0.0159 -1.08229,-0.0701 -1.91517,-0.12038 -0.83287,-0.0503 -1.95525,-0.16537 -2.49417,-0.25565 -0.53892,-0.0903 -1.92184,-0.28677 -3.07317,-0.43664 -2.07227,-0.26977 -2.8332,-0.40307 -3.69672,-0.64761 -0.24496,-0.0694 -0.80615,-0.18699 -1.24708,-0.26139 -0.79322,-0.13383 -1.80444,-0.37511 -2.49417,-0.59511 -0.19597,-0.0625 -0.65695,-0.1807 -1.02439,-0.26263 -0.62496,-0.13937 -1.1039,-0.28139 -3.47402,-1.03013 -2.54874,-0.80518 -4.69598,-1.59525 -5.87912,-2.16323 -0.31845,-0.15288 -0.79947,-0.34768 -1.06893,-0.43289 -0.26946,-0.0852 -0.80057,-0.32105 -1.18025,-0.52408 -0.37968,-0.20302 -0.78052,-0.39665 -0.89077,-0.43028 -0.20801,-0.0634 -2.83741,-1.35673 -3.54086,-1.7416 -1.01302,-0.55422 -2.13226,-1.19161 -2.53871,-1.44574 -0.88313,-0.55217 -2.7721,-1.78889 -3.27149,-2.14186 -0.28054,-0.1983 -0.88182,-0.61843 -1.33616,-0.93363 -0.45434,-0.3152 -1.18684,-0.86872 -1.62777,-1.23005 -0.44094,-0.36133 -1.05534,-0.86076 -1.36534,-1.10984 -0.31001,-0.24909 -0.77098,-0.61972 -1.0244,-0.82362 -0.25341,-0.2039 -0.81951,-0.68936 -1.25801,-1.0788 -2.51423,-2.23296 -4.32548,-4.02019 -6.27156,-6.18839 -0.44735,-0.49841 -0.95713,-1.05031 -1.13286,-1.22644 -0.17572,-0.17614 -0.43456,-0.46741 -0.5752,-0.64729 -0.14063,-0.17987 -0.47761,-0.59889 -0.74883,-0.93116 -0.79755,-0.97707 -2.18178,-2.79445 -2.69513,-3.53848 -1.3396,-1.94159 -1.68979,-2.47498 -2.12484,-3.23641 -0.23053,-0.40347 -0.50427,-0.84847 -0.60831,-0.98889 -0.10405,-0.14042 -0.27349,-0.41228 -0.37653,-0.60413 -0.10305,-0.19185 -0.49966,-0.91196 -0.88135,-1.60024 -0.3817,-0.68827 -0.75115,-1.38734 -0.82099,-1.55347 -0.0699,-0.16614 -0.32114,-0.69044 -0.55842,-1.16511 -0.96216,-1.9247 -1.28375,-2.62122 -1.51579,-3.28296 -0.13381,-0.38161 -0.31506,-0.82823 -0.40277,-0.9925 -0.33321,-0.62403 -1.745971,-4.76583 -2.103683,-6.16736 -0.09692,-0.37974 -0.315627,-1.16663 -0.486014,-1.74864 -0.170388,-0.58201 -0.39236,-1.43642 -0.493271,-1.89869 -0.100911,-0.46227 -0.260264,-1.19002 -0.354116,-1.61723 -0.42979,-1.95635 -0.551932,-2.62595 -0.80289,-4.40152 -0.147597,-1.04428 -0.32429,-2.44241 -0.39265,-3.10695 -0.06836,-0.66455 -0.165206,-1.55779 -0.215215,-1.985 -0.108151,-0.9239 -0.113558,-7.7097 -0.007,-8.75988 0.04095,-0.40348 0.119495,-1.25789 0.174553,-1.8987 0.05506,-0.64081 0.138334,-1.35929 0.185058,-1.59663 0.04672,-0.23733 0.167905,-1.16942 0.269292,-2.0713 0.101387,-0.90188 0.239449,-1.83397 0.306804,-2.0713 0.06735,-0.23734 0.164162,-0.64513 0.215127,-0.9062 0.05096,-0.26107 0.192075,-0.90188 0.313578,-1.42402 0.121504,-0.52214 0.287688,-1.26004 0.369298,-1.63978 0.08161,-0.37974 0.202751,-0.8652 0.269203,-1.0788 0.06645,-0.21361 0.280617,-0.97093 0.475922,-1.68294 0.462074,-1.68456 0.911864,-3.12982 1.208664,-3.88369 0.13082,-0.33227 0.37074,-0.9925 0.53317,-1.46717 0.16243,-0.47467 0.41333,-1.11548 0.55756,-1.42402 0.14423,-0.30854 0.31385,-0.71633 0.37693,-0.9062 0.0631,-0.18987 0.32614,-0.77242 0.58459,-1.29456 0.25844,-0.52214 0.7298,-1.49306 1.04746,-2.15761 0.63476,-1.3279 1.48959,-2.95322 1.90644,-3.62478 0.14732,-0.23733 0.50034,-0.81989 0.78449,-1.29456 0.61358,-1.025 1.2547,-1.99611 2.11623,-3.205488 0.20768,-0.291529 0.63321,-0.893502 0.94562,-1.337716 0.31241,-0.444214 0.71326,-0.968387 0.89078,-1.164829 0.17751,-0.196441 0.40292,-0.476792 0.50091,-0.623001 1.61225,-2.405731 7.3937,-8.341892 10.61747,-10.901586 0.49782,-0.395269 1.17086,-0.932274 1.49566,-1.193344 0.3248,-0.261071 0.77867,-0.603795 1.00859,-0.76161 0.22993,-0.157814 0.51827,-0.377901 0.64075,-0.489081 0.2546,-0.231106 2.01602,-1.474012 3.07317,-2.168512 0.39194,-0.257487 1.13351,-0.758633 1.64794,-1.113658 0.51442,-0.355024 1.07561,-0.707981 1.24708,-0.784348 0.17148,-0.07637 0.49215,-0.264813 0.71262,-0.418771 0.51318,-0.358367 1.21946,-0.750763 3.23148,-1.795346 4.32855,-2.247261 6.96075,-3.362033 11.46631,-4.856127 0.61241,-0.203082 1.39406,-0.472599 1.73701,-0.598927 0.34295,-0.126328 1.18473,-0.363684 1.87063,-0.527458 0.68589,-0.163773 1.50764,-0.371285 1.82609,-0.461137 0.6266,-0.176796 1.01176,-0.255412 2.58324,-0.527275 0.56342,-0.09747 1.30499,-0.232295 1.64794,-0.299613 1.05008,-0.206123 2.19365,-0.375469 2.89502,-0.428712 0.36744,-0.02789 0.94867,-0.08795 1.29162,-0.133458 2.94911,-0.391337 5.91017,-0.56354 6.12421,-0.35616 0.15465,0.149838 -0.20364,0.770383 -0.77272,1.33829 -0.54955,0.548425 -0.89603,0.936739 -1.24302,1.393109 -0.14436,0.18987 -0.60672,0.714664 -1.02747,1.166209 -0.42074,0.451546 -1.10571,1.225359 -1.52215,1.719585 -0.81138,0.962948 -1.93407,2.2371 -2.69372,3.057151 -0.25769,0.278177 -0.70903,0.789531 -1.00299,1.136342 -0.68071,0.803114 -3.06783,3.540002 -3.65218,4.187323 -0.24496,0.27136 -0.66585,0.75609 -0.93531,1.077178 -0.26946,0.321088 -1.15133,1.311713 -1.95971,2.201389 -1.54905,1.704837 -2.96048,3.314504 -3.19367,3.642229 -0.0765,0.107473 -0.42137,0.508138 -0.76643,0.890368 -0.34506,0.38223 -0.98815,1.113783 -1.42908,1.625673 -0.44094,0.511891 -0.98208,1.134136 -1.20255,1.382767 -0.22047,0.248632 -0.60127,0.698955 -0.84624,1.000718 -0.24496,0.301763 -0.63549,0.745495 -0.86784,0.986071 -0.23235,0.240576 -0.88399,0.981128 -1.44808,1.645671 -0.5641,0.664543 -1.15923,1.363608 -1.32252,1.553477 -1.44505,1.680247 -3.81639,4.647717 -4.73484,5.925127 -0.24496,0.3407 -0.61831,0.82912 -0.82965,1.08537 -0.21135,0.25625 -0.49538,0.64789 -0.63119,0.87031 -0.13581,0.22242 -0.50774,0.79277 -0.82652,1.26745 -0.8087,1.20421 -1.68876,2.58805 -2.00332,3.1501 -0.14611,0.26107 -0.38801,0.66886 -0.53756,0.9062 -0.676,1.07283 -1.16589,1.91618 -1.22825,2.11445 -0.0373,0.11867 -0.22313,0.47498 -0.4129,0.7918 -0.18977,0.31682 -0.34504,0.60483 -0.34504,0.64003 0,0.0352 -0.21839,0.51389 -0.4853,1.06375 -0.26692,0.54986 -0.58283,1.23277 -0.70202,1.51757 -0.11919,0.28481 -0.30016,0.71201 -0.40214,0.94935 -0.60117,1.39897 -1.29291,3.16625 -1.47936,3.77951 -0.11843,0.38957 -0.3177,0.99531 -0.44282,1.34609 -0.12511,0.35078 -0.28712,0.93333 -0.36002,1.29456 -0.0729,0.36124 -0.19332,0.84643 -0.26761,1.07821 -0.1521,0.4746 -0.58644,2.58899 -0.79986,3.89379 -0.70078,4.2844 -0.79078,9.45955 -0.23114,13.29086 0.36788,2.51856 1.26375,6.59571 1.64192,7.47251 0.0734,0.17009 0.28034,0.79149 0.45994,1.38087 0.1796,0.58939 0.43811,1.29053 0.57447,1.5581 0.13636,0.26756 0.37751,0.8307 0.53588,1.25141 0.29728,0.7897 1.80102,3.77678 2.41294,4.79313 0.19075,0.31682 0.34682,0.60444 0.34682,0.63915 0,0.0347 0.17427,0.31921 0.38728,0.63222 0.213,0.31301 0.53189,0.78272 0.70865,1.04379 0.17675,0.26107 0.50482,0.72711 0.72903,1.03565 0.22421,0.30854 0.62823,0.87168 0.89781,1.25141 0.26958,0.37974 0.74817,1.00113 1.06353,1.38087 0.31536,0.37974 0.74291,0.90404 0.95011,1.16511 0.49973,0.62967 4.21928,4.22732 5.04503,4.8797 2.06007,1.62755 2.54564,1.99421 3.31295,2.50161 0.46543,0.30779 1.24708,0.83014 1.73701,1.16078 0.88708,0.59869 1.12576,0.74441 2.32134,1.41732 1.90055,1.06969 5.72099,2.75165 7.38811,3.25263 0.44093,0.13251 1.10233,0.33591 1.46978,0.45202 1.25753,0.39734 4.41227,1.12288 5.87911,1.3521 3.88012,0.60633 4.59233,0.65165 10.06576,0.64061 2.46349,-0.005 3.91958,-0.0428 4.36479,-0.11341 0.36745,-0.0583 1.12906,-0.15858 1.69248,-0.22291 0.56341,-0.0643 1.24485,-0.15743 1.51431,-0.20687 0.26946,-0.0495 0.89078,-0.15212 1.3807,-0.22817 0.81803,-0.12697 3.76124,-0.78065 5.25558,-1.16725 0.97755,-0.2529 2.23912,-0.6486 3.16225,-0.99186 3.29936,-1.22685 3.26372,-1.22462 2.5314,-0.15888 -0.22449,0.32669 -0.55864,0.74933 -0.74256,0.9392 -0.18392,0.18987 -0.49056,0.5394 -0.68143,0.77674 -0.19086,0.23733 -0.64838,0.769 -1.01672,1.18148 -0.36833,0.41247 -1.09059,1.22211 -1.60501,1.79918 -0.51442,0.57707 -1.13574,1.27271 -1.3807,1.54586 -0.24496,0.27315 -0.66585,0.75985 -0.93531,1.08156 -0.26946,0.32171 -0.69035,0.80832 -0.93532,1.08135 -0.24496,0.27304 -0.66585,0.75927 -0.93531,1.08051 -0.26946,0.32124 -0.72636,0.84045 -1.01534,1.1538 -0.28897,0.31335 -0.90877,1.01635 -1.37733,1.56223 -0.46856,0.54587 -1.30551,1.49738 -1.8599,2.11445 -0.55438,0.61708 -1.37764,1.5423 -1.82945,2.05604 -0.45182,0.51375 -0.96647,1.0963 -1.14367,1.29457 -0.17719,0.19826 -0.558,0.6389 -0.84623,0.9792 -0.28823,0.3403 -0.92491,1.06914 -1.41484,1.61964 -0.48992,0.5505 -1.06547,1.20416 -1.27899,1.45257 -0.21353,0.24842 -0.84844,0.9458 -1.41093,1.54974 -0.56248,0.60393 -1.13496,1.24474 -1.27217,1.42402 -0.13722,0.17927 -0.62883,0.71432 -1.09248,1.18899 l -0.84299,0.86305 -1.19332,0.01 c -0.65633,0.005 -1.3737,-0.003 -1.59417,-0.0192 z m 9.00724,-0.094 c -0.27681,-0.2177 -0.20268,-0.3553 0.69496,-1.29 0.37143,-0.38677 1.07618,-1.15895 1.5661,-1.71595 0.48993,-0.557 1.21146,-1.36348 1.6034,-1.79217 0.39194,-0.4287 0.90925,-1.01584 1.14959,-1.30477 0.24033,-0.28892 0.72135,-0.84093 1.06893,-1.22667 0.34757,-0.38575 0.87247,-0.98202 1.16642,-1.32504 0.29396,-0.34302 0.73489,-0.84819 0.97985,-1.12259 0.24497,-0.2744 0.64582,-0.74074 0.89078,-1.03632 0.24496,-0.29557 0.78703,-0.91176 1.2046,-1.36931 0.41757,-0.45754 0.87574,-0.98412 1.01817,-1.17016 0.14242,-0.18605 0.42209,-0.52319 0.62148,-0.74921 0.1994,-0.22602 0.62309,-0.7121 0.94154,-1.08017 0.31846,-0.36807 0.69926,-0.78828 0.84624,-0.93378 0.14698,-0.14551 0.38593,-0.41989 0.53101,-0.60973 0.14508,-0.18983 0.54593,-0.6616 0.89078,-1.04836 0.34484,-0.38676 0.96771,-1.0982 1.38415,-1.58097 0.41644,-0.48277 1.07784,-1.24053 1.46978,-1.68391 0.88202,-0.99776 1.51857,-1.73573 2.45832,-2.84995 0.40034,-0.47467 0.85278,-1.00331 1.00541,-1.17475 0.54279,-0.60964 1.31524,-1.51848 2.41538,-2.84189 0.24497,-0.29467 0.66586,-0.77583 0.93532,-1.06925 0.26946,-0.29341 0.94854,-1.07504 1.50906,-1.73694 0.56053,-0.66191 1.20189,-1.40083 1.42524,-1.64206 0.22336,-0.24122 0.64661,-0.72216 0.94057,-1.06874 0.29396,-0.34659 0.70378,-0.80945 0.91073,-1.02859 0.20695,-0.21913 0.74809,-0.82089 1.20255,-1.33724 0.45445,-0.51635 1.03583,-1.17658 1.29196,-1.46717 0.9646,-1.09442 1.50235,-1.71776 1.76125,-2.04158 0.14698,-0.18383 0.53192,-0.61762 0.85542,-0.96398 0.3235,-0.34637 1.02043,-1.15405 1.54874,-1.79486 1.35344,-1.64165 1.37076,-1.64992 2.37897,-1.1347 0.35783,0.18286 1.05145,0.53659 1.54138,0.78606 0.48992,0.24948 0.94277,0.4945 1.00631,0.54451 0.0636,0.05 0.44436,0.25291 0.84624,0.45089 0.40188,0.19797 1.07142,0.54553 1.48785,0.77234 1.30069,0.70842 2.50614,1.35394 3.38495,1.81266 0.46543,0.24294 0.96649,0.51058 1.11347,0.59475 0.72276,0.41392 1.77647,0.98379 2.53871,1.37299 1.39096,0.71024 2.22204,1.13656 3.16225,1.62213 0.48992,0.25302 1.21145,0.62323 1.60339,0.82269 0.39194,0.19946 1.08079,0.56118 1.53076,0.80383 0.44998,0.24266 0.84705,0.44119 0.88237,0.44119 0.0353,0 0.18826,0.0898 0.33987,0.19964 0.1516,0.1098 0.55623,0.348 0.89918,0.52933 0.80157,0.42383 1.11347,0.70512 1.11347,1.00419 0,0.32465 -2.163,3.08488 -3.3366,4.25788 -0.19388,0.19378 -0.51961,0.56593 -0.72385,0.827 -0.83815,1.07138 -4.69766,4.95534 -6.64717,6.68928 -1.46111,1.29955 -3.43683,2.92476 -4.74785,3.90552 -0.58762,0.4396 -1.36904,1.03282 -1.73649,1.31827 -0.36744,0.28545 -0.90859,0.68054 -1.20255,0.87799 -1.18648,0.79692 -2.39233,1.5878 -2.65808,1.74335 -0.15481,0.0906 -0.56184,0.34305 -0.90452,0.56098 -0.34267,0.21792 -0.83223,0.51274 -1.08792,0.65514 -0.25568,0.1424 -0.69684,0.39784 -0.98035,0.56764 -0.57586,0.3449 -1.47056,0.84859 -2.34156,1.31824 -0.31845,0.17171 -0.67922,0.36875 -0.8017,0.43787 -0.72734,0.41044 -5.5617,2.63172 -6.5472,3.00829 -1.71926,0.65695 -3.84953,1.40998 -4.7211,1.66887 -0.39194,0.11642 -1.23373,0.38051 -1.87063,0.58686 -0.6369,0.20635 -1.4386,0.43951 -1.78155,0.51812 -0.34295,0.0786 -0.80392,0.19702 -1.02439,0.26313 -0.80002,0.23988 -1.44088,0.3986 -2.42545,0.60068 -1.7742,0.36415 -1.97541,0.40705 -2.47381,0.52739 -0.26946,0.0651 -0.7104,0.14273 -0.97986,0.17261 -0.26946,0.0299 -1.17137,0.14652 -2.00424,0.2592 -0.83287,0.11268 -1.81495,0.22774 -2.1824,0.2557 -0.36744,0.028 -1.06893,0.10476 -1.55886,0.17067 -0.48992,0.0659 -1.59226,0.16259 -2.44963,0.21485 -0.85737,0.0523 -1.8194,0.11753 -2.13786,0.14503 -0.48881,0.0422 -0.61207,0.024 -0.79128,-0.11695 z m 0.0745,-37.79467 c -0.16791,-0.42788 -0.0691,-14.6703 0.1029,-14.83694 0.14383,-0.13932 25.31915,-0.20872 25.69007,-0.0708 0.23098,0.0859 0.14634,0.19398 -0.33491,0.42777 -0.25721,0.12495 -0.69769,0.37804 -0.97885,0.56243 -0.28115,0.18439 -0.53633,0.33525 -0.56707,0.33525 -0.0307,0 -0.24163,0.13084 -0.46866,0.29076 -0.22703,0.15991 -0.69338,0.44636 -1.03633,0.63654 -0.90288,0.5007 -2.5439,1.46307 -3.58799,2.10417 -0.80506,0.49432 -1.70732,1.02401 -2.33566,1.3712 -1.13069,0.62475 -1.62093,0.91069 -2.34258,1.36635 -0.40183,0.25372 -0.91097,0.55047 -1.13144,0.65944 -0.36245,0.17915 -0.81971,0.44474 -2.31602,1.34524 -0.26946,0.16217 -0.59916,0.3533 -0.73267,0.42475 -0.13351,0.0714 -0.63457,0.36586 -1.11347,0.65424 -2.03666,1.22643 -2.85905,1.71603 -3.32035,1.97675 -0.77559,0.43836 -1.42351,0.8213 -2.05477,1.21444 -0.32175,0.20038 -0.74573,0.44378 -0.94218,0.54088 -0.19645,0.0971 -0.5946,0.32905 -0.88479,0.51543 -1.14312,0.73424 -1.50471,0.8402 -1.64523,0.48211 z m -3.13425,-0.48723 c -2.1284,-1.19732 -3.00489,-1.67777 -3.94123,-2.1604 -1.16485,-0.60042 -1.54877,-0.80865 -2.49619,-1.35385 -0.39194,-0.22554 -1.17359,-0.65337 -1.73701,-0.95072 -0.56341,-0.29736 -1.18473,-0.64076 -1.3807,-0.76312 -0.36424,-0.22742 -1.4352,-0.80478 -2.62778,-1.41666 -0.36745,-0.18852 -0.77324,-0.41507 -0.90176,-0.50345 -0.12853,-0.0884 -0.62959,-0.36963 -1.11347,-0.62502 -0.48389,-0.25539 -1.58998,-0.84851 -2.458,-1.31805 -1.7157,-0.92807 -2.75179,-1.47335 -3.85168,-2.02708 -0.38983,-0.19625 -0.95102,-0.50073 -1.24708,-0.67661 -1.13191,-0.67243 -2.24521,-1.30011 -2.30597,-1.30011 -0.57032,0 -2.09309,-1.23841 -1.70056,-1.38301 0.50355,-0.18549 26.80232,-0.10692 27.04162,0.0808 l 0.21029,0.16496 0.0243,7.16023 c 0.0294,8.69388 0.17341,8.02176 -1.51473,7.0721 z M 87.78998,118.49449 c -0.3157,-0.0805 -0.27209,-0.35936 0.17669,-1.12968 0.96044,-1.64857 2.44564,-4.12125 2.6085,-4.34284 0.0949,-0.12906 0.17245,-0.26819 0.17245,-0.30917 0,-0.041 0.10351,-0.22211 0.23002,-0.40249 0.1265,-0.18037 0.45282,-0.7234 0.72514,-1.20671 1.22846,-2.18031 1.7562,-3.08295 2.1883,-3.74289 0.23767,-0.36299 0.84043,-1.38704 1.3367,-2.27098 0.14658,-0.26107 0.4005,-0.67463 0.56427,-0.91903 0.16378,-0.2444 0.33386,-0.53632 0.37796,-0.64871 0.0786,-0.20026 0.77526,-1.38125 1.36275,-2.3101 0.50537,-0.79903 1.20706,-1.99717 1.67423,-2.85877 0.51936,-0.95785 0.90661,-1.37732 1.14197,-1.23697 0.19461,0.11606 1.47878,1.99568 2.45876,3.59888 0.0925,0.15139 0.41004,0.6442 0.70555,1.09514 0.29552,0.45094 0.67363,1.03349 0.84025,1.29457 0.48555,0.76078 1.49193,2.30593 2.07982,3.19325 0.57855,0.87323 1.01162,1.54375 1.72893,2.67687 0.24496,0.38697 0.57664,0.88477 0.73706,1.10623 0.16042,0.22147 0.36839,0.55819 0.46216,0.74829 0.0938,0.1901 0.38341,0.6614 0.64364,1.04735 0.26024,0.38595 0.63349,0.96093 0.82946,1.27774 0.19598,0.31682 0.59928,0.95236 0.89623,1.41233 1.59227,2.46634 2.17695,3.44241 2.17695,3.63425 0,0.1179 -0.0819,0.214 -0.22849,0.26798 -0.2254,0.083 -25.56585,0.10795 -25.8893,0.0255 z m 31.05941,-0.0512 c -0.22443,-0.12169 -0.14816,-0.38937 0.33049,-1.1599 0.25405,-0.40899 0.54467,-0.8925 0.64581,-1.07447 0.45217,-0.81356 1.13479,-1.92147 2.27784,-3.69701 0.22918,-0.356 0.74898,-1.21042 1.15509,-1.89869 0.40612,-0.68828 0.93908,-1.58153 1.18435,-1.985 0.24528,-0.40347 0.594,-0.98603 0.77493,-1.29457 0.18093,-0.30853 0.49025,-0.79399 0.68738,-1.0788 0.19713,-0.2848 0.4292,-0.65375 0.5157,-0.81989 0.0865,-0.16614 0.20918,-0.36032 0.27262,-0.43152 0.0634,-0.0712 0.3445,-0.51783 0.62459,-0.9925 0.98409,-1.66779 2.58579,-4.26145 3.14449,-5.09195 0.19159,-0.28481 0.50045,-0.77027 0.68634,-1.07881 0.87582,-1.45364 1.03606,-1.49629 1.62125,-0.43152 0.14348,0.26107 0.49388,0.86305 0.77868,1.33772 1.23783,2.06312 1.54694,2.5965 2.45078,4.22891 1.29108,2.33182 1.85692,3.32154 2.04697,3.5804 0.0876,0.11934 0.27821,0.45001 0.42354,0.73481 0.14533,0.28481 0.40034,0.73989 0.5667,1.01129 0.49194,0.8026 1.02439,1.712 1.35332,2.31143 0.66205,1.20645 1.70676,2.98074 2.21052,3.75423 0.18549,0.28481 0.45248,0.73143 0.59331,0.9925 0.41125,0.76236 1.18978,2.0949 1.36919,2.34354 0.23462,0.32514 0.21803,0.66294 -0.0351,0.71521 -0.3581,0.0739 -25.54326,0.0981 -25.67877,0.0246 z m -3.11182,-0.38633 c -0.17039,-0.22547 -0.43811,-0.64297 -0.59493,-0.92777 -0.15682,-0.2848 -0.45215,-0.77027 -0.65629,-1.0788 -0.39751,-0.60079 -1.33353,-2.2018 -1.44587,-2.47307 -0.0656,-0.15835 -0.65084,-1.06569 -1.24478,-1.92982 -0.15729,-0.22884 -0.31345,-0.52604 -0.34703,-0.66045 -0.0336,-0.13441 -0.12885,-0.34147 -0.21172,-0.46014 -0.0829,-0.11867 -0.17742,-0.29343 -0.21011,-0.38837 -0.0979,-0.28423 0.49519,0.44029 1.13741,1.38954 0.22157,0.3275 0.48604,0.71197 0.58769,0.85437 0.10166,0.14241 0.3532,0.51188 0.55898,0.82105 0.6802,1.02195 1.63925,2.05734 2.10903,2.27691 0.4337,0.20271 1.13804,0.20296 1.09964,4e-4 -0.0278,-0.14642 0.41526,-0.12581 0.66247,0.0308 0.13056,0.0827 0.2065,0.10185 0.16876,0.0425 -0.0377,-0.0593 -0.0326,-0.10788 0.0114,-0.10788 0.044,0 0.12231,-0.0874 0.17399,-0.19419 0.0517,-0.1068 0.38881,-0.52885 0.74919,-0.9379 0.84128,-0.9549 1.35984,-1.65879 1.68747,-2.29056 0.34672,-0.66859 1.08055,-1.77884 1.4585,-2.20664 0.16708,-0.18913 0.36837,-0.47571 0.44729,-0.63685 0.0789,-0.16115 0.1817,-0.29299 0.2284,-0.29299 0.14142,0 0.0962,0.14619 -0.1247,0.40333 -0.11528,0.13417 -0.37598,0.57407 -0.57934,0.97754 -0.39144,0.77663 -0.61566,1.17436 -1.28828,2.28526 -0.22933,0.37875 -0.41695,0.73216 -0.41695,0.78536 0,0.0532 -0.11439,0.24972 -0.25419,0.4367 -0.1398,0.18698 -0.39703,0.61574 -0.57162,0.9528 -0.1746,0.33706 -0.47454,0.84043 -0.66654,1.11859 -0.40098,0.58093 -0.57969,0.86503 -1.09154,1.73531 -0.62501,1.06269 -0.86866,1.14677 -1.37635,0.47494 z m -29.83204,-1.12195 c -0.0998,-0.58524 -0.0657,-28.41152 0.035,-28.59397 0.0507,-0.0918 0.17495,-0.16693 0.27608,-0.16693 0.19741,0 0.61575,0.23176 3.19481,1.76996 0.94078,0.5611 1.52114,0.9014 2.49417,1.46247 0.46543,0.26838 1.207,0.69949 1.64793,0.95801 0.44094,0.25853 0.96204,0.55226 1.15801,0.65274 0.19597,0.10047 0.69703,0.38523 1.11347,0.63279 1.45653,0.86587 1.74022,1.02691 2.16836,1.23093 1.11203,0.52989 1.11079,0.92695 -0.008,2.60777 -0.26633,0.40006 -0.52306,0.82635 -0.57053,0.9473 -0.0475,0.12095 -0.27885,0.53152 -0.5142,0.91238 -0.57169,0.92518 -1.4318,2.42968 -1.4318,2.50451 0,0.033 -0.083,0.17297 -0.18447,0.31102 -0.17814,0.24239 -0.87268,1.41148 -1.6356,2.75314 -0.20244,0.35601 -0.47701,0.80194 -0.61016,0.99096 -0.13315,0.18902 -0.2421,0.37649 -0.2421,0.41659 0,0.0673 -0.63049,1.14291 -1.27434,2.17408 -0.14819,0.23734 -0.41635,0.68396 -0.59592,0.9925 -0.17956,0.30854 -0.67932,1.16295 -1.11057,1.8987 -1.05577,1.80121 -2.26214,3.87979 -2.67978,4.61727 -0.43564,0.76928 -0.82995,1.25142 -1.02345,1.25142 -0.10597,0 -0.16821,-0.0974 -0.20681,-0.32364 z m 59.26497,-1.51033 c -0.16254,-0.29667 -0.45383,-0.79089 -0.6473,-1.09827 -0.19347,-0.30738 -0.48258,-0.79285 -0.64246,-1.07881 -0.35137,-0.62844 -0.88295,-1.5511 -1.69179,-2.93645 -0.33257,-0.56961 -0.77215,-1.33093 -0.97685,-1.69184 -0.2047,-0.3609 -0.45926,-0.77469 -0.56571,-0.91952 -0.10644,-0.14483 -0.19382,-0.29617 -0.19419,-0.33631 -3.6e-4,-0.0401 -0.18659,-0.38367 -0.41384,-0.76341 -0.67231,-1.12347 -1.10106,-1.85359 -1.54576,-2.63228 -0.23042,-0.40347 -0.67961,-1.18021 -0.99821,-1.72609 -0.3186,-0.54587 -1.13834,-1.96342 -1.82165,-3.1501 -0.6833,-1.18669 -1.38962,-2.38035 -1.56959,-2.6526 -1.14844,-1.73725 -1.14158,-1.7771 0.44956,-2.60951 0.52599,-0.27518 1.27703,-0.68445 1.66897,-0.90949 2.12736,-1.22146 2.8443,-1.63005 4.02703,-2.29503 0.43073,-0.24219 1.01032,-0.5723 1.28797,-0.73359 0.27764,-0.16129 0.71604,-0.40976 0.97422,-0.55217 0.25818,-0.1424 0.61225,-0.33793 0.78681,-0.43451 0.17457,-0.0966 0.67834,-0.39193 1.11949,-0.65632 1.66086,-0.9954 1.47768,-2.61024 1.42898,12.59751 -0.0517,16.14273 -0.0335,15.75086 -0.67568,14.57879 z M 99.29906,93.84204 c -0.12248,-0.0624 -0.395,-0.21915 -0.6056,-0.34842 -0.2106,-0.12927 -0.48421,-0.27235 -0.60802,-0.31795 -0.1238,-0.0456 -0.39243,-0.19396 -0.59694,-0.32968 -0.20451,-0.13572 -0.55222,-0.33541 -0.77269,-0.44376 -0.22046,-0.10835 -0.6614,-0.35948 -0.97985,-0.55807 C 95.41751,91.64557 94.77615,91.26787 94.31072,91.00483 92.9442,90.23252 92.70675,90.09464 91.81655,89.55648 91.35112,89.27511 90.77431,88.94265 90.53475,88.81769 90.2952,88.69273 89.8743,88.44303 89.59944,88.2628 89.32458,88.08258 88.87922,87.82803 88.60976,87.69715 88.3403,87.56626 87.99958,87.37227 87.8526,87.26607 c -0.14698,-0.10621 -0.44761,-0.26916 -0.66808,-0.3621 -0.51664,-0.21781 -0.68774,-0.40648 -0.53274,-0.58742 0.11039,-0.12889 1.79288,-1.0768 1.91124,-1.0768 0.0331,0 0.34779,-0.16316 0.69928,-0.36259 0.3515,-0.19942 0.79942,-0.43669 0.9954,-0.52726 0.19597,-0.0906 0.55673,-0.29103 0.80169,-0.44547 0.39458,-0.24876 1.12602,-0.63592 2.93956,-1.55598 0.29396,-0.14913 0.93531,-0.49725 1.42524,-0.77361 0.48993,-0.27636 1.29162,-0.71564 1.78155,-0.97617 0.48993,-0.26054 0.99099,-0.53952 1.11347,-0.61996 0.25007,-0.16424 1.24953,-0.6951 2.44963,-1.30113 1.57845,-0.79709 2.03365,-1.03511 2.13418,-1.11595 0.14721,-0.11837 1.92252,-1.08983 2.80962,-1.53744 0.41644,-0.21012 0.79873,-0.41476 0.84953,-0.45475 0.12838,-0.10103 2.86243,-1.58299 3.7825,-2.05025 0.41644,-0.21149 0.95758,-0.51101 1.20254,-0.6656 0.24497,-0.15459 0.69416,-0.39781 0.99822,-0.54049 0.30405,-0.14268 0.6602,-0.34125 0.79144,-0.44127 0.51471,-0.39227 0.72965,-0.0974 0.32708,0.44875 -0.14672,0.19905 -0.35795,0.53666 -0.4694,0.75027 -0.11145,0.2136 -0.35332,0.60383 -0.53749,0.86717 -0.29156,0.41688 -1.61955,2.51772 -2.03405,3.2178 -0.14004,0.23653 -1.01063,1.56195 -1.40897,2.14507 -0.10743,0.15726 -0.30397,0.4607 -0.43675,0.6743 -0.13279,0.2136 -0.48969,0.75732 -0.79311,1.20826 -0.30343,0.45094 -0.70816,1.05952 -0.89942,1.35241 -0.19125,0.29288 -0.57367,0.87544 -0.84983,1.29456 -0.27615,0.41913 -0.56872,0.87856 -0.65016,1.02096 -0.0814,0.1424 -0.38552,0.62786 -0.67574,1.0788 -0.29022,0.45094 -0.63587,0.99466 -0.76812,1.20826 -0.726,1.17262 -1.41645,2.2417 -1.64427,2.54598 -0.14216,0.18987 -0.40616,0.59766 -0.58666,0.9062 -0.1805,0.30853 -0.41608,0.67748 -0.5235,0.81989 -0.10741,0.1424 -0.28046,0.43367 -0.38454,0.64728 -0.24782,0.5086 -1.0524,1.74241 -1.19245,1.82861 -0.15368,0.0946 -0.25479,0.0858 -0.51043,-0.0444 z m 55.86773,-16.82277 c -0.24934,-0.26334 -1.25385,-1.37738 -2.39294,-2.65386 -1.13407,-1.27085 -4.04087,-4.03069 -4.80731,-4.56427 -0.20333,-0.14155 -0.39433,-0.296 -0.42445,-0.34322 -0.18526,-0.29042 -3.75436,-2.85126 -5.26314,-3.776316 -0.39194,-0.240306 -0.97317,-0.596192 -1.29162,-0.790859 -1.75797,-1.074631 -4.89684,-2.608271 -6.59174,-3.220699 -0.41643,-0.150474 -0.79724,-0.301935 -0.84623,-0.33658 -0.24718,-0.174793 -3.30324,-1.198392 -4.63203,-1.551459 -2.38531,-0.633786 -3.34701,-0.862863 -3.62738,-0.864042 -0.22828,-9.59e-4 -0.79544,-0.0999 -2.25174,-0.392805 -1.41714,-0.285032 -3.28557,-0.482372 -6.01273,-0.635051 -1.38233,-0.07739 -7.16004,-0.05208 -7.30042,0.03198 -0.0463,0.02774 -0.81777,0.08817 -1.71429,0.134265 -0.89653,0.0461 -2.05094,0.155955 -2.56536,0.24412 -3.23027,0.553623 -6.18703,1.244346 -8.32875,1.945663 -5.30338,1.736621 -5.47852,1.727633 -3.71396,-0.190614 0.95463,-1.037772 2.00894,-2.219636 2.55595,-2.865178 0.19598,-0.231269 0.55674,-0.656628 0.8017,-0.945244 0.24497,-0.288615 0.72048,-0.82499 1.0567,-1.191944 0.33622,-0.366953 0.85638,-0.958465 1.15592,-1.31447 0.29953,-0.356006 1.00652,-1.164444 1.57109,-1.796531 0.56456,-0.632087 1.14673,-1.296793 1.29371,-1.477126 0.14698,-0.180333 0.56787,-0.665739 0.93531,-1.07868 0.36745,-0.412941 0.77369,-0.883804 0.90276,-1.046363 0.12907,-0.162558 0.51253,-0.596957 0.85213,-0.96533 0.57869,-0.627729 1.28575,-1.450463 1.9696,-2.291817 0.16225,-0.199623 0.45421,-0.537716 0.6488,-0.751319 0.93298,-1.024125 1.21291,-1.337923 2.23271,-2.502824 0.60255,-0.688277 1.29679,-1.472592 1.54276,-1.742922 0.24597,-0.27033 0.64764,-0.734312 0.89261,-1.031071 0.24496,-0.29676 0.58946,-0.677553 0.76555,-0.846207 0.1761,-0.168655 0.41313,-0.442574 0.52673,-0.60871 0.11361,-0.166136 0.31701,-0.418576 0.452,-0.560978 0.91012,-0.960083 1.5332,-1.641366 1.73137,-1.893095 0.41577,-0.528134 0.60279,-0.566429 2.77323,-0.567861 2.13238,-0.0014 6.91183,0.284222 8.71614,0.520894 0.39194,0.05141 1.19364,0.152414 1.78155,0.22445 0.91038,0.111548 2.07199,0.316036 3.65217,0.64292 1.39028,0.287599 3.18299,0.695426 3.51857,0.800444 0.22046,0.06899 0.86182,0.248266 1.42524,0.398382 0.56341,0.150116 1.32502,0.383237 1.69247,0.518047 0.36744,0.134811 1.02884,0.360519 1.46978,0.501574 2.08132,0.665818 4.30995,1.49163 5.79003,2.145474 1.29595,0.572497 5.47211,2.61334 5.68938,2.780332 0.0554,0.04255 0.36121,0.212966 0.67967,0.378695 0.31845,0.165728 0.7193,0.387005 0.89077,0.491726 0.59963,0.366198 1.82997,1.069603 2.28281,1.305112 0.2512,0.130641 0.87251,0.51625 1.3807,0.856909 0.85043,0.570077 1.14676,0.776667 2.35364,1.64088 0.23201,0.166135 0.82005,0.61276 1.30676,0.992499 0.4867,0.379739 1.06732,0.813825 1.29025,0.964636 0.22294,0.150811 0.53051,0.386119 0.6835,0.522907 0.153,0.136787 0.43851,0.361949 0.63448,0.500359 0.19597,0.13841 0.41644,0.313991 0.48993,0.390179 0.0735,0.07619 0.49438,0.42614 0.93531,0.777671 0.89897,0.716692 2.92803,2.522265 3.74126,3.329179 0.29395,0.291673 1.15581,1.146171 1.91523,1.898884 1.42282,1.410241 3.03037,3.125128 3.99315,4.259761 0.6567,0.773927 1.25192,1.469572 1.95688,2.287063 1.67173,1.938571 1.72733,2.108721 0.83003,2.5402 -0.95031,0.45697 -4.03746,2.07825 -4.29305,2.25458 -0.14104,0.0973 -0.52246,0.29379 -0.84761,0.43662 -0.32515,0.14284 -0.73686,0.34866 -0.9149,0.45738 -0.44903,0.27418 -3.3247,1.75527 -5.07103,2.6118 -0.79829,0.39154 -1.5599,0.78616 -1.69247,0.87694 -0.22602,0.15478 -0.67614,0.39068 -2.64612,1.38681 -0.44094,0.22296 -1.26268,0.65904 -1.82609,0.96907 -0.56342,0.31004 -1.42524,0.7718 -1.91517,1.02614 -2.31717,1.20296 -2.35421,1.21296 -2.7898,0.7529 z"
             id="path89977"
             sodipodi:nodetypes="cssssssssssscsssssssssssssssssccsssssssssssssssssssssssssssssscsssssssssssssssssssssssssssssssssssssssssssssscsssssscssssssssssssssssssssscsssssssssssssssssssssssccccssssssssssssssssssssssssssssssssssssssssssssssssssssssssssssssssssssssssssssssssssssscsssscssssssssssssssssccsscscsssssssssscsssssssssssccssssssssssssssssssssssscsscssssssssssscssssssssssssssssscccsssssssscssssssssssssccssssssssssssssssssssscssssssssssssssscsssssssssssssssssssssscsssssssccssssssssssssssssssssssssssssssssssssssssssssssssssssssssssssssssssssss"
             clip-path="url(#clipPath90114)" /></g><path
           style="display:inline;fill:#000000;fill-rule:nonzero;stroke-width:0.46772"
           d=""
           id="path190" /><path
           style="display:inline;fill:#000000;fill-rule:nonzero;stroke-width:0.46772"
           d=""
           id="path191" /><path
           style="display:inline;fill:#000000;fill-rule:nonzero;stroke-width:0.46772"
           d=""
           id="path192" /><path
           style="display:inline;fill:#000000;fill-rule:nonzero;stroke-width:0.46772"
           d="m 112.52691,195.74249 c -0.148,-0.23947 -0.0552,-0.5676 0.20626,-0.72918 0.26144,-0.16158 0.47535,0.0344 0.47535,0.4354 0,0.82156 -0.28066,0.94253 -0.68161,0.29378 z"
           id="path193" /><path
           style="display:inline;fill:#627789;fill-opacity:1;fill-rule:nonzero;stroke-width:0.0223363"
           d=""
           id="path89981" /><path
           style="display:inline;fill:#627789;fill-opacity:1;fill-rule:nonzero;stroke-width:0.0223363"
           d=""
           id="path89987" /><path
           style="display:inline;fill:#627789;fill-opacity:1;fill-rule:nonzero;stroke-width:0.0223363"
           d=""
           id="path89990" /><path
           style="display:inline;fill:#627789;fill-opacity:1;fill-rule:nonzero;stroke-width:0.0223363"
           d=""
           id="path89991" /><g
           id="g90131"
           transform="matrix(1.6437455,0,0,1.6437455,-72.543333,-48.798654)"><path
             style="fill:#31adcb;fill-opacity:1;fill-rule:nonzero;stroke-width:0.221716"
             d="M 126.91554,74.961898 138.6285,68.476215 112.78256,53.472019 Z"
             id="path90121" /><path
             style="fill:#31adcb;fill-opacity:1;fill-rule:nonzero;stroke-width:0.221716"
             d="m 110.89494,53.375218 -14.181389,21.973884 28.556369,-0.0484 z"
             id="path90122" /><path
             style="fill:#afb9c3;fill-opacity:1;fill-rule:nonzero;stroke-width:0.221716"
             d="m 127.85433,76.51108 12.6095,-7.082549 0.1464,29.080541 z"
             id="path90123" /><path
             style="fill:#b0bbc4;fill-opacity:1;fill-rule:nonzero;stroke-width:0.221716"
             d="m 113.2495,100.03644 26.19231,0.0561 -12.61942,-21.81757 z"
             id="path90124" /><path
             style="fill:#31adcb;fill-opacity:1;fill-rule:nonzero;stroke-width:0.221716"
             d="M 125.1398,76.984965 95.750577,76.816707 110.95787,100.35904 Z"
             id="path90125" /><path
             style="fill:#073053;fill-opacity:1;fill-rule:nonzero;stroke-width:0.221716"
             d="m 110.35693,101.88697 0.29862,15.05033 -28.898486,-15.16978 z"
             id="path90126" /><path
             style="fill:#073053;fill-opacity:1;fill-rule:nonzero;stroke-width:0.221716"
             d="m 112.50698,116.81786 26.99504,-15.11006 -27.29366,0.0597 z"
             id="path90127" /><path
             style="fill:#073053;fill-opacity:1;fill-rule:nonzero;stroke-width:0.221716"
             d="M 81.757064,100.51333 94.948258,78.773962 108.92356,100.21471 Z"
             id="path90128" /><path
             style="fill:#073053;fill-opacity:1;fill-rule:nonzero;stroke-width:0.221716"
             d="M 81.412906,70.114048 93.694062,77.22115 81.412906,98.960519 V 70.054324 Z"
             id="path90129" /><path
             style="fill:#b4bec6;fill-opacity:1;fill-rule:nonzero;stroke-width:0.221716"
             d="M 81.412906,68.023723 108.98329,52.973391 94.530192,75.847509 Z"
             id="path90130" /></g></g></g></g></svg>
