<svg id="Capa_1" data-name="Capa 1" xmlns="http://www.w3.org/2000/svg" viewBox="0 0 627.59 607.33"><polyline points="226.03 40.15 226.03 81.36 263.65 62.42 263.65 187.61 305.05 170.77 305.05 0 226.03 40.15"/><polygon points="321.07 0.04 460.26 79.1 460.26 154.37 417.55 130.5 417.73 99.36 364.81 69.3 364.81 118.65 460.26 174.52 460.26 253.09 315.67 315.9 243.85 276.12 288.85 255.42 316.57 270.72 417.61 228.51 417.61 195.35 321.07 139.68 321.07 0.04"/><polygon points="167.33 143.03 211.15 120.77 211.02 206.01 213.79 209.52 167.33 230.96 167.33 143.03"/><polygon points="168.61 247.14 343.03 171 385.69 195.66 212.71 271.8 168.61 247.14"/><path d="M286.82,608.9a44.9,44.9,0,0,1-17.55-13.59l16.2-19.44q10.26,13.86,23.4,13.86,17.82,0,17.82-20.88V508.91H282.41v-23.4h73.26v81.72q0,23.22-11.52,34.83t-33.84,11.61A57.08,57.08,0,0,1,286.82,608.9Z" transform="translate(-264.89 -103.7)"/><path d="M482,588.11v23.4H384.47v-126h95.22v23.4H413.45v27.36H472V559h-58.5v29.16Z" transform="translate(-264.89 -103.7)"/><path d="M619.91,611.51l-.18-75.6-37.08,62.28H569.51l-36.9-60.66v74H505.25v-126h24.12l47.16,78.3L623,485.51h23.94l.36,126Z" transform="translate(-264.89 -103.7)"/><path d="M671.56,549.59H722.5v22.5H671.56Z" transform="translate(-264.89 -103.7)"/><path d="M756.61,609.62q-14-4.05-22.41-10.53l9.9-22a67.18,67.18,0,0,0,19.26,9.54,72.34,72.34,0,0,0,22.32,3.6q12.42,0,18.36-3.69c4-2.45,5.94-5.73,5.94-9.81a9.38,9.38,0,0,0-3.51-7.47,26.61,26.61,0,0,0-9-4.77q-5.49-1.78-14.85-4A203.27,203.27,0,0,1,759,553.73a38.31,38.31,0,0,1-15.75-11q-6.57-7.56-6.57-20.16a35.07,35.07,0,0,1,5.94-19.89q5.94-8.91,17.91-14.13t29.25-5.22a96.85,96.85,0,0,1,23.58,2.88,69.66,69.66,0,0,1,20.16,8.28l-9,22.14q-17.46-9.9-34.92-9.9-12.24,0-18.09,4t-5.85,10.44q0,6.48,6.75,9.63T793.06,537a205.28,205.28,0,0,1,23.58,6.84,39,39,0,0,1,15.75,10.8q6.57,7.38,6.57,20a34.41,34.41,0,0,1-6,19.71q-6,8.91-18.09,14.13t-29.34,5.22A103.09,103.09,0,0,1,756.61,609.62Z" transform="translate(-264.89 -103.7)"/><path d="M858.94,485.51H888.1v126H858.94Z" transform="translate(-264.89 -103.7)"/><path d="M270.38,698.29a15.81,15.81,0,0,1-5.49-2.79l1.92-3.37a16,16,0,0,0,5,2.55,19.78,19.78,0,0,0,6.24,1q4.32,0,6.39-1.34a4.31,4.31,0,0,0,2.07-3.82,3.4,3.4,0,0,0-1.14-2.72,7.57,7.57,0,0,0-2.88-1.5,41.08,41.08,0,0,0-4.62-1,55.1,55.1,0,0,1-6.18-1.47,9.1,9.1,0,0,1-4-2.56,7.05,7.05,0,0,1-1.65-5,7.82,7.82,0,0,1,3.3-6.49c2.2-1.68,5.26-2.51,9.18-2.51a23.81,23.81,0,0,1,6.12.8,17.1,17.1,0,0,1,5,2.13l-1.86,3.42a15.92,15.92,0,0,0-9.3-2.69c-2.72,0-4.77.47-6.15,1.43a4.41,4.41,0,0,0-2.07,3.78,3.7,3.7,0,0,0,1.17,2.88,7.08,7.08,0,0,0,2.91,1.59,42.09,42.09,0,0,0,4.8,1.05,55.22,55.22,0,0,1,6.06,1.44,8.9,8.9,0,0,1,3.9,2.46,6.77,6.77,0,0,1,1.62,4.8A7.63,7.63,0,0,1,287.3,697c-2.3,1.63-5.49,2.43-9.57,2.43A24.23,24.23,0,0,1,270.38,698.29Z" transform="translate(-264.89 -103.7)"/><path d="M303.29,697.33a15.12,15.12,0,0,1-5.76-5.74,17.35,17.35,0,0,1,0-16.55,14.88,14.88,0,0,1,5.76-5.7,17.58,17.58,0,0,1,16.44,0,14.67,14.67,0,0,1,5.73,5.7,17.58,17.58,0,0,1,0,16.55,14.91,14.91,0,0,1-5.73,5.74,17.43,17.43,0,0,1-16.44,0Zm14.25-3.24a10.69,10.69,0,0,0,4.17-4.36,14.49,14.49,0,0,0,0-12.84,10.58,10.58,0,0,0-4.17-4.34,12.58,12.58,0,0,0-12.06,0,10.78,10.78,0,0,0-4.2,4.34,14.23,14.23,0,0,0,0,12.84,10.89,10.89,0,0,0,4.2,4.36,12.72,12.72,0,0,0,12.06,0Z" transform="translate(-264.89 -103.7)"/><path d="M336.23,654.58h4.26v44.51h-4.26Z" transform="translate(-264.89 -103.7)"/><path d="M380.81,667.54v31.55h-4.08v-5.75a11.66,11.66,0,0,1-4.62,4.46,13.79,13.79,0,0,1-6.72,1.59c-4.12,0-7.37-1.14-9.75-3.45s-3.57-5.67-3.57-10.1v-18.3h4.26v17.88c0,3.32.82,5.83,2.46,7.55s4,2.58,7,2.58a10.29,10.29,0,0,0,7.86-3q2.88-3,2.88-8.43V667.54Z" transform="translate(-264.89 -103.7)"/><path d="M397.46,697.35a14.68,14.68,0,0,1-5.79-5.72,16.51,16.51,0,0,1-2.1-8.32,16.3,16.3,0,0,1,2.1-8.27,14.82,14.82,0,0,1,5.79-5.7,17,17,0,0,1,8.37-2,16.34,16.34,0,0,1,7.29,1.58,12.19,12.19,0,0,1,5.07,4.66L415,675.69a10,10,0,0,0-4-3.51,11.75,11.75,0,0,0-5.22-1.17,12.26,12.26,0,0,0-6.15,1.54,10.66,10.66,0,0,0-4.26,4.34,14.3,14.3,0,0,0,0,12.87,10.83,10.83,0,0,0,4.26,4.33,12.46,12.46,0,0,0,6.15,1.52,11.87,11.87,0,0,0,5.22-1.14,9.7,9.7,0,0,0,4-3.47l3.18,2.15a12,12,0,0,1-5.1,4.65,16.13,16.13,0,0,1-7.26,1.59A17,17,0,0,1,397.46,697.35Z" transform="translate(-264.89 -103.7)"/><path d="M426.47,659.73a3,3,0,0,1,0-4.26,3,3,0,0,1,2.22-.89,3.1,3.1,0,0,1,2.22.86,2.8,2.8,0,0,1,.9,2.07,3.14,3.14,0,0,1-5.34,2.22Zm.06,7.81h4.26v31.55h-4.26Z" transform="translate(-264.89 -103.7)"/><path d="M447.35,697.33a15.12,15.12,0,0,1-5.76-5.74,17.35,17.35,0,0,1,0-16.55,14.88,14.88,0,0,1,5.76-5.7,17.58,17.58,0,0,1,16.44,0,14.67,14.67,0,0,1,5.73,5.7,17.58,17.58,0,0,1,0,16.55,14.91,14.91,0,0,1-5.73,5.74,17.43,17.43,0,0,1-16.44,0Zm14.25-3.24a10.69,10.69,0,0,0,4.17-4.36,14.49,14.49,0,0,0,0-12.84,10.58,10.58,0,0,0-4.17-4.34,12.58,12.58,0,0,0-12.06,0,10.78,10.78,0,0,0-4.2,4.34,14.23,14.23,0,0,0,0,12.84,10.89,10.89,0,0,0,4.2,4.36,12.72,12.72,0,0,0,12.06,0Z" transform="translate(-264.89 -103.7)"/><path d="M505.82,670.75q3.51,3.45,3.51,10v18.29h-4.26V681.21c0-3.27-.82-5.78-2.46-7.5a9.28,9.28,0,0,0-7-2.58,10.79,10.79,0,0,0-8.07,3q-3,3-3,8.37v16.55h-4.26V667.54h4.08v5.81a11.92,11.92,0,0,1,4.83-4.47,15.58,15.58,0,0,1,7.17-1.58Q502.31,667.3,505.82,670.75Z" transform="translate(-264.89 -103.7)"/><path d="M548.51,684.63h-26.4a11.28,11.28,0,0,0,3.78,8,12.54,12.54,0,0,0,8.64,3,13.61,13.61,0,0,0,5.4-1.05,11.57,11.57,0,0,0,4.26-3.09l2.4,2.76a13.44,13.44,0,0,1-5.25,3.85,17.75,17.75,0,0,1-6.93,1.31,17.52,17.52,0,0,1-8.61-2.06,15,15,0,0,1-5.85-5.74,16.28,16.28,0,0,1-2.1-8.28,16.87,16.87,0,0,1,2-8.27,14.55,14.55,0,0,1,5.52-5.7,15.41,15.41,0,0,1,7.89-2,15.25,15.25,0,0,1,7.86,2,14.5,14.5,0,0,1,5.46,5.66,17.1,17.1,0,0,1,2,8.31Zm-22.89-10.77a11.48,11.48,0,0,0-3.51,7.6h22.38a11.48,11.48,0,0,0-3.51-7.6,11.62,11.62,0,0,0-15.36,0Z" transform="translate(-264.89 -103.7)"/><path d="M558.38,698.29a15.81,15.81,0,0,1-5.49-2.79l1.92-3.37a16,16,0,0,0,5,2.55,19.78,19.78,0,0,0,6.24,1q4.32,0,6.39-1.34a4.31,4.31,0,0,0,2.07-3.82,3.4,3.4,0,0,0-1.14-2.72,7.57,7.57,0,0,0-2.88-1.5,41.08,41.08,0,0,0-4.62-1,55.1,55.1,0,0,1-6.18-1.47,9.1,9.1,0,0,1-4-2.56,7.05,7.05,0,0,1-1.65-5,7.82,7.82,0,0,1,3.3-6.49c2.2-1.68,5.26-2.51,9.18-2.51a23.81,23.81,0,0,1,6.12.8,17.1,17.1,0,0,1,5,2.13l-1.86,3.42a15.92,15.92,0,0,0-9.3-2.69c-2.72,0-4.77.47-6.15,1.43a4.41,4.41,0,0,0-2.07,3.78,3.7,3.7,0,0,0,1.17,2.88,7.08,7.08,0,0,0,2.91,1.59,42.09,42.09,0,0,0,4.8,1.05,55.22,55.22,0,0,1,6.06,1.44,8.9,8.9,0,0,1,3.9,2.46,6.77,6.77,0,0,1,1.62,4.8A7.63,7.63,0,0,1,575.3,697c-2.3,1.63-5.49,2.43-9.57,2.43A24.23,24.23,0,0,1,558.38,698.29Z" transform="translate(-264.89 -103.7)"/><path d="M602.27,659.73a3,3,0,0,1,0-4.26,3,3,0,0,1,2.21-.89,3.13,3.13,0,0,1,2.23.86,2.8,2.8,0,0,1,.9,2.07,3.14,3.14,0,0,1-5.34,2.22Zm.06,7.81h4.26v31.55h-4.26Z" transform="translate(-264.89 -103.7)"/><path d="M644,670.75q3.51,3.45,3.51,10v18.29h-4.26V681.21c0-3.27-.82-5.78-2.46-7.5a9.28,9.28,0,0,0-7-2.58,10.79,10.79,0,0,0-8.07,3q-3,3-3,8.37v16.55h-4.26V667.54h4.08v5.81a11.92,11.92,0,0,1,4.83-4.47,15.58,15.58,0,0,1,7.17-1.58Q640.49,667.3,644,670.75Z" transform="translate(-264.89 -103.7)"/><path d="M675.7,697.17a8.08,8.08,0,0,1-3,1.66,12.2,12.2,0,0,1-3.68.56q-4.45,0-6.85-2.39a9.23,9.23,0,0,1-2.39-6.79V671.13h-5.65v-3.59h5.65v-6.91h4.26v6.91h9.59v3.59h-9.59V690a5.89,5.89,0,0,0,1.41,4.29,5.27,5.27,0,0,0,4,1.47,7.84,7.84,0,0,0,2.55-.42,6.08,6.08,0,0,0,2.13-1.2Z" transform="translate(-264.89 -103.7)"/><path d="M709.78,684.63h-26.4a11.28,11.28,0,0,0,3.78,8,12.55,12.55,0,0,0,8.65,3,13.6,13.6,0,0,0,5.39-1.05,11.48,11.48,0,0,0,4.26-3.09l2.4,2.76a13.44,13.44,0,0,1-5.25,3.85,19,19,0,0,1-15.54-.75,14.86,14.86,0,0,1-5.84-5.74,16.19,16.19,0,0,1-2.11-8.28,16.87,16.87,0,0,1,2-8.27,14.62,14.62,0,0,1,5.52-5.7,15.41,15.41,0,0,1,7.89-2,15.25,15.25,0,0,1,7.86,2,14.5,14.5,0,0,1,5.46,5.66,17,17,0,0,1,2,8.31ZM686.9,673.86a11.44,11.44,0,0,0-3.52,7.6h22.39a11.53,11.53,0,0,0-3.52-7.6,10.8,10.8,0,0,0-7.71-2.9A10.68,10.68,0,0,0,686.9,673.86Z" transform="translate(-264.89 -103.7)"/><path d="M747.76,667.54v27.71q0,8-3.93,11.92T732,711a26.77,26.77,0,0,1-8.31-1.29,17.24,17.24,0,0,1-6.39-3.58l2.16-3.24a16.21,16.21,0,0,0,5.55,3.18,20.72,20.72,0,0,0,6.87,1.14c4,0,6.94-.92,8.82-2.79s2.82-4.75,2.82-8.66v-4a12.79,12.79,0,0,1-5.19,4.57,16,16,0,0,1-7.11,1.55,16.67,16.67,0,0,1-8.07-1.95,14.26,14.26,0,0,1-5.7-5.46,16.24,16.24,0,0,1,0-15.87,14.44,14.44,0,0,1,5.67-5.4,16.93,16.93,0,0,1,8.1-1.91,16,16,0,0,1,7.26,1.62,13.06,13.06,0,0,1,5.22,4.67v-6.05Zm-10,25.1a10.53,10.53,0,0,0,4.29-4.1,11.75,11.75,0,0,0,1.53-6,11.62,11.62,0,0,0-1.53-6,10.87,10.87,0,0,0-4.26-4.08,13.81,13.81,0,0,0-12.36,0,10.47,10.47,0,0,0-4.26,4.08,12.53,12.53,0,0,0,0,12,10.58,10.58,0,0,0,4.26,4.1,12.65,12.65,0,0,0,6.15,1.47A12.82,12.82,0,0,0,737.8,692.64Z" transform="translate(-264.89 -103.7)"/><path d="M768.25,668.92a15.19,15.19,0,0,1,7.35-1.62v4.13l-1,0a10.07,10.07,0,0,0-7.8,3c-1.88,2-2.82,4.91-2.82,8.58v16.08H759.7V667.54h4.08v6.17A10.3,10.3,0,0,1,768.25,668.92Z" transform="translate(-264.89 -103.7)"/><path d="M803.74,670.38q3.3,3.11,3.3,9.16v19.55H803v-4.92a9.71,9.71,0,0,1-4.23,3.84,14.67,14.67,0,0,1-6.63,1.38,13,13,0,0,1-8.4-2.51,8.68,8.68,0,0,1-.21-13.15q2.91-2.46,9.27-2.46h10v-1.92a8.1,8.1,0,0,0-2.28-6.21c-1.52-1.41-3.74-2.13-6.66-2.13a16.93,16.93,0,0,0-5.76,1,14.88,14.88,0,0,0-4.74,2.73l-1.92-3.18a17.38,17.38,0,0,1,5.76-3.15,22.71,22.71,0,0,1,7.08-1.1Q800.44,667.3,803.74,670.38Zm-4.8,24a9.76,9.76,0,0,0,3.84-4.77v-5.15h-9.9q-8.1,0-8.1,5.63a5.15,5.15,0,0,0,2.1,4.35,9.56,9.56,0,0,0,5.88,1.6A11.15,11.15,0,0,0,798.94,694.38Z" transform="translate(-264.89 -103.7)"/><path d="M818.62,654.58h4.26v44.51h-4.26Z" transform="translate(-264.89 -103.7)"/><path d="M862.24,684.63h-26.4a11.28,11.28,0,0,0,3.78,8,12.54,12.54,0,0,0,8.64,3,13.61,13.61,0,0,0,5.4-1.05,11.57,11.57,0,0,0,4.26-3.09l2.4,2.76a13.44,13.44,0,0,1-5.25,3.85,17.75,17.75,0,0,1-6.93,1.31,17.52,17.52,0,0,1-8.61-2.06,15,15,0,0,1-5.85-5.74,16.28,16.28,0,0,1-2.1-8.28,16.87,16.87,0,0,1,2-8.27,14.55,14.55,0,0,1,5.52-5.7,15.41,15.41,0,0,1,7.89-2,15.25,15.25,0,0,1,7.86,2,14.5,14.5,0,0,1,5.46,5.66,17.1,17.1,0,0,1,2,8.31Zm-22.89-10.77a11.48,11.48,0,0,0-3.51,7.6h22.38a11.48,11.48,0,0,0-3.51-7.6,11.62,11.62,0,0,0-15.36,0Z" transform="translate(-264.89 -103.7)"/><path d="M872.11,698.29a15.81,15.81,0,0,1-5.49-2.79l1.92-3.37a16,16,0,0,0,5,2.55,19.78,19.78,0,0,0,6.24,1q4.32,0,6.39-1.34a4.31,4.31,0,0,0,2.07-3.82,3.4,3.4,0,0,0-1.14-2.72,7.57,7.57,0,0,0-2.88-1.5,41.08,41.08,0,0,0-4.62-1,55.1,55.1,0,0,1-6.18-1.47,9.1,9.1,0,0,1-4-2.56,7.05,7.05,0,0,1-1.65-5,7.82,7.82,0,0,1,3.3-6.49c2.2-1.68,5.26-2.51,9.18-2.51a23.81,23.81,0,0,1,6.12.8,17.1,17.1,0,0,1,5,2.13l-1.86,3.42a15.92,15.92,0,0,0-9.3-2.69c-2.72,0-4.77.47-6.15,1.43a4.41,4.41,0,0,0-2.07,3.78,3.7,3.7,0,0,0,1.17,2.88,7.08,7.08,0,0,0,2.91,1.59,42.09,42.09,0,0,0,4.8,1.05,55.22,55.22,0,0,1,6.06,1.44,8.9,8.9,0,0,1,3.9,2.46,6.77,6.77,0,0,1,1.62,4.8A7.63,7.63,0,0,1,889,697c-2.3,1.63-5.49,2.43-9.57,2.43A24.23,24.23,0,0,1,872.11,698.29Z" transform="translate(-264.89 -103.7)"/></svg>