<svg xmlns="http://www.w3.org/2000/svg" viewBox="160 0 310 320" fill="#FAFAF7">
  <polyline points="226.03 40.15 226.03 81.36 263.65 62.42 263.65 187.61 305.05 170.77 305.05 0 226.03 40.15"/>
  <polygon points="321.07 0.04 460.26 79.1 460.26 154.37 417.55 130.5 417.73 99.36 364.81 69.3 364.81 118.65 460.26 174.52 460.26 253.09 315.67 315.9 243.85 276.12 288.85 255.42 316.57 270.72 417.61 228.51 417.61 195.35 321.07 139.68 321.07 0.04"/>
  <polygon points="167.33 143.03 211.15 120.77 211.02 206.01 213.79 209.52 167.33 230.96 167.33 143.03"/>
  <polygon points="168.61 247.14 343.03 171 385.69 195.66 212.71 271.8 168.61 247.14"/>
</svg>
