<?xml version="1.0" encoding="UTF-8" standalone="no"?>
<!-- Created with Inkscape (http://www.inkscape.org/) -->

<svg
   width="210mm"
   height="297mm"
   viewBox="0 0 210 297"
   version="1.1"
   id="svg1"
   xml:space="preserve"
   inkscape:version="1.4.3 (0d15f75, 2025-12-25)"
   sodipodi:docname="06. PERICIA copia.docx"
   xmlns:inkscape="http://www.inkscape.org/namespaces/inkscape"
   xmlns:sodipodi="http://sodipodi.sourceforge.net/DTD/sodipodi-0.dtd"
   xmlns="http://www.w3.org/2000/svg"
   xmlns:svg="http://www.w3.org/2000/svg"><sodipodi:namedview
     id="namedview1"
     pagecolor="#ffffff"
     bordercolor="#000000"
     borderopacity="0.25"
     inkscape:showpageshadow="2"
     inkscape:pageopacity="0.0"
     inkscape:pagecheckerboard="0"
     inkscape:deskcolor="#d1d1d1"
     inkscape:document-units="mm"
     inkscape:zoom="0.53925673"
     inkscape:cx="224.38292"
     inkscape:cy="667.58555"
     inkscape:window-width="1710"
     inkscape:window-height="1073"
     inkscape:window-x="0"
     inkscape:window-y="39"
     inkscape:window-maximized="0"
     inkscape:current-layer="layer1" /><defs
     id="defs1" /><g
     inkscape:label="Capa 1"
     inkscape:groupmode="layer"
     id="layer1"><path
       style="fill:#000000;stroke-width:1.5685"
       d="m 93.646226,211.2439 c -4.435823,-3.3265 -5.999993,-4.58231 -9.003165,-7.22825 -5.068046,-4.46521 -8.311265,-7.6978 -16.302093,-16.24874 -0.325737,-0.34856 -0.554417,-0.68531 -0.520728,-0.7668 0.03304,-0.08 1.095333,-0.81078 2.360659,-1.62414 1.265324,-0.81334 3.19765,-2.06555 4.294053,-2.78266 1.096403,-0.71711 3.275118,-2.12421 4.841588,-3.1269 3.739351,-2.39357 3.666778,-2.34479 3.668344,-2.46501 7.36e-4,-0.0572 -0.241967,-0.72272 -0.539365,-1.47885 -0.535581,-1.3617 -1.051668,-3.10602 -1.805115,-6.10113 -1.357415,-5.39598 -1.710107,-12.92297 -0.995031,-21.2354 0.155486,-1.80747 0.342288,-3.72932 0.415108,-4.27078 0.202585,-1.50632 0.324654,-1.42584 1.278307,0.8428 0.771427,1.8351 2.746503,6.30513 4.273562,9.67195 0.822177,1.81274 2.284089,5.12416 3.675393,8.32529 0.497533,1.14473 1.294393,2.91934 1.770799,3.94357 0.476408,1.02423 1.107852,2.41259 1.403209,3.08527 0.29536,0.67268 0.592152,1.29845 0.659541,1.39062 0.06738,0.0922 1.104975,0.60754 2.305746,1.14529 1.20078,0.53774 4.130358,1.85088 6.510192,2.91811 7.4231,3.32885 17.27526,7.72098 19.33439,8.61935 3.29343,1.43686 3.38896,1.49412 4.94962,2.96718 1.72258,1.62587 2.29899,2.11026 4.25202,3.57324 3.64673,2.73171 5.42006,3.62806 7.84053,3.96313 2.36323,0.32715 5.30058,-0.49658 7.83437,-2.19708 0.47638,-0.31972 1.38375,-1.1009 2.01635,-1.73597 l 1.15021,-1.15466 -1.70693,-0.0743 c -3.77392,-0.16419 -6.80107,-0.97682 -9.67559,-2.59739 -1.28667,-0.72541 -2.82854,-2.1712 -3.45649,-3.24114 -1.3881,-2.36516 -3.74588,-9.83107 -6.47418,-20.50045 -1.02452,-4.00648 -1.44768,-6.03386 -1.35947,-6.51307 0.0387,-0.2109 0.36775,-0.97496 0.73099,-1.69794 0.69135,-1.37607 0.86728,-1.70632 2.33453,-4.38173 0.4956,-0.90374 1.7527,-3.22056 2.79355,-5.14853 2.88814,-5.34975 4.57812,-8.3643 5.11321,-9.12085 0.26687,-0.37731 0.74107,-0.87732 1.05379,-1.11112 0.75268,-0.56271 3.11852,-1.96888 7.85324,-4.66764 4.02081,-2.29184 4.98678,-2.80449 7.11233,-3.7745 3.30744,-1.50939 6.81505,-2.25848 9.30242,-1.98667 2.0193,0.22064 5.00656,1.21638 6.86319,2.28767 0.42174,0.24334 0.79918,0.41005 0.83874,0.37045 0.0394,-0.0394 0.17744,-0.43014 0.30639,-0.86788 0.77158,-2.61931 1.18052,-5.33843 0.8648,-5.75029 -0.0835,-0.10885 -0.57757,-0.30753 -1.13617,-0.45681 -1.73162,-0.46272 -3.48109,-1.31899 -6.40569,-3.13525 -3.97523,-2.46869 -5.85454,-4.26893 -6.31679,-6.05099 -0.0804,-0.31012 -0.14634,-0.87064 -0.14634,-1.24556 0,-0.37493 -0.0393,-0.70598 -0.0873,-0.73566 -0.0479,-0.0296 -1.14482,0.13552 -2.43735,0.36696 -1.29252,0.23151 -3.58238,0.62352 -5.08861,0.87114 -1.50621,0.24763 -4.34064,0.71974 -6.29873,1.04912 -1.95809,0.3294 -3.73642,0.5996 -3.95186,0.60042 -0.47389,0.001 -0.56649,-0.093 -1.62975,-1.67012 -0.90486,-1.34216 -1.71718,-2.1315 -2.87269,-2.79141 -0.83011,-0.47406 -4.96763,-1.92602 -7.92243,-2.78015 -0.84348,-0.24382 -1.82937,-0.54265 -2.19087,-0.66409 -1.45337,-0.48822 -1.92055,-0.53059 -3.32023,-0.30105 -0.70433,0.11544 -2.90731,0.47927 -4.89551,0.80839 -1.98821,0.32911 -4.60082,0.74889 -5.8058,0.93286 -1.20497,0.18395 -4.58165,0.72772 -7.50372,1.20837 -2.92207,0.48065 -7.547835,1.24141 -10.279494,1.69058 -3.354711,0.55162 -5.043456,0.78632 -5.203308,0.72312 -0.13017,-0.0514 -0.532427,-0.33241 -0.893919,-0.62438 -1.083509,-0.87512 -4.345761,-3.36781 -4.874678,-3.72474 -2.63265,-1.77657 -5.56114,-2.62642 -8.02022,-2.32741 -1.262802,0.15355 -2.667751,0.55407 -3.533651,1.00737 -1.015439,0.53159 -2.733348,2.30765 -3.308431,3.42042 -0.92512,1.79007 -1.270833,2.93471 -1.406112,4.65559 -0.131941,1.67846 0.468243,4.57895 1.412309,6.82518 0.956675,2.27624 1.834002,3.48105 4.475947,6.14672 1.069928,1.07952 1.945325,2.00685 1.945325,2.06074 0,0.0914 -0.286752,0.58152 -2.61271,4.46606 -1.41846,2.36894 -2.223341,3.5977 -2.401384,3.666 -0.198153,0.0761 -2.277922,-1.94573 -4.841657,-4.70665 -3.03827,-3.27197 -4.322857,-4.87269 -5.516294,-6.87385 -0.350325,-0.58743 -0.662377,-1.06804 -0.693449,-1.06804 -0.03107,0 -4.06025,1.99641 -8.953729,4.43648 -4.893476,2.4401 -8.968292,4.43608 -9.055145,4.43555 -0.08685,-5.1e-4 -0.336755,-0.28395 -0.555339,-0.62985 -0.218584,-0.34593 -0.815472,-1.29441 -1.326419,-2.10777 -0.510945,-0.81335 -1.348001,-2.14431 -1.860119,-2.95765 -2.088536,-3.31706 -2.403043,-3.85108 -2.349809,-3.9898 0.03061,-0.0797 2.53664,-1.36942 5.568975,-2.86593 3.032333,-1.49648 6.844283,-3.39556 8.471001,-4.22015 1.626718,-0.82459 3.869616,-1.92811 4.984221,-2.45225 1.114603,-0.52415 2.106944,-1.03445 2.205201,-1.134 0.112775,-0.11418 0.222014,-0.53145 0.296255,-1.13145 0.378218,-3.05669 1.395749,-6.09972 2.941597,-8.79711 1.725359,-3.01066 4.910965,-5.901106 8.269019,-7.502887 3.055991,-1.4577 6.256137,-2.089964 9.789184,-1.934053 2.727299,0.120303 4.866774,0.630253 7.47952,1.782598 2.023717,0.892555 5.312093,2.854715 6.699692,3.997664 0.209536,0.172598 0.481232,0.313811 0.603769,0.313811 0.122531,0 1.99682,-0.291837 4.165074,-0.648544 2.168245,-0.356693 4.977458,-0.804326 6.242688,-0.994726 1.26523,-0.1904 4.1243,-0.635525 6.35352,-0.989174 2.2292,-0.353649 5.8277,-0.917352 7.99665,-1.252666 2.16896,-0.335313 4.73226,-0.736943 5.69625,-0.892491 1.14807,-0.185255 1.99833,-0.265312 2.46473,-0.23206 1.43783,0.10258 11.39264,3.195533 14.05385,4.366622 1.30604,0.574746 2.95852,1.492914 4.1851,2.325411 0.88172,0.598413 3.18288,2.748365 4.02974,3.764945 0.23557,0.28278 0.35508,0.3428 0.59712,0.29987 12.32894,-2.18698 18.13644,-2.872161 21.89563,-2.58331 3.98636,0.30632 5.82783,0.87882 7.74433,2.40762 1.24268,0.99131 2.54996,3.05023 3.00043,4.72557 0.14854,0.55255 0.1899,1.12915 0.18449,2.57427 -0.008,2.24701 -0.22057,3.4358 -0.99475,5.57427 -0.51634,1.4262 -0.5197,1.44435 -0.46865,2.53194 0.24735,5.26998 -0.27666,8.50066 -2.06997,12.76179 -3.22294,7.65813 -3.96536,9.10902 -6.41078,12.52821 -2.06784,2.89128 -4.54742,5.74431 -4.90016,5.6382 -0.28898,-0.0869 -0.89238,-1.58104 -1.3057,-3.23319 -0.52672,-2.1053 -0.88306,-3.21387 -1.03038,-3.20561 -0.29909,0.0168 -1.88792,2.12196 -6.04746,8.01281 -1.05408,1.4928 -3.38948,5.43113 -3.99951,6.74456 -0.85255,1.83562 -1.09487,3.38176 -0.86491,5.51855 0.25762,2.39382 1.59748,9.95156 1.76426,9.95156 0.12078,0 2.13229,-1.39326 3.22645,-2.23483 1.78768,-1.37496 2.23923,-1.6532 2.40401,-1.48127 0.16043,0.1674 0.6146,2.20498 0.88937,3.98995 0.0926,0.60249 0.19675,2.10598 0.23108,3.34107 0.052,1.87281 0.0234,2.5912 -0.17267,4.32696 -0.85892,7.60255 -2.25216,11.68425 -5.09145,14.91623 -2.08009,2.36773 -4.38998,3.99819 -7.63567,5.38965 -2.80286,1.20163 -4.70368,1.57698 -8.04204,1.58801 -1.65886,0.006 -2.66703,-0.0461 -3.61494,-0.18508 -2.25427,-0.33045 -5.41978,-1.24662 -7.87882,-2.28031 l -1.30622,-0.54908 -1.76098,0.38599 c -0.96855,0.2123 -3.6342,0.80839 -5.92366,1.32466 -4.61736,1.04121 -4.15681,0.8619 -6.07964,2.36729 -2.8821,2.25645 -14.433734,10.83645 -14.589753,10.8366 -0.101641,9e-5 -2.147355,-1.4716 -4.546046,-3.27043 z m 56.712024,-27.84077 c 1.98879,-0.23699 3.57623,-0.72761 3.81842,-1.18014 0.32321,-0.60393 1.42185,-5.55238 1.26708,-5.70716 -0.0329,-0.0329 -0.26553,0.18485 -0.51687,0.48396 -2.1081,2.50877 -3.24321,3.10551 -5.34258,2.80862 -1.48218,-0.20961 -4.01949,-1.19471 -4.5299,-1.75872 -0.10306,-0.11388 -0.23654,-0.66272 -0.33765,-1.38782 -0.18776,-1.34668 -0.67948,-3.938 -0.80751,-4.25549 -0.0675,-0.16746 -0.21844,0.0239 -0.77771,0.9859 -0.38167,0.65653 -1.12217,1.85916 -1.64554,2.67252 -0.52338,0.81336 -1.16359,1.83732 -1.42268,2.27548 l -0.47107,0.79664 0.19701,0.51588 c 0.39677,1.03891 1.89363,2.07563 4.13132,2.86129 2.46349,0.86495 4.39797,1.1321 6.43768,0.88904 z m 3.67379,-42.47435 c 0.64331,-0.94891 1.4718,-2.28638 1.84109,-2.97213 0.79036,-1.46768 1.29942,-2.02114 2.31399,-2.51583 1.79191,-0.8737 3.9276,-0.88206 5.6313,-0.0221 1.29088,0.65161 1.86735,1.54969 2.10418,3.27803 0.0629,0.4594 0.13992,1.00781 0.17094,1.21868 l 0.0565,0.3834 0.26649,-0.32863 c 0.37744,-0.46543 1.38681,-2.56072 1.78783,-3.71119 0.42289,-1.2133 0.69598,-2.70781 0.5601,-3.06525 -0.32467,-0.85393 -3.31035,-2.29996 -5.59252,-2.70856 -2.73025,-0.48882 -6.23322,0.16583 -9.43496,1.76326 -1.81442,0.90525 -2.06708,1.10338 -2.06708,1.62094 0,0.47652 0.19872,2.24288 0.66169,5.88172 0.33313,2.61837 0.38007,2.9029 0.47883,2.9029 0.0285,0 0.57832,-0.77639 1.22163,-1.72532 z m -29.07731,-20.30135 c -0.32402,-0.0568 -1.45779,-0.397 -2.5195,-0.75595 -2.85507,-0.96525 -3.92247,-1.02579 -7.65224,-0.43408 -1.58709,0.25179 -1.67234,0.25534 -1.67234,0.0698 0,-0.16718 1.6884,-1.83255 4.79143,-4.72608 3.34293,-3.11724 3.85872,-3.45428 5.28656,-3.45439 0.78257,-4e-5 4.85294,0.46121 10.57092,1.1979 3.36252,0.43322 3.34127,0.42909 3.34017,0.64707 -7.4e-4,0.21482 -0.34524,0.49249 -4.38082,3.53433 -1.71709,1.29426 -3.39311,2.56013 -3.72447,2.81304 -1.206,0.92042 -2.72882,1.33822 -4.03971,1.10832 z"
       id="path1" /></g></svg>
