<?xml version="1.0" encoding="UTF-8"?>
<!DOCTYPE svg PUBLIC "-//W3C//DTD SVG 1.1//EN" "http://www.w3.org/Graphics/SVG/1.1/DTD/svg11.dtd">
<!-- Creator: CorelDRAW -->
<svg xmlns="http://www.w3.org/2000/svg" xml:space="preserve" width="768px" height="1240px" version="1.1" style="shape-rendering:geometricPrecision; text-rendering:geometricPrecision; image-rendering:optimizeQuality; fill-rule:evenodd; clip-rule:evenodd"
viewBox="0 0 768 1240.62"
 xmlns:xlink="http://www.w3.org/1999/xlink"
 xmlns:xodm="http://www.corel.com/coreldraw/odm/2003">
 <defs>
  <style type="text/css">
   <![CDATA[
    .fil0 {fill:#FEFEFE;fill-rule:nonzero}
   ]]>
  </style>
 </defs>
 <g id="Capa_x0020_1">
  <metadata id="CorelCorpID_0Corel-Layer"/>
  <g id="_1662033841200">
   <path class="fil0" d="M384.21 283.95c-152.98,0 -277.44,176.72 -277.44,393.94 0,217.22 124.46,393.95 277.44,393.95 152.98,0 277.43,-176.73 277.43,-393.95 0,-217.22 -124.45,-393.94 -277.43,-393.94zm0 795.63c-157.24,0 -285.17,-180.2 -285.17,-401.69 0,-221.48 127.93,-401.68 285.17,-401.68 157.24,0 285.16,180.2 285.16,401.68 0,221.49 -127.92,401.69 -285.16,401.69z"/>
   <polygon class="fil0" points="668.58,669.04 100.27,669.04 100.27,665.26 668.58,665.26 "/>
   <polygon class="fil0" points="664.7,610.92 104.14,610.92 104.14,607.14 664.7,607.14 "/>
   <path class="fil0" d="M295.48 548.54c-0.02,-0.05 -0.02,-0.1 -0.04,-0.15l-178.41 0 0 3.77 180.07 0c-0.62,-1.11 -1.16,-2.32 -1.62,-3.62z"/>
   <path class="fil0" d="M479.33 548.39c-0.78,1.5 -1.8,2.75 -3.04,3.77l175.53 0 0 -3.77 -172.49 0z"/>
   <path class="fil0" d="M467.18 490.26c0.7,1.36 1.35,2.63 1.95,3.78l162.2 0 0 -3.78 -164.15 0z"/>
   <path class="fil0" d="M304.79 490.26l-167.28 0 0 3.78 165.16 0c0.71,-1.25 1.4,-2.52 2.12,-3.78z"/>
   <path class="fil0" d="M434.66 431.7c0.77,1.22 1.55,2.48 2.34,3.78l169.25 0 0 -3.78 -171.59 0z"/>
   <path class="fil0" d="M296.24 431.7l-133.65 0 0 3.78 129.85 0c1.14,-1.39 2.4,-2.67 3.8,-3.78z"/>
   <polygon class="fil0" points="564.05,376.73 204.79,376.73 204.79,372.95 564.05,372.95 "/>
   <polygon class="fil0" points="506.41,318.61 262.43,318.61 262.43,314.83 506.41,314.83 "/>
   <path class="fil0" d="M629.65 877.3c2.48,-5.77 5.38,-14.85 8.51,-26.18 -3.84,11.62 -6.57,20.08 -8.51,26.18z"/>
   <path class="fil0" d="M624.93 884.33c-11.12,-1.42 -88.26,-34.23 -106.65,-48.1 -3.25,-2.45 -6.83,-5.32 -10.66,-8.52 -14.11,-11.78 -28.87,-25.86 -37.69,-34.28 -2.58,-2.46 -4.65,-4.44 -6.05,-5.73 -7.28,-6.73 -41.91,-24.43 -56.97,-24.43 -0.73,0 -1.41,0.04 -2.05,0.13 -7.74,1.05 -14.29,4.84 -20.63,8.52 -4.46,2.58 -8.68,5.02 -13.06,6.37 -11.17,3.46 -26.05,3.23 -28.1,2.09 -1.33,-0.95 -4.3,-3.44 -3.23,-5.92 1.54,-3.59 12.02,-8.11 17.06,-10.28 5.14,-2.21 12.7,-8.06 20.01,-13.71 6.05,-4.69 12.31,-9.53 15.36,-10.75 6.43,-2.58 20.55,-2.78 28.07,-2.1 10.69,0.96 71.91,17.23 102.35,27.21 28.48,9.33 113.69,15.72 131.73,16.98 -5.45,26.28 -11.16,50.82 -16.26,69.31 1.75,-5.28 3.72,-11.2 5.96,-17.86 8.79,-26.17 13.9,-56.5 13.9,-56.5 -1.03,-0.07 -103.08,-6.93 -133.68,-16.96 -31.39,-10.29 -92.34,-26.45 -103.53,-27.46 -7.7,-0.69 -22.78,-0.63 -30.5,2.46 -0.73,0.29 -1.56,0.73 -2.45,1.24 -8.44,-2.72 -29,-4.35 -36.44,-3.7 -11.19,1.01 -72.14,17.17 -103.52,27.46 -30.61,10.03 -132.66,16.89 -133.68,16.96l-3.21 0.21 0.83 3.12c0.08,0.27 4.69,30.44 13.49,57.38 16.7,51.13 19.69,57.59 23.37,57.59 0.38,0 59.1,-26.27 93.84,-46.05 13.57,-7.72 39.79,-21.54 47.91,-23.27l4.25 -7.79c-9.23,1.96 -52.25,23.73 -53.34,24.56 -45.88,22.61 -78.05,39.28 -92.66,44.48 -8.35,2.97 -32.89,-105.23 -30.91,-105.17 0,0 103.26,-7.66 131.75,-16.99 30.44,-9.97 91.66,-26.25 102.35,-27.21 5.79,-0.52 20.99,0.56 30.05,2.37 -2.52,1.85 -5.3,3.99 -8.27,6.29 -6.72,5.2 -14.34,11.09 -18.86,13.04 -11.05,4.76 -17.84,8.42 -19.83,13.05 -1.79,4.17 0.08,8.77 5.01,12.31 4.24,3.05 22.63,1.8 32.74,-1.33 4.95,-1.53 9.62,-4.23 14.15,-6.85 5.89,-3.42 11.99,-6.95 18.7,-7.86 11,-1.51 47.24,16.04 54.72,22.95 1.38,1.28 3.43,3.23 5.99,5.67 8.86,8.46 23.7,22.62 37.94,34.52 3.9,3.25 7.56,6.17 10.87,8.67 17.86,13.48 96.49,49.92 109.83,51.62 0.18,0.02 0.98,-2.97 4.72,-14.77 -1.83,4.28 -3.43,6.76 -4.72,7.03z"/>
   <path class="fil0" d="M564.95 329.81l-0.05 -0.12 -83.8 -29.56 -0.25 0.57c3.59,1.84 7.26,3.86 11.25,6.18l73.79 26.03 0.71 0.25 -0.33 -0.68c-0.45,-0.9 -0.89,-1.79 -1.32,-2.67z"/>
   <path class="fil0" d="M473.82 97.61c0,0 0,0 0,0l0 0zm157.68 152.83l-137.04 -9.13 0.05 -0.02c0.58,-0.2 1.16,-0.4 1.74,-0.61 2.96,-1.04 5.98,-2.28 9.78,-4.02 1.76,-0.81 3.65,-1.75 5.04,-2.44l0.09 -0.04c1.33,-0.66 2.58,-1.28 3.7,-1.81 5.57,-2.77 11.05,-4.8 16.3,-6.02 5.39,-1.3 10.95,-1.8 17.01,-1.52 1.79,0.06 3.63,0.2 5.65,0.35l0.17 0.01c1.19,0.09 2.42,0.18 3.68,0.25 3.48,0.21 7.21,0.36 11.25,-0.29 7.27,-1.21 12.69,-4.11 17.94,-6.92l0.07 -0.04c0.69,-0.37 1.38,-0.74 2.07,-1.11 5.16,-2.84 10.67,-5.76 16.32,-7.42 5.47,-1.54 11.14,-1.96 16.86,-1.26 2.87,0.33 5.55,-1.62 6.08,-4.44 0.28,-1.45 -0.03,-2.91 -0.85,-4.13 -0.84,-1.22 -2.09,-2.04 -3.53,-2.31 -7.08,-1.34 -14.52,-1.25 -21.55,0.28 -6.98,1.57 -13.39,4.46 -19.36,7.27 -2.58,1.21 -5.57,2.58 -8.37,3.65 -1.49,0.53 -2.73,0.96 -3.97,1.27l-0.09 0.03c-0.52,0.17 -1.01,0.25 -1.53,0.33l-0.57 0.1c-0.43,0.08 -0.84,0.15 -1.26,0.16l-0.12 0.01c-3.13,0.3 -6.99,-0.22 -11.14,-0.8 -2.01,-0.28 -4.29,-0.6 -6.61,-0.82 -7.27,-0.82 -14.71,-0.61 -21.48,0.59 -6.61,1.11 -13.47,3.14 -20.38,6.05 -1.48,0.59 -2.78,1.14 -4.05,1.66l-0.25 0.11c-1.45,0.61 -2.94,1.23 -4.51,1.85 -3.28,1.25 -5.91,2.15 -8.32,2.82 -2.03,0.61 -4.17,1.08 -6.2,1.36l-0.01 0 -0.34 -1.16 128.49 -63.86c2,-1.01 2.36,-3.12 1.69,-4.68 -0.68,-1.56 -2.47,-2.74 -4.57,-1.96l-129.03 47.8 0.05 -0.04c0.99,-0.81 1.98,-1.68 2.95,-2.59 2.35,-2.14 4.64,-4.46 7.43,-7.53 1.22,-1.34 2.44,-2.76 3.68,-4.21l0.12 -0.13c0.96,-1.11 1.85,-2.15 2.66,-3.06 4.04,-4.73 8.3,-8.74 12.65,-11.92 4.48,-3.32 9.4,-5.95 15.07,-8.05 1.76,-0.68 3.6,-1.31 5.38,-1.91l0.21 -0.07c1.1,-0.38 2.23,-0.77 3.39,-1.18 3.29,-1.17 6.8,-2.5 10.25,-4.67 6.21,-3.96 10.06,-8.75 13.8,-13.38l0.27 -0.33c0.42,-0.53 0.84,-1.05 1.26,-1.57 3.64,-4.64 7.57,-9.48 12.12,-13.22 4.43,-3.55 9.49,-6.16 15.03,-7.76 2.78,-0.8 4.48,-3.65 3.87,-6.47 -0.31,-1.44 -1.17,-2.67 -2.4,-3.46 -1.24,-0.8 -2.71,-1.07 -4.15,-0.75 -7.03,1.53 -13.85,4.54 -19.73,8.69 -5.8,4.18 -10.58,9.35 -14.98,14.27 -1.88,2.1 -4.08,4.51 -6.29,6.64 -1.16,1.07 -2.13,1.94 -3.15,2.71l-0.07 0.06c-0.41,0.37 -0.83,0.63 -1.27,0.9l-0.16 0.1c-0.1,0.07 -0.21,0.14 -0.37,0.25 -0.38,0.25 -0.7,0.46 -1.06,0.61l-0.11 0.05c-2.79,1.53 -6.57,2.56 -10.57,3.64 -2.07,0.56 -4.21,1.14 -6.4,1.83 -7.01,2.09 -13.77,5.19 -19.55,8.95 -5.64,3.59 -11.16,8.15 -16.39,13.54 -1.21,1.19 -2.25,2.27 -3.27,3.31 -1.15,1.19 -2.25,2.31 -3.43,3.46 -2.55,2.46 -4.63,4.32 -6.55,5.85 -1.92,1.61 -4.03,3.05 -6.08,4.2l0 0 -0.55 -0.66 94.03 -109.84c1.45,-1.72 0.96,-3.79 -0.27,-4.96 -1.23,-1.18 -3.33,-1.56 -4.98,-0.03l-100.11 94.48 0.03 -0.06c0.59,-1.13 1.17,-2.32 1.7,-3.53 1.32,-2.87 2.53,-5.9 3.91,-9.84 0.6,-1.7 1.16,-3.47 1.7,-5.18l0.04 -0.13c0.46,-1.45 0.9,-2.82 1.31,-4.03 1.87,-5.93 4.23,-11.29 7,-15.92 2.82,-4.8 6.32,-9.15 10.72,-13.3 1.35,-1.31 2.81,-2.61 4.21,-3.87l0.35 -0.31c0.8,-0.72 1.64,-1.47 2.47,-2.24 2.58,-2.37 5.28,-4.95 7.62,-8.31 4.17,-6.07 5.85,-11.97 7.48,-17.72 0.22,-0.79 0.44,-1.57 0.67,-2.35 1.54,-5.7 3.28,-11.7 6,-16.91 2.7,-5.01 6.33,-9.39 10.8,-13.01 2.25,-1.84 2.71,-5.13 1.04,-7.48 -0.85,-1.2 -2.11,-2 -3.57,-2.24 -1.43,-0.25 -2.9,0.08 -4.1,0.93 -5.87,4.16 -10.98,9.59 -14.76,15.71 -3.72,6.13 -6.11,12.75 -8.23,19 -0.93,2.7 -2.01,5.8 -3.2,8.58 -0.62,1.37 -1.19,2.6 -1.84,3.72l-0.04 0.09c-0.24,0.49 -0.53,0.9 -0.83,1.33l-0.33 0.49c-0.21,0.33 -0.45,0.7 -0.74,1l-0.09 0.1c-1.96,2.48 -5.03,4.89 -8.28,7.45l-0.09 0.07c-1.58,1.24 -3.38,2.66 -5.12,4.14 -5.63,4.67 -10.65,10.16 -14.5,15.89 -3.79,5.52 -7.1,11.87 -9.82,18.88 -0.63,1.55 -1.16,2.93 -1.68,4.26l-0.15 0.39c-0.53,1.37 -1.08,2.78 -1.68,4.2 -1.39,3.27 -2.57,5.79 -3.74,7.96 -1.22,2.36 -2.68,4.62 -4.21,6.54l-0.26 0.33 0 0 -0.01 0c-0.41,-0.22 -0.83,-0.45 -1.25,-0.66l-0.01 0 48.35 -137.43c0.72,-2.12 -0.49,-3.88 -2.05,-4.52 -1.57,-0.65 -3.67,-0.25 -4.65,1.78l-55.45 116.41 0 -0.04c-0.04,-1.65 -0.13,-3.42 -0.25,-5.43 -0.12,-1.75 -0.28,-3.55 -0.45,-5.39l-0.02 -0.19c-0.13,-1.41 -0.27,-2.89 -0.36,-4.21 -0.59,-6.2 -0.52,-12.05 0.22,-17.4 0.73,-5.53 2.26,-10.91 4.69,-16.44 0.7,-1.68 1.49,-3.37 2.36,-5.21 0.52,-1.11 1.06,-2.26 1.6,-3.45 1.45,-3.19 2.93,-6.63 3.77,-10.62 1.47,-7.25 0.71,-13.34 -0.03,-19.25l-0.04 -0.28c-0.09,-0.72 -0.17,-1.42 -0.26,-2.14 -0.81,-5.84 -1.55,-12.04 -1.08,-17.91 0.53,-5.67 2.17,-11.13 4.87,-16.22 1.36,-2.56 0.49,-5.76 -1.96,-7.28 -1.25,-0.77 -2.73,-1.01 -4.16,-0.67 -1.42,0.34 -2.64,1.21 -3.41,2.46 -3.79,6.13 -6.37,13.14 -7.47,20.25 -1.02,7.09 -0.63,14.12 -0.15,20.71 0.21,3.03 0.41,6.23 0.4,9.14 -0.04,1.56 -0.08,2.86 -0.24,4.16l0 0.08c-0.04,0.55 -0.14,1.03 -0.24,1.54l-0.04 0.19c-0.03,0.13 -0.05,0.26 -0.07,0.39 -0.08,0.43 -0.16,0.84 -0.3,1.23l-0.04 0.12c-0.85,3.07 -2.74,6.5 -4.74,10.14 -0.97,1.76 -2.08,3.77 -3.12,5.88 -3.38,6.5 -5.85,13.52 -7.16,20.3 -1.34,6.55 -1.9,13.69 -1.67,21.21 0.03,1.43 0.06,2.72 0.1,3.96l0.03 1.04c0.04,1.54 0.08,3.01 0.09,4.53 0,3.52 -0.11,6.31 -0.35,8.79 -0.19,2.66 -0.65,5.31 -1.31,7.67 -0.12,0.44 -0.25,0.85 -0.42,1.26l0 0.02 -0.01 -0.01c-0.54,-0.06 -1.09,-0.12 -1.63,-0.18l-8.55 -143.99c-0.14,-2.21 -1.93,-3.38 -3.61,-3.38 -1.71,0.01 -3.5,1.2 -3.62,3.45l-6.47 137.6 -0.02 -0.06c-0.37,-1.24 -0.78,-2.49 -1.23,-3.73 -1.03,-2.95 -2.27,-5.97 -4.01,-9.79 -0.72,-1.55 -1.49,-3.12 -2.34,-4.86l-0.23 -0.46c-0.62,-1.26 -1.21,-2.45 -1.72,-3.53 -2.77,-5.57 -4.79,-11.06 -6.01,-16.31 -1.3,-5.41 -1.8,-10.98 -1.51,-17.04 0.05,-1.75 0.18,-3.54 0.32,-5.49l0.06 -0.74c0.08,-1.06 0.15,-2.16 0.22,-3.28 0.21,-3.5 0.36,-7.25 -0.28,-11.27 -1.22,-7.28 -4.11,-12.7 -6.92,-17.95 -0.41,-0.76 -0.78,-1.46 -1.14,-2.16 -2.84,-5.16 -5.76,-10.67 -7.42,-16.33 -1.54,-5.47 -1.96,-11.15 -1.26,-16.87 0.34,-2.89 -1.61,-5.57 -4.44,-6.11 -1.43,-0.28 -2.9,0.03 -4.12,0.86 -1.22,0.83 -2.04,2.08 -2.31,3.53 -1.34,7.08 -1.24,14.54 0.28,21.58 1.58,6.99 4.46,13.41 7.27,19.39 1.19,2.57 2.56,5.55 3.64,8.39 0.53,1.49 0.96,2.73 1.27,3.97l0.02 0.08c0.17,0.48 0.24,0.94 0.33,1.49l0.12 0.66c0.07,0.4 0.14,0.81 0.14,1.21l0.01 0.12c0.31,3.17 -0.22,7.05 -0.79,11.17 -0.29,2.13 -0.6,4.33 -0.82,6.6 -0.81,7.28 -0.61,14.72 0.59,21.52 1.1,6.62 3.14,13.49 6.04,20.41 0.62,1.54 1.18,2.89 1.73,4.21l0.04 0.08c0.61,1.46 1.24,2.97 1.84,4.52 1.25,3.27 2.15,5.91 2.83,8.33 0.76,2.55 1.29,5.19 1.51,7.67l0.02 0.04 -0.67 0.2 -64.44 -130c-1.01,-2 -3.11,-2.37 -4.67,-1.7 -1.56,0.68 -2.73,2.46 -1.97,4.58l47.74 129.2 -0.04 -0.05c-0.81,-1 -1.68,-1.99 -2.59,-2.95 -2.08,-2.3 -4.4,-4.6 -7.51,-7.45 -1.31,-1.19 -2.73,-2.41 -3.99,-3.49l-0.47 -0.41c-1.06,-0.91 -2.06,-1.77 -2.93,-2.56 -4.74,-4.06 -8.74,-8.32 -11.9,-12.67 -3.32,-4.48 -5.95,-9.41 -8.05,-15.09 -0.68,-1.76 -1.3,-3.61 -1.91,-5.39 -0.39,-1.16 -0.8,-2.37 -1.24,-3.59 -1.17,-3.3 -2.49,-6.8 -4.66,-10.27 -3.95,-6.22 -8.74,-10.08 -13.37,-13.82 -0.64,-0.51 -1.27,-1.02 -1.9,-1.53 -4.62,-3.64 -9.46,-7.58 -13.2,-12.14 -3.55,-4.44 -6.15,-9.5 -7.75,-15.05 -0.8,-2.78 -3.64,-4.48 -6.46,-3.87 -1.44,0.31 -2.67,1.17 -3.46,2.4 -0.79,1.24 -1.05,2.72 -0.74,4.15 1.52,7.04 4.53,13.87 8.68,19.76 4.17,5.8 9.32,10.59 14.25,15 2.23,2.01 4.58,4.16 6.62,6.3 1.03,1.11 1.93,2.11 2.72,3.15l0.06 0.07c0.34,0.4 0.6,0.81 0.89,1.26l0.35 0.54c0.26,0.4 0.46,0.71 0.61,1.06l0.06 0.12c1.52,2.79 2.54,6.57 3.62,10.57l0.04 0.15c0.55,2.03 1.12,4.14 1.79,6.26 2.09,7.03 5.18,13.8 8.94,19.58 3.59,5.65 8.14,11.18 13.52,16.42 1.1,1.11 2.1,2.09 3.05,3.02l0.25 0.25c1.18,1.15 2.31,2.24 3.47,3.43 2.45,2.55 4.3,4.63 5.84,6.57 1.7,2.05 3.21,4.27 4.38,6.44 0.14,0.24 0.26,0.47 0.37,0.72l0 0.01 -0.31 0.25 -110.6 -94.94c-1.72,-1.44 -3.79,-0.96 -4.96,0.27 -1.17,1.23 -1.56,3.33 -0.02,4.98l94.35 100.25 -0.06 -0.03c-1.14,-0.6 -2.33,-1.17 -3.53,-1.71 -2.85,-1.31 -5.88,-2.52 -9.82,-3.91 -1.63,-0.57 -3.32,-1.11 -5.19,-1.71l-0.41 -0.13c-1.34,-0.42 -2.6,-0.83 -3.73,-1.22 -5.93,-1.87 -11.28,-4.23 -15.9,-7 -4.8,-2.83 -9.14,-6.34 -13.28,-10.74 -1.33,-1.36 -2.67,-2.88 -3.87,-4.21 -0.81,-0.92 -1.66,-1.87 -2.55,-2.83 -2.36,-2.58 -4.95,-5.29 -8.29,-7.63 -6.07,-4.18 -11.98,-5.86 -17.71,-7.49l-0.3 -0.08c-0.68,-0.2 -1.36,-0.39 -2.03,-0.59 -5.69,-1.54 -11.68,-3.27 -16.89,-6 -5.01,-2.71 -9.38,-6.34 -13,-10.82 -1.83,-2.25 -5.12,-2.71 -7.47,-1.04 -2.47,1.75 -3.06,5.2 -1.31,7.68 4.15,5.88 9.58,10.99 15.69,14.79 6.12,3.71 12.73,6.1 18.98,8.23 2.68,0.92 5.77,2.01 8.56,3.2 1.43,0.66 2.61,1.2 3.72,1.84l0.09 0.05c0.5,0.24 0.92,0.54 1.34,0.83l0.48 0.33c0.39,0.25 0.72,0.47 1,0.74l0.1 0.09c2.48,1.97 4.89,5.05 7.45,8.3 1.26,1.62 2.7,3.45 4.19,5.2 4.67,5.65 10.16,10.68 15.87,14.53 5.52,3.8 11.86,7.1 18.86,9.82 1.57,0.64 2.96,1.18 4.31,1.71 1.54,0.61 3,1.17 4.53,1.81 3.25,1.39 5.78,2.58 7.94,3.76 2.37,1.22 4.63,2.67 6.54,4.21 0.32,0.24 0.6,0.48 0.87,0.75l0.01 0 -0.57 1.01 -137.89 -48.64c-2.11,-0.73 -3.87,0.48 -4.52,2.05 -0.65,1.56 -0.25,3.67 1.78,4.65l116.26 55.52 -0.05 0c-1.61,0.04 -3.38,0.13 -5.41,0.25 -1.78,0.12 -3.61,0.29 -5.39,0.46l-0.39 0.04c-1.44,0.13 -2.79,0.25 -4,0.34 -6.2,0.59 -12.05,0.52 -17.37,-0.23 -5.52,-0.72 -10.89,-2.25 -16.43,-4.69 -1.64,-0.69 -3.31,-1.47 -5.06,-2.3l-0.13 -0.06c-1.11,-0.52 -2.26,-1.07 -3.46,-1.61 -3.18,-1.45 -6.62,-2.93 -10.61,-3.77 -7.22,-1.47 -13.32,-0.71 -19.21,0.03l-0.5 0.06c-0.64,0.08 -1.28,0.16 -1.92,0.24 -5.83,0.8 -12.02,1.56 -17.89,1.08 -5.66,-0.53 -11.1,-2.17 -16.18,-4.87 -2.57,-1.36 -5.77,-0.5 -7.29,1.96 -0.77,1.25 -1.01,2.73 -0.67,4.16 0.33,1.43 1.21,2.65 2.46,3.42 6.13,3.79 13.12,6.37 20.22,7.47 7.08,1.03 14.09,0.64 20.68,0.16 2.78,-0.2 6.01,-0.4 9,-0.4l0.13 0c1.57,0.03 2.87,0.08 4.15,0.23l0.09 0.01c0.55,0.03 1.03,0.13 1.55,0.24l0.58 0.12c0.41,0.07 0.83,0.15 1.22,0.3l0.12 0.03c3.05,0.84 6.47,2.73 10.09,4.73l0.11 0.06c1.86,1.02 3.77,2.08 5.79,3.09 6.49,3.37 13.5,5.84 20.27,7.16 6.58,1.34 13.71,1.9 21.19,1.66 1.69,-0.02 3.19,-0.06 4.64,-0.11 1.66,-0.05 3.23,-0.1 4.87,-0.1 3.52,0 6.31,0.11 8.78,0.34 2.66,0.2 5.31,0.66 7.67,1.32 0.49,0.13 0.95,0.29 1.44,0.5l0.01 0 0 0.01c-0.07,0.52 -0.14,1.03 -0.2,1.55l-143.97 8.56c-2.23,0.15 -3.39,1.95 -3.37,3.65 0.01,1.69 1.2,3.48 3.44,3.59l137.42 6.49 -0.07 0.02c-1.24,0.36 -2.49,0.78 -3.72,1.23 -2.98,1.04 -6,2.28 -9.78,4.01 -1.72,0.8 -3.56,1.71 -5.03,2.44l-0.09 0.05c-1.33,0.65 -2.58,1.27 -3.71,1.8 -5.57,2.78 -11.05,4.8 -16.3,6.02 -5.39,1.3 -10.96,1.8 -17,1.52 -1.82,-0.06 -3.68,-0.19 -5.64,-0.34l-0.67 -0.05c-1.04,-0.08 -2.1,-0.15 -3.19,-0.22 -3.49,-0.21 -7.24,-0.36 -11.26,0.29 -7.28,1.22 -12.69,4.12 -17.93,6.93 -0.75,0.4 -1.45,0.77 -2.15,1.14 -5.16,2.84 -10.67,5.77 -16.31,7.43 -5.47,1.53 -11.14,1.96 -16.86,1.26 -2.88,-0.36 -5.55,1.6 -6.09,4.44 -0.27,1.45 0.03,2.91 0.86,4.13 0.83,1.21 2.08,2.04 3.52,2.31 7.06,1.34 14.51,1.24 21.55,-0.29 6.97,-1.57 13.39,-4.45 19.36,-7.27 2.58,-1.2 5.57,-2.57 8.39,-3.65 1.41,-0.5 2.69,-0.94 3.95,-1.26l0.09 -0.03c0.53,-0.17 1.04,-0.25 1.53,-0.33l0.18 -0.03c0.13,-0.02 0.26,-0.05 0.42,-0.08 0.42,-0.08 0.82,-0.15 1.23,-0.15l0.12 -0.01c3.15,-0.31 7,0.22 11.15,0.8l0.08 0.01c2.1,0.29 4.28,0.59 6.52,0.8 7.27,0.82 14.7,0.62 21.49,-0.58 6.6,-1.11 13.46,-3.15 20.38,-6.05 1.45,-0.58 2.74,-1.12 3.98,-1.64l0.32 -0.13c1.5,-0.64 2.99,-1.26 4.5,-1.85 3.28,-1.26 5.92,-2.15 8.32,-2.83 2.42,-0.73 4.93,-1.24 7.27,-1.48l0.01 0 0 0.01c0.07,0.26 0.14,0.53 0.22,0.79l0 0.01 -74.1 36.83 -0.38 0.19 0.3 0.3 0.09 0.09c0.41,0.48 0.48,1.14 0.21,1.72l-0.36 0.8 77.24 -38.4 0.23 -0.11 -0.32 -1.09c-0.28,-0.96 -0.56,-1.95 -0.81,-2.93l-0.28 -1.05 -1.09 0.05c-0.31,0.01 -0.59,0.03 -0.87,0.06 -2.61,0.24 -5.41,0.8 -8.1,1.61 -2.47,0.69 -5.19,1.61 -8.55,2.9 -1.56,0.61 -3.05,1.24 -4.5,1.84l-0.08 0.04c-1.33,0.56 -2.71,1.13 -4.26,1.76 -6.75,2.84 -13.43,4.82 -19.83,5.89 -6.55,1.16 -13.73,1.36 -20.75,0.56 -2.29,-0.22 -4.52,-0.53 -6.49,-0.8l-0.12 -0.02c-4.21,-0.58 -8.19,-1.14 -11.62,-0.8 -0.64,0.02 -1.2,0.12 -1.66,0.2l-0.52 0.09c-0.55,0.09 -1.18,0.19 -1.88,0.42 -1.47,0.37 -2.96,0.9 -4.19,1.34 -2.91,1.11 -5.96,2.51 -8.6,3.74 -5.84,2.75 -12.1,5.57 -18.8,7.08 -6.68,1.45 -13.75,1.54 -20.47,0.27 -0.73,-0.14 -1.37,-0.56 -1.78,-1.18 -0.43,-0.62 -0.58,-1.36 -0.44,-2.1 0.26,-1.42 1.63,-2.44 3.07,-2.26 6.1,0.75 12.14,0.29 17.96,-1.34 5.93,-1.75 11.57,-4.73 16.84,-7.64 0.61,-0.32 1.21,-0.64 1.82,-0.97l0.34 -0.18c5.05,-2.71 10.27,-5.5 17.09,-6.64 3.72,-0.6 7.3,-0.46 10.66,-0.25 1.28,0.07 2.54,0.17 3.76,0.26l0.08 0c1.99,0.15 3.86,0.28 5.71,0.34 6.28,0.3 12.08,-0.22 17.74,-1.58 5.43,-1.27 11.1,-3.36 16.83,-6.21 1.11,-0.52 2.32,-1.12 3.62,-1.76l0.22 -0.11c1.63,-0.82 3.33,-1.65 4.96,-2.41 3.71,-1.7 6.65,-2.91 9.56,-3.93 3.53,-1.28 6.97,-2.19 10.54,-2.75l1.24 -0.2 -0.26 -3.14 -145.93 -6.89c-0.78,-0.04 -0.87,-0.65 -0.87,-0.91 0,-0.26 0.07,-0.88 0.84,-0.93l145.97 -8.67 0.26 -0.02 0.12 -1.13c0.13,-1.13 0.28,-2.3 0.44,-3.46l0.08 -0.49 -0.58 -0.95 -0.35 -0.18c-0.69,-0.34 -1.55,-0.74 -2.68,-1.03 -2.52,-0.71 -5.34,-1.19 -8.14,-1.4 -2.55,-0.24 -5.41,-0.36 -9.02,-0.36 -1.71,0.01 -3.34,0.06 -4.92,0.11 -1.47,0.04 -2.97,0.09 -4.64,0.11 -7.34,0.22 -14.28,-0.32 -20.61,-1.61 -6.53,-1.27 -13.3,-3.67 -19.58,-6.93 -2.05,-1.02 -4.04,-2.12 -5.82,-3.1 -3.74,-2.07 -7.28,-4.02 -10.61,-4.95 -0.58,-0.21 -1.11,-0.31 -1.61,-0.4l-0.55 -0.11c-0.54,-0.12 -1.17,-0.25 -1.89,-0.28 -1.38,-0.17 -2.74,-0.22 -4.39,-0.26l-0.16 0c-3.11,0 -6.39,0.21 -9.21,0.41 -6.43,0.47 -13.28,0.86 -20.09,-0.14 -6.74,-1.04 -13.38,-3.49 -19.2,-7.09 -0.63,-0.4 -1.08,-1.01 -1.25,-1.74 -0.17,-0.73 -0.05,-1.48 0.34,-2.12 0.77,-1.25 2.38,-1.69 3.68,-1.01 5.42,2.88 11.23,4.63 17.26,5.2 6.15,0.5 12.49,-0.27 18.45,-1.1 0.54,-0.06 1.08,-0.13 1.62,-0.2l0.84 -0.1c5.66,-0.71 11.52,-1.45 18.29,-0.06 3.71,0.78 7,2.2 10.05,3.59 1.14,0.52 2.26,1.05 3.35,1.55l0.17 0.08c1.7,0.81 3.46,1.63 5.18,2.36 5.75,2.53 11.36,4.13 17.12,4.88 5.52,0.78 11.55,0.86 17.94,0.24 1.27,-0.08 2.66,-0.21 4.2,-0.36 1.74,-0.16 3.7,-0.34 5.55,-0.46 4.05,-0.26 7.23,-0.34 10.33,-0.24 0.19,0 0.38,0.01 0.58,0.01l6.82 0.22 -127.53 -60.91c-0.71,-0.35 -0.55,-0.94 -0.45,-1.18 0.1,-0.25 0.41,-0.77 1.13,-0.53l139.78 49.31 0.24 0.08 0.56 -0.99c0,0 1.06,-1.89 1.61,-2.86l0.47 -0.83 -0.63 -0.72c-0.39,-0.44 -1,-1.11 -1.88,-1.78 -2.05,-1.65 -4.45,-3.19 -6.94,-4.48 -2.26,-1.23 -4.86,-2.45 -8.17,-3.86 -1.52,-0.64 -3,-1.21 -4.43,-1.77l-0.26 -0.11c-1.32,-0.51 -2.67,-1.04 -4.19,-1.66 -6.82,-2.65 -12.99,-5.86 -18.35,-9.55 -5.51,-3.71 -10.8,-8.56 -15.32,-14.03 -1.47,-1.73 -2.88,-3.52 -4.12,-5.1 -2.64,-3.38 -5.14,-6.57 -7.86,-8.74 -0.47,-0.44 -0.95,-0.75 -1.33,-1.01l-0.48 -0.33c-0.46,-0.31 -0.97,-0.67 -1.61,-0.98 -1.32,-0.76 -2.82,-1.44 -3.91,-1.94 -2.94,-1.25 -6.09,-2.36 -8.82,-3.3 -6.11,-2.08 -12.56,-4.41 -18.43,-7.98 -5.8,-3.6 -10.95,-8.45 -14.9,-14.05 -0.89,-1.26 -0.59,-3.01 0.66,-3.9 1.2,-0.86 2.86,-0.63 3.78,0.5 3.87,4.78 8.53,8.67 13.86,11.54 5.47,2.86 11.6,4.64 17.41,6.21 0.68,0.2 1.35,0.39 2.03,0.59l0.32 0.09c5.51,1.57 11.2,3.19 16.9,7.11 3.11,2.18 5.58,4.76 7.84,7.23 0.86,0.93 1.68,1.85 2.48,2.74 1.36,1.53 2.65,2.97 3.97,4.34 4.31,4.58 8.85,8.24 13.86,11.2 4.79,2.87 10.32,5.31 16.42,7.24 1.2,0.41 2.54,0.84 3.96,1.29l0.26 0.08c1.6,0.51 3.41,1.09 5.08,1.67 3.88,1.37 6.84,2.55 9.6,3.83 3.48,1.55 6.63,3.32 9.62,5.43 0.32,0.22 0.67,0.47 1.03,0.76l1.05 0.81 1.85 -2.28 -101.23 -107.55c-0.53,-0.57 -0.17,-1.08 0,-1.26 0.18,-0.2 0.67,-0.58 1.25,-0.08l112.13 96.24 0.2 0.17 0.88 -0.73c0.63,-0.53 1.29,-1.06 1.93,-1.57l0.76 -0.6 -0.32 -0.91c-0.26,-0.73 -0.56,-1.38 -0.91,-2 -1.24,-2.31 -2.85,-4.68 -4.65,-6.85 -1.59,-1.99 -3.5,-4.14 -6,-6.74 -1.17,-1.2 -2.32,-2.32 -3.44,-3.41l-0.08 -0.08c-1.03,-1.01 -2.1,-2.05 -3.28,-3.24 -5.24,-5.11 -9.67,-10.48 -13.16,-15.97 -3.62,-5.58 -6.6,-12.11 -8.63,-18.91 -0.67,-2.15 -1.26,-4.31 -1.78,-6.23l-0.02 -0.09c-1.11,-4.13 -2.17,-8.03 -3.83,-11.11 -0.26,-0.6 -0.58,-1.08 -0.84,-1.46l-0.31 -0.48c-0.27,-0.44 -0.62,-0.98 -1.09,-1.53 -0.93,-1.23 -2.04,-2.44 -2.86,-3.33 -2.21,-2.3 -4.67,-4.55 -6.8,-6.48 -4.82,-4.3 -9.86,-8.97 -13.86,-14.55 -3.94,-5.58 -6.79,-12.07 -8.24,-18.76 -0.16,-0.73 -0.03,-1.49 0.38,-2.11 0.4,-0.64 1.03,-1.07 1.76,-1.23 1.42,-0.31 2.87,0.55 3.28,1.96 1.69,5.9 4.47,11.29 8.25,16.02 3.93,4.79 8.88,8.83 13.6,12.54 0.63,0.52 1.26,1.02 1.93,1.56 4.45,3.59 9.05,7.31 12.75,13.14 2.01,3.2 3.28,6.56 4.4,9.72 0.41,1.16 0.81,2.31 1.18,3.41l0.06 0.15c0.58,1.73 1.24,3.68 1.94,5.48 2.18,5.91 4.92,11.06 8.39,15.73 3.28,4.51 7.41,8.92 12.28,13.09 1,0.9 2.18,1.92 3.22,2.81l0.11 0.09c1.35,1.16 2.74,2.35 4.04,3.54 3.04,2.78 5.3,5.03 7.35,7.28 2.59,2.78 4.79,5.65 6.73,8.76 0.13,0.21 0.26,0.42 0.41,0.66l0.66 1.13 2.63 -1.43 -51.02 -138.08c-0.26,-0.73 0.26,-1.06 0.5,-1.16 0.24,-0.1 0.83,-0.27 1.18,0.42l65.34 131.81 0.12 0.24 1.09 -0.34c0.89,-0.28 1.81,-0.55 2.74,-0.81l0.99 -0.27 0 -1.04c0,-0.47 -0.03,-0.91 -0.08,-1.33 -0.24,-2.62 -0.8,-5.43 -1.61,-8.11 -0.69,-2.49 -1.61,-5.21 -2.9,-8.57 -0.55,-1.43 -1.1,-2.76 -1.69,-4.17l-0.33 -0.79c-0.51,-1.22 -1.04,-2.48 -1.6,-3.9 -2.84,-6.76 -4.82,-13.43 -5.88,-19.85 -1.17,-6.54 -1.36,-13.73 -0.57,-20.78 0.21,-2.21 0.51,-4.37 0.81,-6.51 0.58,-4.25 1.14,-8.27 0.81,-11.73 -0.02,-0.65 -0.12,-1.21 -0.2,-1.67 -0.03,-0.13 -0.05,-0.25 -0.07,-0.36l-0.03 -0.22c-0.09,-0.54 -0.19,-1.15 -0.41,-1.83 -0.33,-1.32 -0.76,-2.57 -1.34,-4.18 -1.12,-2.95 -2.51,-6 -3.73,-8.62 -2.76,-5.85 -5.57,-12.12 -7.08,-18.83 -1.44,-6.67 -1.53,-13.76 -0.26,-20.49 0.14,-0.73 0.56,-1.37 1.17,-1.79 0.62,-0.42 1.36,-0.58 2.1,-0.44 1.44,0.27 2.43,1.62 2.26,3.07 -0.75,6.1 -0.29,12.16 1.34,18 1.75,5.94 4.73,11.59 7.63,16.86 0.38,0.72 0.76,1.44 1.15,2.15 2.7,5.06 5.49,10.29 6.63,17.12 0.59,3.74 0.45,7.32 0.25,10.67 -0.08,1.29 -0.17,2.54 -0.26,3.77 -0.14,2.03 -0.28,3.95 -0.34,5.79 -0.3,6.29 0.22,12.1 1.58,17.77 1.26,5.45 3.35,11.12 6.2,16.85 0.55,1.18 1.19,2.48 1.87,3.85 0.8,1.61 1.64,3.32 2.4,4.97 1.71,3.73 2.92,6.68 3.92,9.57 1.3,3.56 2.21,7.05 2.78,10.67l0.23 1.28 3.08 -0.3 6.88 -146.24c0.04,-0.78 0.65,-0.87 0.91,-0.87 0.26,0 0.87,0.08 0.93,0.84l8.65 146.01 0.02 0.27 1.15 0.11c1.25,0.12 2.49,0.26 3.69,0.43l0.97 0.12 0.42 -0.86c0.32,-0.65 0.72,-1.52 1.01,-2.63 0.71,-2.53 1.19,-5.35 1.4,-8.15 0.24,-2.56 0.36,-5.43 0.36,-9.03 -0.01,-1.62 -0.06,-3.14 -0.11,-4.97l-0.01 -0.31c-0.04,-1.34 -0.08,-2.74 -0.1,-4.29 -0.23,-7.32 0.32,-14.27 1.61,-20.64 1.27,-6.55 3.66,-13.33 6.91,-19.61 1.02,-2.05 2.11,-4.02 3.07,-5.77 2.08,-3.77 4.04,-7.33 4.97,-10.68 0.22,-0.6 0.32,-1.14 0.41,-1.64l0.11 -0.53c0.11,-0.55 0.24,-1.17 0.28,-1.89 0.16,-1.4 0.21,-2.75 0.25,-4.39 0.01,-3.16 -0.2,-6.5 -0.4,-9.38 -0.48,-6.44 -0.86,-13.3 0.13,-20.12 1.04,-6.75 3.49,-13.39 7.09,-19.22 0.39,-0.64 1.01,-1.08 1.74,-1.26 0.71,-0.17 1.47,-0.05 2.11,0.35 1.24,0.77 1.69,2.39 1,3.69 -2.87,5.42 -4.61,11.22 -5.18,17.27 -0.5,6.18 0.26,12.52 1.09,18.47 0.06,0.56 0.13,1.12 0.2,1.67l0.1 0.76c0.71,5.69 1.44,11.57 0.06,18.36 -0.78,3.71 -2.19,7 -3.58,10.06 -0.53,1.17 -1.07,2.31 -1.59,3.41l-0.09 0.19c-0.79,1.68 -1.59,3.42 -2.31,5.1 -2.52,5.76 -4.12,11.38 -4.88,17.15 -0.76,5.54 -0.85,11.58 -0.24,17.96 0.09,1.28 0.22,2.69 0.37,4.26 0.2,2.09 0.35,3.82 0.46,5.5 0.26,4.08 0.33,7.27 0.24,10.35 -0.01,0.3 -0.02,0.61 -0.02,0.92l-0.21 6.5 60.83 -127.71c0.34,-0.71 0.93,-0.56 1.18,-0.45 0.24,0.1 0.77,0.41 0.52,1.14l-49.04 139.39 -0.09 0.26 1.07 0.53c1.02,0.51 2.08,1.07 3.17,1.67l0.88 0.48 0.71 -0.71c0.44,-0.42 0.82,-0.85 1.15,-1.3 1.65,-2.05 3.19,-4.45 4.48,-6.95 1.23,-2.28 2.45,-4.88 3.85,-8.17 0.62,-1.48 1.16,-2.87 1.74,-4.35l0.23 -0.6c0.48,-1.24 0.98,-2.53 1.57,-3.94 2.65,-6.85 5.86,-13.03 9.53,-18.38 3.71,-5.51 8.56,-10.81 14.02,-15.34 1.68,-1.44 3.44,-2.82 4.98,-4.03l0.12 -0.09c3.37,-2.65 6.55,-5.15 8.71,-7.88 0.43,-0.45 0.73,-0.91 1.01,-1.33l0.3 -0.44c0.28,-0.4 0.68,-0.96 1.01,-1.65 0.74,-1.28 1.38,-2.7 1.9,-3.84l0.05 -0.1c1.19,-2.81 2.28,-5.89 3.29,-8.8 2.07,-6.12 4.4,-12.58 7.97,-18.46 3.59,-5.81 8.44,-10.97 14.02,-14.92 0.62,-0.44 1.36,-0.61 2.09,-0.48 0.74,0.12 1.38,0.53 1.81,1.14 0.85,1.2 0.63,2.86 -0.5,3.79 -4.77,3.87 -8.64,8.54 -11.52,13.87 -2.87,5.5 -4.64,11.63 -6.21,17.44 -0.21,0.74 -0.42,1.48 -0.64,2.23l-0.03 0.12c-1.57,5.52 -3.18,11.22 -7.1,16.92 -2.16,3.1 -4.75,5.58 -7.22,7.85 -0.74,0.68 -1.47,1.34 -2.18,1.98l-0.61 0.55c-1.36,1.21 -2.9,2.59 -4.29,3.93 -4.58,4.33 -8.23,8.87 -11.18,13.88 -2.87,4.8 -5.3,10.34 -7.23,16.44 -0.38,1.1 -0.77,2.33 -1.18,3.63l-0.14 0.44c-0.57,1.8 -1.14,3.56 -1.72,5.24 -1.37,3.88 -2.54,6.85 -3.82,9.61 -1.55,3.5 -3.33,6.65 -5.43,9.64 -0.04,0.06 -0.09,0.12 -0.14,0.2l-0.82 1.15 2.39 1.9 106.69 -100.68c0.58,-0.54 1.08,-0.18 1.27,0 0.18,0.18 0.57,0.67 0.08,1.25l-95.36 111.38 -0.17 0.21 0.75 0.87c0.66,0.78 1.31,1.57 1.94,2.36l0.67 0.84 0.98 -0.47c0.25,-0.12 0.49,-0.24 0.7,-0.37 2.31,-1.24 4.68,-2.85 6.83,-4.65 2.02,-1.61 4.16,-3.52 6.74,-6.02 1.27,-1.23 2.45,-2.44 3.49,-3.51 1.03,-1.06 2.06,-2.12 3.24,-3.29 5.1,-5.25 10.47,-9.68 15.95,-13.18 5.56,-3.62 12.09,-6.61 18.88,-8.64 2.17,-0.68 4.36,-1.28 6.34,-1.81 4.13,-1.12 8.02,-2.17 11.06,-3.82 0.6,-0.27 1.08,-0.59 1.46,-0.84l0.44 -0.29c0.45,-0.28 1.01,-0.63 1.57,-1.12 1.12,-0.85 2.17,-1.8 3.33,-2.87 2.24,-2.15 4.51,-4.64 6.46,-6.81 4.3,-4.82 8.97,-9.86 14.54,-13.87 5.57,-3.94 12.04,-6.8 18.74,-8.26 0.73,-0.15 1.47,-0.02 2.11,0.38 0.62,0.41 1.06,1.03 1.22,1.77 0.31,1.43 -0.55,2.88 -1.95,3.29 -5.89,1.69 -11.28,4.47 -16.01,8.26 -4.79,3.93 -8.81,8.89 -12.52,13.62 -0.35,0.43 -0.7,0.86 -1.05,1.29l-0.49 0.61c-3.59,4.46 -7.3,9.08 -13.14,12.8 -3.2,2.01 -6.55,3.28 -9.71,4.4 -1.21,0.44 -2.41,0.84 -3.59,1.24 -1.91,0.66 -3.72,1.28 -5.43,1.94 -5.9,2.19 -11.04,4.93 -15.71,8.4 -4.51,3.28 -8.91,7.43 -13.08,12.3 -0.77,0.86 -1.61,1.83 -2.48,2.85l-0.31 0.36c-1.13,1.32 -2.4,2.81 -3.64,4.17 -2.78,3.05 -5.02,5.31 -7.27,7.35 -2.65,2.48 -5.37,4.6 -8.31,6.47l-1.07 0.68 1.56 2.83 136.61 -50.61c0.76,-0.28 1.08,0.31 1.16,0.5 0.1,0.24 0.27,0.83 -0.41,1.18l-130.33 64.77 -0.23 0.12 0.35 1.1c0.33,1.06 0.66,2.16 0.98,3.29l0.3 1.09 1.13 -0.11c2.53,-0.26 5.23,-0.8 7.8,-1.58 2.47,-0.69 5.19,-1.61 8.55,-2.9 1.51,-0.59 2.9,-1.17 4.55,-1.86l0.16 -0.07c1.3,-0.54 2.63,-1.1 4.14,-1.7 6.75,-2.84 13.42,-4.82 19.82,-5.89 6.56,-1.16 13.73,-1.36 20.75,-0.56 2.22,0.21 4.44,0.51 6.4,0.78l0.12 0.02c4.24,0.59 8.26,1.15 11.71,0.81 0.65,-0.01 1.21,-0.12 1.66,-0.2l0.52 -0.09c0.55,-0.09 1.18,-0.19 1.89,-0.42 1.35,-0.34 2.63,-0.79 4.18,-1.33 2.95,-1.13 5.99,-2.53 8.61,-3.74 5.83,-2.76 12.09,-5.58 18.79,-7.09 6.67,-1.45 13.74,-1.54 20.47,-0.26 0.73,0.13 1.37,0.55 1.79,1.17 0.42,0.62 0.58,1.37 0.44,2.1 -0.27,1.43 -1.65,2.44 -3.08,2.26 -6.09,-0.74 -12.13,-0.29 -17.96,1.35 -5.92,1.74 -11.57,4.73 -16.84,7.63 -0.61,0.33 -1.22,0.66 -1.83,0.98l-0.32 0.17c-5.05,2.71 -10.27,5.5 -17.09,6.65 -3.76,0.6 -7.33,0.45 -10.66,0.25 -1.29,-0.08 -2.55,-0.17 -3.83,-0.26 -1.99,-0.15 -3.87,-0.29 -5.72,-0.35 -6.26,-0.3 -12.07,0.22 -17.74,1.59 -5.44,1.26 -11.1,3.35 -16.83,6.21 -1.12,0.52 -2.33,1.12 -3.62,1.76l-0.35 0.17c-1.51,0.75 -3.22,1.6 -4.84,2.35 -3.73,1.7 -6.68,2.92 -9.55,3.92 -3.11,1.13 -6.12,1.96 -9.21,2.53l-1.23 0.23 0.26 2.51 146.14 9.74c0.77,0.06 0.85,0.67 0.85,0.94 -0.01,0.26 -0.09,0.87 -0.87,0.91l-145.99 5.82 -0.1 1.18c-0.15,1.7 -0.35,3.42 -0.58,5.11l-0.16 1.1 1.04 0.37c0.35,0.12 0.69,0.23 1.02,0.31 2.53,0.71 5.35,1.2 8.14,1.41 2.54,0.24 5.41,0.35 9.03,0.35 1.77,0 3.53,-0.06 4.94,-0.1l0.48 -0.02c1.3,-0.03 2.64,-0.07 4.13,-0.09 7.32,-0.23 14.26,0.31 20.62,1.61 6.52,1.27 13.29,3.66 19.57,6.92 2.04,1.02 3.95,2.07 5.81,3.1 3.74,2.07 7.28,4.02 10.62,4.95 0.61,0.22 1.15,0.32 1.64,0.41l0.5 0.1c0.53,0.11 1.18,0.25 1.92,0.29 1.49,0.18 3.07,0.22 4.37,0.25l0.19 0c3.12,0 6.38,-0.21 9.19,-0.4 6.46,-0.48 13.32,-0.85 20.09,0.13 6.74,1.04 13.38,3.5 19.2,7.1 0.63,0.39 1.08,1.01 1.25,1.74 0.18,0.72 0.05,1.48 -0.34,2.12 -0.77,1.24 -2.38,1.69 -3.67,1.01 -5.43,-2.89 -11.23,-4.64 -17.26,-5.2 -6.16,-0.49 -12.5,0.27 -18.46,1.09 -0.7,0.09 -1.41,0.17 -2.12,0.26l-0.3 0.04c-5.67,0.71 -11.54,1.45 -18.33,0.07 -3.71,-0.79 -6.99,-2.2 -10.04,-3.59 -1.17,-0.53 -2.32,-1.07 -3.43,-1.6 -1.74,-0.81 -3.54,-1.66 -5.27,-2.39 -5.76,-2.53 -11.36,-4.13 -17.13,-4.89 -5.53,-0.77 -11.57,-0.85 -17.94,-0.24 -1.29,0.09 -2.71,0.22 -4.22,0.36l-0.12 0.02c-1.79,0.16 -3.64,0.33 -5.41,0.45 -4.08,0.26 -7.27,0.33 -10.32,0.24 -0.3,-0.01 -0.6,-0.02 -0.91,-0.03l-6.5 -0.2 72.82 34.77 0.44 0.21 0 -0.49c0,-0.28 0.06,-0.7 0.38,-1.06 0.14,-0.17 0.34,-0.3 0.6,-0.41l0.64 -0.26 -62.43 -29.82 0.04 0c1.64,-0.04 3.42,-0.12 5.42,-0.25 1.9,-0.12 3.93,-0.32 5.57,-0.47l0.28 -0.03c1.42,-0.13 2.74,-0.25 3.93,-0.33 6.17,-0.6 12.02,-0.52 17.37,0.22 5.52,0.73 10.89,2.26 16.42,4.69 1.71,0.73 3.52,1.58 5.12,2.33l0.41 0.19c1.01,0.48 2.05,0.97 3.12,1.45 3.18,1.45 6.61,2.93 10.61,3.78 7.24,1.47 13.32,0.7 19.22,-0.04 0.81,-0.1 1.61,-0.2 2.42,-0.29 5.82,-0.81 12.01,-1.55 17.88,-1.08 5.66,0.53 11.11,2.16 16.19,4.86 2.57,1.36 5.77,0.5 7.28,-1.95 0.77,-1.25 1.01,-2.73 0.68,-4.16 -0.34,-1.43 -1.22,-2.65 -2.47,-3.43 -6.12,-3.79 -13.12,-6.37 -20.22,-7.46 -7.05,-1.03 -14.08,-0.65 -20.68,-0.16 -2.78,0.19 -5.99,0.4 -8.95,0.4l-0.18 0c-1.5,-0.04 -2.86,-0.08 -4.14,-0.24l-0.1 -0.01c-0.54,-0.02 -1.02,-0.13 -1.55,-0.23l-0.57 -0.12c-0.43,-0.08 -0.83,-0.15 -1.22,-0.3l-0.12 -0.04c-3.05,-0.83 -6.46,-2.72 -10.1,-4.73l-0.15 -0.08c-1.85,-1.02 -3.77,-2.07 -5.74,-3.06 -6.49,-3.37 -13.5,-5.85 -20.27,-7.16 -6.58,-1.34 -13.71,-1.91 -21.19,-1.67 -1.7,0.03 -3.2,0.07 -4.65,0.11l-0.08 0.01c-1.55,0.04 -3.14,0.09 -4.79,0.1 -3.51,0 -6.3,-0.11 -8.78,-0.35 -2.57,-0.19 -5.15,-0.63 -7.45,-1.26l0 0 0 -0.01c0.12,-0.96 0.23,-1.93 0.32,-2.89l143.64 -5.74c2.24,-0.11 3.43,-1.88 3.45,-3.58 0.02,-1.7 -1.13,-3.5 -3.36,-3.67z"/>
   <path class="fil0" d="M202.17 332.29l-0.05 0.11c-0.49,0.92 -0.97,1.84 -1.47,2.76l-0.38 0.72 68.62 -25.42c3.62,-2.26 6.9,-4.2 10.03,-5.95l6.26 -2.97 -83.01 30.75z"/>
   <path class="fil0" d="M424.59 226.54c2.52,-2.69 1.97,-7.3 1.45,-9.72 3.11,0.94 6.53,2.56 10.26,5.24 -2.3,1.28 -6.68,3.42 -11.71,4.48zm-11.14 -9.75c-0.56,2.43 -1.28,7.16 0.82,9.84 -3.07,-0.72 -6.05,-2.22 -8.66,-4.93 1.23,-1.27 3.89,-3.59 7.84,-4.91zm-0.89 -2.59c-6.32,2.13 -9.75,6.48 -9.89,6.66l-0.69 0.89 0.73 0.86c4.7,5.51 10.53,7.32 16.15,7.32 10.63,0 20.54,-6.5 20.69,-6.6l1.59 -1.06 -1.51 -1.18c-11.87,-9.25 -21.28,-8.86 -27.07,-6.89z"/>
   <path class="fil0" d="M420.07 208.07l-0.2 0c-9.08,0 -17.58,3.9 -25.27,11.6l-0.67 0.67 0.38 0.87c0.19,0.42 4.73,10.47 16.01,13.94 2.49,0.77 5.1,1.15 7.82,1.15 7.34,0 15.5,-2.79 24.35,-8.33l-1.46 -2.35c-11.41,7.15 -21.45,9.47 -29.86,6.9 -8.28,-2.53 -12.6,-9.24 -13.9,-11.6 7,-6.74 14.74,-10.19 22.76,-10.08 14.82,0.08 26.36,11.71 26.48,11.83l1.97 -1.93c-0.5,-0.51 -12.42,-12.57 -28.41,-12.67z"/>
   <path class="fil0" d="M338.91 216.82c-0.52,2.41 -1.08,7.03 1.45,9.72 -5.04,-1.06 -9.41,-3.21 -11.71,-4.49 3.73,-2.68 7.15,-4.3 10.26,-5.23zm20.43 4.88c-2.61,2.71 -5.59,4.21 -8.66,4.93 2.1,-2.68 1.39,-7.41 0.82,-9.84 3.95,1.32 6.61,3.64 7.84,4.91zm-13.24 8.23c5.61,0 11.44,-1.81 16.14,-7.32l0.73 -0.86 -0.69 -0.89c-0.14,-0.19 -3.57,-4.53 -9.89,-6.67 -5.8,-1.96 -15.2,-2.34 -27.07,6.9l-1.51 1.18 1.59 1.06c0.16,0.1 10.05,6.6 20.7,6.6z"/>
   <path class="fil0" d="M418.78 194.86c-21.67,0 -34.1,11.86 -34.1,32.54 0,21.79 8.15,23.92 12.4,25.03 0.56,0.15 1.16,0.28 1.78,0.4 3.66,0.75 5.9,1.42 5.9,5.58 0,1.7 -0.82,2.9 -2.42,3.56 -2.85,1.18 -7.11,0.19 -9.5,-2.21l-1 -0.98 -0.98 1.01c-0.1,0.11 -2.65,2.67 -8.39,2.68 -5.73,-0.01 -8.27,-2.57 -8.37,-2.67l-0.97 -1.05 -1.02 1.01c-2.39,2.4 -6.65,3.39 -9.5,2.21 -1.6,-0.66 -2.42,-1.86 -2.42,-3.56 0,-4.16 2.24,-4.83 5.9,-5.58 0.62,-0.12 1.23,-0.25 2.11,-0.49 3.92,-1.02 12.07,-3.15 12.07,-24.94 0,-20.68 -12.43,-32.54 -34.11,-32.54 -19.93,0 -32.78,16.12 -33.32,16.8l2.17 1.71c0.12,-0.16 12.55,-15.74 31.15,-15.74 20.22,0 31.35,10.57 31.35,29.77 0,19.65 -6.76,21.42 -10.01,22.27l-0.34 0.09c-0.51,0.14 -1.06,0.25 -1.62,0.36 -3.23,0.67 -8.1,1.66 -8.1,8.29 0,2.8 1.49,5.03 4.11,6.11 3.56,1.48 8.32,0.62 11.57,-1.96 1.47,1.05 4.51,2.67 9.34,2.67 0.01,0 0.02,0 0.03,0 4.83,0 7.87,-1.63 9.34,-2.67 2.18,1.73 5.04,2.68 7.75,2.68 1.34,0 2.64,-0.23 3.82,-0.72 2.61,-1.08 4.11,-3.31 4.11,-6.11 0,-6.63 -4.87,-7.62 -8.09,-8.29 -0.57,-0.11 -1.12,-0.22 -1.63,-0.36l-0.34 -0.09 0 0c-3.25,-0.85 -10.01,-2.61 -10.01,-22.27 0,-19.2 11.13,-29.77 31.34,-29.77 18.57,0 31.04,15.58 31.16,15.74l2.17 -1.71c-0.54,-0.68 -13.39,-16.8 -33.33,-16.8z"/>
   <path class="fil0" d="M370.64 221.21l0.38 -0.87 -0.67 -0.67c-7.69,-7.7 -16.19,-11.6 -25.27,-11.6l-0.2 0c-15.98,0.1 -27.91,12.16 -28.41,12.67l1.97 1.93c0.12,-0.12 11.66,-11.75 26.48,-11.83l0.16 0c8.05,0 15.65,3.39 22.61,10.09 -1.31,2.35 -5.64,9.06 -13.91,11.6 -8.41,2.55 -18.45,0.24 -29.86,-6.91l-1.46 2.35c8.85,5.54 17.01,8.33 24.35,8.33 2.72,0 5.33,-0.38 7.81,-1.15 11.29,-3.46 15.83,-13.52 16.02,-13.94z"/>
   <path class="fil0" d="M384.21 283.95c-152.98,0 -277.44,176.72 -277.44,393.94 0,217.22 124.46,393.95 277.44,393.95 152.98,0 277.43,-176.73 277.43,-393.95 0,-217.22 -124.45,-393.94 -277.43,-393.94zm0 795.63c-157.24,0 -285.17,-180.2 -285.17,-401.69 0,-221.48 127.93,-401.68 285.17,-401.68 157.24,0 285.16,180.2 285.16,401.68 0,221.49 -127.92,401.69 -285.16,401.69z"/>
   <path class="fil0" d="M498.44 1101.27c2.44,-3.52 4.69,-7.7 6.78,-12.14 7.12,-0.47 14.54,-0.48 20.84,-0.48l2.32 0c-0.45,0.47 -0.91,0.95 -1.37,1.44l-0.66 0.69c-4.15,4.35 -9,9.43 -14,14.07 -4.8,-1.61 -9.55,-2.92 -13.91,-3.58zm-20.97 23.67c1.3,0.12 2.56,0.18 3.82,0.18 5.37,0 10.45,-1.1 15.73,-3.38 5.3,-2.28 10.94,-6.54 16.47,-11.49 6.24,2.22 12.57,4.9 18.25,7.3l0.13 0.06c0.92,0.39 1.82,0.78 2.7,1.15l-1.46 0.63c-12.36,5.32 -29.28,12.6 -40.35,12.66 -10.23,-0.03 -16.67,-3.58 -23.56,-8.49 2.77,0.61 5.5,1.12 8.27,1.38zm5.38 -36.31c-10.92,4.71 -16.06,11.59 -20.81,19.62 1.2,-8.85 2.93,-16.27 10.26,-24.06 7.64,-8 24.55,-15.3 36.92,-20.64l1.46 -0.63c-0.34,0.89 -0.69,1.82 -1.05,2.78 -2.23,5.98 -4.74,12.66 -7.53,18.9 -7.24,0.62 -14.04,1.79 -19.25,4.03zm12.3 28.76c-11.33,4.89 -19.65,2.88 -30.19,0.33l-0.46 -0.12c-0.69,-0.16 -1.39,-0.33 -2.09,-0.5 0.36,-0.63 0.71,-1.25 1.07,-1.86l0.15 -0.29c5.41,-9.53 9.68,-17.05 21.09,-21.96 4,-1.73 9.29,-2.76 15.03,-3.39 -2.33,4.67 -4.84,8.88 -7.55,12.04 -0.59,0.69 -0.73,1.64 -0.37,2.47 0.35,0.82 1.16,1.38 2.05,1.43 4.29,0.21 9.24,1.36 14.39,2.96 -4.52,3.87 -9.03,7.13 -13.12,8.89zm73.79 -59.57c1.41,-4.03 2.45,-8.66 3.27,-13.5 6.74,-2.35 13.88,-4.34 19.95,-6.02l2.23 -0.62c-0.44,0.83 -0.9,1.69 -1.37,2.57 -2.82,5.3 -6.14,11.5 -9.71,17.3 -5.07,-0.26 -9.99,-0.26 -14.37,0.27zm-13.84 28.4c6.75,-1.22 12.46,-3.85 17.97,-8.29 4.5,-3.61 8.78,-9.22 12.78,-15.47 6.61,0.48 13.42,1.36 19.53,2.17l1.1 0.14c0.67,0.09 1.33,0.18 1.97,0.26l-1.23 1c-10.48,8.42 -24.84,19.96 -35.47,22.96 -9.89,2.71 -17.06,1 -25.02,-1.89 2.84,-0.15 5.62,-0.39 8.37,-0.88zm-4.58 -36.41c-9.26,7.45 -12.36,15.45 -14.78,24.45 -1.22,-8.85 -1.55,-16.45 3.43,-25.92 5.21,-9.74 19.55,-21.29 30.02,-29.73l1.23 -1c-0.08,0.96 -0.17,1.93 -0.26,2.93 -0.54,6.37 -1.16,13.48 -2.17,20.25 -6.81,2.52 -13.05,5.46 -17.47,9.02zm19.59 24.43c-9.62,7.73 -18.18,8.01 -29.01,8.36 -0.86,0.03 -1.73,0.05 -2.62,0.09 0.2,-0.81 0.4,-1.61 0.6,-2.4 2.65,-10.62 4.75,-19 14.41,-26.78 3.39,-2.73 8.21,-5.14 13.57,-7.27 -0.98,5.12 -2.27,9.83 -4.03,13.6 -0.38,0.82 -0.26,1.79 0.31,2.49 0.55,0.7 1.48,1.02 2.36,0.83 4.18,-0.94 9.26,-1.16 14.66,-0.99 -3.31,4.93 -6.78,9.27 -10.25,12.07zm56.66 -76.79c0.41,-4.25 0.33,-9 -0.02,-13.89 5.99,-3.86 12.46,-7.47 17.97,-10.54l2.02 -1.12c-0.24,0.91 -0.48,1.85 -0.72,2.83 -1.5,5.81 -3.25,12.61 -5.34,19.1 -4.99,0.92 -9.77,2.08 -13.91,3.62zm-6.73 30.85c6.27,-2.76 11.2,-6.67 15.51,-12.28 3.51,-4.57 6.36,-11.03 8.76,-18.04 6.51,-1.09 13.32,-1.82 19.43,-2.47l0.22 -0.03c1,-0.1 1.97,-0.21 2.92,-0.31l-0.96 1.26c-8.2,10.65 -19.41,25.23 -29.04,30.65 -8.96,4.96 -16.33,4.99 -24.76,4.05 2.73,-0.82 5.37,-1.7 7.92,-2.83zm-13.06 -34.3c-7.23,9.42 -8.36,17.92 -8.57,27.22 -3.29,-8.3 -5.41,-15.61 -2.82,-25.98 2.76,-10.69 13.95,-25.28 22.14,-35.95l0.96 -1.26c0.15,0.95 0.3,1.93 0.45,2.94 0.97,6.3 2.05,13.35 2.67,20.16 -6.02,4.05 -11.38,8.38 -14.83,12.87zm24.82 19.13c-7.51,9.78 -15.76,12.06 -26.21,14.95 -0.83,0.22 -1.68,0.46 -2.53,0.69 0.01,-0.81 0.01,-1.63 0.01,-2.47 0.07,-10.94 0.12,-19.58 7.66,-29.4 2.65,-3.46 6.77,-6.92 11.47,-10.26 0.25,5.2 0.12,10.09 -0.69,14.17 -0.18,0.89 0.16,1.79 0.88,2.34 0.7,0.55 1.68,0.64 2.5,0.25 3.84,-1.9 8.72,-3.31 14.01,-4.42 -2.05,5.58 -4.39,10.62 -7.1,14.15zm0.42 -615.32c5.26,11.62 12.89,16.45 21.75,21.35 -9.45,0.63 -17.33,0.62 -26.7,-5.45 -9.04,-5.85 -18.98,-20.63 -26.24,-31.43l-1.26 -1.87c0.91,0.17 1.84,0.33 2.8,0.5 8.03,1.41 17.96,3.15 26.41,5.72 0.76,4.16 1.8,7.99 3.24,11.18zm29.39 14.49c-3.52,-9.33 -7.19,-17.46 -17.76,-24.3 -2.98,-1.93 -6.67,-3.55 -10.73,-4.94 -1.32,-8.95 -1.54,-19.34 -1.71,-27.73l-0.04 -2.25c0.67,0.63 1.37,1.27 2.08,1.92 9.41,8.7 22.31,20.61 26.68,30.27 4.58,10.11 3.46,17.84 1.48,27.03zm-3.54 3.81c-9.28,-5.08 -16.63,-9.2 -21.61,-20.2 -0.97,-2.17 -1.75,-4.73 -2.37,-7.53 2.74,1.05 5.21,2.21 7.24,3.52 10.1,6.54 13.08,14.35 16.74,24.21zm6.65 53.72c4.95,10.78 11.95,15.76 20.1,20.31 -8.9,-1.01 -16.38,-2.58 -24.35,-9.72 -8.19,-7.45 -15.87,-24.14 -21.47,-36.33l-0.66 -1.43c0.9,0.31 1.84,0.63 2.79,0.97 6.04,2.1 12.81,4.46 19.14,7.11 0.77,7.2 2.09,13.94 4.45,19.09zm12.35 -15.8c-3.58,-2.36 -7.82,-4.51 -12.32,-6.5 -0.62,-7.08 -0.78,-14.47 -0.91,-20.75l-0.02 -0.79c-0.01,-0.51 -0.02,-1.02 -0.03,-1.51 0.4,0.36 0.81,0.73 1.22,1.11l0.96 0.86c4.44,4.04 9.65,8.77 14.41,13.65 -1.52,4.82 -2.73,9.57 -3.31,13.93zm24.18 20.39c0.5,-6.82 -0.65,-12.98 -3.61,-19.41 -2.4,-5.23 -6.78,-10.76 -11.87,-16.16 2.09,-6.24 4.63,-12.57 6.92,-18.25l0.2 -0.49c0.34,-0.84 0.67,-1.65 0.99,-2.44l0.66 1.45c5.59,12.19 13.25,28.9 13.54,39.91 0.18,10.21 -3.26,16.7 -8.04,23.66 0.56,-2.77 1.01,-5.5 1.21,-8.27zm-21.19 -13.86c0.82,-0.37 1.36,-1.18 1.39,-2.08 0.13,-4.27 1.18,-9.23 2.67,-14.39 3.98,4.41 7.35,8.84 9.2,12.88 5.14,11.19 3.29,19.52 0.94,30.06 -0.18,0.84 -0.38,1.69 -0.56,2.55 -0.74,-0.39 -1.46,-0.78 -2.19,-1.17 -9.67,-5.19 -17.31,-9.29 -22.47,-20.53 -1.81,-3.95 -2.95,-9.2 -3.7,-14.9 4.73,2.21 9,4.63 12.23,7.26 0.71,0.57 1.66,0.69 2.49,0.32zm22.86 161.39c1.44,11.76 6.6,18.62 12.98,25.42 -8.18,-3.64 -14.82,-7.39 -20.25,-16.61 -5.53,-9.56 -7.77,-27.8 -9.41,-41.1l-0.2 -1.57c0.77,0.57 1.56,1.16 2.37,1.77 5.13,3.83 10.86,8.12 16.08,12.55 -1.46,7.09 -2.26,13.93 -1.57,19.54zm16.57 -11.33c-2.69,-3.32 -6.07,-6.66 -9.76,-9.91 1.57,-6.93 3.66,-14.02 5.44,-20.05l0.19 -0.65c0.16,-0.52 0.32,-1.05 0.47,-1.56l1.46 2.51c3.01,5.2 6.54,11.29 9.6,17.38 -2.91,4.14 -5.52,8.3 -7.4,12.28zm16.85 26.73c2.54,-6.35 3.32,-12.57 2.46,-19.58 -0.69,-5.72 -3.2,-12.31 -6.4,-19 3.9,-5.32 8.27,-10.61 12.19,-15.34l0.56 -0.67c0.48,-0.59 0.95,-1.16 1.42,-1.72l0.19 1.58c1.62,13.31 3.84,31.54 0.76,42.12 -2.93,9.8 -8.18,14.96 -14.86,20.16 1.37,-2.49 2.65,-4.96 3.68,-7.55zm-18.25 -20.66c0.49,0.76 1.36,1.17 2.27,1.05 0.89,-0.1 1.66,-0.71 1.96,-1.55 1.42,-4.04 3.91,-8.45 6.92,-12.93 2.45,5.42 4.31,10.65 4.85,15.06 1.49,12.22 -2.81,19.6 -8.25,28.95l-0.21 0.36c-0.36,0.62 -0.73,1.25 -1.1,1.9 -0.55,-0.58 -1.1,-1.15 -1.65,-1.71l-0.07 -0.07c-7.64,-7.86 -13.67,-14.07 -15.17,-26.36 -0.53,-4.31 -0.03,-9.65 1,-15.31 3.83,3.54 7.17,7.13 9.45,10.61zm16.41 103.33c3.57,-5.83 5.38,-11.84 5.72,-18.9 0.26,-5.75 -1.1,-12.67 -3.14,-19.8 4.74,-4.6 9.94,-9.08 14.6,-13.1l0.13 -0.11c0.75,-0.65 1.5,-1.29 2.22,-1.91l-0.08 1.6c-0.64,13.39 -1.5,31.74 -6.31,41.65 -4.53,9.17 -10.57,13.38 -18.03,17.39 1.77,-2.21 3.44,-4.43 4.89,-6.82zm-30.37 -20.75c-0.55,11.84 3.39,19.46 8.54,27.23 -7.45,-4.95 -13.38,-9.76 -17.18,-19.75 -3.85,-10.35 -3.01,-28.7 -2.39,-42.1l0.07 -1.58c0.66,0.7 1.34,1.42 2.05,2.15 4.4,4.63 9.33,9.81 13.74,15.05 -2.63,6.75 -4.56,13.35 -4.83,19zm17.91 -1.24c0.89,0.06 1.75,-0.43 2.19,-1.21 2.07,-3.75 5.28,-7.68 8.99,-11.6 1.5,5.75 2.46,11.22 2.26,15.66 -0.58,12.3 -6.06,18.86 -12.99,27.17l-0.61 0.73c-0.35,0.42 -0.7,0.85 -1.06,1.28 -0.4,-0.59 -0.8,-1.17 -1.2,-1.75l-0.2 -0.29c-6.21,-9.02 -11.12,-16.15 -10.54,-28.51 0.2,-4.34 1.6,-9.52 3.55,-14.94 3.19,4.14 5.88,8.23 7.54,12.03 0.36,0.84 1.15,1.38 2.07,1.43zm1.53 -38.31c0.2,-0.4 0.39,-0.8 0.58,-1.2l1.02 2.73c2.11,5.62 4.56,12.21 6.55,18.73 -3.56,3.6 -6.83,7.27 -9.35,10.88 -2.09,-3.73 -4.87,-7.58 -7.96,-11.4 2.71,-6.58 5.96,-13.22 8.73,-18.86l0.43 -0.88zm-34.18 -116.57c3.07,11.43 9.13,17.5 16.41,23.36 -8.61,-2.46 -15.71,-5.26 -22.38,-13.63 -6.82,-8.7 -11.59,-26.44 -15.08,-39.39l-0.41 -1.53c0.84,0.46 1.71,0.94 2.61,1.43 5.6,3.08 11.88,6.53 17.67,10.19 -0.45,7.23 -0.29,14.1 1.18,19.57zm14.82 -13.53c-3.13,-2.91 -6.95,-5.75 -11.05,-8.46 0.57,-7.08 1.65,-14.39 2.58,-20.61l0.34 -2.28 1.79 2.29c3.72,4.73 8.06,10.26 11.94,15.87 -2.3,4.51 -4.3,8.99 -5.6,13.19zm20.43 24.13c1.62,-6.64 1.53,-12.91 -0.3,-19.73 -1.49,-5.57 -4.9,-11.75 -9.01,-17.92 3.12,-5.81 6.7,-11.64 9.91,-16.87l0.36 -0.58c0.43,-0.71 0.86,-1.4 1.28,-2.09l0.41 1.54c3.47,12.96 8.22,30.71 6.66,41.61 -1.53,10.1 -6.01,15.94 -11.9,22.02 1.01,-2.65 1.93,-5.27 2.59,-7.98zm-31.81 -27.12c4.29,2.98 8.1,6.06 10.84,9.2 0.6,0.68 1.51,0.96 2.4,0.73 0.87,-0.23 1.54,-0.94 1.72,-1.82 0.84,-4.2 2.7,-8.91 5.05,-13.76 3.17,5.02 5.75,9.95 6.9,14.24 3.2,11.89 -0.02,19.8 -4.11,29.8l-0.17 0.43c-0.26,0.66 -0.54,1.32 -0.81,2 -0.51,-0.41 -1.02,-0.8 -1.53,-1.2l-0.43 -0.33c-8.66,-6.72 -15.5,-12.02 -18.71,-23.98 -1.12,-4.2 -1.37,-9.56 -1.15,-15.31zm22.35 246.4c-1.77,-3.88 -4.22,-7.96 -6.97,-12.02 3.26,-6.33 7.06,-12.68 10.3,-18.06l1.18 -1.99c0.18,0.66 0.37,1.33 0.56,2.01l0.24 0.83c1.61,5.78 3.49,12.53 4.92,19.18 -3.85,3.29 -7.42,6.67 -10.23,10.05zm9.61 30.08c4.05,-5.51 6.37,-11.34 7.29,-18.35 0.76,-5.71 -0.01,-12.72 -1.44,-19.99 5.1,-4.17 10.64,-8.19 15.61,-11.79l0.18 -0.13c0.81,-0.59 1.61,-1.17 2.37,-1.73l-0.2 1.6c-1.78,13.29 -4.2,31.49 -9.82,40.97 -5.3,8.76 -11.67,12.44 -19.44,15.81 1.95,-2.06 3.8,-4.14 5.45,-6.39zm-28.5 -23.22c-1.56,11.75 1.73,19.67 6.2,27.84 -7.01,-5.56 -12.5,-10.85 -15.45,-21.12 -2.96,-10.63 -0.56,-28.84 1.19,-42.15l0.21 -1.57c0.6,0.75 1.21,1.52 1.85,2.32 4,4.97 8.47,10.55 12.42,16.14 -3.19,6.51 -5.68,12.92 -6.42,18.54zm31.09 4.23c-1.62,12.21 -7.63,18.29 -15.26,26.01 -0.6,0.61 -1.2,1.21 -1.81,1.84 -0.42,-0.73 -0.82,-1.45 -1.23,-2.16 -5.42,-9.51 -9.71,-17.02 -8.08,-29.29 0.57,-4.31 2.4,-9.36 4.81,-14.59 2.82,4.39 5.15,8.69 6.49,12.63 0.29,0.84 1.04,1.47 1.93,1.59 0.89,0.13 1.78,-0.28 2.29,-1.02 2.38,-3.56 5.91,-7.21 9.94,-10.8 1.01,5.86 1.5,11.39 0.92,15.79zm-28.91 67.51c-1.1,-4.13 -2.83,-8.55 -4.86,-13.01 4.26,-5.7 9.07,-11.33 13.17,-16.1l1.5 -1.76c0.08,0.73 0.16,1.47 0.24,2.23l0.07 0.67c0.62,5.97 1.36,12.96 1.66,19.76 -4.36,2.6 -8.44,5.34 -11.78,8.21zm4.45 31.26c4.91,-4.77 8.17,-10.13 10.26,-16.89 1.7,-5.5 2.11,-12.54 1.92,-19.95 5.73,-3.27 11.87,-6.32 17.37,-9.04l0.3 -0.15c0.85,-0.42 1.7,-0.84 2.52,-1.25l-0.47 1.53c-3.97,12.82 -9.4,30.37 -16.54,38.77 -6.67,7.76 -13.58,10.34 -21.8,12.37 2.27,-1.71 4.44,-3.45 6.44,-5.39zm-24.22 -27.64c-3.49,11.33 -1.59,19.69 1.46,28.49 -5.98,-6.65 -10.51,-12.77 -11.7,-23.39 -1.14,-10.98 4.27,-28.54 8.22,-41.37l0.46 -1.51c0.47,0.84 0.95,1.7 1.43,2.58 3.12,5.58 6.6,11.82 9.56,18 -4.23,5.88 -7.76,11.8 -9.43,17.2zm29.95 9.34c-3.64,11.77 -10.58,16.77 -19.37,23.09l-0.72 0.52c-0.47,0.34 -0.93,0.67 -1.4,1.01 -0.23,-0.64 -0.47,-1.28 -0.7,-1.91l-0.15 -0.41c-3.76,-10.28 -6.73,-18.4 -3.07,-30.23 1.28,-4.15 3.92,-8.83 7.18,-13.59 2.05,4.8 3.63,9.43 4.29,13.53 0.14,0.88 0.78,1.63 1.64,1.89 0.85,0.28 1.8,0.03 2.42,-0.62 2.95,-3.12 7.03,-6.13 11.61,-9 0.02,5.94 -0.42,11.47 -1.73,15.72zm-39.42 62.3c-0.47,-4.25 -1.52,-8.88 -2.88,-13.59 5.07,-5.01 10.66,-9.87 15.41,-14 0.59,-0.51 1.18,-1.02 1.74,-1.51 -0.02,0.55 -0.04,1.11 -0.07,1.67l-0.05 1.23c-0.26,6 -0.57,13.02 -1.28,19.8 -4.69,1.93 -9.13,4.05 -12.87,6.4zm-0.21 31.56c5.56,-3.99 9.58,-8.81 12.64,-15.19 2.49,-5.19 3.94,-12.1 4.85,-19.45 6.16,-2.41 12.69,-4.52 18.55,-6.42l0.16 -0.04c0.96,-0.32 1.9,-0.62 2.8,-0.91l-0.69 1.43c-5.81,12.1 -13.78,28.66 -22.08,35.94 -7.76,6.69 -14.97,8.23 -23.4,9.03 2.5,-1.36 4.91,-2.76 7.17,-4.39zm-19.87 -30.89c-5.14,10.7 -4.48,19.24 -2.77,28.4 -4.93,-7.45 -8.51,-14.18 -8.11,-24.85 0.49,-11.04 8.44,-27.61 14.24,-39.71l0.68 -1.43c0.34,0.89 0.69,1.81 1.04,2.76 2.25,5.97 4.77,12.66 6.78,19.2 -5.05,5.2 -9.41,10.53 -11.86,15.63zm28.23 13.64c-5.32,11.1 -12.93,15.02 -22.56,19.99 -0.77,0.4 -1.55,0.8 -2.33,1.21 -0.16,-0.82 -0.33,-1.63 -0.49,-2.42 -2.2,-10.73 -3.94,-19.19 1.42,-30.36 1.89,-3.92 5.2,-8.16 9.11,-12.38 1.33,5.04 2.2,9.85 2.25,14.01 0,0.89 0.54,1.72 1.35,2.11 0.8,0.39 1.78,0.28 2.48,-0.26 3.38,-2.65 7.86,-5.03 12.81,-7.2 -0.86,5.88 -2.11,11.29 -4.04,15.3zm80.34 -282.62c-0.88,-0.42 -1.91,-0.27 -2.62,0.37 -1.79,1.61 -3.86,3.39 -6.04,5.27l-0.38 0.33c-4.15,3.58 -8.75,7.56 -13.14,11.71 -1.84,-5.72 -3.97,-11.43 -5.92,-16.64l-0.08 -0.21c-0.63,-1.69 -1.23,-3.3 -1.79,-4.85 1.2,-0.94 2.42,-1.85 3.72,-2.83 8.08,-6.03 15.05,-11.25 19.27,-21.79 0.49,-1.22 0.94,-2.52 1.34,-3.86 3.35,-11.51 1.07,-30.29 -0.6,-44.02 -0.32,-2.56 -0.61,-4.97 -0.84,-7.12 -0.11,-0.97 -0.77,-1.76 -1.71,-2.03 -0.93,-0.26 -1.92,0.05 -2.52,0.8 -1.58,1.99 -3.42,4.21 -5.42,6.63 -3.48,4.2 -7.34,8.89 -10.96,13.7 -2.78,-5.34 -5.84,-10.61 -8.63,-15.42l-0.13 -0.22c-1.19,-2.07 -2.31,-4 -3.33,-5.81 1.33,-1.37 2.63,-2.67 3.89,-3.92 7.16,-7.1 13.33,-13.23 16.03,-24.27 0.32,-1.29 0.58,-2.64 0.79,-4 1.7,-11.86 -3.19,-30.13 -6.77,-43.5 -0.63,-2.35 -1.28,-4.77 -1.83,-6.95 -0.23,-0.93 -1,-1.62 -1.97,-1.76 -0.95,-0.14 -1.89,0.31 -2.38,1.15 -1.31,2.22 -2.81,4.67 -4.41,7.27 -2.87,4.66 -6.05,9.84 -8.97,15.12 -3.5,-4.89 -7.26,-9.69 -10.7,-14.06l-0.15 -0.19c-1.11,-1.42 -2.16,-2.77 -3.17,-4.06 0.89,-1.29 1.79,-2.58 2.69,-3.83 5.86,-8.19 10.92,-15.26 11.73,-26.59 0.1,-1.31 0.13,-2.68 0.11,-4.08 -0.31,-11.98 -8.2,-29.18 -13.96,-41.76 -1.08,-2.35 -2.09,-4.55 -2.97,-6.54 -0.39,-0.88 -1.27,-1.42 -2.24,-1.4 -0.97,0.02 -1.82,0.62 -2.16,1.52 -0.9,2.35 -1.96,4.99 -3.09,7.79l-0.04 0.11c-2.05,5.07 -4.31,10.72 -6.31,16.4 -4.26,-4.24 -8.78,-8.34 -12.91,-12.08 -1.5,-1.36 -2.9,-2.64 -4.24,-3.88 0.22,-1.02 0.43,-2.06 0.65,-3.04l0.02 -0.09c2.38,-10.79 4.44,-20.11 -1.21,-32.59 -4.76,-10.52 -17.52,-22.3 -27.78,-31.77l-0.16 -0.16c-2.15,-1.98 -4.18,-3.86 -5.93,-5.54 -0.69,-0.66 -1.69,-0.84 -2.56,-0.45 -0.87,0.39 -1.41,1.25 -1.38,2.21 0.09,2.4 0.15,5.12 0.2,7.78 0.16,8.22 0.36,17.59 1.44,26.11 -8.04,-2.27 -16.99,-3.84 -24.84,-5.22 -2.82,-0.49 -5.73,-1 -8.22,-1.49 -0.93,-0.19 -1.87,0.22 -2.39,1.01 -0.52,0.8 -0.5,1.82 0.05,2.6 1.34,1.93 2.81,4.12 4.37,6.43 7.9,11.75 17.74,26.38 27.58,32.75 8.08,5.23 15.2,6.46 22.55,6.46 3.16,0 6.38,-0.23 9.72,-0.47 0.65,-0.04 1.34,-0.08 1.99,-0.13 0.03,1.11 0.05,2.24 0.08,3.4 0.12,5.85 0.26,12.27 0.72,18.57 -5.8,-2.33 -11.76,-4.41 -17.11,-6.27 -2.91,-1.01 -5.66,-1.97 -8.08,-2.86 -0.91,-0.34 -1.92,-0.1 -2.58,0.61 -0.66,0.71 -0.81,1.73 -0.4,2.6 0.94,1.96 1.95,4.17 3.04,6.53 5.78,12.56 13.69,29.75 22.59,37.85 10.33,9.25 19.97,10.22 31.13,11.34l0.15 0.02c1,0.1 2.08,0.22 3.12,0.34 -0.2,1.31 -0.4,2.71 -0.64,4.27 -0.85,5.78 -1.79,12.13 -2.4,18.41 -5.32,-3.26 -10.85,-6.31 -15.81,-9.03 -2.93,-1.61 -5.34,-2.93 -7.49,-4.16 -0.84,-0.49 -1.87,-0.42 -2.64,0.17 -0.77,0.59 -1.09,1.57 -0.83,2.5 0.58,2.06 1.2,4.35 1.86,6.8l0.03 0.13c3.59,13.34 8.51,31.62 15.94,41.09 8.63,10.84 17.97,13.4 28.79,16.36l0.17 0.05c1.2,0.33 2.48,0.7 3.74,1.06 -0.54,1.9 -1.14,3.91 -1.77,6.06 -1.67,5.6 -3.49,11.77 -4.97,17.91 -4.81,-3.97 -9.86,-7.75 -14.39,-11.14l-0.26 -0.19c-2.37,-1.78 -4.62,-3.45 -6.57,-4.98 -0.76,-0.59 -1.8,-0.66 -2.64,-0.19 -0.85,0.48 -1.3,1.41 -1.17,2.36 0.28,2.05 0.56,4.33 0.86,6.76l0.04 0.37c1.69,13.71 4,32.49 10.02,42.9 7.03,11.93 15.91,15.77 26.22,20.21 0.97,0.42 2,0.88 3,1.32 -0.58,1.19 -1.19,2.43 -1.82,3.71l-0.08 0.17c-2.57,5.25 -5.4,11.03 -7.89,16.83 -4.08,-4.72 -8.42,-9.29 -12.32,-13.38 -2.21,-2.32 -4.17,-4.38 -5.87,-6.23 -0.65,-0.72 -1.66,-0.97 -2.57,-0.63 -0.91,0.33 -1.52,1.16 -1.55,2.12 -0.07,2.13 -0.18,4.51 -0.3,7.18 -0.64,13.8 -1.51,32.71 2.68,43.97 4.93,12.94 13.06,18.2 22.46,24.29 1.24,0.8 2.62,1.71 4.02,2.64 -0.92,1.56 -1.9,3.2 -2.95,4.95l-0.14 0.25c-3.02,5.01 -6.33,10.54 -9.3,16.11 -3.66,-5.04 -7.6,-9.96 -11.14,-14.37 -2.01,-2.49 -3.79,-4.72 -5.32,-6.7 -0.59,-0.77 -1.57,-1.1 -2.51,-0.85 -0.94,0.25 -1.62,1.04 -1.72,1.99 -0.24,2.02 -0.53,4.25 -0.85,6.63l-0.07 0.5c-1.8,13.69 -4.27,32.45 -1.04,44.04 3.81,13.3 11.46,19.23 20.32,26.09 0.94,0.74 1.97,1.54 3.03,2.37 -0.86,1 -1.75,2.04 -2.66,3.11 -3.81,4.45 -8,9.35 -11.86,14.35 -2.77,-5.58 -5.84,-11.09 -8.59,-16.02 -1.5,-2.69 -2.92,-5.22 -4.12,-7.49 -0.42,-0.78 -1.23,-1.27 -2.11,-1.27 -0.07,0 -0.15,0.01 -0.23,0.02 -0.96,0.09 -1.76,0.75 -2.03,1.68 -0.59,2.01 -1.26,4.21 -2.08,6.87 -4.08,13.21 -9.65,31.3 -8.4,43.25 1.53,13.76 8.08,20.87 15.67,29.11 0.81,0.88 1.7,1.85 2.6,2.85 -1.03,0.9 -2.1,1.83 -3.21,2.8l-0.17 0.15c-4.43,3.83 -9.29,8.06 -13.86,12.44 -1.91,-5.92 -4.12,-11.82 -6.12,-17.1 -1.08,-2.88 -2.11,-5.59 -2.96,-8.01 -0.33,-0.91 -1.16,-1.54 -2.13,-1.59 -0.96,-0.04 -1.85,0.49 -2.26,1.37 -0.82,1.78 -1.76,3.74 -2.76,5.82l-0.32 0.67c-5.98,12.47 -14.16,29.54 -14.7,41.55 -0.51,13.83 4.92,21.83 11.2,31.09 0.85,1.25 1.79,2.64 2.73,4.07 -1.6,0.91 -3.29,1.85 -5.05,2.84 -5.13,2.85 -10.76,5.99 -16.13,9.35 -0.65,-6.19 -1.6,-12.42 -2.46,-18 -0.47,-3.03 -0.91,-5.89 -1.25,-8.45 -0.14,-0.96 -0.82,-1.73 -1.76,-1.98 -0.93,-0.25 -1.92,0.1 -2.49,0.87 -1.34,1.79 -2.87,3.79 -4.35,5.73 -8.43,10.97 -19.96,26.01 -22.96,37.65 -3.36,13.43 0.3,22.37 4.56,32.76 0.66,1.61 1.34,3.3 2.01,5.03 -1.99,0.57 -4.15,1.18 -6.46,1.82l-0.23 0.07c-5.65,1.56 -11.87,3.29 -17.88,5.29 0.83,-6.17 1.38,-12.44 1.87,-18.07 0.27,-3.17 0.52,-6 0.78,-8.5 0.11,-0.97 -0.38,-1.88 -1.23,-2.34 -0.86,-0.46 -1.88,-0.36 -2.63,0.25 -1.62,1.35 -3.45,2.82 -5.4,4.4l-0.18 0.14c-10.79,8.69 -25.55,20.6 -31.23,31.2 -6.44,12.27 -5,21.81 -3.32,32.89 0.23,1.57 0.46,3.23 0.69,4.89 -1.84,0.02 -3.78,0.02 -5.85,0.03l-0.45 0c-5.87,0 -12.32,0 -18.65,0.33 2.46,-5.72 4.68,-11.62 6.66,-16.91 1.07,-2.88 2.09,-5.59 3.04,-7.99 0.36,-0.9 0.14,-1.91 -0.56,-2.58 -0.7,-0.67 -1.73,-0.84 -2.6,-0.45 -1.89,0.84 -3.98,1.74 -6.22,2.71l-0.38 0.17c-12.72,5.49 -30.15,13.02 -38.47,21.72 -9.5,10.1 -10.68,19.69 -12.05,30.81 -0.24,1.98 -0.49,4.03 -0.8,6.14 -0.08,0.54 0.03,1.08 0.3,1.55 0.15,0.51 0.47,0.97 0.91,1.28 1.68,1.18 3.27,2.37 4.81,3.51l0.2 0.15c8.09,6.01 15.08,11.19 26.43,12.24 1.33,0.12 2.71,0.18 4.09,0.18 12.02,-0.05 29.45,-7.56 42.2,-13.04 2.39,-1.03 4.62,-1.99 6.63,-2.82 0.89,-0.37 1.47,-1.23 1.46,-2.2 0,-0.97 -0.59,-1.83 -1.48,-2.19 -2.18,-0.87 -4.62,-1.9 -7.19,-2.99l-0.68 -0.29c-5.04,-2.14 -10.66,-4.52 -16.33,-6.62 4.36,-4.16 8.57,-8.57 12.41,-12.61 2.08,-2.18 4.05,-4.25 5.84,-6.05 1.57,0.58 3.14,1.17 4.65,1.75 7.36,2.84 13.94,5.38 21.83,5.38 2.19,0 4.48,-0.2 6.92,-0.64 1.3,-0.23 2.64,-0.54 4,-0.91 11.58,-3.27 26.36,-15.15 37.15,-23.83l0.19 -0.15c1.95,-1.57 3.78,-3.03 5.44,-4.33 0.76,-0.59 1.08,-1.58 0.81,-2.51 -0.26,-0.93 -1.05,-1.6 -2.01,-1.71 -2.55,-0.29 -5.42,-0.66 -8.46,-1.07 -5.43,-0.71 -11.49,-1.5 -17.51,-2.02 3.07,-5.17 5.94,-10.54 8.56,-15.45l0.23 -0.44c1.36,-2.54 2.63,-4.93 3.81,-7.02 0.08,-0.14 0.12,-0.3 0.17,-0.45 1.68,0.19 3.35,0.4 4.93,0.61l0.13 0.01c4.55,0.6 8.82,1.16 13.1,1.16 5.14,0 10.29,-0.81 15.97,-3.31 1.22,-0.54 2.45,-1.15 3.67,-1.83 10.46,-5.9 22.02,-20.91 30.46,-31.89 1.62,-2.1 3.06,-3.98 4.4,-5.68 0.61,-0.75 0.68,-1.78 0.21,-2.63 -0.48,-0.84 -1.42,-1.3 -2.37,-1.18 -2.51,0.31 -5.37,0.62 -8.47,0.95 -5.46,0.58 -11.52,1.24 -17.5,2.16 1.76,-5.75 3.28,-11.65 4.66,-17.04l0.09 -0.35c0.67,-2.58 1.29,-5 1.89,-7.19 1.55,-0.14 3.09,-0.27 4.58,-0.38 10.06,-0.77 18.75,-1.44 28,-8.07 1.08,-0.77 2.16,-1.62 3.21,-2.53 9.03,-7.92 17.24,-24.98 23.24,-37.45 1.12,-2.33 2.17,-4.51 3.14,-6.46 0.43,-0.86 0.29,-1.89 -0.35,-2.62 -0.64,-0.73 -1.65,-0.98 -2.56,-0.67 -2.39,0.82 -5.13,1.71 -8.1,2.67 -5.22,1.68 -11.01,3.57 -16.68,5.69 0.54,-5.98 0.81,-12.07 1.05,-17.62l0.02 -0.5c0.09,-1.9 0.17,-3.68 0.26,-5.39 1.38,-0.32 2.77,-0.66 4.09,-0.96l0.12 -0.02c9.84,-2.24 18.33,-4.17 26.5,-12.09 0.95,-0.92 1.9,-1.93 2.81,-2.97 7.75,-9.15 13.35,-27.22 17.44,-40.45 0.76,-2.47 1.48,-4.79 2.15,-6.85 0.3,-0.92 0.01,-1.92 -0.73,-2.54 -0.74,-0.63 -1.77,-0.74 -2.63,-0.3 -2.27,1.19 -4.86,2.47 -7.62,3.83 -4.91,2.44 -10.36,5.15 -15.65,8.08 -0.35,-5.99 -0.99,-12.05 -1.57,-17.58 -0.22,-2.03 -0.41,-3.94 -0.59,-5.78 1.22,-0.52 2.46,-1.03 3.77,-1.57 9.33,-3.84 17.38,-7.16 24.11,-16.31 0.78,-1.07 1.54,-2.21 2.27,-3.41 6.12,-10.31 8.62,-29.08 10.44,-42.77l0.08 -0.57c0.31,-2.35 0.6,-4.56 0.9,-6.54 0.14,-0.96 -0.31,-1.89 -1.15,-2.38 -0.83,-0.5 -1.87,-0.44 -2.64,0.14 -2.05,1.55 -4.39,3.25 -6.88,5.05 -4.43,3.21 -9.36,6.79 -14.08,10.55 -1.35,-5.85 -2.99,-11.72 -4.48,-17.07l-0.11 -0.37c-0.65,-2.35 -1.26,-4.54 -1.8,-6.59 1.31,-0.69 2.62,-1.38 3.87,-2.03l0.28 -0.14c8.98,-4.61 16.72,-8.58 22.65,-18.29 0.69,-1.12 1.36,-2.33 1.97,-3.57 5.23,-10.8 6.13,-29.7 6.78,-43.51l0.02 -0.4c0.12,-2.43 0.23,-4.71 0.36,-6.76 0.05,-0.97 -0.48,-1.86 -1.35,-2.28z"/>
   <path class="fil0" d="M565.68 322.47l2.56 0.84c11.64,3.76 27.58,8.92 35.23,15.56 8.77,7.61 10.48,15.48 12.66,25.45l0.06 0.29c0.15,0.69 0.3,1.38 0.46,2.08 -0.62,-0.04 -1.24,-0.08 -1.85,-0.12l-0.44 -0.03c-10.23,-0.69 -18.32,-1.24 -27.13,-8.89 -7.78,-6.74 -15.2,-22.07 -20.62,-33.27 -0.32,-0.64 -0.63,-1.28 -0.93,-1.91zm-3.09 3.89c5.9,12.18 13.25,27.34 21.7,34.68 9.95,8.63 19.14,9.25 29.78,9.97l0.16 0.01c1.64,0.11 3.34,0.23 5.09,0.38 0.07,0 0.13,0.01 0.2,0.01 0.12,0 0.24,-0.01 0.37,-0.03l0 -0.01c0.51,-0.08 0.98,-0.35 1.32,-0.74 0.46,-0.54 0.65,-1.28 0.48,-1.98 -0.43,-1.82 -0.82,-3.57 -1.19,-5.29 -2.26,-10.35 -4.21,-19.29 -14.1,-27.88 -8.34,-7.23 -24.11,-12.34 -36.79,-16.45 -2.59,-0.83 -5.27,-1.7 -7.59,-2.5 -0.87,-0.3 -1.81,-0.05 -2.41,0.65 -0.6,0.68 -0.72,1.66 -0.31,2.48 1.04,2.05 2.17,4.4 3.29,6.7z"/>
   <path class="fil0" d="M88.43 895.92zm-2.77 47.34l2.77 -47.34zm-2.77 47.34c3.07,6.37 7.08,11.2 12.64,15.19 2.26,1.63 4.67,3.04 7.17,4.39 -8.43,-0.8 -15.64,-2.34 -23.39,-9.03 -8.31,-7.27 -16.28,-23.84 -22.09,-35.94l-0.69 -1.43c0.91,0.29 1.84,0.59 2.8,0.9l0.16 0.05c5.86,1.9 12.39,4.01 18.55,6.41 0.91,7.36 2.36,14.26 4.85,19.46zm12.43 -16.38c-3.73,-2.35 -8.18,-4.46 -12.87,-6.39 -0.7,-6.78 -1.02,-13.8 -1.28,-19.8l-0.02 -0.67c-0.04,-0.76 -0.07,-1.5 -0.11,-2.23 0.58,0.5 1.16,1 1.76,1.52 4.75,4.12 10.34,8.98 15.4,13.99 -1.35,4.71 -2.41,9.34 -2.88,13.58zm20.08 0.69c-2.45,-5.11 -6.81,-10.44 -11.86,-15.64 2.01,-6.54 4.52,-13.23 6.78,-19.21 0.36,-0.93 0.7,-1.86 1.04,-2.75l0.68 1.43c5.81,12.1 13.75,28.68 14.24,39.7 0.4,10.68 -3.18,17.4 -8.11,24.86 1.71,-9.15 2.37,-17.7 -2.77,-28.39zm-16.97 5.79c0.82,-0.39 1.33,-1.2 1.34,-2.11 0.05,-4.16 0.93,-8.97 2.24,-14.01 3.93,4.23 7.24,8.47 9.12,12.38 5.36,11.17 3.62,19.64 1.42,30.35l-0.12 0.59c-0.12,0.6 -0.25,1.21 -0.37,1.84 -0.79,-0.41 -1.56,-0.81 -2.33,-1.21 -9.63,-4.97 -17.23,-8.89 -22.56,-19.99 -1.93,-4.01 -3.18,-9.42 -4.04,-15.3 4.95,2.17 9.43,4.55 12.81,7.2 0.7,0.55 1.68,0.65 2.49,0.26zm-47.06 -67.35c2.09,6.75 5.35,12.12 10.26,16.88 2,1.93 4.17,3.68 6.45,5.39 -8.23,-2.03 -15.13,-4.61 -21.81,-12.37 -7.14,-8.41 -12.57,-25.97 -16.54,-38.78l-0.47 -1.52c0.86,0.42 1.74,0.86 2.64,1.3l0.18 0.09c5.5,2.73 11.64,5.78 17.37,9.05 -0.19,7.41 0.22,14.45 1.92,19.96zm34.48 -10.76c-1.67,-5.41 -5.2,-11.32 -9.43,-17.21 2.96,-6.17 6.44,-12.41 9.55,-17.99 0.49,-0.88 0.97,-1.74 1.44,-2.58l0.47 1.51c3.95,12.83 9.35,30.39 8.21,41.37 -1.18,10.62 -5.72,16.74 -11.7,23.39 3.05,-8.8 4.96,-17.16 1.46,-28.49zm-31.68 -6.38c4.58,2.87 8.66,5.88 11.61,9 0.62,0.64 1.57,0.9 2.42,0.63 0.87,-0.28 1.5,-1 1.65,-1.9 0.65,-4.1 2.23,-8.73 4.28,-13.53 3.25,4.76 5.9,9.44 7.19,13.59 3.65,11.83 0.68,19.95 -3.08,30.23l-0.15 0.41c-0.23,0.63 -0.46,1.27 -0.69,1.91 -0.53,-0.38 -1.05,-0.75 -1.56,-1.12l-0.57 -0.41c-8.79,-6.32 -15.73,-11.32 -19.36,-23.09 -1.32,-4.24 -1.76,-9.78 -1.74,-15.72zm2.1 -28.11c0.39,0.46 0.79,0.93 1.2,1.4l0.31 0.36c4.09,4.78 8.9,10.4 13.16,16.1 -2.03,4.46 -3.76,8.89 -4.86,13.01 -3.34,-2.87 -7.42,-5.61 -11.77,-8.21 0.3,-6.81 1.03,-13.8 1.66,-19.77l0.3 -2.89zm-23.8 -36c0.92,7.01 3.24,12.84 7.29,18.35 1.65,2.25 3.51,4.33 5.46,6.39 -7.78,-3.37 -14.15,-7.06 -19.45,-15.81 -5.62,-9.48 -8.05,-27.69 -9.82,-40.99l-0.21 -1.58c0.78,0.56 1.57,1.14 2.38,1.73l0.18 0.12c4.97,3.61 10.51,7.62 15.61,11.8 -1.43,7.27 -2.2,14.28 -1.44,19.99zm16.9 -11.73c-2.81,-3.38 -6.38,-6.77 -10.23,-10.05 1.43,-6.66 3.32,-13.43 4.94,-19.22l0.22 -0.79c0.19,-0.68 0.38,-1.35 0.56,-2l1.19 1.99c3.24,5.38 7.04,11.72 10.29,18.05 -2.75,4.07 -5.19,8.14 -6.97,12.02zm18.89 6.86c-0.74,-5.62 -3.23,-12.03 -6.42,-18.54 3.95,-5.59 8.43,-11.17 12.43,-16.16 0.63,-0.78 1.25,-1.55 1.85,-2.3l0.2 1.58c1.75,13.3 4.15,31.5 1.19,42.14 -2.95,10.27 -8.44,15.56 -15.45,21.12 4.48,-8.17 7.76,-16.09 6.2,-27.84zm-20.23 -0.76c0.51,0.74 1.42,1.14 2.29,1.02 0.89,-0.12 1.65,-0.74 1.94,-1.59 1.33,-3.94 3.66,-8.24 6.49,-12.63 2.41,5.23 4.23,10.28 4.8,14.59 1.63,12.27 -2.65,19.78 -8.08,29.29 -0.4,0.71 -0.81,1.43 -1.22,2.16 -0.55,-0.56 -1.08,-1.1 -1.62,-1.64l-0.22 -0.23c-7.61,-7.69 -13.63,-13.77 -15.24,-25.98 -0.58,-4.4 -0.09,-9.93 0.92,-15.78 4.04,3.58 7.55,7.23 9.94,10.79zm-22.28 -161.36c-0.86,7.01 -0.08,13.24 2.46,19.58 1.03,2.58 2.31,5.06 3.68,7.55 -6.68,-5.2 -11.93,-10.36 -14.86,-20.15 -3.08,-10.58 -0.86,-28.81 0.76,-42.13l0.19 -1.58c0.61,0.73 1.23,1.49 1.88,2.26l0.11 0.14c3.92,4.73 8.28,10.01 12.18,15.33 -3.2,6.69 -5.7,13.29 -6.4,19zm19.31 -7.15c-1.88,-3.98 -4.48,-8.14 -7.4,-12.28 3.06,-6.1 6.59,-12.18 9.6,-17.38l1.46 -2.52c0.18,0.63 0.37,1.26 0.57,1.9l0.09 0.33c1.78,6.02 3.88,13.1 5.44,20.04 -3.69,3.25 -7.07,6.59 -9.76,9.91zm16.57 11.33c0.69,-5.62 -0.11,-12.45 -1.57,-19.54 5.23,-4.44 10.96,-8.72 16.08,-12.55 0.81,-0.61 1.6,-1.2 2.37,-1.77l-0.2 1.56c-1.63,13.31 -3.87,31.55 -9.41,41.11 -5.42,9.21 -12.07,12.97 -20.24,16.61 6.37,-6.8 11.53,-13.66 12.97,-25.42zm-17.44 -4.2c0.89,0.1 1.78,-0.31 2.28,-1.06 2.27,-3.49 5.61,-7.07 9.44,-10.62 1.03,5.67 1.53,11.01 1.01,15.32 -1.51,12.29 -7.54,18.5 -15.17,26.36 -0.57,0.58 -1.15,1.18 -1.73,1.78 -0.44,-0.77 -0.88,-1.52 -1.31,-2.26 -5.45,-9.35 -9.74,-16.73 -8.25,-28.94 0.54,-4.42 2.4,-9.65 4.85,-15.07 3.01,4.48 5.5,8.89 6.92,12.93 0.3,0.84 1.07,1.45 1.96,1.56zm-19.85 83.37c0.32,7.06 2.14,13.06 5.71,18.9 1.46,2.38 3.12,4.61 4.89,6.82 -7.46,-4.01 -13.5,-8.22 -18.03,-17.39 -4.81,-9.92 -5.67,-28.27 -6.31,-41.67l-0.08 -1.58 2.36 2.03c4.66,4.01 9.85,8.49 14.59,13.09 -2.04,7.13 -3.4,14.05 -3.13,19.8zm36.08 -1.85c-0.27,-5.65 -2.2,-12.25 -4.83,-19 4.41,-5.25 9.34,-10.43 13.75,-15.06 0.7,-0.72 1.38,-1.44 2.04,-2.14l0.07 1.59c0.62,13.39 1.46,31.74 -2.39,42.09 -3.8,9.99 -9.73,14.8 -17.18,19.75 5.15,-7.77 9.09,-15.38 8.54,-27.23zm-18.02 -1.24c0.04,0 0.08,0 0.12,0 0.91,-0.05 1.7,-0.59 2.06,-1.42 1.66,-3.81 4.35,-7.91 7.54,-12.04 1.96,5.41 3.35,10.6 3.55,14.94 0.58,12.36 -4.33,19.49 -10.56,28.54 -0.45,0.66 -0.91,1.33 -1.38,2.01 -0.47,-0.57 -0.95,-1.14 -1.41,-1.7l-0.26 -0.31c-6.93,-8.31 -12.41,-14.87 -12.98,-27.17 -0.21,-4.44 0.75,-9.91 2.26,-15.66 3.71,3.92 6.91,7.85 8.99,11.61 0.42,0.74 1.22,1.2 2.07,1.2zm-2.71 -37.61c0.24,-0.64 0.47,-1.27 0.71,-1.9l1.01 2.08c2.77,5.64 6.02,12.28 8.73,18.86 -3.09,3.82 -5.87,7.67 -7.96,11.4 -2.52,-3.61 -5.79,-7.28 -9.35,-10.88 1.99,-6.51 4.45,-13.1 6.55,-18.73l0.31 -0.83zm0.52 -126.4c-1.83,6.82 -1.93,13.09 -0.3,19.73 0.66,2.7 1.58,5.33 2.59,7.98 -5.89,-6.08 -10.37,-11.91 -11.9,-22.02 -1.56,-10.9 3.19,-28.65 6.66,-41.61l0.41 -1.54c0.5,0.82 1.01,1.65 1.54,2.51l0.09 0.15c3.22,5.23 6.8,11.06 9.92,16.87 -4.11,6.18 -7.51,12.36 -9.01,17.93zm20.13 -4.4c-1.3,-4.2 -3.3,-8.68 -5.6,-13.19 3.88,-5.6 8.22,-11.14 11.94,-15.87 0.61,-0.78 1.21,-1.54 1.79,-2.29l0.34 2.29c0.93,6.21 2,13.51 2.58,20.6 -4.1,2.71 -7.92,5.54 -11.05,8.46zm14.82 13.53c1.47,-5.47 1.64,-12.34 1.18,-19.57 5.8,-3.67 12.08,-7.11 17.69,-10.2 0.88,-0.48 1.75,-0.96 2.59,-1.42l-0.41 1.53c-3.49,12.95 -8.26,30.69 -15.08,39.39 -6.67,8.37 -13.77,11.16 -22.38,13.63 7.27,-5.84 13.34,-11.91 16.41,-23.36zm-16.68 -6.59c0.87,0.23 1.81,-0.06 2.4,-0.73 2.74,-3.13 6.55,-6.22 10.84,-9.2 0.23,5.75 -0.02,11.11 -1.15,15.31 -3.21,11.95 -10.05,17.26 -18.72,23.98l-0.51 0.4c-0.47,0.37 -0.96,0.75 -1.44,1.13 -0.33,-0.81 -0.65,-1.61 -0.98,-2.43 -4.08,-10 -7.31,-17.91 -4.11,-29.8 1.15,-4.29 3.72,-9.22 6.91,-14.24 2.35,4.85 4.2,9.57 5.04,13.77 0.18,0.87 0.86,1.58 1.72,1.81zm62.22 -148.56c-10.57,6.84 -14.24,14.97 -17.76,24.3 -1.98,-9.19 -3.1,-16.92 1.48,-27.03 4.37,-9.66 17.26,-21.57 26.69,-30.27 0.71,-0.65 1.4,-1.3 2.08,-1.92l-0.05 2.25c-0.17,8.39 -0.38,18.78 -1.71,27.73 -4.06,1.39 -7.75,3.01 -10.73,4.94zm11.63 9.81c1.44,-3.2 2.48,-7.02 3.24,-11.18 8.45,-2.57 18.38,-4.32 26.41,-5.73 0.96,-0.16 1.89,-0.32 2.8,-0.49l-1.26 1.87c-7.26,10.8 -17.21,25.58 -26.24,31.43 -9.37,6.06 -17.24,6.08 -26.7,5.45 8.86,-4.91 16.5,-9.74 21.75,-21.35zm-4.24 -1.9c-4.98,11 -12.33,15.11 -21.62,20.2 3.67,-9.86 6.65,-17.67 16.75,-24.21 2.03,-1.31 4.5,-2.47 7.24,-3.52 -0.62,2.8 -1.39,5.36 -2.37,7.53zm-61.19 59.1c-2.95,6.43 -4.09,12.59 -3.6,19.41 0.2,2.76 0.66,5.5 1.21,8.27 -4.78,-6.95 -8.22,-13.45 -8.03,-23.66 0.28,-11.01 7.94,-27.72 13.53,-39.91l0.67 -1.45c0.35,0.88 0.72,1.79 1.09,2.72l0.07 0.16c2.3,5.7 4.84,12.05 6.94,18.3 -5.09,5.41 -9.47,10.93 -11.88,16.16zm20.58 -0.98c-0.57,-4.35 -1.79,-9.11 -3.31,-13.93 4.77,-4.89 9.97,-9.62 14.43,-13.66l0.64 -0.58c0.52,-0.47 1.03,-0.93 1.52,-1.38l-0.05 2.3c-0.13,6.28 -0.29,13.67 -0.91,20.75 -4.5,1.99 -8.74,4.14 -12.32,6.5zm12.36 15.8c2.36,-5.14 3.67,-11.89 4.44,-19.09 6.33,-2.65 13.1,-5.01 19.15,-7.11 0.95,-0.34 1.88,-0.66 2.79,-0.97l-0.67 1.43c-5.6,12.19 -13.28,28.89 -21.46,36.33 -7.97,7.13 -15.44,8.71 -24.35,9.72 8.14,-4.55 15.15,-9.53 20.1,-20.31zm-15.35 -9.27c0.83,0.37 1.78,0.25 2.49,-0.33 3.23,-2.62 7.5,-5.04 12.23,-7.26 -0.74,5.71 -1.89,10.96 -3.7,14.91 -5.17,11.25 -12.8,15.34 -22.47,20.53 -0.73,0.38 -1.45,0.78 -2.19,1.17 -0.18,-0.81 -0.36,-1.61 -0.53,-2.41l-0.03 -0.13c-2.35,-10.55 -4.2,-18.88 0.94,-30.07 1.85,-4.04 5.22,-8.47 9.2,-12.88 1.5,5.16 2.54,10.12 2.67,14.4 0.03,0.89 0.58,1.7 1.39,2.07zm44.51 555.46c4.31,5.61 9.24,9.52 15.51,12.28 2.55,1.13 5.2,2.01 7.92,2.83 -8.42,0.94 -15.8,0.91 -24.76,-4.05 -9.63,-5.42 -20.85,-20 -29.03,-30.65l-0.97 -1.26c0.95,0.1 1.92,0.21 2.92,0.31l0.21 0.03c6.12,0.65 12.93,1.38 19.44,2.47 2.4,7.01 5.25,13.47 8.76,18.04zm8.78 -18.57c-4.13,-1.53 -8.91,-2.69 -13.91,-3.63 -2.09,-6.48 -3.84,-13.28 -5.34,-19.11l-0.18 -0.73c-0.19,-0.7 -0.36,-1.4 -0.54,-2.08l2.05 1.13c5.49,3.06 11.95,6.67 17.94,10.54 -0.35,4.89 -0.43,9.63 -0.02,13.88zm19.8 -3.45c-3.46,-4.49 -8.82,-8.81 -14.84,-12.87 0.62,-6.81 1.7,-13.87 2.68,-20.18 0.15,-1 0.3,-1.97 0.44,-2.92l0.97 1.27c8.18,10.66 19.37,25.25 22.13,35.94 2.59,10.37 0.47,17.68 -2.81,25.99 -0.22,-9.31 -1.34,-17.81 -8.57,-27.23zm-15.42 9.15c0.72,-0.55 1.06,-1.45 0.88,-2.34 -0.81,-4.08 -0.95,-8.96 -0.69,-14.17 4.7,3.34 8.82,6.8 11.47,10.25 7.54,9.83 7.59,18.47 7.65,29.44 0.01,0.81 0.02,1.62 0.02,2.45 -0.85,-0.24 -1.69,-0.48 -2.52,-0.71 -10.45,-2.88 -18.7,-5.16 -26.21,-14.94 -2.71,-3.53 -5.06,-8.57 -7.11,-14.15 5.29,1.11 10.17,2.52 14.02,4.42 0.8,0.4 1.78,0.3 2.49,-0.25zm49.32 74.78c5.51,4.44 11.22,7.07 17.97,8.29 2.75,0.5 5.53,0.73 8.37,0.88 -7.96,2.9 -15.13,4.6 -25.02,1.89 -10.63,-3 -24.98,-14.53 -35.5,-22.99l-1.21 -0.97c0.68,-0.09 1.36,-0.18 2.06,-0.27l1.02 -0.13c6.11,-0.81 12.92,-1.69 19.53,-2.17 3.99,6.25 8.28,11.85 12.78,15.47zm4.13 -20.11c-4.38,-0.52 -9.3,-0.53 -14.37,-0.26 -3.57,-5.81 -6.88,-12.01 -9.71,-17.32l-0.33 -0.61c-0.36,-0.66 -0.7,-1.32 -1.04,-1.95l2.24 0.62c6.07,1.68 13.21,3.67 19.94,6.02 0.82,4.84 1.87,9.46 3.27,13.5zm33.2 16.44c-2.42,-9 -5.52,-17 -14.78,-24.45 -4.42,-3.56 -10.66,-6.5 -17.47,-9.02 -1.01,-6.77 -1.63,-13.88 -2.18,-20.24l-0.04 -0.51c-0.07,-0.82 -0.14,-1.64 -0.21,-2.43l1.25 1.01c10.47,8.43 24.79,19.98 30,29.72 4.98,9.47 4.66,17.07 3.43,25.92zm-29.95 -11.1c0.87,0.19 1.8,-0.14 2.36,-0.83 0.56,-0.7 0.68,-1.68 0.3,-2.49 -1.76,-3.76 -3.05,-8.48 -4.03,-13.6 5.36,2.13 10.18,4.54 13.57,7.27 9.67,7.77 11.76,16.16 14.41,26.78 0.2,0.79 0.4,1.59 0.6,2.4 -0.88,-0.04 -1.76,-0.07 -2.62,-0.09 -10.83,-0.35 -19.39,-0.63 -29,-8.37 -3.47,-2.79 -6.94,-7.13 -10.25,-12.06 5.39,-0.17 10.47,0.05 14.66,0.99zm68.67 58.58c5.28,2.28 10.36,3.38 15.73,3.38 1.26,0 2.53,-0.06 3.82,-0.18 2.77,-0.26 5.5,-0.77 8.28,-1.38 -6.88,4.9 -13.33,8.46 -23.57,8.49 -11.06,-0.06 -27.99,-7.34 -40.35,-12.66l-1.46 -0.63c0.88,-0.37 1.78,-0.76 2.7,-1.15l0.15 -0.06c5.67,-2.41 12,-5.08 18.23,-7.3 5.53,4.95 11.17,9.21 16.47,11.49zm-1.42 -20.48c-4.36,0.67 -9.1,1.98 -13.92,3.59 -5,-4.64 -9.86,-9.74 -14.01,-14.09l-0.76 -0.8c-0.42,-0.45 -0.84,-0.88 -1.25,-1.31l2.33 0c6.3,0 13.71,0.01 20.83,0.48 2.09,4.44 4.34,8.62 6.78,12.13zm15.59 -12.62c-5.21,-2.25 -12.01,-3.42 -19.25,-4.04 -2.8,-6.25 -5.3,-12.94 -7.54,-18.92 -0.35,-0.95 -0.7,-1.87 -1.03,-2.76l1.47 0.64c12.35,5.33 29.26,12.64 36.89,20.63 7.34,7.79 9.07,15.2 10.27,24.06 -4.74,-8.03 -9.89,-14.91 -20.81,-19.61zm-11.03 16.9c0.9,-0.05 1.7,-0.61 2.05,-1.42 0.36,-0.84 0.22,-1.79 -0.38,-2.48 -2.7,-3.16 -5.21,-7.37 -7.54,-12.03 5.74,0.62 11.04,1.65 15.04,3.38 11.39,4.91 15.67,12.43 21.08,21.96 0.4,0.71 0.8,1.42 1.22,2.15 -0.72,0.17 -1.44,0.35 -2.15,0.52l-0.4 0.09c-10.54,2.56 -18.86,4.57 -30.19,-0.32 -4.1,-1.76 -8.6,-5.02 -13.12,-8.89 5.15,-1.6 10.11,-2.74 14.39,-2.96zm25 -24.62c-8.32,-8.7 -25.74,-16.23 -38.47,-21.72l-0.29 -0.12c-2.27,-0.99 -4.4,-1.91 -6.31,-2.77 -0.88,-0.39 -1.9,-0.22 -2.6,0.46 -0.7,0.67 -0.91,1.68 -0.56,2.58 0.91,2.31 1.9,4.93 2.94,7.71l0.1 0.28c1.98,5.29 4.2,11.19 6.66,16.9 -6.33,-0.32 -12.78,-0.32 -18.65,-0.32l-0.45 0c-2.07,0 -4.01,-0.01 -5.85,-0.03 0.22,-1.62 0.45,-3.22 0.68,-4.75l0.02 -0.16c1.67,-11.06 3.11,-20.61 -3.33,-32.87 -5.68,-10.6 -20.44,-22.5 -31.23,-31.19l-0.3 -0.25c-1.9,-1.54 -3.69,-2.97 -5.28,-4.3 -0.74,-0.61 -1.78,-0.71 -2.63,-0.25 -0.85,0.46 -1.33,1.38 -1.23,2.34 0.28,2.64 0.55,5.76 0.79,8.52 0.48,5.62 1.03,11.89 1.86,18.05 -6.01,-2 -12.23,-3.73 -17.89,-5.29l-0.16 -0.05c-2.33,-0.65 -4.51,-1.26 -6.53,-1.84 0.7,-1.79 1.41,-3.53 2.04,-5.07 4.24,-10.35 7.9,-19.29 4.54,-32.73 -3,-11.62 -14.52,-26.65 -22.95,-37.65 -1.49,-1.93 -3.02,-3.92 -4.36,-5.72 -0.57,-0.77 -1.56,-1.12 -2.49,-0.87 -0.93,0.25 -1.62,1.02 -1.75,1.98 -0.34,2.56 -0.79,5.42 -1.26,8.45 -0.85,5.58 -1.81,11.81 -2.46,18 -5.37,-3.36 -11,-6.5 -16.12,-9.35 -1.85,-1.03 -3.49,-1.95 -5.05,-2.83 0.91,-1.38 1.82,-2.75 2.72,-4.08 6.28,-9.26 11.71,-17.26 11.2,-31.09 -0.54,-12 -8.72,-29.07 -14.7,-41.55l-0.16 -0.33c-1.06,-2.21 -2.05,-4.28 -2.92,-6.16 -0.4,-0.88 -1.26,-1.41 -2.26,-1.37 -0.96,0.05 -1.8,0.67 -2.12,1.58 -0.85,2.38 -1.85,5.06 -2.92,7.89l-0.05 0.13c-2,5.28 -4.21,11.18 -6.13,17.1 -4.55,-4.38 -9.41,-8.6 -13.84,-12.44l-0.06 -0.06c-1.16,-1 -2.27,-1.96 -3.33,-2.89 0.85,-0.94 1.7,-1.87 2.61,-2.86 7.58,-8.23 14.13,-15.35 15.66,-29.1 1.25,-11.95 -4.33,-30.04 -8.39,-43.25 -0.77,-2.47 -1.48,-4.79 -2.09,-6.87 -0.27,-0.93 -1.07,-1.59 -2.03,-1.68 -0.98,-0.1 -1.89,0.4 -2.34,1.25 -1.2,2.27 -2.62,4.8 -4.12,7.49 -2.75,4.93 -5.82,10.44 -8.58,16.02 -3.87,-5.01 -8.05,-9.9 -11.87,-14.35l-0.06 -0.07c-0.89,-1.04 -1.76,-2.05 -2.59,-3.03 0.99,-0.78 1.99,-1.57 2.94,-2.31l0.08 -0.07c8.86,-6.86 16.51,-12.79 20.33,-26.09 3.22,-11.58 0.75,-30.34 -1.05,-44.04 -0.34,-2.55 -0.66,-4.96 -0.91,-7.13 -0.12,-0.95 -0.79,-1.73 -1.73,-1.99 -0.93,-0.25 -1.92,0.08 -2.51,0.85 -1.53,1.99 -3.31,4.2 -5.32,6.7 -3.54,4.41 -7.48,9.33 -11.14,14.37 -2.97,-5.58 -6.28,-11.1 -9.3,-16.12l-0.04 -0.07c-1.08,-1.81 -2.1,-3.5 -3.05,-5.12 1.36,-0.9 2.72,-1.8 4.01,-2.64 9.41,-6.09 17.54,-11.35 22.47,-24.29 4.19,-11.26 3.32,-30.17 2.68,-43.97l0 -0.11c-0.12,-2.54 -0.23,-4.92 -0.3,-7.06 -0.03,-0.97 -0.64,-1.81 -1.55,-2.13 -0.91,-0.34 -1.92,-0.09 -2.57,0.63 -1.7,1.85 -3.66,3.91 -5.87,6.23 -3.9,4.09 -8.24,8.66 -12.32,13.38 -2.49,-5.81 -5.32,-11.59 -7.9,-16.84 -0.65,-1.34 -1.28,-2.62 -1.89,-3.87 0.97,-0.42 1.97,-0.88 2.91,-1.28l0.1 -0.04c10.29,-4.44 19.18,-8.28 26.21,-20.21 6.03,-10.41 8.33,-29.19 10.02,-42.91l0.01 -0.11c0.31,-2.52 0.6,-4.89 0.9,-7.01 0.13,-0.95 -0.33,-1.88 -1.18,-2.36 -0.84,-0.47 -1.88,-0.4 -2.64,0.2 -2.06,1.6 -4.49,3.41 -6.83,5.16 -4.53,3.39 -9.58,7.17 -14.39,11.15 -1.48,-6.14 -3.31,-12.31 -4.97,-17.92l-0.05 -0.2c-0.62,-2.07 -1.19,-4.02 -1.72,-5.86 1.29,-0.37 2.58,-0.74 3.82,-1.08l0.09 -0.03c10.82,-2.96 20.16,-5.53 28.79,-16.36 7.43,-9.47 12.35,-27.75 15.94,-41.09l0.03 -0.13c0.66,-2.45 1.28,-4.74 1.86,-6.8 0.26,-0.93 -0.06,-1.91 -0.83,-2.5 -0.76,-0.59 -1.8,-0.66 -2.64,-0.18 -2.3,1.32 -4.93,2.77 -7.49,4.17 -4.96,2.73 -10.49,5.77 -15.81,9.03 -0.61,-6.28 -1.55,-12.64 -2.41,-18.43l-0.01 -0.11c-0.22,-1.43 -0.42,-2.81 -0.61,-4.15 1.03,-0.1 2.1,-0.23 3.1,-0.33l0.16 -0.02c11.16,-1.12 20.81,-2.09 31.13,-11.34 8.91,-8.1 16.82,-25.3 22.6,-37.86 1.08,-2.35 2.09,-4.55 3.03,-6.51 0.41,-0.87 0.26,-1.9 -0.4,-2.61 -0.66,-0.71 -1.67,-0.94 -2.58,-0.61 -2.4,0.88 -5.14,1.84 -8.08,2.86 -5.35,1.86 -11.31,3.94 -17.1,6.27 0.45,-6.29 0.59,-12.72 0.71,-18.57l0.01 -0.18c0.02,-1.11 0.04,-2.17 0.07,-3.22 0.66,0.05 1.35,0.09 2,0.14 3.34,0.24 6.55,0.46 9.71,0.46 7.35,0 14.47,-1.23 22.55,-6.46 9.84,-6.37 19.68,-21 27.58,-32.75l0.09 -0.13c1.53,-2.27 2.97,-4.41 4.29,-6.3 0.54,-0.78 0.56,-1.8 0.04,-2.6 -0.52,-0.79 -1.45,-1.19 -2.39,-1.01 -2.49,0.49 -5.4,1 -8.23,1.49 -7.85,1.38 -16.79,2.95 -24.83,5.22 1.08,-8.52 1.28,-17.9 1.44,-26.13l0.01 -0.23c0.05,-2.71 0.1,-5.27 0.19,-7.54 0.03,-0.95 -0.51,-1.81 -1.38,-2.2 -0.86,-0.39 -1.87,-0.21 -2.56,0.45 -1.81,1.74 -3.89,3.66 -6.09,5.7 -10.26,9.46 -23.02,21.25 -27.78,31.77 -5.65,12.48 -3.59,21.8 -1.21,32.6 0.22,0.97 0.45,2.03 0.68,3.11 -1.32,1.22 -2.69,2.47 -4.17,3.81l-0.08 0.08c-4.13,3.74 -8.65,7.84 -12.91,12.09 -1.99,-5.69 -4.26,-11.33 -6.31,-16.41l-0.04 -0.11c-1.13,-2.8 -2.2,-5.44 -3.09,-7.79 -0.34,-0.9 -1.19,-1.5 -2.16,-1.53 -0.02,0 -0.04,0 -0.06,0 -0.95,0 -1.8,0.55 -2.18,1.41 -0.88,1.99 -1.89,4.19 -2.96,6.54 -5.76,12.57 -13.66,29.78 -13.97,41.77 -0.02,1.39 0.01,2.76 0.11,4.07 0.82,11.33 5.87,18.4 11.73,26.59 0.88,1.23 1.79,2.5 2.7,3.82 -1.01,1.3 -2.07,2.65 -3.18,4.07l-0.15 0.19c-3.44,4.37 -7.2,9.17 -10.7,14.07 -2.92,-5.28 -6.1,-10.47 -8.96,-15.13l-0.05 -0.07c-1.59,-2.59 -3.09,-5.03 -4.37,-7.2 -0.49,-0.83 -1.43,-1.29 -2.38,-1.15 -0.97,0.14 -1.74,0.83 -1.97,1.76 -0.55,2.18 -1.2,4.6 -1.83,6.96 -3.58,13.35 -8.47,31.63 -6.77,43.49 0.21,1.38 0.47,2.72 0.79,4 2.7,11.04 8.88,17.17 16.02,24.27 1.2,1.18 2.54,2.52 3.9,3.92 -1.05,1.86 -2.19,3.84 -3.42,5.96l-0.04 0.06c-2.79,4.82 -5.85,10.09 -8.62,15.43 -3.64,-4.83 -7.51,-9.52 -11,-13.74l-0.12 -0.14c-1.91,-2.31 -3.71,-4.49 -5.27,-6.44 -0.6,-0.76 -1.59,-1.07 -2.52,-0.8 -0.93,0.26 -1.6,1.05 -1.71,2.02 -0.23,2.12 -0.51,4.48 -0.82,7l-0.01 0.12c-1.67,13.72 -3.96,32.5 -0.61,44.03 0.4,1.33 0.85,2.63 1.34,3.85 4.22,10.55 11.19,15.76 19.27,21.8 1.15,0.85 2.42,1.82 3.73,2.82 -0.57,1.55 -1.17,3.16 -1.8,4.86l-0.08 0.2c-1.95,5.21 -4.08,10.92 -5.92,16.64 -4.38,-4.15 -8.99,-8.14 -13.14,-11.71l-0.19 -0.17c-2.25,-1.94 -4.38,-3.77 -6.23,-5.43 -0.71,-0.64 -1.74,-0.79 -2.62,-0.37 -0.87,0.42 -1.4,1.31 -1.34,2.28 0.13,2.12 0.24,4.49 0.36,7.01l0.01 0.16c0.65,13.8 1.55,32.7 6.78,43.5 0.62,1.24 1.28,2.45 1.97,3.58 5.93,9.69 13.68,13.67 22.64,18.28l0.18 0.09c1.29,0.66 2.64,1.37 3.98,2.09 -0.54,2.04 -1.14,4.23 -1.8,6.58l-0.1 0.37c-1.5,5.35 -3.14,11.22 -4.49,17.07 -4.72,-3.76 -9.64,-7.33 -14.06,-10.54l-0.09 -0.06c-2.46,-1.78 -4.79,-3.47 -6.81,-5 -0.77,-0.58 -1.81,-0.64 -2.64,-0.15 -0.84,0.5 -1.29,1.43 -1.15,2.39 0.31,2.05 0.61,4.34 0.94,6.78l0.04 0.33c1.82,13.69 4.32,32.45 10.45,42.77 0.72,1.2 1.48,2.35 2.26,3.4 6.72,9.17 14.78,12.48 24.12,16.32 1.16,0.48 2.44,1.01 3.76,1.57 -0.18,1.84 -0.38,3.75 -0.59,5.78 -0.58,5.53 -1.22,11.59 -1.57,17.58 -5.28,-2.93 -10.74,-5.65 -15.66,-8.08 -2.74,-1.36 -5.34,-2.64 -7.61,-3.82 -0.86,-0.46 -1.89,-0.34 -2.63,0.29 -0.74,0.62 -1.03,1.62 -0.73,2.54 0.67,2.06 1.38,4.38 2.15,6.86 4.09,13.2 9.68,31.28 17.45,40.44 0.9,1.04 1.84,2.04 2.8,2.97 8.17,7.92 16.66,9.85 26.51,12.09l0.2 0.04c1.29,0.3 2.66,0.62 4,0.95 0.1,1.82 0.19,3.72 0.27,5.75l0.01 0.13c0.24,5.56 0.51,11.64 1.05,17.62 -5.66,-2.12 -11.46,-4.01 -16.69,-5.7l-0.18 -0.06c-2.85,-0.92 -5.55,-1.79 -7.91,-2.6 -0.91,-0.31 -1.91,-0.05 -2.56,0.67 -0.64,0.73 -0.78,1.76 -0.35,2.62 0.97,1.95 2.03,4.13 3.14,6.46 6,12.46 14.21,29.53 23.25,37.45 1.05,0.91 2.13,1.76 3.2,2.53 9.25,6.64 17.94,7.3 28.01,8.07 1.47,0.11 3.02,0.24 4.57,0.38 0.63,2.3 1.28,4.84 1.98,7.55 1.38,5.38 2.9,11.28 4.66,17.02 -5.99,-0.91 -12.07,-1.57 -17.54,-2.15 -3.04,-0.33 -5.91,-0.64 -8.43,-0.95 -0.95,-0.12 -1.89,0.34 -2.37,1.18 -0.47,0.85 -0.4,1.88 0.2,2.63 1.36,1.71 2.83,3.64 4.42,5.7 8.44,10.97 19.99,25.98 30.46,31.87 1.21,0.67 2.44,1.29 3.66,1.83 5.68,2.51 10.83,3.31 15.97,3.31 4.28,0 8.55,-0.56 13.1,-1.16l0.16 -0.02c1.58,-0.21 3.23,-0.41 4.91,-0.6 0.04,0.15 0.09,0.3 0.17,0.45 1.21,2.17 2.54,4.66 3.95,7.3l0.09 0.17c2.62,4.91 5.49,10.28 8.55,15.44 -6.02,0.52 -12.07,1.31 -17.51,2.02 -3.04,0.41 -5.91,0.78 -8.46,1.07 -0.96,0.11 -1.75,0.78 -2.01,1.71 -0.27,0.93 0.05,1.92 0.81,2.51 1.59,1.24 3.33,2.64 5.19,4.13l0.44 0.35c10.79,8.68 25.57,20.56 37.16,23.83 1.35,0.38 2.69,0.68 3.99,0.91 2.44,0.44 4.73,0.64 6.92,0.64 7.89,0 14.47,-2.54 21.83,-5.38 1.49,-0.57 3.05,-1.16 4.65,-1.75 1.76,1.77 3.71,3.82 5.78,5.99l0.07 0.07c3.84,4.03 8.05,8.44 12.4,12.6 -5.67,2.11 -11.29,4.48 -16.33,6.62l-0.55 0.24c-2.62,1.1 -5.1,2.15 -7.32,3.04 -0.89,0.36 -1.47,1.22 -1.48,2.19 0,0.97 0.57,1.83 1.46,2.2 2.01,0.83 4.25,1.79 6.66,2.83 12.72,5.48 30.15,12.98 42.17,13.04 1.38,-0.01 2.75,-0.07 4.09,-0.19 11.35,-1.04 18.34,-6.23 26.43,-12.24l0.14 -0.11c1.56,-1.15 3.18,-2.35 4.87,-3.55 0.44,-0.31 0.76,-0.76 0.91,-1.28 0.28,-0.47 0.38,-1.01 0.3,-1.55 -0.31,-2.11 -0.56,-4.16 -0.81,-6.17 -1.36,-11.09 -2.54,-20.68 -12.04,-30.78z"/>
   <path class="fil0" d="M151.02 366.59c0.2,-0.8 0.4,-1.59 0.59,-2.37 2.41,-9.91 4.32,-17.74 13.27,-25.13 7.82,-6.45 23.88,-11.22 35.61,-14.7l2.57 -0.76 -0.98 1.9c-5.69,11.06 -13.49,26.19 -21.42,32.73 -9,7.43 -17.1,7.78 -27.35,8.23l-0.25 0.01c-0.67,0.03 -1.35,0.05 -2.04,0.09zm-3.35 4.6c0.14,0.03 0.29,0.04 0.43,0.04 0.04,0 0.09,0 0.13,-0.01 1.81,-0.11 3.57,-0.18 5.27,-0.26 10.66,-0.46 19.85,-0.85 30.01,-9.24 8.63,-7.13 16.35,-22.11 22.56,-34.15l0.13 -0.27c1.18,-2.27 2.29,-4.43 3.31,-6.33 0.43,-0.8 0.33,-1.78 -0.25,-2.49 -0.58,-0.7 -1.53,-0.97 -2.4,-0.7 -2.22,0.71 -4.67,1.44 -7.65,2.32 -12.77,3.79 -28.66,8.51 -37.17,15.53 -10.11,8.35 -12.27,17.24 -14.78,27.53l-0.03 0.09c-0.4,1.66 -0.82,3.39 -1.29,5.17 -0.18,0.69 -0.02,1.43 0.43,1.99 0.33,0.4 0.79,0.68 1.3,0.78z"/>
   <path class="fil0" d="M370.36 860.75c-6.34,3.9 -10.72,2.69 -12.53,0.46 -1.74,-2.12 -1.83,-6.03 1.85,-9.99 0.48,-0.51 1.05,-1.16 1.69,-1.91 4.67,-5.41 10,-10.92 15.77,-10.92 1.39,0 2.8,0.32 4.24,1.03 2.56,1.28 3.84,2.84 3.93,4.78 0.15,3.46 -3.69,9.62 -14.95,16.55zm-16.67 -8.97c-1.03,0.86 -2.11,1.73 -3.29,2.62 -6.81,5.13 -11.91,4.22 -14.23,1.88 -2.2,-2.23 -2.74,-6.68 1.04,-11.58 0.49,-0.64 1.06,-1.44 1.71,-2.36 4.74,-6.67 10.21,-13.52 16.78,-14.14 1.59,-0.15 3.23,0.06 4.94,0.72 3.06,1.17 4.69,2.81 5,5.01 0.2,1.48 -0.19,3.45 -1.42,5.83 -2.58,2.27 -4.73,4.75 -6.3,6.57 -0.6,0.69 -1.12,1.3 -1.57,1.77 -1.13,1.22 -2,2.45 -2.66,3.68zm-22.17 -7.93c-0.63,0.5 -1.25,0.99 -1.93,1.5 -7.62,5.75 -13.34,4.72 -15.93,2.11 -2.47,-2.5 -3.07,-7.48 1.16,-12.98 0.55,-0.71 1.19,-1.61 1.92,-2.63 5.3,-7.48 11.43,-15.15 18.79,-15.85 1.77,-0.17 3.62,0.07 5.54,0.81 3.41,1.32 5.24,3.16 5.59,5.62 0.16,1.18 -0.03,2.66 -0.65,4.38 -5.02,3.64 -8.88,9.05 -11.34,12.51 -0.6,0.85 -1.13,1.6 -1.59,2.19 -0.6,0.78 -1.11,1.56 -1.56,2.34zm-23.56 -9.45c-3.89,3.95 -8,4.19 -10.46,2.55 -2.72,-1.82 -4.58,-6.65 -0.85,-14.29 6.61,-13.55 13.18,-18.59 17.11,-18.79 2.21,-0.12 4.12,1.17 5.84,3.94 0.98,1.55 1.49,3.12 1.64,4.7 0.18,1.88 -0.19,3.76 -0.89,5.63 -3.55,3.53 -6.37,7.5 -8.37,10.32 -0.68,0.95 -1.27,1.79 -1.78,2.45 -0.91,1.18 -1.64,2.34 -2.24,3.49zm76.33 21.19c0.21,-0.22 0.41,-0.44 0.6,-0.65 -0.19,0.21 -0.39,0.43 -0.6,0.65zm105.59 -43.26l-3.86 3.62c3.9,4.18 2.99,8.06 0.84,10.3 -3.3,3.41 -9.96,3.98 -16.33,-1.57 -0.91,-0.79 -4,-3.62 -7.87,-7.15 -12.22,-11.17 -18.13,-16.56 -21.27,-18.91 -0.35,-0.34 -0.58,-0.57 -0.67,-0.67l-0.11 0.1c-2.25,-1.53 -2.75,-1.07 -3.63,-0.26l-1.94 1.79 1.78 1.95c0.65,0.71 6.46,6.14 15.26,14.34 4.56,4.27 9.29,8.68 9.7,9.1 4.69,5.02 4.54,10.01 2.33,12.73 -2.32,2.84 -7.88,4.4 -15.9,-0.54 -2.39,-1.47 -4.74,-3.07 -6.99,-4.76l-1.34 -1 0 0.01c-2.39,-2 -8.01,-7.04 -12.68,-11.22 -7.98,-7.16 -11.79,-10.58 -13.87,-12.06 -0.14,-0.13 -0.22,-0.21 -0.23,-0.23l-0.04 0.04c-1.68,-1.15 -2.14,-0.91 -2.99,-0.49 -1.57,0.8 -1.94,2.89 -0.73,4.18l0 0c0.07,0.07 0.07,0.07 17.54,16.68l9.38 8.92c4.69,5.02 4.54,10 2.33,12.73 -2.32,2.83 -7.88,4.39 -15.9,-0.54 -1.9,-1.17 -3.34,-1.08 -12.49,-8.52 -13.58,-11.04 -13.58,-11.04 -14.6,-11.11l0 0c-2.34,-0.15 -3.71,2.61 -2.16,4.38 0.66,0.77 -5.72,-5.08 7.51,6.94 5.03,4.57 5.94,6.04 6.37,6.47 4.28,4.59 3.2,8.97 1.19,11.43 -2.11,2.58 -7.17,3.99 -14.54,-0.53 -1.4,-0.87 -3.85,-2.56 -6.69,-4.53 -0.29,-0.2 -0.65,-0.46 -0.97,-0.7 -0.09,0.12 -0.2,0.23 -0.29,0.35 2.64,-3.33 3.98,-6.58 3.84,-9.6 -0.11,-2.54 -1.32,-6.11 -6.45,-8.66 -4.5,-2.25 -8.75,-1.76 -12.54,-0.04 0.04,-0.71 0.02,-1.41 -0.07,-2.09 -0.4,-2.88 -2.17,-6.81 -8.28,-9.17 -3.6,-1.38 -6.93,-1.37 -9.98,-0.51 0,0 0,0 0,0 0.01,-0.65 -0.01,-1.29 -0.1,-1.92 -0.45,-3.22 -2.43,-7.62 -9.28,-10.26 -6.34,-2.45 -11.96,-1.05 -16.74,1.91 -0.02,-2.69 -0.69,-5.45 -2.41,-8.21 -3.46,-5.54 -7.63,-6.53 -10.52,-6.38 -7.22,0.37 -14.86,8.08 -21.51,21.7 -2.21,4.53 -2.87,8.45 -2.56,11.69 0.42,4.37 2.62,7.5 5.19,9.22 2.93,1.95 7.05,2.55 11.26,0.81 -0.06,3.86 1.38,7.2 3.64,9.48 2.44,2.47 6.36,4.24 11.27,3.77 2.57,-0.25 5.42,-1.12 8.47,-2.81l0 0c0.19,3 1.41,5.6 3.22,7.42 2.18,2.21 5.67,3.79 10.06,3.37 2.9,-0.28 6.18,-1.43 9.71,-3.83l0 0c0.3,1.77 1.03,3.35 2.06,4.62 1.71,2.09 4.63,3.76 8.48,3.75 2.85,0 6.21,-0.9 9.97,-3.22 0.72,-0.44 1.41,-0.89 2.09,-1.33l0 124.09 0 0c0,4.79 3.95,8.68 8.82,8.68 4.87,0 8.82,-3.89 8.82,-8.68l0 -123.68c3.85,2.13 7.31,3 10.29,3 4.46,0 7.84,-1.93 9.83,-4.36 2.39,-2.93 4.39,-7.19 2.69,-11.92 0.13,0.1 4.53,3.42 4.63,3.49 10.93,6.73 19.09,3.86 22.76,-0.63 2.4,-2.94 3.51,-7.33 2.03,-12.08 0.01,-0.01 0,0 0.01,-0.01 11.29,7.31 19.74,4.43 23.48,-0.16 1.99,-2.45 3.09,-5.88 2.58,-9.67 7.75,4.59 15.56,3.04 19.89,-1.46 3.95,-4.1 5.23,-11.13 -0.79,-17.59z"/>
   <path class="fil0" d="M474.79 543.63c-1.25,4.17 -3.63,4.64 -6.32,3.43 -6.22,-2.79 -12.75,-4.32 -19.27,-5.77 -8.72,-1.93 -20.14,-4.33 -28.96,-5.63 -10.92,-1.61 -25.51,-1.9 -36.55,-1.59 -18.36,0.52 -27.9,2.84 -45.58,8.61 -7.15,2.34 -16.5,6.1 -23.56,8.82 -2.1,0.81 -4.18,1.31 -6.41,1.06 -3.02,-0.33 -5.16,-1.95 -6.52,-4.99 -1.54,-3.46 -2.07,-7.23 -2.54,-10.99 -0.79,-6.25 -1.1,-12.54 -0.17,-18.85 0.6,-4 1.72,-7.79 3.69,-11.24 4.79,-8.39 9.57,-16.78 14.36,-25.17 0.66,-1.16 1.41,-2.27 1.99,-3.48 1.35,-2.8 3.43,-8.96 4.48,-12.47 4.33,-14.41 33.88,-19.29 45.58,-23.51 -1.62,-1.25 -42.08,5.85 -51.19,17.36 -5.29,6.67 -16.62,17.33 -24.69,4.63 -2.57,-6.47 -1.91,-12.89 0.83,-19.14 1.48,-3.35 3.61,-6.17 6.39,-8.27 12.82,-9.65 25.88,-18.83 39.96,-26.02 8.7,-4.45 17.63,-8.04 27.09,-9.79 19.78,-3.65 42.92,4.01 71.97,53.48 6.22,10.59 10.95,23.99 14.82,30.42 0.07,0.12 0.1,0.27 0.17,0.45 -9.5,-3.96 -31.68,-5.09 -43.66,-3.96 -18.44,1.75 -35.7,11.49 -54.57,17.48 -13.14,4.87 -27.65,4.91 -26.13,16.15 6.16,-6.01 18.27,-9.28 26.34,-11.95 16.07,-5.3 20.53,-8.08 36.63,-11.94 10.06,-2.41 45.04,-10.92 67.01,2.9 0.92,0.31 1.9,1.03 2.46,1.88 6.95,10.41 11.48,22 13.07,34.95 0.54,4.4 0.59,8.83 -0.72,13.14zm-82.31 23.29l0 -25.72c22.8,-0.28 45.69,3.37 68.65,10.3 -26.57,9.29 -48.34,14.19 -68.65,15.42zm-72.6 -10.48c18.26,-7.72 36.58,-12.3 54.96,-14.22l0 22.58 0 2.26c-17.91,-0.81 -35.4,-4.48 -54.96,-10.62zm161.6 -26.04c-1.01,-10.4 -4,-20.1 -8.63,-29.09 -2.34,-4.54 -32.91,-65.12 -46.54,-81.57 -5.31,-6.41 -29.37,-30.81 -54.33,-26.43 -8.82,0.81 -17.29,3.41 -25.52,6.99 -17.99,7.83 -34.36,18.99 -50.1,31.3 -9.42,7.37 -13.14,21.75 -9.33,33.27 1.82,5.52 4.96,9.67 10.26,11.19 4.54,1.3 8.73,-0.09 12.72,-2.55 1.33,-0.82 2.59,-1.91 4.52,-1.35 -0.31,0.96 -0.53,1.87 -0.89,2.7 -0.3,0.69 -0.77,1.27 -1.13,1.92 -5.08,8.9 -10.24,17.76 -15.17,26.76 -1.46,2.65 -2.53,5.66 -3.35,8.65 -1.89,6.83 -1.9,13.86 -1.27,20.89 0.47,5.25 1.02,10.5 2.76,15.46 1.75,4.98 4.6,8.69 9.41,10.12 0.92,0.27 1.86,0.48 2.75,0.81 17.9,6.47 36.21,10.72 54.99,12.53 4.07,0.39 8.14,0.61 12.21,0.75l0 165.03c5.88,1.38 11.93,-3.25 17.64,-0.49l0 -164.66c0.96,-0.05 1.93,-0.06 2.89,-0.13 9.74,-0.59 19.41,-1.82 29.02,-3.67 16.5,-3.19 32.56,-8.24 48.33,-14.56 4,-1.6 6.53,-4.49 7.81,-8.9 1.43,-4.91 1.43,-9.93 0.95,-14.97z"/>
   <path class="fil0" d="M480.66 1215.5c-19.9,-18.51 -46.1,-34.53 -69.28,-47.13 0.38,-0.32 0.75,-0.62 1.13,-0.95 18.14,4.82 62.06,24.1 81.37,49.12 -4.54,-1.28 -8.98,-1.62 -13.22,-1.04zm-23.5 18.1c-10.95,-24.53 -37.8,-51.03 -51.56,-60.63 0.86,-0.62 1.71,-1.3 2.57,-1.97 17.56,10.69 48.25,32.34 60.2,49.29 -4.47,3.12 -8.27,7.6 -11.21,13.31zm-54 -69.06c10.34,-9.41 18.41,-20.59 24.76,-33.1 1.45,-0.39 2.8,-0.78 3.99,-1.14l0.85 -0.26c0.85,-0.26 1.76,-0.53 2.65,-0.85 -3.37,10.76 -13.38,23.65 -24.48,33.65 -0.22,0.09 -0.44,0.19 -0.62,0.35 -2.37,1.96 -4.34,3.35 -7.27,5.04 0.08,-1.32 0.12,-2.53 0.12,-3.69zm-3.3 -14.8c-1.34,-1.28 -3.15,-2.16 -5.27,-2.5 -3.44,-0.54 -19.39,-0.54 -22.83,0 -2.14,0.34 -3.94,1.22 -5.27,2.5 -1.81,-4.46 -3.06,-9.24 -3.47,-13.24 6.54,0.9 33.76,0.9 40.3,0 -0.4,4 -1.66,8.78 -3.46,13.24zm-1.63 21.76c-0.09,0.26 -0.16,0.52 -0.16,0.81 0,0.06 0.02,0.12 0.03,0.18 -0.08,0.58 -0.16,1.14 -0.25,1.72 -0.29,1.8 -1.75,3.04 -3.9,3.31 -1.68,0.23 -3.37,0.39 -5.06,0.51l0 -26.97c1.66,0.15 3.33,0.34 5,0.6 1.06,0.17 3.56,0.83 3.97,3.4 0.06,0.31 0.1,0.63 0.16,0.95 0.36,2.83 0.57,4.95 0.65,7.01 0,0.38 0.02,0.75 0.02,1.14 0,0.07 0,0.15 0,0.22 0,2.32 -0.16,4.7 -0.46,7.12zm-29.73 2.71c-0.1,-0.58 -0.17,-1.14 -0.25,-1.72 0,-0.06 0.02,-0.12 0.02,-0.18 0,-0.29 -0.06,-0.55 -0.16,-0.81 -0.3,-2.42 -0.45,-4.8 -0.46,-7.12 0,-0.07 0,-0.15 0,-0.22 0,-0.39 0.02,-0.76 0.03,-1.14 0.07,-2.06 0.28,-4.18 0.65,-7.01 0.05,-0.32 0.09,-0.64 0.16,-0.95 0.41,-2.57 2.9,-3.23 3.96,-3.4 1.67,-0.26 3.33,-0.45 5,-0.6l0 26.97c-1.69,-0.12 -3.37,-0.28 -5.06,-0.51 -2.15,-0.27 -3.6,-1.51 -3.89,-3.31zm-12.46 -11.02c-0.19,-0.16 -0.41,-0.26 -0.63,-0.35 -11.1,-10 -21.11,-22.89 -24.48,-33.65 0.89,0.32 1.79,0.59 2.65,0.85l0.85 0.26c1.19,0.36 2.54,0.75 3.99,1.14 6.36,12.51 14.42,23.69 24.76,33.1 0,1.16 0.04,2.37 0.12,3.69 -2.92,-1.69 -4.89,-3.08 -7.26,-5.04zm-46.86 70.41c-2.89,-5.62 -6.62,-10.04 -10.99,-13.15 11.83,-16.92 42.49,-38.57 60.13,-49.34 0.81,0.64 1.61,1.27 2.41,1.86 -13.75,9.6 -40.6,36.1 -51.55,60.63zm-36.72 -17.06c19.31,-25.02 63.24,-44.3 81.38,-49.12 0.41,0.37 0.83,0.7 1.25,1.05 -23.15,12.6 -49.28,28.6 -69.13,47.07 -4.32,-0.62 -8.86,-0.3 -13.5,1zm91.45 -61.19c-0.13,0.76 -0.2,1.55 -0.29,2.32 -6.75,-7.11 -11.91,-15.03 -15.39,-23.81 0.64,0.14 1.3,0.28 1.96,0.42 0.08,0.02 0.16,0.04 0.24,0.05 2.25,0.47 4.54,0.91 6.84,1.3 0.02,0.01 0.03,0.01 0.05,0.01 0.38,0.06 0.77,0.14 1.15,0.2 0.39,5.78 2.44,13.03 5.47,19.22 -0.01,0.1 -0.02,0.19 -0.03,0.29zm38.82 2.32c-0.1,-0.77 -0.17,-1.56 -0.29,-2.32 -0.02,-0.1 -0.03,-0.19 -0.04,-0.29 3.03,-6.19 5.08,-13.44 5.47,-19.22 0.39,-0.06 0.77,-0.14 1.16,-0.2 0.01,0 0.03,0 0.04,-0.01 2.3,-0.39 4.59,-0.83 6.84,-1.3 0.08,-0.01 0.16,-0.03 0.25,-0.05 0.65,-0.14 1.3,-0.28 1.95,-0.42 -3.48,8.78 -8.64,16.7 -15.38,23.81zm-72.93 -34.3c0,-2.42 0.08,-4.94 0.34,-7.47 36.28,8.81 68.85,9.19 106.05,-0.15 0.26,2.58 0.35,5.16 0.35,7.62 0,0.12 -0.11,0.27 -0.27,0.42 -29.13,10.23 -76.75,9.87 -106.2,0 -0.15,-0.15 -0.27,-0.3 -0.27,-0.42zm5.41 -22.4c0.42,-0.49 2.96,-1.24 4.48,-0.87 2.2,0.53 15.78,2.92 41.8,3.69 25.3,0.74 42.96,-3.16 45.17,-3.69 1.52,-0.37 4.05,0.38 4.48,0.87 1.44,1.95 2.48,4.12 3.27,6.37 -34.52,7.8 -67.07,8.47 -102.47,-0.02 0.79,-2.25 1.82,-4.4 3.27,-6.35zm166.43 119.02c-16.4,-27.64 -63.59,-49.58 -85.24,-56.11 12.73,-12.11 23.61,-27.65 24.6,-39.9 0.02,-0.15 0.01,-0.3 -0.01,-0.45 0.01,-0.05 0.02,-0.1 0.02,-0.16 0,-8.21 -0.75,-17.6 -6.32,-25.11 -1.74,-2.25 -6.33,-3.18 -9.09,-2.51 -2.2,0.53 -22.93,4.07 -44.11,3.59 -23.65,-0.53 -38.55,-3.06 -40.75,-3.59 -2.76,-0.67 -7.34,0.26 -9.09,2.51 -5.57,7.51 -6.32,16.9 -6.32,25.11 0,0.06 0.02,0.11 0.02,0.16 -0.02,0.15 -0.03,0.3 -0.01,0.45 0.99,12.25 11.87,27.79 24.6,39.9 -21.65,6.53 -68.84,28.47 -85.24,56.11 -0.5,0.84 -0.39,1.92 0.27,2.65 0.66,0.72 1.72,0.93 2.61,0.51 8.23,-3.9 16.23,-4.51 23.12,-1.76 7.15,2.85 12.85,9.32 16.5,18.72 0.34,0.86 1.16,1.43 2.08,1.43l0.03 0c0.94,-0.01 1.76,-0.61 2.08,-1.48 9.23,-25.74 39.37,-55.25 52.94,-64.14 0.94,3.23 3.77,5.57 7.49,6.05 3.35,0.44 6.77,0.69 10.25,0.76l0 0.03c0.05,0 0.1,0 0.15,0 0.31,0 0.63,-0.01 0.95,-0.01 0.32,0 0.64,0.01 0.96,0.01 0.05,0 0.1,0 0.15,0l0 -0.03c3.47,-0.07 6.9,-0.32 10.24,-0.76 3.73,-0.48 6.55,-2.82 7.49,-6.05 13.58,8.89 43.71,38.4 52.94,64.14 0.32,0.87 1.15,1.47 2.08,1.48l0.03 0c0.92,0 1.74,-0.57 2.08,-1.43 3.65,-9.4 9.35,-15.87 16.5,-18.72 6.9,-2.75 14.89,-2.14 23.12,1.76 0.89,0.42 1.95,0.21 2.61,-0.51 0.66,-0.73 0.77,-1.81 0.27,-2.65z"/>
  </g>
 </g>
</svg>
